<?xml version="1.0" standalone="no"?>
<!DOCTYPE svg PUBLIC "-//W3C//DTD SVG 1.1//EN" "http://www.w3.org/Graphics/SVG/1.1/DTD/svg11.dtd" >
<svg xmlns="http://www.w3.org/2000/svg">
<metadata></metadata>
<defs>
<font id="macleans_bodyregular" horiz-adv-x="1024" >
<font-face units-per-em="2048" ascent="1638" descent="-410" />
<missing-glyph horiz-adv-x="407" />
<glyph unicode="&#xfb01;" horiz-adv-x="1058" d="M43 0v57q92 7 117.5 33.5t25.5 112.5v614h-141v43l141 51v29q0 255 119 401q129 158 359 158q122 0 188 -52.5t66 -115.5q0 -54 -32.5 -88.5t-86.5 -34.5q-50 0 -76 31.5t-31 75.5l-10 90q-27 20 -72 20q-74 0 -128 -32.5t-79 -81.5q-47 -87 -47 -269v-141h383 q64 0 150 43l18 -6q-2 -162 -2 -215v-520q0 -84 28.5 -111t115.5 -35v-57q-41 0 -114 5t-112 5t-109.5 -5t-109.5 -5v57q82 9 107.5 35.5t25.5 110.5v522q0 54 -19.5 73t-74.5 19h-287v-614q0 -83 33.5 -109t136.5 -37v-57q-51 0 -122.5 5t-120.5 5q-50 0 -122.5 -5 t-117.5 -5z" />
<glyph unicode="&#xfb02;" horiz-adv-x="1095" d="M43 0v57q92 7 117.5 33.5t25.5 112.5v614h-141v43l141 51v23q0 143 26.5 230t82.5 161q56 75 139 124.5t180 49.5q62 0 111.5 -12.5t68.5 -25.5l19 -13q91 58 105 68l18 -13q-8 -92 -8 -399v-901q0 -85 26 -111.5t115 -34.5v-57q-30 0 -102 5t-121 5q-50 0 -125 -5 t-103 -5v57q89 9 115.5 35t26.5 111v614h-400v-614q0 -84 36.5 -111t144.5 -35v-57q-51 0 -128 5t-126 5t-123 -5t-121 -5zM360 901h400v346q0 87 -39 133.5t-117 46.5q-143 0 -201 -120q-43 -86 -43 -260v-146z" />
<glyph unicode="&#xfb03;" horiz-adv-x="1622" d="M41 0v53q93 9 119 34t26 110v618h-141v45l141 53q3 245 117 390q58 70 140.5 115.5t181.5 45.5q97 0 141.5 -43t44.5 -98q0 -45 -31.5 -77t-74.5 -32q-38 0 -63 27t-30 62l-10 69q-8 19 -51 19t-81 -32.5t-62 -84.5q-43 -92 -43 -268v-103h346l28 10v25q0 257 117 403 q58 73 152 117.5t217 44.5q122 0 192 -54.5t70 -117.5q0 -55 -33.5 -89t-89.5 -34q-96 0 -115 133l-10 72q-21 27 -72 27q-72 0 -124.5 -36.5t-79.5 -92.5q-45 -87 -45 -267v-141h366q44 0 94 15.5t74 27.5l18 -8v-739q0 -84 27.5 -110t114.5 -34v-55q-38 0 -112 5t-114 5 t-112 -5t-111 -5v53q79 9 104 35.5t25 110.5v524q0 55 -18 73.5t-74 18.5h-282v-618q0 -44 7.5 -69t29.5 -40.5t49.5 -21.5t80.5 -11v-55q-51 0 -123.5 5t-121.5 5q-50 0 -117 -5t-113 -5v53q79 9 104 34.5t25 109.5v618h-374v-618q0 -83 32.5 -108.5t130.5 -33.5v-55 q-51 0 -120.5 5t-118.5 5q-50 0 -126.5 -5t-121.5 -5z" />
<glyph unicode="&#xfb04;" horiz-adv-x="1658" d="M41 0v53q93 9 119 34t26 110v618h-141v45l141 53q3 245 117 390q58 70 140.5 115.5t181.5 45.5q97 0 141.5 -43t44.5 -98q0 -45 -31.5 -77t-74.5 -32q-38 0 -63 27t-30 62l-10 69q-8 19 -51 19t-81 -32.5t-62 -84.5q-43 -92 -43 -268v-103h346l28 10v25q0 143 29.5 236.5 t87.5 166.5q57 72 144.5 117t187.5 45q62 0 108 -13.5t61 -26.5l15 -13l109 70l20 -13q-12 -138 -12 -391v-917q0 -84 27.5 -110t117.5 -34v-55q-30 0 -105 5t-124 5t-124 -5t-105 -5v53q86 9 110.5 35t24.5 111v616h-393v-618q0 -82 37 -108t143 -34v-55q-52 0 -130 5 t-126 5q-50 0 -118 -5t-114 -5v53q81 9 105 34.5t24 109.5v618h-374v-618q0 -83 32.5 -108.5t130.5 -33.5v-55q-51 0 -120.5 5t-118.5 5q-50 0 -126.5 -5t-121.5 -5zM918 903h393v375q0 160 -146 160q-70 0 -122.5 -35.5t-79.5 -87.5q-45 -91 -45 -266v-146z" />
<glyph horiz-adv-x="2048" />
<glyph horiz-adv-x="2048" />
<glyph unicode="&#xd;" horiz-adv-x="2048" />
<glyph unicode=" "  horiz-adv-x="407" />
<glyph unicode="&#x09;" horiz-adv-x="407" />
<glyph unicode="&#xa0;" horiz-adv-x="407" />
<glyph unicode="!" horiz-adv-x="534" d="M145 96q0 52 35.5 87.5t87.5 35.5q51 0 87 -35.5t36 -87.5t-36 -88.5t-87 -36.5q-52 0 -87.5 36t-35.5 89zM156 1307q0 47 31 76.5t81 29.5q48 0 79.5 -29.5t31.5 -76.5q0 -34 -21.5 -224t-27.5 -266l-33 -436h-57l-33 436q-6 78 -28.5 267t-22.5 223z" />
<glyph unicode="&#x22;" horiz-adv-x="917" d="M174 1337q-8 48 19.5 82.5t74.5 34.5t74.5 -34.5t19.5 -82.5l-71 -477h-45zM553 1337q-8 48 19.5 82.5t76.5 34.5q47 0 74.5 -34.5t19.5 -82.5l-73 -477h-43z" />
<glyph unicode="#" horiz-adv-x="1032" d="M45 602l12 74h234l47 332h-236l13 73h231l39 277h84l-39 -277h242l37 277h84l-37 -277h231l-12 -73h-230l-47 -332h232l-12 -74h-230l-55 -407h-84l55 407h-239l-56 -407h-84l56 407h-236zM375 676h239l48 332h-240z" />
<glyph unicode="$" horiz-adv-x="931" d="M104 371l60 8q30 -131 88 -207q34 -43 79 -72t89 -32v448l-82 45q-105 62 -143 98q-78 78 -78 197q0 69 35 126.5t84 92.5q40 30 90.5 48.5t93.5 21.5v94h80v-92q89 0 163 -24.5t111 -51.5l-8 -231l-51 -4q-14 107 -70 174q-55 66 -145 71v-403l102 -55 q44 -24 85.5 -55.5t64.5 -57.5q65 -79 65 -186q0 -143 -110 -236q-39 -34 -96 -58t-111 -30v-133h-80v129q-79 1 -159.5 28t-133.5 64zM272 915q0 -134 148 -202v366q-65 -13 -106.5 -56t-41.5 -108zM500 70q20 0 50.5 14t51.5 35q57 61 57 137q0 79 -43 135q-38 50 -116 90 v-411z" />
<glyph unicode="%" horiz-adv-x="1419" d="M90 852q0 141 74 238.5t192 97.5q120 0 196.5 -93t76.5 -231q0 -141 -75.5 -238.5t-193.5 -97.5q-120 0 -195 92.5t-75 231.5zM236 856q0 -122 30.5 -196t93.5 -74q61 0 92 80.5t31 203.5q0 121 -32 196t-95 75q-41 0 -69 -40.5t-39.5 -102.5t-11.5 -142zM360 0l603 1167 h96l-602 -1167h-97zM791 301q0 140 74.5 238t193.5 98q120 0 195 -93t75 -233t-74.5 -237t-193.5 -97t-194.5 93t-75.5 231zM936 303q0 -121 31 -195.5t94 -74.5q62 0 92.5 80.5t30.5 205.5q0 121 -31 196t-94 75q-62 0 -92.5 -81t-30.5 -206z" />
<glyph unicode="&#x26;" horiz-adv-x="1466" d="M82 338q0 243 338 414q-30 23 -47 37t-46.5 44.5t-45 58t-28.5 69.5t-13 88q0 118 94 190t227 72q130 0 209.5 -60.5t79.5 -165.5q0 -158 -242 -282q99 -65 187 -151.5t141 -178.5l80 117q94 134 94 182q0 20 -13 34t-34 20t-36.5 8t-29.5 2v57q36 0 107.5 -4t107.5 -4 t105.5 4t105.5 4v-57q-96 -7 -146 -39t-114 -119l-194 -264q9 -14 42 -81t58 -106q79 -125 162 -125q39 0 73 13.5t56.5 35t34.5 37t20 29.5l45 -31q-17 -32 -39.5 -63.5t-59.5 -69.5t-88.5 -61t-109.5 -23q-47 0 -87.5 18.5t-67 42t-55 68.5t-42.5 73.5t-38 82.5 q-2 3 -3 5.5t-2 4.5q-3 -3 -5.5 -6.5t-5.5 -8l-5 -7.5q-35 -47 -57.5 -75t-65 -70.5t-80 -66.5t-90.5 -42.5t-108 -18.5q-155 0 -262 107.5t-107 261.5zM254 403q0 -117 76 -200.5t188 -83.5q44 0 84.5 13.5t68.5 29.5t62 49.5t51 53.5t50 61q-54 104 -166 218.5t-209 172.5 q-87 -50 -146 -129t-59 -185zM391 1085q0 -72 51 -136.5t127 -110.5q61 32 105.5 91.5t44.5 135.5q0 85 -43.5 135.5t-118.5 50.5t-120.5 -45t-45.5 -121z" />
<glyph unicode="'" horiz-adv-x="514" d="M164 1337q-8 48 19.5 82.5t74.5 34.5t74.5 -34.5t19.5 -82.5l-73 -477h-43z" />
<glyph unicode="(" horiz-adv-x="620" d="M49 573q0 159 41 316t99.5 273.5t130.5 218t128 159.5t97 88l33 -31q-361 -412 -361 -1024t361 -1024l-31 -30q-42 30 -98 88t-128 159.5t-131 217.5t-100 273t-41 316z" />
<glyph unicode=")" horiz-adv-x="620" d="M43 -451q360 411 360 1024t-360 1024l31 31q34 -24 78.5 -70t102.5 -116.5t112.5 -164t101 -200t74.5 -238.5t28 -266q0 -159 -40.5 -316t-99.5 -273t-131 -217.5t-127.5 -159.5t-96.5 -88z" />
<glyph unicode="*" horiz-adv-x="917" d="M109 1198q10 31 37 46t55 -1l245 -141l-57 278q-6 30 16 52t54 22t54.5 -22t16.5 -52l-59 -278l248 141q26 15 53.5 0t36.5 -45q11 -30 -2.5 -57.5t-44.5 -30.5l-283 -31l211 -192q22 -21 17 -51t-31 -50q-25 -19 -55.5 -13.5t-42.5 32.5l-119 260l-117 -260 q-12 -27 -43.5 -32.5t-56.5 13.5q-26 19 -30.5 49.5t17.5 51.5l211 192l-282 31q-30 3 -44 30.5t-5 57.5z" />
<glyph unicode="+" d="M51 420v88h414v416h94v-416h414v-88h-414v-416h-94v416h-414z" />
<glyph unicode="," horiz-adv-x="514" d="M129 -279q98 47 137 107t39 111q0 71 -72 71h-57q-4 4 -10.5 11t-17.5 31.5t-11 51.5q0 55 39.5 91t95.5 36q65 0 112.5 -50t47.5 -158q0 -115 -81.5 -214.5t-200.5 -138.5z" />
<glyph unicode="-" horiz-adv-x="565" d="M59 401l23 138l422 43l-21 -138z" />
<glyph unicode="." horiz-adv-x="516" d="M137 100q0 52 36 88.5t87 36.5q52 0 87.5 -36t35.5 -89t-35.5 -89t-87.5 -36q-51 0 -87 36.5t-36 88.5z" />
<glyph unicode="/" horiz-adv-x="614" d="M29 -98l452 1532h107l-455 -1532h-104z" />
<glyph unicode="0" horiz-adv-x="1038" d="M78 553q0 131 36 244.5t96.5 191t141 122t168.5 44.5q87 0 167.5 -41t141.5 -115t97.5 -185t36.5 -241q0 -131 -36.5 -244.5t-97.5 -190.5t-141.5 -121t-167.5 -44q-89 0 -169 41t-140.5 114.5t-96.5 183.5t-36 241zM274 571q0 -258 68.5 -390t181.5 -132t177.5 128 t64.5 386t-69 390t-183 132q-112 0 -176 -128t-64 -386z" />
<glyph unicode="1" horiz-adv-x="892" d="M109 958q119 39 252 104.5t178 100.5l41 -22q-17 -167 -17 -326v-530q0 -78 6.5 -114.5t24.5 -59.5q33 -38 215 -54v-57q-55 0 -167 5t-165 5t-162.5 -5t-164.5 -5v57q178 17 208 54q19 22 25 58t6 116v633q0 18 -6.5 25t-20.5 7q-8 0 -19 -2t-22.5 -4.5t-15.5 -3.5 l-180 -39z" />
<glyph unicode="2" horiz-adv-x="1001" d="M74 53l40 39q39 38 81.5 80.5t94.5 95.5t97.5 102t71.5 81q75 92 112 171t37 166q0 98 -59.5 168t-161.5 70q-51 0 -96 -17.5t-77.5 -47.5t-53 -57t-37.5 -58l-47 20q42 125 140.5 208t240.5 83q149 0 242.5 -86.5t93.5 -222.5q0 -197 -265 -445l-264 -247h459 q77 0 125 45q11 9 28.5 31.5t29.5 40.5l12 18l40 -21l-102 -290h-29q0 20 -26 20h-707z" />
<glyph unicode="3" horiz-adv-x="931" d="M111 934q41 92 130 157.5t210 65.5q132 0 213 -69t81 -189q0 -178 -270 -321q135 -3 227.5 -92t92.5 -230q0 -206 -213 -360q-70 -50 -188.5 -96t-256.5 -58l-10 57q206 38 326 121q163 120 163 281q0 178 -159 235q-59 23 -121 23q-55 0 -105 -10l-14 49l186 84 q72 41 119 106.5t47 147.5q0 86 -53 140t-137 54q-133 0 -234 -125z" />
<glyph unicode="4" horiz-adv-x="1038" d="M33 186v113l622 854h133v-840h185v-127h-185v-387h-174v387h-581zM143 313h471v648z" />
<glyph unicode="5" horiz-adv-x="890" d="M53 -201q238 38 375 146t137 272q0 211 -194 301q-97 45 -234 57l-22 37l149 506l445 17q62 3 90 67l37 -18l-56 -162q-10 -26 -20.5 -37t-34.5 -12l-424 -15l-70 -225q202 -27 328 -119q160 -118 160 -321q0 -163 -103 -293q-80 -100 -218.5 -168.5t-334.5 -89.5z" />
<glyph unicode="6" horiz-adv-x="1019" d="M86 467q0 202 81.5 369.5t215.5 289.5q208 190 524 260l13 -49q-268 -84 -431 -286q-79 -96 -136.5 -219t-71.5 -250q40 72 122 123t185 51q149 0 250.5 -103.5t101.5 -261.5q0 -81 -28.5 -155.5t-81.5 -133.5t-135.5 -94t-182.5 -35q-204 0 -315 136t-111 358zM285 360 q0 -145 64 -228t167 -83q105 0 173.5 83.5t68.5 227.5t-64.5 227t-167.5 83q-104 0 -172.5 -83.5t-68.5 -226.5z" />
<glyph unicode="7" horiz-adv-x="1030" d="M55 858l101 295h32q0 -27 35 -27h746l20 -28l-698 -1331l-94 53l610 1147h-520q-74 0 -117 -37q-24 -21 -68 -88l-4 -6z" />
<glyph unicode="8" horiz-adv-x="997" d="M98 307q0 59 22 112.5t54 90t73.5 67.5t73.5 48t62 28l-16 11q-35 22 -50 32t-47 33t-47 39t-37 43.5t-32.5 54.5t-18.5 63t-8 77q0 97 55.5 172t139.5 112t178 37q72 0 136.5 -17.5t117.5 -51.5t84.5 -91.5t31.5 -130.5q0 -39 -12 -75t-29 -63t-45 -53.5t-49 -42.5 t-51.5 -33.5t-43.5 -23.5t-34 -16q-2 -1 -5.5 -2t-4.5 -2q52 -30 86.5 -52t79.5 -59.5t72 -74.5t46 -89.5t19 -111.5q0 -154 -115.5 -259.5t-287.5 -105.5q-176 0 -287 90.5t-111 243.5zM260 319q0 -116 63.5 -193t172.5 -77t170 68t61 176q0 56 -22 104.5t-66.5 89.5 t-92.5 73t-118 69q-71 -48 -119.5 -128t-48.5 -182zM291 1047q0 -54 20.5 -99t62 -81.5t80 -61t97.5 -55.5q73 50 114.5 117.5t41.5 168.5q0 105 -60 165.5t-147 60.5t-148 -57t-61 -158z" />
<glyph unicode="9" horiz-adv-x="1017" d="M80 739q0 80 28.5 154t80.5 133t134.5 94t182.5 35q136 0 233.5 -64t145 -173.5t47.5 -253.5q0 -387 -295 -654q-116 -106 -254 -172t-270 -94l-15 47q132 41 243 117.5t191 171.5q81 96 138.5 219.5t68.5 247.5q-42 -71 -121.5 -120.5t-187.5 -49.5q-150 0 -250 102 t-100 260zM264 774q0 -141 63 -224t167 -83q106 0 174.5 84.5t68.5 224.5q0 141 -65 225t-170 84q-104 0 -171 -85t-67 -226z" />
<glyph unicode=":" horiz-adv-x="516" d="M145 100q0 52 36 88.5t87 36.5q52 0 87.5 -36t35.5 -89t-35.5 -89t-87.5 -36q-51 0 -87 36.5t-36 88.5zM147 780q0 51 35.5 87t87.5 36q51 0 87 -36t36 -87q0 -52 -36 -88.5t-87 -36.5q-52 0 -87.5 36t-35.5 89z" />
<glyph unicode=";" horiz-adv-x="516" d="M129 -279q98 47 137 107t39 111q0 71 -72 71h-57q-4 4 -10.5 11t-17.5 31.5t-11 51.5q0 55 39.5 91t95.5 36q65 0 112.5 -50t47.5 -158q0 -115 -81.5 -214.5t-200.5 -138.5zM147 780q0 51 35.5 87t87.5 36q51 0 87 -36t36 -87q0 -52 -36 -88.5t-87 -36.5q-52 0 -87.5 36 t-35.5 89z" />
<glyph unicode="&#x3c;" d="M51 418v90l922 436v-110l-793 -371l793 -371v-110z" />
<glyph unicode="=" d="M51 258v94h922v-94h-922zM51 573v95h922v-95h-922z" />
<glyph unicode="&#x3e;" d="M51 -18v110l793 371l-793 371v110l922 -436v-90z" />
<glyph unicode="?" horiz-adv-x="737" d="M117 96q0 52 36 87.5t87 35.5q52 0 87 -35t35 -88t-35 -89t-87 -36q-51 0 -87 36.5t-36 88.5zM127 1415h47q2 -12 10 -21.5t23 -17t26 -12t32.5 -11.5t29.5 -10q41 -16 64 -26t72 -42t91 -73q137 -137 137 -332q0 -160 -102 -235q-64 -47 -203 -62l-55 -6q-12 -1 -15 -12 t-5 -37v-6l-11 -131h-57l-21 299q-3 50 43 53l60 2q61 2 111.5 14.5t92.5 36t65.5 64t23.5 94.5q0 53 -20 92t-59 62t-85 36t-107 19l-92 10q-46 4 -63.5 24.5t-20.5 67.5z" />
<glyph unicode="@" horiz-adv-x="1980" d="M154 430q0 187 73.5 352t197.5 280.5t291.5 182t350.5 66.5q169 0 314 -49t247.5 -135.5t160.5 -211t58 -270.5q0 -143 -53.5 -265t-140 -201.5t-194 -124t-218.5 -44.5q-79 0 -120.5 20t-41.5 72q0 94 119 383q-37 -60 -102 -141.5t-131 -150.5q-177 -185 -289 -185 q-123 0 -123 185q0 111 72.5 252.5t183.5 261.5q212 225 412 225q45 0 75.5 -13t38.5 -25l8 -13l46 71h81l-210 -673q-27 -89 -27 -121q0 -30 15 -43t48 -13q106 0 217 66q28 17 54.5 37.5t64 62.5t65 91.5t47 125t19.5 160.5q0 140 -61.5 257.5t-171.5 197.5 q-181 129 -420 129q-178 0 -326.5 -63t-255.5 -177q-109 -115 -168 -269.5t-59 -330.5q0 -169 59 -306.5t161 -226.5t237 -136.5t289 -47.5q111 0 214.5 21t169.5 48t124 61t78.5 51t31.5 28l35 -45q-9 -10 -30.5 -29.5t-81.5 -57.5t-133 -69t-190.5 -55t-246.5 -24 q-178 0 -336 58.5t-275 164t-185 262.5t-68 344zM711 250q0 -98 63 -98q92 0 260 194q97 113 178 262q50 94 50 150q0 36 -23.5 60t-75.5 24q-141 0 -289 -187q-80 -102 -121.5 -213t-41.5 -192z" />
<glyph unicode="A" horiz-adv-x="1261" d="M-20 0v59q63 13 106 47q34 27 61 97l332 901q57 157 70 227q121 11 172 21q12 -63 76 -248l305 -889q22 -65 61 -104q42 -37 113 -52v-59q-46 0 -125.5 5t-126.5 5t-135.5 -5t-134.5 -5v59q95 7 131 43q20 20 20 54q0 36 -20 98l-78 246h-455l-86 -246q-20 -62 -20 -98 q0 -34 20 -54q36 -36 131 -43v-59q-41 0 -111.5 5t-111.5 5t-97 -5t-97 -5zM383 590h395l-192 592z" />
<glyph unicode="B" horiz-adv-x="1179" d="M43 0v59q76 11 103.5 20t50.5 32q22 22 29 58t7 116v768q0 85 -5.5 120.5t-24.5 59.5q-31 38 -150 45v57q46 0 133.5 -4t137.5 -4t121 4t116 4q67 0 129 -8.5t123.5 -30t106 -54.5t72.5 -85.5t28 -118.5q0 -65 -27.5 -119t-66 -87t-92 -58t-94.5 -36.5t-83 -18.5 q55 -4 111.5 -17.5t118.5 -42t109.5 -68t78.5 -101.5t31 -136q0 -75 -31 -136.5t-80 -101t-112.5 -66.5t-126 -38.5t-123.5 -11.5q-52 0 -156.5 5t-150.5 5q-47 0 -141.5 -5t-141.5 -5zM418 211q0 -81 24.5 -111t108.5 -30q79 0 138.5 14t107.5 46.5t73 92.5t25 146 q0 83 -38.5 145t-102.5 96.5t-134 52t-147 19.5l-55 2v-473zM418 748l123 8q280 19 280 258q0 254 -340 254q-37 0 -50 -13.5t-13 -50.5v-456z" />
<glyph unicode="C" horiz-adv-x="1302" d="M80 676q0 128 37 239.5t102.5 193.5t152 141t187.5 88.5t207 29.5q77 0 150 -11t121.5 -27t86 -32t54.5 -27l18 -11l12 -310l-55 -10q-72 350 -395 350q-92 0 -173 -39t-144.5 -113t-100.5 -193t-37 -269t35.5 -269.5t97.5 -194.5t142 -114t172 -39q87 0 161.5 28 t128.5 78t92 108.5t64 129.5l61 -22l-90 -287q-5 -5 -15.5 -13.5t-47.5 -29.5t-80.5 -37t-115 -29.5t-150.5 -13.5q-313 0 -495.5 188.5t-182.5 516.5z" />
<glyph unicode="D" horiz-adv-x="1423" d="M43 0v59q76 11 103.5 20t50.5 32q22 22 29 58t7 116v768q0 86 -5.5 121t-24.5 59q-31 38 -150 45v57q47 0 136.5 -4t136.5 -4q42 0 120.5 4t149.5 4q261 0 420 -86q45 -24 86 -55t86.5 -81.5t78.5 -109.5t54.5 -143t21.5 -178q0 -364 -268 -553q-183 -129 -457 -129 q-58 0 -152.5 5t-139.5 5q-47 0 -141.5 -5t-141.5 -5zM418 209q0 -68 25.5 -95.5t91.5 -27.5h55q247 0 368 121q71 71 117.5 190t46.5 289q0 319 -186 469q-72 58 -161 80t-204 22h-47q-73 0 -89.5 -18t-16.5 -92v-938z" />
<glyph unicode="E" horiz-adv-x="1165" d="M43 0v59q71 9 101 19t53 33q22 22 29 58.5t7 115.5v768q0 85 -5.5 120.5t-24.5 59.5q-31 38 -150 45v57q47 0 136 -4t135 -4l704 10l6 -305l-49 -6q-18 52 -29 80t-27 57.5t-30.5 42t-39 24t-54 14.5t-72.5 3h-233q-57 0 -69.5 -14t-12.5 -74v-432l200 6q67 1 100.5 10 t53.5 29q43 43 49 143h58q0 -41 -5.5 -118t-5.5 -115t5.5 -115t5.5 -118h-58q-6 110 -49 153q-19 20 -53 29t-101 10l-200 6v-414q0 -84 24.5 -109.5t108.5 -25.5h229q73 0 130 35.5t94 90.5t73 141l60 -19l-84 -346q-120 0 -408.5 5t-320.5 5q-47 0 -141 -5t-140 -5z" />
<glyph unicode="F" horiz-adv-x="1044" d="M43 0v59q71 9 101 19t53 33q22 22 29 58.5t7 115.5v768q0 85 -5.5 120.5t-24.5 59.5q-31 38 -150 45v57q47 0 136 -4t135 -4l686 10l4 -305l-49 -8q-18 54 -27.5 79.5t-25.5 57t-30 43.5t-38.5 24.5t-53.5 15.5t-73 3h-217q-58 0 -70 -13.5t-12 -74.5v-452l196 6 q67 1 101.5 10t54.5 29q41 44 49 143h58q0 -41 -5.5 -116.5t-5.5 -116.5t5.5 -117t5.5 -117h-58q-10 115 -49 154q-20 20 -54.5 29t-101.5 10l-196 4v-340q0 -83 5.5 -117.5t27.5 -56.5q23 -23 55.5 -33t109.5 -19v-59q-46 0 -142 5t-146 5t-145 -5t-140 -5z" />
<glyph unicode="G" horiz-adv-x="1431" d="M84 676q0 138 41.5 254.5t110 195.5t157.5 135t183 81.5t188 25.5q83 0 160.5 -10.5t128 -25.5t89.5 -30t57 -26l18 -10l6 -308l-54 -8q-17 77 -45.5 135.5t-73.5 106t-114.5 73t-159.5 25.5q-96 0 -180 -38.5t-149 -112.5t-102.5 -193t-37.5 -270t36.5 -270.5t99.5 -194 t145 -113.5t176 -39q291 0 291 146v184q0 49 -5.5 75.5t-25.5 43.5q-34 31 -147 37v59q46 0 134 -5t134 -5t123 5t123 5v-59h4q-90 -9 -123 -37q-20 -19 -25.5 -48.5t-5.5 -86.5v-178q0 -35 35 -35v-37q-228 -152 -531 -152q-133 0 -250.5 44t-210 128t-146.5 221.5 t-54 311.5z" />
<glyph unicode="H" horiz-adv-x="1533" d="M43 0v59q76 11 103.5 20t50.5 32q22 22 29 58.5t7 115.5v768q0 85 -5.5 120.5t-24.5 59.5q-31 38 -150 45v57q46 0 136.5 -4t136.5 -4t134 4t134 4v-57q-117 -7 -148 -45q-19 -23 -23.5 -57.5t-4.5 -122.5v-299h700v299q0 83 -6 119.5t-25 60.5q-31 38 -149 45v57 q46 0 136 -4t136 -4t134.5 4t134.5 4v-57q-117 -7 -148 -45q-19 -23 -23.5 -57.5t-4.5 -122.5v-768q0 -82 5.5 -117t26.5 -57q23 -23 55.5 -33.5t100.5 -18.5v-59q-47 0 -139.5 5t-139.5 5t-142.5 -5t-141.5 -5v59q76 11 103 20t50 32q22 22 29.5 59t7.5 115v374h-700v-374 q0 -81 6 -116.5t27 -57.5q23 -23 55 -33.5t100 -18.5v-59q-47 0 -139 5t-139 5t-143 -5t-142 -5z" />
<glyph unicode="I" horiz-adv-x="649" d="M43 0v59q76 11 103.5 20t50.5 32q22 22 29 58.5t7 115.5v768q0 85 -5.5 120.5t-24.5 59.5q-31 38 -150 45v57q46 0 136.5 -4t136.5 -4t134 4t134 4v-57q-117 -7 -148 -45q-19 -23 -23.5 -57.5t-4.5 -122.5v-768q0 -81 6 -116.5t27 -57.5q23 -23 55 -33.5t100 -18.5v-59 q-47 0 -139 5t-139 5t-143 -5t-142 -5z" />
<glyph unicode="J" horiz-adv-x="616" d="M-164 -289q0 34 23.5 60t60.5 26q16 0 29.5 -10.5t29.5 -30t27 -28.5q35 -27 72 -27q155 0 155 408v944q0 85 -5.5 120.5t-24.5 59.5q-31 38 -150 45v57q46 0 135.5 -4t135.5 -4t134.5 4t135.5 4v-57q-117 -7 -148 -45q-19 -23 -23.5 -57.5t-4.5 -122.5v-740 q0 -366 -121 -522q-69 -89 -155 -137.5t-167 -48.5q-71 0 -105 33t-34 73z" />
<glyph unicode="K" horiz-adv-x="1261" d="M43 0v59q76 11 103.5 20t50.5 32q22 22 29 57.5t7 116.5v770q0 86 -5.5 120t-24.5 58q-31 38 -150 45v57q46 0 135 -4t136 -4t135.5 4t134.5 4v-57q-63 -3 -96.5 -13t-51.5 -32q-19 -23 -23.5 -57t-4.5 -121v-416l407 446q33 36 49.5 55t34 45t17.5 40q0 25 -23 37.5 t-74 15.5v57q47 0 115 -4t100 -4t97 4t110 4v-57q-77 -5 -143 -43q-47 -29 -117 -102l-282 -293l368 -639q49 -80 92 -105q47 -27 115 -37v-59q-26 0 -89 4t-83 4q-19 0 -57 -2t-68 -4t-31 -2l-383 700l-155 -168v-247q0 -83 5.5 -117.5t27.5 -56.5q24 -24 54.5 -34.5 t98.5 -17.5v-59q-47 0 -140 5t-140 5t-141 -5t-140 -5z" />
<glyph unicode="L" horiz-adv-x="1134" d="M43 0v59q71 9 101 19t53 33q22 22 29 58.5t7 115.5v768q0 85 -5.5 120.5t-24.5 59.5q-31 38 -150 45v57q46 0 137 -4t138 -4t139 4t139 4v-57q-70 -3 -106 -12.5t-54 -32.5q-19 -23 -23.5 -57.5t-4.5 -122.5v-809q0 -89 16.5 -116.5t87.5 -27.5h234q106 0 170 67.5 t125 213.5l55 -19l-86 -362q-120 0 -393 5t-305 5q-47 0 -140 -5t-139 -5z" />
<glyph unicode="M" horiz-adv-x="1771" d="M27 0v59q100 11 137 51t47 158l72 848q1 11 1 21q0 51 -26 80q-36 46 -162 61v57q36 0 98.5 -4t98.5 -4l199 8q8 -61 38 -137l369 -899l379 920q11 27 19 56t10 45l2 15q126 -8 198 -8q36 0 98.5 4t98.5 4v-57q-59 -5 -91.5 -15.5t-50.5 -37.5q-16 -27 -20 -62 q-2 -22 -3 -58q0 -20 1 -44l26 -819q2 -59 10.5 -92t33.5 -52t55 -26t90 -13v-59q-46 0 -134 5t-134 5t-134 -5t-134 -5v59q42 4 66 7.5t45.5 12.5t30.5 19t15 32q7 22 8 46v28.5v37.5l-18 915l-389 -924q-21 -50 -43 -111t-34 -96l-11 -36h-62q-39 125 -90 246l-364 878 l-56 -846q-2 -23 -2 -43q-1 -85 27 -117q34 -40 156 -49v-59q-46 0 -118 5t-118 5t-117.5 -5t-117.5 -5z" />
<glyph unicode="N" horiz-adv-x="1460" d="M43 0v59q64 8 98 19t56 33q15 15 21.5 39.5t7.5 47t1 85.5l6 819q0 87 -36 123t-144 53v57q31 0 89 -4t89 -4l175 8q19 -43 110 -166l653 -884l-10 766q-1 64 -2.5 88t-8.5 50.5t-22 41.5q-37 35 -151 47v57q44 0 118.5 -4t118.5 -4t119 4t119 4v-57q-61 -6 -94.5 -16 t-55.5 -31q-15 -15 -21.5 -41.5t-7.5 -50.5t-1 -88l-6 -693v-42q0 -64 2 -134q3 -92 6 -142l4 -50l-78 -31q-4 4 -25 28t-65 78t-84 109l-700 946l14 -837q1 -62 2.5 -85t8.5 -47.5t22 -39.5q23 -23 54 -33t101 -19v-59q-46 0 -120.5 5t-120.5 5t-120.5 -5t-121.5 -5z" />
<glyph unicode="O" horiz-adv-x="1474" d="M80 655q0 158 51.5 292t139 225.5t206 142.5t250.5 51q133 0 253.5 -47.5t213 -133.5t147 -216.5t54.5 -286.5q0 -158 -51.5 -292.5t-139 -226t-206 -143t-250.5 -51.5q-133 0 -253.5 47.5t-213 133.5t-147 217t-54.5 288zM303 700q0 -129 27.5 -237.5t73 -182.5 t105.5 -126t124 -75.5t129 -23.5q66 0 124 17.5t111 60.5t91 108.5t60.5 167.5t22.5 232q0 129 -27.5 237.5t-73.5 182.5t-106 126t-124 75.5t-129 23.5q-66 0 -123.5 -17.5t-111 -60.5t-91 -108.5t-60 -167.5t-22.5 -232z" />
<glyph unicode="P" horiz-adv-x="1105" d="M43 0v59q76 11 103.5 20t50.5 32q22 22 29 58.5t7 115.5v768q0 85 -5.5 120.5t-24.5 59.5q-31 38 -150 45v57q47 0 135 -4t134 -4q38 0 128 5t179 5q66 0 128 -13t117.5 -41.5t97 -69t65.5 -99.5t24 -129q0 -110 -36.5 -184.5t-104.5 -134.5q-108 -95 -273 -95 q-38 0 -74.5 8.5t-54 16.5t-26.5 14l20 56q41 -21 109 -21q98 0 164.5 82t66.5 236q0 155 -87.5 227t-244.5 72q-71 0 -86 -15q-16 -16 -16 -88v-874q0 -80 6 -116t27 -58q23 -23 54.5 -33t108.5 -19v-59q-52 0 -144 5t-140 5q-50 0 -145 -5t-142 -5z" />
<glyph unicode="Q" horiz-adv-x="1474" d="M80 655q0 158 51.5 292t139 225.5t206 142.5t250.5 51q133 0 253.5 -47.5t213 -133.5t147 -216.5t54.5 -286.5q0 -116 -28 -219t-74 -179.5t-107.5 -137t-127.5 -97t-134 -53.5q114 -115 149 -146q125 -112 344 -145l-8 -59q-191 0 -337.5 45.5t-262.5 161.5l-117 116 q-94 9 -181.5 41t-166.5 90t-137.5 136t-92.5 186t-34 233zM303 700q0 -129 27.5 -237.5t73 -182.5t105.5 -126t124 -75.5t129 -23.5q66 0 124 17.5t111 60.5t91 108.5t60.5 167.5t22.5 232q0 129 -27.5 237.5t-73.5 182.5t-106 126t-124 75.5t-129 23.5q-66 0 -123.5 -17.5 t-111 -60.5t-91 -108.5t-60 -167.5t-22.5 -232z" />
<glyph unicode="R" horiz-adv-x="1220" d="M43 0v59q69 7 100 18t54 34q22 22 29 57.5t7 116.5v768q0 87 -5.5 121.5t-24.5 58.5q-31 38 -150 45v57q46 0 127.5 -4t134.5 -4q51 0 149 5t148 5q130 0 228 -37q23 -9 44.5 -20.5t52 -35t53 -52t38.5 -73t16 -95.5q0 -68 -27.5 -128t-74 -102.5t-103 -72.5t-118.5 -45 q35 -5 68 -34.5t53 -61.5t51 -88l164 -295q41 -71 86 -99q50 -32 121 -39v-59q-26 0 -86 4t-86 4l-154 -8l-283 526q-30 58 -49.5 78t-60.5 23l-127 6v-348q0 -83 5.5 -117.5t27.5 -56.5q23 -23 52.5 -34t90.5 -18v-59q-46 0 -134.5 5t-135.5 5t-141 -5t-140 -5zM416 698 l110 7q154 8 232 78.5t78 220.5q0 74 -26.5 126.5t-72.5 80t-97.5 39.5t-113.5 12h-61q-30 0 -39.5 -11t-9.5 -41v-512z" />
<glyph unicode="S" horiz-adv-x="923" d="M68 412l69 8q23 -111 61 -188.5t81 -114.5t80.5 -51.5t74.5 -14.5q114 0 178 64q66 70 66 176q0 84 -39 145q-38 62 -135 123l-158 96q-119 72 -168 123q-92 97 -92 242q0 167 143 266q110 76 291 76q90 0 172 -27.5t117 -54.5l-10 -279l-56 -8q-34 293 -266 293 q-96 0 -158.5 -57t-62.5 -144q0 -82 41.5 -135t140.5 -114l158 -97q139 -85 188 -149q72 -95 72 -230q0 -163 -125 -278q-56 -53 -137.5 -83t-167.5 -30q-209 0 -332 123z" />
<glyph unicode="T" horiz-adv-x="1163" d="M4 1008l43 381h39q0 -16 7 -27.5t16.5 -17.5t27 -9t29 -3.5t31.5 -0.5q270 -4 391 -4q53 0 148 1.5t170 3t81 1.5q31 0 49 1.5t37 6.5t30 17t17 31h39l-33 -392h-55q-4 134 -43 187.5t-127 56.5l-223 8v-964q0 -80 6 -116t27 -58q23 -23 56.5 -34t109.5 -18v-59 q-52 0 -145.5 5t-145.5 5t-145.5 -5t-145.5 -5v59q77 9 109 19t55 33q22 22 28.5 58t6.5 116v964l-228 -8q-74 -2 -119.5 -56.5t-85.5 -189.5z" />
<glyph unicode="U" horiz-adv-x="1441" d="M33 1278v57q48 0 137.5 -4t132.5 -4q44 0 133.5 4t136.5 4v-57q-60 -3 -94 -13t-53 -32q-18 -22 -23.5 -58.5t-5.5 -119.5v-457q0 -245 41 -332q13 -29 36 -55.5t60.5 -53.5t97.5 -43t134 -16q242 0 328 168q41 84 41 332v457q0 81 -6.5 118t-26.5 60q-18 23 -49 32.5 t-92 12.5v57q39 0 112.5 -4t112.5 -4t115 4t116 4v-57q-56 -3 -90 -12.5t-53 -32.5t-24 -58t-5 -120v-492q0 -209 -37 -313q-100 -281 -479 -281q-76 0 -141.5 12t-111 30t-83.5 45t-61.5 51.5t-42 54t-26.5 48.5t-15 40q-35 99 -35 313v492q0 82 -6 119t-25 59 q-31 39 -149 45z" />
<glyph unicode="V" horiz-adv-x="1239" d="M-18 1278v57q46 0 122 -4t123 -4t137 4t136 4v-57q-127 -8 -146 -57q-4 -11 -4 -28q0 -46 29 -138l287 -877l292 879q28 85 28 130q0 19 -5 32q-23 52 -143 59v57q46 0 115.5 -4t115.5 -4t98.5 4t98.5 4v-57q-35 -3 -67 -15.5t-48 -27.5q-44 -40 -86 -164l-293 -823 q-58 -165 -72 -228q-68 -12 -157 -40q-9 60 -82 268l-305 876q-23 72 -64 107q-41 41 -110 47z" />
<glyph unicode="W" horiz-adv-x="1828" d="M-18 1278v57q32 0 97 -4t97 -4t106 4t105 4v-57q-61 -8 -76 -33q-10 -12 -10 -35q0 -40 29 -116l336 -910l190 455l-199 496q-32 77 -57 102q-34 34 -84 41v57q32 0 95 -4t94 -4t98 4t98 4v-57q-52 -5 -65 -31q-6 -13 -6 -31q0 -33 20 -83l115 -302l116 304q22 55 22 86 q0 15 -5 26q-14 27 -68 31v57q30 0 85 -4t85 -4t75 4t75 4v-57q-70 -5 -101 -31l-8 -8t-8 -9.5t-6.5 -9t-6.5 -10.5l-6 -10.5t-6.5 -13t-5.5 -12.5t-6.5 -15t-7.5 -16l-180 -420l206 -539l351 908q27 69 27 110q0 21 -7 35q-9 19 -31.5 28.5t-72.5 12.5v57q31 0 95 -4t95 -4 t85 4t83 4v-57h-8q-28 -3 -43 -9t-33 -22q-34 -27 -82 -143l-377 -940q-12 -30 -25.5 -68.5t-20.5 -61.5l-7 -24l-137 -30q-31 94 -64 180l-145 372l-141 -360l-58 -162l-137 -30q-30 98 -63 184l-373 958q-38 92 -64 115q-28 28 -79 41z" />
<glyph unicode="X" horiz-adv-x="1286" d="M-23 0v59q77 13 144 58q32 22 55 45t57 67l324 426l-303 451q-74 112 -119 141q-37 24 -112 31v57q47 0 128.5 -4t127.5 -4t140 4t140 4v-57q-143 -11 -143 -61q0 -39 61 -130l203 -307l211 301q72 102 72 136q0 49 -144 61v57q46 0 120 -4t120 -4t106.5 4t106.5 4v-57 q-86 -6 -129 -41q-33 -26 -113 -131l-305 -387l328 -490q32 -49 52.5 -71.5t45.5 -40.5q58 -49 152 -58v-59q-47 0 -137.5 5t-137.5 5t-147.5 -5t-147.5 -5v59q132 12 144 62q5 21 -6 48t-44 79l-229 344l-236 -350q-54 -78 -54 -112q0 -4 1 -7q12 -52 146 -64v-59 q-46 0 -125 5t-125 5t-114 -5t-114 -5z" />
<glyph unicode="Y" horiz-adv-x="1140" d="M-25 1278v57q46 0 118 -4t116 -4q43 0 130.5 4t135.5 4v-57q-143 -9 -143 -61q0 -18 9.5 -43t29 -61.5t20.5 -37.5l215 -407l240 417q53 90 53 132q0 28 -31.5 41.5t-103.5 19.5v57q35 0 102 -4t107 -4t97.5 4t94.5 4v-57q-76 0 -123 -51q-18 -19 -88 -131l-305 -504 v-307q0 -83 5.5 -117.5t27.5 -56.5q23 -23 56.5 -34t109.5 -18v-59q-45 0 -138 5t-151 5t-153 -5t-140 -5v59q77 9 109 19t55 33q22 22 28.5 58t6.5 116v286l-297 543q-52 93 -82 121q-44 40 -111 43z" />
<glyph unicode="Z" horiz-adv-x="1159" d="M31 53l823 1196h-293q-8 0 -49 0.5t-54 0t-47.5 -2t-51.5 -5.5l-42.5 -10t-44 -16t-34.5 -24q-34 -29 -65 -81.5t-45 -90.5l-15 -37l-60 16l88 387h39q0 -29 22.5 -43t80.5 -14h792l17 -41l-828 -1202l387 6q197 3 273 64q70 59 147 229l57 -18l-98 -398q-24 14 -55 21.5 t-52 8.5t-59 1h-813z" />
<glyph unicode="[" horiz-adv-x="620" d="M145 -451v2048h424v-73h-286v-1901h286v-74h-424z" />
<glyph unicode="\" horiz-adv-x="608" d="M29 1434h104l455 -1532h-107z" />
<glyph unicode="]" horiz-adv-x="620" d="M51 -377h287v1901h-287v73h424v-2048h-424v74z" />
<glyph unicode="^" d="M229 913l226 428h114l226 -428h-117l-166 336l-166 -336h-117z" />
<glyph unicode="_" d="M-10 -207h1044v-106h-1044v106z" />
<glyph unicode="`" horiz-adv-x="731" d="M195 1346q0 24 19 46.5t52 22.5q22 0 40.5 -12.5t28.5 -27t30 -46.5l172 -274l-27 -23l-281 242q-34 31 -34 72z" />
<glyph unicode="a" horiz-adv-x="903" d="M80 197q0 91 39 140.5t114 74.5l342 112v111q0 107 -52 157t-124 50q-32 0 -60 -7t-40 -13l-12 -7l-11 -92q-6 -56 -30.5 -83.5t-61.5 -27.5t-63.5 27t-26.5 78q0 50 42 84t122 63q162 62 219 80q127 0 197.5 -58t70.5 -175v-504q0 -105 72 -105q40 0 82 33l25 -43 q-117 -117 -211 -117q-64 0 -99.5 44.5t-35.5 119.5q-135 -135 -242 -164q-113 0 -184.5 63t-71.5 159zM258 231q0 -54 42 -94.5t99 -40.5q34 0 78 28t71 56l27 27v256l-200 -76q-70 -26 -93.5 -61.5t-23.5 -94.5z" />
<glyph unicode="b" horiz-adv-x="1050" d="M18 1368v49q55 13 148.5 44.5t146.5 54.5l21 -13q-12 -113 -12 -401v-314q6 6 17 16.5t45 37.5t67 47.5t79 37.5t86 17q173 0 279 -135q86 -114 86 -317q0 -104 -34.5 -199.5t-90.5 -159.5q-139 -158 -330 -158q-164 0 -276 82l-80 -63l-31 14q13 199 13 404v805 q0 74 -28 105t-106 46zM322 289q0 -110 49 -171t151 -61q114 0 192.5 96t78.5 285q0 186 -76 282.5t-180 96.5q-36 0 -71 -10.5t-60 -26t-44.5 -31t-29.5 -25.5l-10 -11v-424z" />
<glyph unicode="c" horiz-adv-x="819" d="M70 430q0 240 163 393q127 119 299 119q66 0 115.5 -17t77 -44.5t40.5 -57.5t13 -61q0 -57 -29 -87t-77 -30q-43 0 -66.5 34.5t-23.5 78.5l8 82q-1 4 -5.5 9t-30 14t-65.5 9q-37 0 -77 -20t-79.5 -61t-65 -118.5t-25.5 -178.5q0 -82 16.5 -147t43.5 -105t63 -66.5 t72 -36.5t75 -10q150 0 246 96l30 -37l-131 -149q-9 -7 -26.5 -17.5t-73.5 -28.5t-115 -18q-160 0 -270 127q-102 122 -102 328z" />
<glyph unicode="d" horiz-adv-x="1069" d="M70 430q0 105 34 199t91 159q137 156 329 156q62 0 113 -15t71 -31l21 -15v334q0 74 -28 105t-105 46v49q55 13 148.5 44.5t146.5 54.5l20 -13q-12 -92 -12 -399v-871q0 -61 21 -81.5t67 -20.5q33 0 53 2l7 -59q-114 -27 -295 -94l-17 10l-6 141q-6 -6 -17 -16.5 t-45 -37.5t-67.5 -47.5t-79.5 -37.5t-86 -17q-173 0 -278 138q-86 114 -86 317zM258 481q0 -186 76 -281.5t182 -95.5q35 0 70 11t60 26t45 30.5t30 26.5l10 11v422q0 111 -50 172t-153 61q-114 0 -192 -97t-78 -286z" />
<glyph unicode="e" horiz-adv-x="882" d="M70 444q0 133 57 248t157 183.5t218 68.5q87 0 151 -30t100 -83t53 -116t17 -137q0 -50 -47 -50l-534 9q-2 -25 -2 -50q0 -165 75.5 -261.5t208.5 -96.5q50 0 97 11.5t78 27.5t55 32.5t36 27.5l11 12l30 -37l-120 -154q-10 -8 -29 -20.5t-84.5 -33t-138.5 -20.5 q-183 0 -286 131t-103 338zM248 592l346 12q24 1 32.5 11.5t8.5 35.5q0 107 -40 165t-120 58q-87 0 -150.5 -72t-76.5 -210z" />
<glyph unicode="f" horiz-adv-x="595" d="M43 0v57q92 7 117.5 33.5t25.5 112.5v614h-141v43l141 51v19q0 142 28 232.5t81 162.5q55 74 138.5 124t180.5 50q94 0 140.5 -41.5t46.5 -95.5q0 -46 -29.5 -75.5t-73.5 -29.5q-41 0 -62 28t-24 67l-6 55q-8 20 -61 20q-42 0 -80 -33t-64 -87q-43 -89 -43 -271v-135h263 v-84h-263v-614q0 -84 37 -111t148 -35v-57q-51 0 -129 5t-127 5q-50 0 -124.5 -5t-119.5 -5z" />
<glyph unicode="g" horiz-adv-x="956" d="M49 -219q45 44 123 101.5t117 76.5q-28 2 -56.5 11.5t-61.5 29.5t-55 60.5t-24 95.5l213 159q-40 15 -73.5 39t-64 60.5t-48 90.5t-17.5 120q0 136 101 227.5t248 91.5q62 0 114 -12.5t70.5 -22.5t28.5 -18l286 18v-104l-190 8q7 -8 16.5 -23.5t26 -68.5t16.5 -113 q0 -136 -100 -228.5t-248 -92.5q-26 0 -53.5 2.5t-41.5 4.5l-14 3q-88 -80 -108 -109q0 -41 34 -58q30 -15 87 -15h20l236 8h26q50 0 91 -6q51 -8 95.5 -31.5t68.5 -70.5t24 -117q0 -95 -73.5 -183t-192.5 -141t-248 -53q-94 0 -168.5 24t-117 63t-64.5 83.5t-23 89.5z M203 -199q0 -27 15.5 -56t47 -57.5t88 -46.5t129.5 -18q148 0 235 59.5t87 149.5q0 34 -10.5 58.5t-27 38t-44 21.5t-54 10t-63.5 1l-241 -4q-108 -76 -162 -156zM283 633q0 -125 47 -199t135 -74q90 0 132 60.5t42 183.5q0 126 -47 199.5t-137 73.5t-131 -60t-41 -184z" />
<glyph unicode="h" horiz-adv-x="1087" d="M27 0v57q89 8 115 34.5t26 111.5v1014q0 74 -28 105t-105 46v49q54 13 146 44t149 55l18 -13q-10 -94 -10 -399v-313q71 49 166.5 97.5t163.5 55.5q146 0 208 -72t62 -229v-440q0 -84 27 -110.5t114 -35.5v-57q-43 0 -114 5t-109 5q-39 0 -108 -5t-107 -5v57 q81 8 105 34.5t24 111.5v377q0 114 -45 173.5t-150 59.5q-56 0 -124 -32t-111 -68v-510q0 -84 24.5 -110.5t104.5 -35.5v-57q-28 0 -96.5 5t-118.5 5t-124.5 -5t-102.5 -5z" />
<glyph unicode="i" horiz-adv-x="503" d="M41 0v57q86 6 114.5 33.5t28.5 112.5v446q0 75 -23.5 102.5t-101.5 51.5v47q67 16 148.5 43t128.5 51l16 -6v-213v-522q0 -84 27.5 -111t114.5 -35v-57q-40 0 -115 5t-111 5t-111.5 -5t-115.5 -5zM137 1274q0 54 35 89.5t88 35.5q51 0 86 -35.5t35 -89.5t-35 -89.5 t-86 -35.5q-53 0 -88 35.5t-35 89.5z" />
<glyph unicode="j" horiz-adv-x="477" d="M-18 -465q109 109 157 268q46 149 46 401q0 29 -1 60l-6 395q-1 74 -22 97t-101 47v47q175 42 275 94l18 -6v-213l4 -453v-23q0 -284 -71 -435q-37 -80 -107.5 -163t-161.5 -153zM133 1274q0 54 35 89.5t86 35.5q53 0 88 -35.5t35 -89.5t-35 -89.5t-88 -35.5 q-51 0 -86 35.5t-35 89.5z" />
<glyph unicode="k" horiz-adv-x="989" d="M27 0v57q89 8 116 34.5t27 111.5v1014q0 74 -28.5 105t-106.5 46v49q55 13 148.5 44.5t146.5 54.5l20 -13q-12 -113 -12 -399v-563l72 4q32 3 61 35l143 161q54 57 54 76q0 32 -88 37v57q32 0 99 -4t99 -4t96.5 4t94.5 4v-57q-67 0 -127 -27q-51 -23 -99 -73l-170 -183 l263 -401q38 -58 82 -82q34 -21 90 -31v-57q-22 0 -78.5 4t-77.5 4l-117 -8l-270 453q-9 15 -17.5 20.5t-23.5 5.5l-84 4v-280q0 -85 27 -111.5t116 -34.5v-57q-28 0 -102.5 5t-124.5 5q-49 0 -124 -5t-105 -5z" />
<glyph unicode="l" horiz-adv-x="507" d="M27 0v57q89 8 116 34.5t27 111.5v1014q0 74 -28.5 105t-106.5 46v49q55 13 148.5 44.5t146.5 54.5l20 -13q-12 -113 -12 -399v-901q0 -85 27.5 -111.5t117.5 -34.5v-57q-28 0 -102.5 5t-124.5 5t-125.5 -5t-103.5 -5z" />
<glyph unicode="m" horiz-adv-x="1660" d="M41 0v57q86 6 114.5 33.5t28.5 112.5v446q0 75 -23.5 102.5t-101.5 51.5v47q67 16 148.5 43t128.5 51l16 -6l-2 -158q2 1 43.5 29.5t66 43.5t66.5 38.5t79 36.5t69 16q105 0 164 -41t82 -133q65 54 161.5 110.5t169.5 63.5q139 0 199.5 -72.5t60.5 -228.5v-440 q0 -84 27.5 -110.5t114.5 -35.5v-57q-40 0 -111 5t-110 5t-109 -5t-109 -5v57q81 8 106.5 34.5t25.5 111.5v377q0 115 -39.5 174t-137.5 59q-103 0 -237 -111q2 -43 2 -84v-415q0 -85 24.5 -111.5t104.5 -34.5v-57q-39 0 -106.5 5t-106.5 5t-108.5 -5t-108.5 -5v57 q81 8 106 34.5t25 111.5v377q0 115 -39 174t-137 59q-102 0 -236 -111v-499q0 -85 24.5 -111.5t104.5 -34.5v-57q-39 0 -106.5 5t-106.5 5t-113.5 -5t-113.5 -5z" />
<glyph unicode="n" horiz-adv-x="1101" d="M41 0v57q86 6 114.5 33.5t28.5 112.5v446q0 75 -23.5 102.5t-101.5 51.5v47q67 16 148.5 43t128.5 51l16 -6l-2 -147q73 50 169.5 98t164.5 55q146 0 207 -72t61 -229v-440q0 -84 28 -110.5t114 -35.5v-57q-39 0 -112 5t-112 5t-108.5 -5t-108.5 -5v57q81 8 106 34.5 t25 111.5v377q0 114 -45.5 173.5t-150.5 59.5q-56 0 -124.5 -32.5t-111.5 -67.5v-510q0 -84 24.5 -110.5t104.5 -35.5v-57q-39 0 -106.5 5t-106.5 5t-113.5 -5t-113.5 -5z" />
<glyph unicode="o" horiz-adv-x="1030" d="M70 451q0 215 127 354t313 139q91 0 173 -33.5t144 -93.5t98 -150.5t36 -197.5q0 -215 -127.5 -354.5t-313.5 -139.5q-187 0 -318.5 132t-131.5 344zM264 481q0 -194 70.5 -309t191.5 -115q240 0 240 385q0 194 -70 309t-190 115q-242 0 -242 -385z" />
<glyph unicode="p" horiz-adv-x="1067" d="M25 -420q92 8 118.5 33.5t26.5 110.5v925q0 75 -23.5 102.5t-101.5 51.5v47q67 16 148.5 43t128.5 51l16 -6v-150q6 6 17 16.5t45 37.5t68 47.5t80 37.5t87 17q174 0 276 -135q86 -114 86 -317q0 -104 -34.5 -199.5t-90.5 -159.5q-139 -158 -329 -158q-62 0 -113.5 15 t-72.5 30l-21 15v-311q0 -83 29.5 -109.5t123.5 -34.5v-59q-35 0 -110 5t-123 5t-122 -5t-109 -5v59zM336 289q0 -109 50 -170.5t151 -61.5q54 0 101.5 22.5t86.5 67.5t61.5 120t22.5 171t-22.5 171t-60 119t-82 66.5t-93.5 22.5q-35 0 -70 -10.5t-60 -26t-45 -31t-30 -25.5 l-10 -11v-424z" />
<glyph unicode="q" horiz-adv-x="1034" d="M70 430q0 105 34 199t91 159q137 156 329 156q66 0 125 -19t83 -35t38 -30l117 84l31 -16q-19 -209 -19 -414v-790q0 -83 29.5 -109.5t122.5 -34.5v-59q-35 0 -110.5 5t-123.5 5t-122 -5t-109 -5v59q92 7 117.5 33t25.5 111v407q-6 -6 -17 -16.5t-45 -37.5t-67.5 -47.5 t-79.5 -37.5t-86 -17q-173 0 -278 138q-86 114 -86 317zM258 481q0 -186 76 -281.5t182 -95.5q35 0 70 11t60 26t45 30.5t30 26.5l10 11v422q0 111 -50 172t-153 61q-114 0 -192 -97t-78 -286z" />
<glyph unicode="r" horiz-adv-x="735" d="M41 0v57q86 6 114.5 33.5t28.5 112.5v446q0 75 -23.5 102.5t-101.5 51.5v47q67 16 148.5 43t128.5 51l18 -10l-2 -197q55 102 122.5 153.5t127.5 51.5q56 0 88.5 -32t32.5 -87q0 -52 -31.5 -85t-68.5 -33q-35 0 -59.5 18t-31.5 51l-8 41q-38 0 -94 -58.5t-82 -117.5v-436 q0 -88 29 -113.5t143 -32.5v-57q-43 0 -123 5t-118 5q-39 0 -119 -5t-119 -5z" />
<glyph unicode="s" horiz-adv-x="720" d="M66 303l55 10q21 -103 63 -168q66 -100 150 -100q78 0 123 43t45 121q0 25 -7 47.5t-15.5 38.5t-28 34t-31 27.5t-40 25.5t-39 21t-42.5 21q-51 25 -98 55q-121 86 -121 221q0 112 87 179t210 67q69 0 130 -14t87 -28l27 -13v-209l-50 -6q-9 60 -41 110q-28 47 -70 70 t-79 23q-26 0 -50 -5.5t-49.5 -19t-41 -42t-15.5 -69.5q0 -27 11 -51t26.5 -41t41.5 -34.5t46 -27.5t51.5 -26t47.5 -24q54 -26 94 -58q114 -83 114 -219q0 -123 -93.5 -206t-215.5 -83q-73 0 -134.5 18.5t-88 35.5t-43.5 34z" />
<glyph unicode="t" horiz-adv-x="641" d="M49 809v43q79 36 156.5 112.5t116.5 153.5h38l-6 -215h267v-94h-269l-6 -533v-6q0 -88 30 -128q30 -42 93 -42q36 0 71.5 13t53.5 26l18 13l29 -48q-12 -11 -32.5 -28.5t-80.5 -53t-116 -49.5q-58 0 -101 15.5t-69 40.5t-41 63t-21 76q-5 33 -4 73v15l6 553h-133z" />
<glyph unicode="u" horiz-adv-x="1067" d="M45 834v57q39 0 134 13.5t143 29.5l16 -8l-6 -510q0 -155 35 -213q54 -86 165 -86q38 0 90.5 25.5t85.5 51.5l33 25v475q0 71 -24 102t-90 38v57q39 0 132.5 13.5t141.5 29.5l17 -8q-7 -269 -7 -512v-181q0 -57 18 -80t50 -20t76 6l6 -65q-160 -43 -299 -94l-14 10 l-5 151q-4 -3 -30.5 -23.5t-44 -34t-49 -34.5t-55.5 -34.5t-52.5 -25t-50.5 -14.5q-164 0 -236 107q-33 47 -48 108t-15 158v346q0 71 -24.5 102t-92.5 38z" />
<glyph unicode="v" horiz-adv-x="907" d="M-16 854v57q37 0 104.5 -4t104.5 -4t114.5 4t114.5 4v-57q-73 -7 -102 -21.5t-29 -37.5q-1 -14 7 -39.5t21.5 -60.5t16.5 -42l170 -458l184 487q35 90 35 117q-1 23 -27.5 35t-89.5 20v57q32 0 90 -4t90 -4q31 0 79 4t81 4v-57q-52 -7 -88 -43q-6 -6 -12 -14t-12.5 -19 t-10.5 -19t-11 -24t-10.5 -23.5t-12 -28t-11.5 -28.5l-278 -663l-86 -12l-287 722q-32 82 -61 111q-37 32 -84 41z" />
<glyph unicode="w" horiz-adv-x="1314" d="M12 854v57q36 0 84 -4t84 -4t96.5 4t96.5 4v-57q-4 0 -15.5 -1.5t-15.5 -2t-12.5 -2t-12.5 -3t-10 -4.5t-9 -7t-5 -9q-4 -8 -4 -24q0 -28 14 -78l156 -522l194 491l-20 74q-14 51 -41 72q-8 6 -15 9t-20 4.5t-16 2.5v57q31 0 83 -4t83 -4t85 4t85 4v-57q-65 -6 -76 -29 q-5 -10 -5 -27q0 -31 15 -85l135 -512l166 491q25 77 25 112q0 14 -4 21q-17 29 -89 29v57q21 0 76.5 -4t79.5 -4t70.5 4t66.5 4v-57h9q-45 -3 -62 -18q-33 -31 -74 -146l-215 -571l-41 -117l-98 -22q-29 106 -35 131l-135 471l-182 -469l-41 -111l-101 -22q-30 106 -38 131 l-209 651q-14 45 -41 69q-26 23 -62 23z" />
<glyph unicode="x" horiz-adv-x="884" d="M-27 0v57q43 11 88 41q31 21 89 88l215 258l-164 246q-77 114 -103 133q-35 26 -90 31v57q32 0 90 -4t90 -4t108 4t107 4v-57q-84 -5 -88 -35q-5 -20 50 -102l108 -162l121 162q32 44 43.5 63t11.5 33q0 34 -86 41v57q31 0 90 -4t90 -4q30 0 79.5 4t80.5 4v-57 q-47 -3 -86 -20q-41 -20 -96 -86l-211 -250l215 -318q42 -64 80 -88q51 -28 100 -35v-57q-3 0 -82 5t-123 5q-37 0 -113 -5t-112 -5v57q98 5 98 47q0 16 -36 74l-138 209l-145 -192q-49 -62 -49 -93q0 -40 98 -45v-57q-31 0 -90 5t-90 5t-75.5 -5t-74.5 -5z" />
<glyph unicode="y" horiz-adv-x="925" d="M-6 854v57q37 0 103 -4t102 -4t114 4t115 4v-57q-75 -7 -102 -20t-29 -37q0 -13 4.5 -28.5t15 -41.5t13.5 -35l184 -491l184 491q4 9 11.5 27t11.5 28.5t7.5 24.5t2.5 25q0 23 -26.5 36.5t-90.5 20.5v57q35 0 98.5 -4t88.5 -4t73 4t84 4v-57q-50 -4 -81 -35 q-15 -15 -30 -42t-23 -45t-29 -66l-373 -887q-56 -132 -109 -196t-120 -64q-68 0 -105 33t-37 83q0 46 26.5 75.5t65.5 29.5q23 0 40.5 -9t23.5 -17l6 -9v-33q0 -26 23 -26q5 0 10.5 2t15.5 9t20 19.5t23.5 36.5t26.5 56l90 227l-283 706q-31 83 -61 113q-29 29 -84 39z" />
<glyph unicode="z" horiz-adv-x="841" d="M39 33l528 809l-276 -6q-51 -1 -79.5 -12.5t-56 -49.5t-57.5 -117l-49 13l53 282h37q0 -23 15 -32t49 -9h559l12 -26l-524 -809l291 4q26 0 49 8t40 16.5t35.5 29t28.5 32.5t27 41.5t22.5 40.5l22.5 45l47 -14q-41 -154 -72 -299q-74 20 -274 20h-418z" />
<glyph unicode="{" horiz-adv-x="620" d="M61 563v19q111 31 151 109t24 200l-52 379q-10 83 19 152.5t94 113.5q55 39 128.5 55.5t123.5 16.5l10 -52q-99 -6 -164 -45q-86 -60 -61 -245l41 -303q11 -83 -6.5 -155t-76.5 -135t-157 -93v-11q74 -24 126.5 -65.5t78.5 -94t34.5 -108.5t0.5 -117l-41 -301 q-27 -191 61 -245q55 -38 164 -48l-10 -51q-50 0 -123.5 16.5t-128.5 55.5q-65 44 -94 113.5t-19 152.5l52 379q33 252 -175 307z" />
<glyph unicode="|" horiz-adv-x="421" d="M162 -512v2048h98v-2048h-98z" />
<glyph unicode="}" horiz-adv-x="620" d="M61 -410q99 6 164 45q87 61 62 246l-41 303q-11 83 6.5 155t76 135t156.5 93v11q-98 31 -156.5 94.5t-76 135.5t-6.5 155l41 301q27 191 -62 245q-53 37 -164 47l11 52q50 0 123.5 -16.5t128.5 -55.5q64 -44 93.5 -113.5t18.5 -152.5l-51 -379q-16 -122 23.5 -200 t150.5 -107v-21q-111 -29 -150.5 -107t-23.5 -200l51 -379q11 -83 -18.5 -152.5t-93.5 -113.5q-55 -39 -128.5 -55.5t-123.5 -16.5z" />
<glyph unicode="~" d="M51 348q0 120 66 188t170 68q60 0 120.5 -27t134 -76t103.5 -65q58 -30 92 -30q133 0 133 178l103 -21q0 -120 -66 -188t-170 -68q-60 0 -120.5 27t-134 76t-103.5 65q-60 31 -92 31q-133 0 -133 -178z" />
<glyph unicode="&#xa1;" horiz-adv-x="534" d="M145 821q0 51 35.5 87t87.5 36q51 0 87 -36t36 -87q0 -52 -36 -88.5t-87 -36.5q-52 0 -87.5 36t-35.5 89zM156 -389q0 33 21.5 222.5t27.5 264.5l35 439h57l33 -439q6 -75 27.5 -264.5t21.5 -222.5q0 -49 -31.5 -79t-79.5 -30q-50 0 -81 30t-31 79z" />
<glyph unicode="&#xa2;" horiz-adv-x="931" d="M143 569q0 93 36 174.5t93 135.5q99 96 240 106l41 162h72l-41 -162q82 -3 141 -41q72 -45 72 -115q0 -40 -23.5 -67t-64.5 -27q-74 0 -74 94v62q-29 35 -66 35l-143 -568q34 -28 125 -28q109 0 209 90l26 -29l-114 -135q-8 -6 -23 -15.5t-64 -25.5t-100 -16 q-66 0 -94 14l-57 -213h-72l62 238q-63 29 -111 96q-70 100 -70 235zM297 629q0 -71 15 -123t26.5 -67.5t28.5 -32.5l131 522q-85 -11 -143 -96.5t-58 -202.5z" />
<glyph unicode="&#xa3;" horiz-adv-x="931" d="M39 84q0 33 28 57.5t66 34.5q53 16 160 12q55 51 55 150q0 36 -16 83t-32 76l-15 29h-195v74h160q-78 134 -78 250q0 70 34.5 130.5t80.5 96.5q99 76 225 76q72 0 127 -18t83 -45.5t41 -54.5t13 -52q0 -45 -27.5 -73.5t-72.5 -28.5q-69 0 -82 92l-16 106q-25 17 -66 17 q-69 0 -111 -37q-26 -21 -44.5 -65.5t-18.5 -100.5q0 -103 70 -227l36 -66h273v-74h-236q21 -44 21 -116q0 -57 -44 -123.5t-114 -104.5q46 -5 145 -37q79 -24 173 -24q63 0 121 24.5t87 53.5l27 -29q-55 -68 -98 -109q-26 -26 -46.5 -42t-58 -31t-80.5 -15q-17 0 -33 3 t-28.5 6t-26.5 10.5t-22 12t-21 14.5t-17.5 14t-17 15t-14.5 13t-25.5 24t-33.5 29t-30 17t-38 10q-23 0 -42.5 -10t-28 -18t-23.5 -25l-7 -10q-7 -9 -9.5 -11.5t-10.5 -11.5t-12.5 -13t-12.5 -10.5t-14.5 -9.5t-15 -5.5t-16.5 -2.5q-76 0 -76 70z" />
<glyph unicode="&#xa4;" horiz-adv-x="931" d="M47 426v74h92q-2 34 -2 65l2 66h-92v71h100q16 109 59 196.5t102.5 141.5t128.5 82.5t141 28.5q52 0 98 -7.5t74 -18.5t48.5 -22t29.5 -19l8 -7l10 -231l-49 -8q-31 128 -84 190t-138 62q-94 0 -158.5 -92t-80.5 -296h344v-71h-350q-2 -35 -2 -66l2 -65h350v-74h-346 q11 -184 76.5 -284.5t152.5 -100.5q186 0 258 258l53 -12l-47 -232q-3 -3 -9.5 -8.5t-31 -20t-53 -25t-77 -19.5t-103.5 -9q-77 0 -142.5 25t-120.5 77t-92.5 141.5t-52.5 209.5h-98z" />
<glyph unicode="&#xa5;" horiz-adv-x="931" d="M4 1073v51q41 0 98.5 -4t98.5 -4t109 4t110 4v-51q-105 -13 -105 -49q-1 -8 0.5 -16.5t6 -18.5t7.5 -16.5t9.5 -19t9.5 -17.5l162 -318l166 318q33 64 33 88q0 36 -105 49v51q30 0 85 -4t87 -4t76 4t74 4v-51q-43 -5 -70 -22t-63 -78l-211 -373h202v-74h-233v-133h233 v-71h-233v-107q0 -86 22 -117q16 -22 50.5 -32t93.5 -15v-51q-45 0 -125.5 4t-124.5 4t-124.5 -4t-125.5 -4v51q117 10 141 47q23 32 23 117v107h-234v71h234v133h-234v74h205l-207 369q-16 28 -36 51t-33 31q-26 16 -72 22z" />
<glyph unicode="&#xa6;" horiz-adv-x="421" d="M162 -358v716h98v-716h-98zM162 666v716h98v-716h-98z" />
<glyph unicode="&#xa7;" horiz-adv-x="1030" d="M92 -227q0 64 42 109.5t110 45.5q63 0 96 -42.5t33 -84.5q-60 -17 -60 -96q0 -53 46.5 -98t123.5 -45q84 0 138.5 52.5t54.5 145.5q0 52 -31 115t-81 127t-110 135t-120.5 150.5t-110.5 160.5t-81 177.5t-31 191.5q0 141 41 245t104 167q65 65 140 102t179 37 q70 0 129.5 -18.5t82 -34t51.5 -39.5q31 -26 56.5 -72.5t25.5 -97.5q0 -57 -34 -94t-91 -37q-53 0 -87 35.5t-34 68.5q16 12 29.5 38t13.5 54q0 56 -45 97t-117 41q-81 0 -141 -52.5t-60 -146.5q0 -51 32 -113.5t83.5 -127t114 -135.5t125 -149t114 -157.5t83.5 -172 t32 -181.5q0 -233 -115 -391q-62 -84 -157 -133.5t-199 -49.5q-94 0 -168 26t-115 60q-92 79 -92 187zM211 866q0 -68 20.5 -140.5t47.5 -128.5t73 -124t75.5 -105.5t78 -95t59.5 -71.5q94 -117 139.5 -205t45.5 -199q0 -16 -4 -40.5t-8 -40.5l-3 -17q4 5 11 14t25 39 t31.5 63.5t24.5 84.5t11 104q0 69 -20.5 141t-48.5 129t-72 120.5t-77 103.5t-77 92t-60 72q-49 61 -75.5 97.5t-59 91.5t-47 109t-14.5 113q0 17 3 42.5t6 42.5l3 16q-4 -4 -9.5 -12t-21 -36.5t-27 -61t-21 -86t-9.5 -112.5z" />
<glyph unicode="&#xa8;" horiz-adv-x="1046" d="M233 1223q0 47 32 79.5t77 32.5t77 -32.5t32 -79.5q0 -46 -32.5 -78.5t-76.5 -32.5t-76.5 32.5t-32.5 78.5zM600 1223q0 47 31.5 79.5t77.5 32.5q45 0 76.5 -32.5t31.5 -79.5q0 -46 -32 -78.5t-76 -32.5q-46 0 -77.5 32.5t-31.5 78.5z" />
<glyph unicode="&#xa9;" horiz-adv-x="1626" d="M90 692q0 196 97 362.5t263.5 263.5t362.5 97t362.5 -97t263.5 -263.5t97 -362.5t-97 -362.5t-263.5 -263.5t-362.5 -97t-362.5 97t-263.5 263.5t-97 362.5zM164 692q0 -176 87 -325.5t236.5 -236.5t325.5 -87t325.5 87t236.5 236.5t87 325.5t-87 325.5t-236.5 236.5 t-325.5 87t-325.5 -87t-236.5 -236.5t-87 -325.5zM352 696q0 138 67 245.5t176 163.5t239 56q87 0 162.5 -19.5t107.5 -39.5l33 -19l14 -215l-45 -10q-16 52 -36 91t-51.5 74t-79 53t-108.5 18q-132 0 -213 -102.5t-81 -295.5q0 -189 86 -293t208 -104q113 0 190.5 65 t115.5 181l49 -10l-47 -213q-141 -97 -305 -97q-216 0 -349 129t-133 342z" />
<glyph unicode="&#xaa;" horiz-adv-x="743" d="M104 909q0 60 35 95q14 14 154 63l108 41v59q0 62 -28 89.5t-66 27.5q-41 0 -67 -20l10 -56q0 -29 -18 -48t-48 -19q-31 0 -49 19t-18 52q0 55 92 86l160 58q87 0 129.5 -42t42.5 -118v-252q0 -84 37 -84q10 0 23.5 4t21.5 8l8 5l14 -29q-15 -18 -60 -46t-89 -28t-66 27 t-24 59q-93 -72 -150 -86q-68 0 -110 39.5t-42 95.5zM109 614v72h534v-72h-534zM244 944q0 -38 25 -58t59 -20q17 0 35.5 9t28.5 19l9 9v162l-53 -23q-70 -29 -82 -41q-22 -18 -22 -57z" />
<glyph unicode="&#xab;" horiz-adv-x="921" d="M51 461q87 86 191 210.5t174 223.5l43 -29q-120 -263 -215 -405q93 -140 215 -406l-43 -28q-70 99 -174 223.5t-191 210.5zM422 461q88 87 192.5 212.5t171.5 221.5l43 -29q-38 -87 -98.5 -204.5t-116.5 -200.5q93 -140 215 -406l-43 -28q-71 100 -174 224.5t-190 209.5z " />
<glyph unicode="&#xac;" d="M51 580v88h922v-410h-94v322h-828z" />
<glyph unicode="&#xad;" horiz-adv-x="565" d="M59 401l23 138l422 43l-21 -138z" />
<glyph unicode="&#xae;" horiz-adv-x="1280" d="M61 967q0 158 77.5 291.5t210.5 210.5t290 77q158 0 291.5 -77t211 -210.5t77.5 -291.5q0 -157 -77.5 -290t-210.5 -210.5t-290 -77.5q-119 0 -226.5 46t-185 123t-123 184t-45.5 225zM129 967q0 -138 68.5 -255.5t186 -186t255.5 -68.5q139 0 257 68.5t186.5 186 t68.5 255.5q0 212 -150 362t-362 150q-138 0 -255.5 -68.5t-186 -186.5t-68.5 -257zM338 631v43q69 12 84.5 29t15.5 79v402q0 60 -16 77t-74 25v45q28 0 72.5 -3t75.5 -3q28 0 88 3t110 3q79 0 136 -40t57 -122q0 -42 -18 -75t-46.5 -51.5t-55 -29t-52.5 -14.5 q69 -12 106 -92l66 -139q18 -40 41 -63q21 -21 61 -29v-45q-55 6 -90 6l-88 -6l-129 274q-14 31 -25 43t-30 13l-66 4v-183q0 -62 15 -79t83 -27v-45q-31 0 -78 3t-77 3t-83 -3t-83 -3zM559 1012l78 6q51 5 82 39.5t31 95.5q0 62 -33 94.5t-88 32.5h-35q-20 0 -27.5 -8 t-7.5 -31v-229z" />
<glyph unicode="&#xaf;" horiz-adv-x="563" d="M-25 1171v103h615v-103h-615z" />
<glyph unicode="&#xb0;" horiz-adv-x="890" d="M158 1057q0 118 84.5 202t203.5 84t203 -84t84 -202q0 -119 -84.5 -204t-202.5 -85t-203 85t-85 204zM254 1057q0 -80 56.5 -136.5t135.5 -56.5q78 0 134.5 57t56.5 136q0 78 -56.5 134t-134.5 56q-79 0 -135.5 -56t-56.5 -134z" />
<glyph unicode="&#xb1;" d="M51 -86h922v-88h-922v88zM51 420v88h414v416h94v-416h414v-88h-414v-416h-94v416h-414z" />
<glyph unicode="&#xb2;" horiz-adv-x="831" d="M139 702q143 137 221 232q53 65 82 120.5t29 119.5q0 68 -35.5 101.5t-91.5 33.5q-98 0 -151 -107l-33 17q28 78 89 129t157 51q103 0 161 -53t58 -142q0 -42 -15.5 -82.5t-47.5 -79.5t-53.5 -61t-59.5 -57l-173 -158h263q50 0 77 18q8 6 20.5 20.5t21.5 25.5l8 12 l30 -15l-59 -190h-16q0 8 -46 8h-411z" />
<glyph unicode="&#xb3;" horiz-adv-x="825" d="M164 729q0 31 17 48.5t48 17.5q10 0 19 -4t14.5 -9t12 -14t9 -14.5t6.5 -14.5t5 -10q25 -49 86 -49q74 0 108 59q27 46 27 111q0 93 -61 127q-43 24 -95 24l-77 -4l-9 35l132 43q10 7 21 18t26.5 41t15.5 62q0 53 -31 83t-76 30q-86 0 -139 -78l-28 14q23 59 80.5 106.5 t140.5 47.5q90 0 142 -42t52 -112q0 -103 -151 -174q95 -4 149 -56t54 -124q0 -113 -105 -197q-86 -65 -213 -65q-83 0 -131.5 31t-48.5 69z" />
<glyph unicode="&#xb4;" horiz-adv-x="675" d="M168 1055l170 274q18 28 24 36.5t19.5 24t26.5 20.5t30 5q33 0 51.5 -22.5t18.5 -46.5q0 -40 -35 -72l-278 -242z" />
<glyph unicode="&#xb5;" horiz-adv-x="1067" d="M45 834v57q39 0 133 13.5t141 29.5l19 -6q-3 -71 -4.5 -199t-1.5 -221v-92v-29q0 -126 35 -184q54 -86 165 -86q38 0 90.5 25.5t85.5 51.5l33 25v475q0 71 -24 102t-90 38v57q39 0 132.5 13.5t141.5 29.5l17 -6q-7 -182 -7 -514v-181q0 -58 19 -81.5t51 -20t74 7.5l4 -65 q-160 -43 -299 -94l-12 10l-5 151q-5 -4 -30.5 -23.5t-43 -33t-47.5 -34t-54 -34t-53 -25.5t-52 -16q-31 0 -76.5 18.5t-71.5 47.5l13 -492q-56 -18 -144 -57l-20 10q8 498 8 705q0 93 -2.5 214.5t-5.5 196.5l-2 76q-2 72 -25.5 102.5t-91.5 37.5z" />
<glyph unicode="&#xb6;" horiz-adv-x="1030" d="M92 868q0 119 37.5 211t93.5 145t132.5 87t144 45.5t137.5 11.5q92 0 174.5 -7t118.5 -15l37 -7v-57q-37 6 -70 6q-58 0 -84 -26q-22 -22 -28.5 -66t-6.5 -129v-1001q0 -179 -16 -260.5t-51 -141.5q-37 -64 -115 -114t-184 -50q-160 0 -246 80q-72 67 -72 164 q0 66 41 112t109 46q63 0 96 -42t33 -83q-26 -2 -49 -25t-23 -57q0 -46 32.5 -79.5t108.5 -33.5q124 0 193 123q14 27 22.5 50.5t17.5 88t9 154.5v373h-47q-48 0 -96 5.5t-103 20.5t-103.5 39t-93.5 63t-77.5 89t-52 122t-19.5 158z" />
<glyph unicode="&#xb7;" horiz-adv-x="516" d="M137 610q0 54 35 90.5t86 36.5q52 0 87.5 -36.5t35.5 -90.5t-35 -89.5t-88 -35.5q-51 0 -86 35.5t-35 89.5z" />
<glyph unicode="&#xb8;" horiz-adv-x="778" d="M154 -322l18 31q79 -40 176 -45q66 0 90 12q19 7 32 25.5t13 44.5q0 50 -45 70q-30 12 -80 12l-53 -6l-22 39l145 139h49l-104 -125q30 6 67 6q68 -2 113 -28q70 -40 70 -113q0 -77 -70 -117q-1 0 -10 -4.5t-15.5 -7t-20 -7t-26.5 -7.5t-31.5 -5t-37.5 -2 q-22 0 -46.5 2.5t-45 7t-35.5 8.5t-29 8.5t-16 4.5z" />
<glyph unicode="&#xb9;" horiz-adv-x="827" d="M201 1282q38 13 126 53.5t144 73.5l41 -18q-10 -95 -10 -201v-377q0 -80 18 -98q22 -26 123 -31v-41q-39 0 -113.5 3t-99.5 3t-99.5 -3t-113.5 -3v41q101 5 123 31q18 21 18 98v436q0 17 -14 17q-11 0 -31 -4l-100 -19z" />
<glyph unicode="&#xba;" horiz-adv-x="743" d="M86 1061q0 128 77 210.5t204 82.5q129 0 212 -79.5t83 -205.5q0 -128 -77 -211.5t-204 -83.5q-129 0 -212 80t-83 207zM98 614v72h555v-72h-555zM240 1073q0 -114 38.5 -181t102.5 -67q127 0 127 234q0 116 -38.5 182t-102.5 66q-127 0 -127 -234z" />
<glyph unicode="&#xbb;" horiz-adv-x="921" d="M92 55q117 257 217 406q-101 152 -217 405l43 29q70 -99 174 -223.5t191 -210.5q-88 -87 -192 -212t-171 -222zM463 55q117 257 217 406q-101 152 -217 405l45 29q72 -102 174 -226t188 -208q-87 -86 -190.5 -211t-171.5 -223z" />
<glyph unicode="&#xbc;" horiz-adv-x="1527" d="M135 1282q38 13 127 53.5t144 73.5l40 -18q-10 -95 -10 -201v-377q0 -79 19 -98q22 -26 123 -31v-41q-39 0 -113.5 3t-99.5 3t-99.5 -3t-113.5 -3v41q100 5 122 31q19 22 19 98v436q0 17 -14 17q-11 0 -31 -4l-101 -19zM387 0l666 1368h102l-666 -1368h-102zM813 166v90 l385 498h127v-486h105v-102h-105v-191h-143v191h-369zM895 268h287v361z" />
<glyph unicode="&#xbd;" horiz-adv-x="1527" d="M135 1282q38 13 127 53.5t144 73.5l40 -18q-10 -95 -10 -201v-377q0 -79 19 -98q22 -26 123 -31v-41q-39 0 -113.5 3t-99.5 3t-99.5 -3t-113.5 -3v41q100 5 122 31q19 22 19 98v436q0 17 -14 17q-11 0 -31 -4l-101 -19zM387 0l666 1368h102l-666 -1368h-102zM877 57 q42 39 111.5 110t109.5 120q53 65 81.5 120.5t28.5 120.5q0 67 -35.5 100.5t-91.5 33.5q-98 0 -153 -105l-33 14q68 183 246 183q103 0 162 -53.5t59 -143.5q0 -41 -15.5 -81.5t-47.5 -79.5t-54 -62t-61 -58l-172 -155h262q57 0 80 18q8 6 20 20t20 25l9 11l29 -13l-60 -190 h-14q0 8 -45 8h-412z" />
<glyph unicode="&#xbe;" horiz-adv-x="1527" d="M135 729q0 31 17.5 48.5t48.5 17.5q12 0 21.5 -4.5t17 -14.5t11.5 -16t9 -18l6 -13q24 -49 86 -49q75 0 109 59q26 44 26 111q0 93 -61 127q-44 24 -94 24l-78 -4l-8 35l131 43q10 7 21 18t26.5 41t15.5 62q0 53 -30.5 83t-75.5 30q-86 0 -139 -78l-29 14 q23 59 80.5 106.5t140.5 47.5q90 0 142.5 -42t52.5 -112q0 -103 -152 -174q95 -4 149 -56t54 -124q0 -113 -105 -197q-86 -65 -213 -65q-83 0 -131.5 31t-48.5 69zM387 0l666 1368h102l-666 -1368h-102zM813 166v90l385 498h127v-486h105v-102h-105v-191h-143v191h-369z M895 268h287v361z" />
<glyph unicode="&#xbf;" horiz-adv-x="737" d="M80 45q0 162 100 236q62 45 203 61l55 6q12 1 15.5 13.5t5.5 41.5l10 134h57l23 -301q3 -54 -45 -54h-60q-125 0 -207.5 -52.5t-82.5 -156.5q0 -54 19.5 -92.5t59 -61t83.5 -35t108 -20.5l92 -12q45 -6 63 -26t21 -66l10 -158h-47q-3 14 -17 26t-27 17.5t-39.5 15 t-37.5 13.5q-133 49 -227 141q-135 132 -135 330zM375 821q0 51 36 87t87 36q52 0 87.5 -36t35.5 -87q0 -53 -35.5 -89t-87.5 -36q-51 0 -87 36.5t-36 88.5z" />
<glyph unicode="&#xc0;" horiz-adv-x="1261" d="M-20 0v59q63 13 106 47q34 27 61 97l332 901q57 157 70 227q121 11 172 21q12 -63 76 -248l305 -889q22 -65 61 -104q42 -37 113 -52v-59q-46 0 -125.5 5t-126.5 5t-135.5 -5t-134.5 -5v59q95 7 131 43q20 20 20 54q0 36 -20 98l-78 246h-455l-86 -246q-20 -62 -20 -98 q0 -34 20 -54q36 -36 131 -43v-59q-41 0 -111.5 5t-111.5 5t-97 -5t-97 -5zM348 1739q0 25 19 48t53 23q9 0 17 -2t13.5 -4t12.5 -8t11 -9t11.5 -13t10 -13.5t11 -17t11.5 -17.5l176 -268l-26 -20l-285 231q-35 26 -35 70zM383 590h395l-192 592z" />
<glyph unicode="&#xc1;" horiz-adv-x="1261" d="M-20 0v59q63 13 106 47q34 27 61 97l332 901q57 157 70 227q121 11 172 21q12 -63 76 -248l305 -889q22 -65 61 -104q42 -37 113 -52v-59q-46 0 -125.5 5t-126.5 5t-135.5 -5t-134.5 -5v59q95 7 131 43q20 20 20 54q0 36 -20 98l-78 246h-455l-86 -246q-20 -62 -20 -98 q0 -34 20 -54q36 -36 131 -43v-59q-41 0 -111.5 5t-111.5 5t-97 -5t-97 -5zM383 590h395l-192 592zM532 1458l177 266q4 6 13.5 20t13.5 19.5t11.5 15.5t13 13.5t13.5 9t16.5 7t18.5 1.5q32 0 51 -23t19 -48q0 -40 -35 -70l-285 -231z" />
<glyph unicode="&#xc2;" horiz-adv-x="1261" d="M-20 0v59q63 13 106 47q34 27 61 97l332 901q57 157 70 227q121 11 172 21q12 -63 76 -248l305 -889q22 -65 61 -104q42 -37 113 -52v-59q-46 0 -125.5 5t-126.5 5t-135.5 -5t-134.5 -5v59q95 7 131 43q20 20 20 54q0 36 -20 98l-78 246h-455l-86 -246q-20 -62 -20 -98 q0 -34 20 -54q36 -36 131 -43v-59q-41 0 -111.5 5t-111.5 5t-97 -5t-97 -5zM362 1458l175 271q30 45 50.5 63t51.5 18t51.5 -18.5t48.5 -62.5l166 -271l-26 -20l-240 239l-250 -239zM383 590h395l-192 592z" />
<glyph unicode="&#xc3;" horiz-adv-x="1261" d="M-20 0v59q63 13 106 47q34 27 61 97l332 901q57 157 70 227q121 11 172 21q12 -63 76 -248l305 -889q22 -65 61 -104q42 -37 113 -52v-59q-46 0 -125.5 5t-126.5 5t-135.5 -5t-134.5 -5v59q95 7 131 43q20 20 20 54q0 36 -20 98l-78 246h-455l-86 -246q-20 -62 -20 -98 q0 -34 20 -54q36 -36 131 -43v-59q-41 0 -111.5 5t-111.5 5t-97 -5t-97 -5zM297 1548q55 81 80 97q72 90 137 90q60 0 156 -49q54 -26 75 -31q33 -10 66 -10q20 0 37 6t37 22.5t30.5 26.5t36.5 37l33 -29q-55 -80 -80 -96q-72 -90 -137 -90q-60 0 -156 49q-54 26 -75 31 q-33 10 -66 10q-35 0 -63 -19.5t-70 -62.5l-10 -10zM383 590h395l-192 592z" />
<glyph unicode="&#xc4;" horiz-adv-x="1261" d="M-20 0v59q63 13 106 47q34 27 61 97l332 901q57 157 70 227q121 11 172 21q12 -63 76 -248l305 -889q22 -65 61 -104q42 -37 113 -52v-59q-46 0 -125.5 5t-126.5 5t-135.5 -5t-134.5 -5v59q95 7 131 43q20 20 20 54q0 36 -20 98l-78 246h-455l-86 -246q-20 -62 -20 -98 q0 -34 20 -54q36 -36 131 -43v-59q-41 0 -111.5 5t-111.5 5t-97 -5t-97 -5zM340 1624q0 44 33.5 76.5t77.5 32.5t76 -32.5t32 -76.5q0 -45 -32 -78t-76 -33t-77.5 33.5t-33.5 77.5zM383 590h395l-192 592zM711 1624q0 44 32 76.5t76 32.5t76.5 -32.5t32.5 -76.5t-32.5 -77.5 t-76.5 -33.5t-76 33t-32 78z" />
<glyph unicode="&#xc5;" horiz-adv-x="1261" d="M-20 0v59q63 13 106 47q34 27 61 97l332 901q57 157 70 227q121 11 172 21q12 -63 76 -248l305 -889q22 -65 61 -104q42 -37 113 -52v-59q-46 0 -125.5 5t-126.5 5t-135.5 -5t-134.5 -5v59q95 7 131 43q20 20 20 54q0 36 -20 98l-78 246h-455l-86 -246q-20 -62 -20 -98 q0 -34 20 -54q36 -36 131 -43v-59q-41 0 -111.5 5t-111.5 5t-97 -5t-97 -5zM383 590h395l-192 592zM444 1620q0 79 56 133.5t133 54.5t132.5 -54.5t55.5 -133.5q0 -77 -55.5 -131.5t-132.5 -54.5t-133 54.5t-56 131.5zM520 1620q0 -47 32.5 -79t78.5 -32t78 32t32 79t-32 80 t-78 33t-78.5 -33t-32.5 -80z" />
<glyph unicode="&#xc6;" horiz-adv-x="1828" d="M-82 0v55q32 3 46 4.5t37 9t46 21.5q64 35 152 180l540 895q31 53 31 72q0 12 -5.5 20t-29.5 16t-67 11v51q49 0 167 -4t162 -4q129 0 404.5 4t290.5 6l4 -305l-43 -6q-16 46 -25.5 70.5t-22.5 53.5t-25 42.5t-29 28t-38.5 20t-49 9t-64.5 3.5h-225q-59 0 -71.5 -14 t-12.5 -74v-440l200 6q67 1 99 9.5t53 29.5q40 40 49 141h49q0 -40 -5 -114t-5 -115t5 -115.5t5 -115.5h-49q-10 112 -49 151q-21 21 -53 29.5t-99 9.5l-200 6v-420q0 -84 25 -109.5t110 -25.5h223q105 0 173.5 69t123.5 201l53 -16l-82 -346q-121 0 -407 5t-312 5 q-41 0 -137 -5t-143 -5v55q68 8 99 18t54 33q21 23 28 59.5t7 115.5v366l-370 2l-213 -368q-68 -117 -68 -152q0 -31 32.5 -49t116.5 -25v-55q-53 0 -127 5t-116 5t-115.5 -5t-126.5 -5zM578 723l327 2v532h-14z" />
<glyph unicode="&#xc7;" horiz-adv-x="1298" d="M80 676q0 128 37 239.5t102.5 193.5t152 141t187.5 88.5t207 29.5q77 0 150 -11t121.5 -27t86 -32t54.5 -27l18 -11l12 -310l-55 -10q-72 350 -395 350q-92 0 -173 -39t-144.5 -113t-100.5 -193t-37 -269t35.5 -269.5t97.5 -194.5t142 -114t172 -39q87 0 161.5 28 t128.5 78t92 108.5t64 129.5l61 -22l-90 -287q-5 -5 -15.5 -13.5t-47.5 -29.5t-80.5 -37t-115 -29.5t-150.5 -13.5h-31l-90 -108q7 1 17 2t36 2t33 -2q65 2 115 -29q80 -44 80 -123q0 -36 -17.5 -67t-32.5 -43.5t-30 -20.5q-44 -33 -154 -33q-42 0 -88.5 7.5t-71.5 15.5 l-26 8l-105 68l23 37q113 -58 196 -58q71 0 101 15q51 31 51 75q0 57 -49 78q-35 15 -82 15l-76 -7l-20 45l137 127q-267 22 -430.5 206t-163.5 495z" />
<glyph unicode="&#xc8;" horiz-adv-x="1165" d="M43 0v59q71 9 101 19t53 33q22 22 29 58.5t7 115.5v768q0 85 -5.5 120.5t-24.5 59.5q-31 38 -150 45v57q47 0 136 -4t135 -4l704 10l6 -305l-49 -6q-18 52 -29 80t-27 57.5t-30.5 42t-39 24t-54 14.5t-72.5 3h-233q-57 0 -69.5 -14t-12.5 -74v-432l200 6q67 1 100.5 10 t53.5 29q43 43 49 143h58q0 -41 -5.5 -118t-5.5 -115t5.5 -115t5.5 -118h-58q-6 110 -49 153q-19 20 -53 29t-101 10l-200 6v-414q0 -84 24.5 -109.5t108.5 -25.5h229q73 0 130 35.5t94 90.5t73 141l60 -19l-84 -346q-120 0 -408.5 5t-320.5 5q-47 0 -141 -5t-140 -5z M332 1741q0 25 18.5 48t50.5 23q23 0 41.5 -12t28 -25t31.5 -46l176 -269l-27 -20l-284 231q-35 30 -35 70z" />
<glyph unicode="&#xc9;" horiz-adv-x="1165" d="M43 0v59q71 9 101 19t53 33q22 22 29 58.5t7 115.5v768q0 85 -5.5 120.5t-24.5 59.5q-31 38 -150 45v57q47 0 136 -4t135 -4l704 10l6 -305l-49 -6q-18 52 -29 80t-27 57.5t-30.5 42t-39 24t-54 14.5t-72.5 3h-233q-57 0 -69.5 -14t-12.5 -74v-432l200 6q67 1 100.5 10 t53.5 29q43 43 49 143h58q0 -41 -5.5 -118t-5.5 -115t5.5 -115t5.5 -118h-58q-6 110 -49 153q-19 20 -53 29t-101 10l-200 6v-414q0 -84 24.5 -109.5t108.5 -25.5h229q73 0 130 35.5t94 90.5t73 141l60 -19l-84 -346q-120 0 -408.5 5t-320.5 5q-47 0 -141 -5t-140 -5z M500 1460l176 266q4 6 13.5 20t13.5 19.5t11.5 15.5t13 13.5t13.5 9t16.5 7t18.5 1.5q32 0 51 -23t19 -48q0 -40 -35 -70l-285 -231z" />
<glyph unicode="&#xca;" horiz-adv-x="1165" d="M43 0v59q71 9 101 19t53 33q22 22 29 58.5t7 115.5v768q0 85 -5.5 120.5t-24.5 59.5q-31 38 -150 45v57q47 0 136 -4t135 -4l704 10l6 -305l-49 -6q-18 52 -29 80t-27 57.5t-30.5 42t-39 24t-54 14.5t-72.5 3h-233q-57 0 -69.5 -14t-12.5 -74v-432l200 6q67 1 100.5 10 t53.5 29q43 43 49 143h58q0 -41 -5.5 -118t-5.5 -115t5.5 -115t5.5 -118h-58q-6 110 -49 153q-19 20 -53 29t-101 10l-200 6v-414q0 -84 24.5 -109.5t108.5 -25.5h229q73 0 130 35.5t94 90.5t73 141l60 -19l-84 -346q-120 0 -408.5 5t-320.5 5q-47 0 -141 -5t-140 -5z M303 1460l174 271q29 44 50.5 62.5t52.5 18.5t51.5 -18.5t48.5 -62.5l166 -271l-27 -20l-239 239l-250 -239z" />
<glyph unicode="&#xcb;" horiz-adv-x="1165" d="M43 0v59q71 9 101 19t53 33q22 22 29 58.5t7 115.5v768q0 85 -5.5 120.5t-24.5 59.5q-31 38 -150 45v57q47 0 136 -4t135 -4l704 10l6 -305l-49 -6q-18 52 -29 80t-27 57.5t-30.5 42t-39 24t-54 14.5t-72.5 3h-233q-57 0 -69.5 -14t-12.5 -74v-432l200 6q67 1 100.5 10 t53.5 29q43 43 49 143h58q0 -41 -5.5 -118t-5.5 -115t5.5 -115t5.5 -118h-58q-6 110 -49 153q-19 20 -53 29t-101 10l-200 6v-414q0 -84 24.5 -109.5t108.5 -25.5h229q73 0 130 35.5t94 90.5t73 141l60 -19l-84 -346q-120 0 -408.5 5t-320.5 5q-47 0 -141 -5t-140 -5z M283 1624q0 46 31.5 78.5t76.5 32.5q44 0 76.5 -32.5t32.5 -78.5q0 -47 -32 -79t-77 -32q-46 0 -77 32t-31 79zM649 1624q0 46 31.5 78.5t77.5 32.5q44 0 76 -32.5t32 -78.5q0 -47 -31.5 -79t-76.5 -32q-46 0 -77.5 32t-31.5 79z" />
<glyph unicode="&#xcc;" horiz-adv-x="649" d="M43 0v59q76 11 103.5 20t50.5 32q22 22 29 58.5t7 115.5v768q0 85 -5.5 120.5t-24.5 59.5q-31 38 -150 45v57q46 0 136.5 -4t136.5 -4t134 4t134 4v-57q-117 -7 -148 -45q-19 -23 -23.5 -57.5t-4.5 -122.5v-768q0 -81 6 -116.5t27 -57.5q23 -23 55 -33.5t100 -18.5v-59 q-47 0 -139 5t-139 5t-143 -5t-142 -5zM84 1739q0 26 18 48.5t52 22.5q9 0 17 -2t13.5 -4t12.5 -8t11 -9t11.5 -13t10 -13.5t11 -17t11.5 -17.5l176 -268l-27 -20l-284 231q-33 24 -33 70z" />
<glyph unicode="&#xcd;" horiz-adv-x="649" d="M43 0v59q76 11 103.5 20t50.5 32q22 22 29 58.5t7 115.5v768q0 85 -5.5 120.5t-24.5 59.5q-31 38 -150 45v57q46 0 136.5 -4t136.5 -4t134 4t134 4v-57q-117 -7 -148 -45q-19 -23 -23.5 -57.5t-4.5 -122.5v-768q0 -81 6 -116.5t27 -57.5q23 -23 55 -33.5t100 -18.5v-59 q-47 0 -139 5t-139 5t-143 -5t-142 -5zM217 1458l176 266q3 5 13.5 20.5t13.5 19.5t11.5 14.5t13.5 14t13.5 9t17 7t18.5 1.5q32 0 50.5 -23t18.5 -48q0 -40 -35 -70l-284 -231z" />
<glyph unicode="&#xce;" horiz-adv-x="649" d="M43 0v59q76 11 103.5 20t50.5 32q22 22 29 58.5t7 115.5v768q0 85 -5.5 120.5t-24.5 59.5q-31 38 -150 45v57q46 0 136.5 -4t136.5 -4t134 4t134 4v-57q-117 -7 -148 -45q-19 -23 -23.5 -57.5t-4.5 -122.5v-768q0 -81 6 -116.5t27 -57.5q23 -23 55 -33.5t100 -18.5v-59 q-47 0 -139 5t-139 5t-143 -5t-142 -5zM51 1458l174 271q29 44 50.5 62.5t52.5 18.5t52.5 -19t47.5 -62l166 -271l-27 -20l-239 239l-250 -239z" />
<glyph unicode="&#xcf;" horiz-adv-x="649" d="M33 1622q0 46 32 78.5t78 32.5q44 0 76.5 -32.5t32.5 -78.5q0 -47 -32 -79t-77 -32q-46 0 -78 32t-32 79zM43 0v59q76 11 103.5 20t50.5 32q22 22 29 58.5t7 115.5v768q0 85 -5.5 120.5t-24.5 59.5q-31 38 -150 45v57q46 0 136.5 -4t136.5 -4t134 4t134 4v-57 q-117 -7 -148 -45q-19 -23 -23.5 -57.5t-4.5 -122.5v-768q0 -81 6 -116.5t27 -57.5q23 -23 55 -33.5t100 -18.5v-59q-47 0 -139 5t-139 5t-143 -5t-142 -5zM401 1622q0 46 31.5 78.5t77.5 32.5q44 0 76 -32.5t32 -78.5q0 -47 -31.5 -79t-76.5 -32q-46 0 -77.5 32t-31.5 79z " />
<glyph unicode="&#xd0;" horiz-adv-x="1423" d="M43 0v59q76 11 103.5 20t50.5 32q22 22 29 58t7 116v350h-182v102h182v316q0 86 -5.5 121t-24.5 59q-31 38 -150 45v57q47 0 136.5 -4t136.5 -4q42 0 120.5 4t149.5 4q261 0 420 -86q45 -24 86 -55t86.5 -81.5t78.5 -109.5t54.5 -143t21.5 -178q0 -364 -268 -553 q-183 -129 -457 -129q-58 0 -152.5 5t-139.5 5q-47 0 -141.5 -5t-141.5 -5zM422 209q0 -68 26.5 -95.5t92.5 -27.5h49q247 0 368 121q71 71 117.5 190t46.5 289q0 319 -186 469q-72 58 -161 80t-204 22h-41q-73 0 -90.5 -18t-17.5 -92v-410h270v-102h-270v-426z" />
<glyph unicode="&#xd1;" horiz-adv-x="1454" d="M37 0v59q64 8 97.5 19t55.5 33t26.5 54.5t4.5 117.5l6 819q0 86 -37 123q-36 36 -143 53v57q31 0 89 -4t89 -4l174 8q7 -15 16 -30.5t23 -36t22 -32t26.5 -36.5t23.5 -31l653 -884l-10 766q-1 64 -2.5 88t-8.5 50.5t-22 41.5q-37 35 -151 47v57q44 0 118.5 -4t118.5 -4 t119 4t119 4v-57q-61 -6 -94.5 -16t-55.5 -31q-15 -15 -21.5 -41.5t-7.5 -50.5t-1 -88l-7 -693q-1 -84 2.5 -176t6.5 -142l4 -50l-78 -31q-4 4 -25 28t-65 78t-84 109l-701 946l15 -837q1 -62 2.5 -85t8.5 -47.5t22 -39.5q23 -23 54 -33t101 -19v-59q-46 0 -120.5 5 t-120.5 5t-120.5 -5t-121.5 -5zM399 1548q57 83 80 97q72 90 139 90q62 0 154 -49q6 -3 24 -11.5t30 -13t24 -6.5q30 -10 63 -10q8 0 16.5 1.5t15 3t15 6t13.5 7t14.5 10t13 10t14 12.5t13 12.5l14.5 14.5l15 15l30 -29q-54 -82 -77 -96q-77 -90 -140 -90q-61 0 -153 49 q-60 27 -78 31q-30 10 -66 10q-20 0 -37 -6t-37 -22.5t-30.5 -26.5t-36.5 -37z" />
<glyph unicode="&#xd2;" horiz-adv-x="1474" d="M80 655q0 158 51.5 292t139 225.5t206 142.5t250.5 51q133 0 253.5 -47.5t213 -133.5t147 -216.5t54.5 -286.5q0 -158 -51.5 -292.5t-139 -226t-206 -143t-250.5 -51.5q-133 0 -253.5 47.5t-213 133.5t-147 217t-54.5 288zM303 700q0 -129 27.5 -237.5t73 -182.5 t105.5 -126t124 -75.5t129 -23.5q66 0 124 17.5t111 60.5t91 108.5t60.5 167.5t22.5 232q0 129 -27.5 237.5t-73.5 182.5t-106 126t-124 75.5t-129 23.5q-66 0 -123.5 -17.5t-111 -60.5t-91 -108.5t-60 -167.5t-22.5 -232zM438 1739q0 25 19 48t51 23q18 0 30.5 -4.5 t26.5 -20.5t19 -23t24 -36l176 -268l-26 -20l-285 231q-35 30 -35 70z" />
<glyph unicode="&#xd3;" horiz-adv-x="1474" d="M80 655q0 158 51.5 292t139 225.5t206 142.5t250.5 51q133 0 253.5 -47.5t213 -133.5t147 -216.5t54.5 -286.5q0 -158 -51.5 -292.5t-139 -226t-206 -143t-250.5 -51.5q-133 0 -253.5 47.5t-213 133.5t-147 217t-54.5 288zM303 700q0 -129 27.5 -237.5t73 -182.5 t105.5 -126t124 -75.5t129 -23.5q66 0 124 17.5t111 60.5t91 108.5t60.5 167.5t22.5 232q0 129 -27.5 237.5t-73.5 182.5t-106 126t-124 75.5t-129 23.5q-66 0 -123.5 -17.5t-111 -60.5t-91 -108.5t-60 -167.5t-22.5 -232zM662 1458l178 266q4 6 15.5 23.5t15 22t13.5 16 t16 14.5t16.5 6.5t21.5 3.5q32 0 51 -23t19 -48q0 -40 -35 -70l-285 -231z" />
<glyph unicode="&#xd4;" horiz-adv-x="1474" d="M80 655q0 158 51.5 292t139 225.5t206 142.5t250.5 51q133 0 253.5 -47.5t213 -133.5t147 -216.5t54.5 -286.5q0 -158 -51.5 -292.5t-139 -226t-206 -143t-250.5 -51.5q-133 0 -253.5 47.5t-213 133.5t-147 217t-54.5 288zM303 700q0 -129 27.5 -237.5t73 -182.5 t105.5 -126t124 -75.5t129 -23.5q66 0 124 17.5t111 60.5t91 108.5t60.5 167.5t22.5 232q0 129 -27.5 237.5t-73.5 182.5t-106 126t-124 75.5t-129 23.5q-66 0 -123.5 -17.5t-111 -60.5t-91 -108.5t-60 -167.5t-22.5 -232zM463 1458l176 271q30 45 50 63t50 18q33 0 55 -19 t48 -62l164 -271l-27 -20l-240 239l-250 -239z" />
<glyph unicode="&#xd5;" horiz-adv-x="1474" d="M80 655q0 158 51.5 292t139 225.5t206 142.5t250.5 51q133 0 253.5 -47.5t213 -133.5t147 -216.5t54.5 -286.5q0 -158 -51.5 -292.5t-139 -226t-206 -143t-250.5 -51.5q-133 0 -253.5 47.5t-213 133.5t-147 217t-54.5 288zM303 700q0 -129 27.5 -237.5t73 -182.5 t105.5 -126t124 -75.5t129 -23.5q66 0 124 17.5t111 60.5t91 108.5t60.5 167.5t22.5 232q0 129 -27.5 237.5t-73.5 182.5t-106 126t-124 75.5t-129 23.5q-66 0 -123.5 -17.5t-111 -60.5t-91 -108.5t-60 -167.5t-22.5 -232zM393 1548q55 81 80 97q72 90 137 90q60 0 156 -49 q53 -26 76 -31q33 -10 65 -10q26 0 52 14.5t41.5 29t48.5 48.5l32 -29q-55 -80 -80 -96q-72 -90 -137 -90q-59 0 -155 49q-53 26 -76 31q-33 10 -66 10q-35 0 -63 -19.5t-70 -62.5l-10 -10z" />
<glyph unicode="&#xd6;" horiz-adv-x="1474" d="M80 655q0 158 51.5 292t139 225.5t206 142.5t250.5 51q133 0 253.5 -47.5t213 -133.5t147 -216.5t54.5 -286.5q0 -158 -51.5 -292.5t-139 -226t-206 -143t-250.5 -51.5q-133 0 -253.5 47.5t-213 133.5t-147 217t-54.5 288zM303 700q0 -129 27.5 -237.5t73 -182.5 t105.5 -126t124 -75.5t129 -23.5q66 0 124 17.5t111 60.5t91 108.5t60.5 167.5t22.5 232q0 129 -27.5 237.5t-73.5 182.5t-106 126t-124 75.5t-129 23.5q-66 0 -123.5 -17.5t-111 -60.5t-91 -108.5t-60 -167.5t-22.5 -232zM444 1622q0 46 32.5 78.5t76.5 32.5t76.5 -32.5 t32.5 -78.5q0 -47 -32 -79t-77 -32t-77 32t-32 79zM811 1622q0 46 32.5 78.5t76.5 32.5q45 0 76.5 -32.5t31.5 -78.5q0 -47 -31 -79t-77 -32q-45 0 -77 32t-32 79z" />
<glyph unicode="&#xd7;" d="M137 152l309 309l-307 307l66 66l307 -308l309 310l66 -66l-309 -309l307 -307l-66 -66l-307 307l-309 -309z" />
<glyph unicode="&#xd8;" horiz-adv-x="1474" d="M2 37l207 196q-129 179 -129 422q0 158 51.5 292t139 225.5t206 142.5t250.5 51q134 0 256.5 -47.5t214.5 -136.5l203 194l59 -59l-207 -199q142 -182 142 -436q0 -158 -51.5 -292.5t-139 -226t-206 -143t-250.5 -51.5q-140 0 -266 52t-220 149l-201 -193zM303 700 q0 -182 53 -323l715 682q-66 112 -162.5 169.5t-197.5 57.5q-66 0 -123.5 -17.5t-111 -60.5t-91 -108.5t-60 -167.5t-22.5 -232zM395 297q65 -119 164 -180.5t203 -61.5q66 0 124 17.5t111 60.5t91 108.5t60.5 167.5t22.5 232q0 199 -61 340z" />
<glyph unicode="&#xd9;" horiz-adv-x="1441" d="M33 1278v57q48 0 137.5 -4t132.5 -4q44 0 133.5 4t136.5 4v-57q-60 -3 -94 -13t-53 -32q-18 -22 -23.5 -58.5t-5.5 -119.5v-457q0 -245 41 -332q13 -29 36 -55.5t60.5 -53.5t97.5 -43t134 -16q242 0 328 168q41 84 41 332v457q0 81 -6.5 118t-26.5 60q-18 23 -49 32.5 t-92 12.5v57q39 0 112.5 -4t112.5 -4t115 4t116 4v-57q-56 -3 -90 -12.5t-53 -32.5t-24 -58t-5 -120v-492q0 -209 -37 -313q-100 -281 -479 -281q-76 0 -141.5 12t-111 30t-83.5 45t-61.5 51.5t-42 54t-26.5 48.5t-15 40q-35 99 -35 313v492q0 82 -6 119t-25 59 q-31 39 -149 45zM451 1739q0 25 18.5 48t50.5 23q23 0 42 -12.5t28 -25t31 -46.5l176 -268l-27 -20l-285 231q-34 29 -34 70z" />
<glyph unicode="&#xda;" horiz-adv-x="1441" d="M33 1278v57q48 0 137.5 -4t132.5 -4q44 0 133.5 4t136.5 4v-57q-60 -3 -94 -13t-53 -32q-18 -22 -23.5 -58.5t-5.5 -119.5v-457q0 -245 41 -332q13 -29 36 -55.5t60.5 -53.5t97.5 -43t134 -16q242 0 328 168q41 84 41 332v457q0 81 -6.5 118t-26.5 60q-18 23 -49 32.5 t-92 12.5v57q39 0 112.5 -4t112.5 -4t115 4t116 4v-57q-56 -3 -90 -12.5t-53 -32.5t-24 -58t-5 -120v-492q0 -209 -37 -313q-100 -281 -479 -281q-76 0 -141.5 12t-111 30t-83.5 45t-61.5 51.5t-42 54t-26.5 48.5t-15 40q-35 99 -35 313v492q0 82 -6 119t-25 59 q-31 39 -149 45zM641 1458l176 266q3 5 13.5 20.5t13.5 19.5t11.5 14.5t13.5 14t13.5 9t17 7t18.5 1.5q32 0 50.5 -23t18.5 -48q0 -40 -35 -70l-284 -231z" />
<glyph unicode="&#xdb;" horiz-adv-x="1441" d="M33 1278v57q48 0 137.5 -4t132.5 -4q44 0 133.5 4t136.5 4v-57q-60 -3 -94 -13t-53 -32q-18 -22 -23.5 -58.5t-5.5 -119.5v-457q0 -245 41 -332q13 -29 36 -55.5t60.5 -53.5t97.5 -43t134 -16q242 0 328 168q41 84 41 332v457q0 81 -6.5 118t-26.5 60q-18 23 -49 32.5 t-92 12.5v57q39 0 112.5 -4t112.5 -4t115 4t116 4v-57q-56 -3 -90 -12.5t-53 -32.5t-24 -58t-5 -120v-492q0 -209 -37 -313q-100 -281 -479 -281q-76 0 -141.5 12t-111 30t-83.5 45t-61.5 51.5t-42 54t-26.5 48.5t-15 40q-35 99 -35 313v492q0 82 -6 119t-25 59 q-31 39 -149 45zM455 1458l174 271q30 45 50.5 63t51.5 18t52.5 -19t47.5 -62l166 -271l-26 -20l-240 239l-250 -239z" />
<glyph unicode="&#xdc;" horiz-adv-x="1441" d="M33 1278v57q48 0 137.5 -4t132.5 -4q44 0 133.5 4t136.5 4v-57q-60 -3 -94 -13t-53 -32q-18 -22 -23.5 -58.5t-5.5 -119.5v-457q0 -245 41 -332q13 -29 36 -55.5t60.5 -53.5t97.5 -43t134 -16q242 0 328 168q41 84 41 332v457q0 81 -6.5 118t-26.5 60q-18 23 -49 32.5 t-92 12.5v57q39 0 112.5 -4t112.5 -4t115 4t116 4v-57q-56 -3 -90 -12.5t-53 -32.5t-24 -58t-5 -120v-492q0 -209 -37 -313q-100 -281 -479 -281q-76 0 -141.5 12t-111 30t-83.5 45t-61.5 51.5t-42 54t-26.5 48.5t-15 40q-35 99 -35 313v492q0 82 -6 119t-25 59 q-31 39 -149 45zM436 1622q0 46 32.5 78.5t76.5 32.5q45 0 76.5 -32.5t31.5 -78.5q0 -47 -31 -79t-77 -32q-45 0 -77 32t-32 79zM805 1622q0 46 31.5 78.5t76.5 32.5q44 0 76.5 -32.5t32.5 -78.5q0 -47 -32 -79t-77 -32q-46 0 -77 32t-31 79z" />
<glyph unicode="&#xdd;" horiz-adv-x="1140" d="M-25 1278v57q46 0 118 -4t116 -4q43 0 130.5 4t135.5 4v-57q-143 -9 -143 -61q0 -18 9.5 -43t29 -61.5t20.5 -37.5l215 -407l240 417q53 90 53 132q0 28 -31.5 41.5t-103.5 19.5v57q35 0 102 -4t107 -4t97.5 4t94.5 4v-57q-76 0 -123 -51q-18 -19 -88 -131l-305 -504 v-307q0 -83 5.5 -117.5t27.5 -56.5q23 -23 56.5 -34t109.5 -18v-59q-45 0 -138 5t-151 5t-153 -5t-140 -5v59q77 9 109 19t55 33q22 22 28.5 58t6.5 116v286l-297 543q-52 93 -82 121q-44 40 -111 43zM528 1458l177 266q4 6 13.5 20t13.5 19.5t11.5 15.5t13 13.5t13.5 9 t16.5 7t18.5 1.5q32 0 50.5 -23t18.5 -48q0 -41 -34 -70l-285 -231z" />
<glyph unicode="&#xde;" horiz-adv-x="1105" d="M43 0v59q76 11 103.5 20t50.5 32q22 22 29 58t7 116v776q0 82 -6 117.5t-24 58.5q-32 37 -150 47v51q47 0 137.5 -4t131.5 -4t131.5 4t138.5 4v-51q-118 -10 -148 -47q-19 -21 -22.5 -53.5t-3.5 -118.5q84 10 166 10q78 0 145 -10.5t128.5 -36.5t105 -65t69 -100.5 t25.5 -139.5q0 -151 -117 -264q-46 -44 -125.5 -73.5t-155.5 -29.5q-24 0 -47.5 3t-40.5 7t-33 9t-25 9.5l-17 8.5t-9 4l23 49q33 -20 119 -20q85 0 153 77t68 218q0 145 -85.5 215t-234.5 70h-38q-47 0 -60.5 -20.5t-13.5 -70.5v-632q0 -79 6 -114.5t27 -57.5 q23 -23 57.5 -33.5t105.5 -18.5v-59q-46 0 -144.5 5t-145.5 5t-141 -5t-140 -5z" />
<glyph unicode="&#xdf;" horiz-adv-x="1064" d="M43 0v57q93 8 119 34t26 112v614h-141v43l139 51v23q0 247 129 401q136 164 381 164q109 0 185.5 -65.5t76.5 -163.5q0 -32 -10 -63t-23 -53t-34.5 -46.5t-35 -36t-34 -28.5t-22.5 -19l-15 -12q-104 -88 -104 -176q0 -20 3 -38t12 -36t15.5 -29.5t23.5 -29.5t24.5 -25.5 t30 -28.5t30.5 -28q82 -72 125 -119q100 -111 100 -236q0 -126 -93.5 -208.5t-225.5 -82.5q-121 0 -187.5 56.5t-66.5 132.5q0 65 36 100t83 35q39 0 58.5 -28.5t19.5 -61.5q0 -23 -13 -49l-26 -51q0 -25 27.5 -46.5t80.5 -21.5q64 0 110 44t46 130q0 40 -10.5 73.5 t-34.5 64.5t-42 49t-52 49q-14 14 -17 16l-55 51q-38 36 -62 64t-45.5 76t-21.5 100q0 31 9 61.5t29 60t32 45t38 42.5t27 28l12 13q19 19 31.5 33.5t32.5 44t30.5 66t10.5 77.5q0 92 -47.5 144t-132.5 52q-129 0 -199 -92q-70 -93 -70 -334v-999q-106 8 -159 8 q-27 0 -77 -4t-77 -4z" />
<glyph unicode="&#xe0;" horiz-adv-x="903" d="M80 197q0 91 39 140.5t114 74.5l342 112v111q0 107 -52 157t-124 50q-32 0 -60 -7t-40 -13l-12 -7l-11 -92q-6 -56 -30.5 -83.5t-61.5 -27.5t-63.5 27t-26.5 78q0 50 42 84t122 63q162 62 219 80q127 0 197.5 -58t70.5 -175v-504q0 -105 72 -105q40 0 82 33l25 -43 q-117 -117 -211 -117q-64 0 -99.5 44.5t-35.5 119.5q-135 -135 -242 -164q-113 0 -184.5 63t-71.5 159zM201 1346q0 25 18 47t51 22q22 0 41 -13t28.5 -26t31.5 -47l170 -274l-27 -23l-278 242q-35 32 -35 72zM258 231q0 -54 42 -94.5t99 -40.5q34 0 78 28t71 56l27 27v256 l-200 -76q-70 -26 -93.5 -61.5t-23.5 -94.5z" />
<glyph unicode="&#xe1;" horiz-adv-x="903" d="M80 197q0 91 39 140.5t114 74.5l342 112v111q0 107 -52 157t-124 50q-32 0 -60 -7t-40 -13l-12 -7l-11 -92q-6 -56 -30.5 -83.5t-61.5 -27.5t-63.5 27t-26.5 78q0 50 42 84t122 63q162 62 219 80q127 0 197.5 -58t70.5 -175v-504q0 -105 72 -105q40 0 82 33l25 -43 q-117 -117 -211 -117q-64 0 -99.5 44.5t-35.5 119.5q-135 -135 -242 -164q-113 0 -184.5 63t-71.5 159zM258 231q0 -54 42 -94.5t99 -40.5q34 0 78 28t71 56l27 27v256l-200 -76q-70 -26 -93.5 -61.5t-23.5 -94.5zM348 1055l172 274q36 56 52 69q21 17 49 17 q32 0 50.5 -22.5t18.5 -46.5q0 -40 -35 -72l-278 -242z" />
<glyph unicode="&#xe2;" horiz-adv-x="903" d="M80 197q0 91 39 140.5t114 74.5l342 112v111q0 107 -52 157t-124 50q-32 0 -60 -7t-40 -13l-12 -7l-11 -92q-6 -56 -30.5 -83.5t-61.5 -27.5t-63.5 27t-26.5 78q0 50 42 84t122 63q162 62 219 80q127 0 197.5 -58t70.5 -175v-504q0 -105 72 -105q40 0 82 33l25 -43 q-117 -117 -211 -117q-64 0 -99.5 44.5t-35.5 119.5q-135 -135 -242 -164q-113 0 -184.5 63t-71.5 159zM162 1055l170 280q27 43 48.5 61.5t51.5 18.5q33 0 56.5 -19.5t46.5 -60.5l159 -280l-26 -23l-236 250l-244 -250zM258 231q0 -54 42 -94.5t99 -40.5q34 0 78 28t71 56 l27 27v256l-200 -76q-70 -26 -93.5 -61.5t-23.5 -94.5z" />
<glyph unicode="&#xe3;" horiz-adv-x="903" d="M80 197q0 91 39 140.5t114 74.5l342 112v111q0 107 -52 157t-124 50q-32 0 -60 -7t-40 -13l-12 -7l-11 -92q-6 -56 -30.5 -83.5t-61.5 -27.5t-63.5 27t-26.5 78q0 50 42 84t122 63q162 62 219 80q127 0 197.5 -58t70.5 -175v-504q0 -105 72 -105q40 0 82 33l25 -43 q-117 -117 -211 -117q-64 0 -99.5 44.5t-35.5 119.5q-135 -135 -242 -164q-113 0 -184.5 63t-71.5 159zM111 1145q56 80 79 96q77 90 134 90q15 0 30.5 -3t32 -9t27 -10.5t30 -14t25.5 -12.5q10 -4 33.5 -16t36.5 -17q32 -8 61 -8q12 0 22.5 2t21.5 7.5l18 9t19.5 15t17 16 l20 20l20.5 20.5l31 -28q-55 -81 -80 -97q-72 -90 -133 -90q-19 0 -40 5.5t-34 11t-38 17.5t-33 15q-7 3 -22 11t-25.5 12.5t-20.5 7.5q-30 10 -63 10q-26 0 -51 -14t-39.5 -28t-47.5 -50zM258 231q0 -54 42 -94.5t99 -40.5q34 0 78 28t71 56l27 27v256l-200 -76 q-70 -26 -93.5 -61.5t-23.5 -94.5z" />
<glyph unicode="&#xe4;" horiz-adv-x="903" d="M80 197q0 91 39 140.5t114 74.5l342 112v111q0 107 -52 157t-124 50q-32 0 -60 -7t-40 -13l-12 -7l-11 -92q-6 -56 -30.5 -83.5t-61.5 -27.5t-63.5 27t-26.5 78q0 50 42 84t122 63q162 62 219 80q127 0 197.5 -58t70.5 -175v-504q0 -105 72 -105q40 0 82 33l25 -43 q-117 -117 -211 -117q-64 0 -99.5 44.5t-35.5 119.5q-135 -135 -242 -164q-113 0 -184.5 63t-71.5 159zM139 1223q0 47 32 79.5t77 32.5t76.5 -32.5t31.5 -79.5q0 -46 -32 -78.5t-76 -32.5t-76.5 32.5t-32.5 78.5zM258 231q0 -54 42 -94.5t99 -40.5q34 0 78 28t71 56l27 27 v256l-200 -76q-70 -26 -93.5 -61.5t-23.5 -94.5zM506 1223q0 47 31 79.5t77 32.5q45 0 77 -32.5t32 -79.5q0 -46 -32.5 -78.5t-76.5 -32.5q-45 0 -76.5 32.5t-31.5 78.5z" />
<glyph unicode="&#xe5;" horiz-adv-x="903" d="M80 197q0 91 39 140.5t114 74.5l342 112v111q0 107 -52 157t-124 50q-32 0 -60 -7t-40 -13l-12 -7l-11 -92q-6 -56 -30.5 -83.5t-61.5 -27.5t-63.5 27t-26.5 78q0 50 42 84t122 63q162 62 219 80q127 0 197.5 -58t70.5 -175v-504q0 -105 72 -105q40 0 82 33l25 -43 q-117 -117 -211 -117q-64 0 -99.5 44.5t-35.5 119.5q-135 -135 -242 -164q-113 0 -184.5 63t-71.5 159zM244 1223q0 79 55.5 133.5t132.5 54.5q78 0 133.5 -54.5t55.5 -133.5q0 -78 -55.5 -132.5t-133.5 -54.5q-77 0 -132.5 54.5t-55.5 132.5zM258 231q0 -54 42 -94.5 t99 -40.5q34 0 78 28t71 56l27 27v256l-200 -76q-70 -26 -93.5 -61.5t-23.5 -94.5zM322 1223q0 -47 32 -79t78 -32t79.5 32t33.5 79q0 49 -33 80.5t-80 31.5q-46 0 -78 -31.5t-32 -80.5z" />
<glyph unicode="&#xe6;" horiz-adv-x="1357" d="M80 197q0 163 153 215l326 106v117q0 107 -44 157t-120 50q-54 0 -108 -27l-11 -92q-6 -51 -29 -81t-57 -30q-40 0 -68 25.5t-28 79.5t44.5 87.5t133.5 65.5l201 74q100 0 152.5 -33.5t76.5 -97.5q4 5 12 14t34.5 31.5t56.5 40t78 31.5t98 14q70 0 125.5 -21.5t91 -57 t58.5 -84.5t32.5 -99.5t9.5 -106.5q0 -47 -51 -47l-520 9q-2 -14 -2 -45q0 -165 71.5 -264t204.5 -99q51 0 98.5 11.5t78.5 27.5t54.5 32.5t34.5 27.5l11 12l31 -37l-121 -154q-10 -8 -28.5 -20.5t-83.5 -33t-138 -20.5q-65 0 -122.5 20t-92.5 48.5t-60.5 57.5t-36.5 49 l-10 20q-167 -167 -280 -195q-115 0 -185.5 64t-70.5 158zM258 229q0 -53 40.5 -93t100.5 -40q23 0 51.5 13t53 31t45.5 36.5t33 31.5l12 13q-14 28 -25.5 85t-11.5 114v37l-182 -70q-73 -28 -95 -63.5t-22 -94.5zM731 594l340 10q23 0 32 9t9 32q0 104 -41 166.5t-117 62.5 q-82 0 -144 -73.5t-79 -206.5z" />
<glyph unicode="&#xe7;" horiz-adv-x="819" d="M70 430q0 240 163 393q127 119 299 119q66 0 115.5 -17t77 -44.5t40.5 -57.5t13 -61q0 -57 -29 -87t-77 -30q-43 0 -66.5 34.5t-23.5 78.5l8 82q-1 4 -5.5 9t-30 14t-65.5 9q-37 0 -77 -20t-79.5 -61t-65 -118.5t-25.5 -178.5q0 -82 16.5 -147t43.5 -105t63 -66.5 t72 -36.5t75 -10q150 0 246 96l30 -37l-131 -149q-8 -7 -24 -17t-69 -27.5t-109 -19.5l-84 -100q30 6 67 6q67 -2 113 -28q70 -40 70 -113q0 -70 -70 -117q-58 -33 -143 -33q-87 0 -170 31l-88 57l20 37q96 -47 176 -51q66 0 90 12q19 7 32 25.5t13 44.5q0 50 -45 70 q-30 12 -80 12l-59 -6l-21 39l121 116q-127 14 -225 125q-102 122 -102 328z" />
<glyph unicode="&#xe8;" horiz-adv-x="882" d="M70 444q0 133 57 248t157 183.5t218 68.5q87 0 151 -30t100 -83t53 -116t17 -137q0 -50 -47 -50l-534 9q-2 -25 -2 -50q0 -165 75.5 -261.5t208.5 -96.5q50 0 97 11.5t78 27.5t55 32.5t36 27.5l11 12l30 -37l-120 -154q-10 -8 -29 -20.5t-84.5 -33t-138.5 -20.5 q-183 0 -286 131t-103 338zM213 1346q0 24 19 46.5t53 22.5q17 0 30 -5t26 -20t19.5 -25t22.5 -36l172 -274l-27 -23l-280 242q-35 32 -35 72zM248 592l346 12q24 1 32.5 11.5t8.5 35.5q0 107 -40 165t-120 58q-87 0 -150.5 -72t-76.5 -210z" />
<glyph unicode="&#xe9;" horiz-adv-x="882" d="M70 444q0 133 57 248t157 183.5t218 68.5q87 0 151 -30t100 -83t53 -116t17 -137q0 -50 -47 -50l-534 9q-2 -25 -2 -50q0 -165 75.5 -261.5t208.5 -96.5q50 0 97 11.5t78 27.5t55 32.5t36 27.5l11 12l30 -37l-120 -154q-10 -8 -29 -20.5t-84.5 -33t-138.5 -20.5 q-183 0 -286 131t-103 338zM248 592l346 12q24 1 32.5 11.5t8.5 35.5q0 107 -40 165t-120 58q-87 0 -150.5 -72t-76.5 -210zM391 1055l172 274q20 32 30 46.5t28.5 27t40.5 12.5q33 0 52 -22.5t19 -46.5q0 -40 -35 -72l-280 -242z" />
<glyph unicode="&#xea;" horiz-adv-x="882" d="M70 444q0 133 57 248t157 183.5t218 68.5q87 0 151 -30t100 -83t53 -116t17 -137q0 -50 -47 -50l-534 9q-2 -25 -2 -50q0 -165 75.5 -261.5t208.5 -96.5q50 0 97 11.5t78 27.5t55 32.5t36 27.5l11 12l30 -37l-120 -154q-10 -8 -29 -20.5t-84.5 -33t-138.5 -20.5 q-183 0 -286 131t-103 338zM227 1055l170 280q27 43 49 61.5t54 18.5t54 -19.5t46 -60.5l160 -280l-27 -23l-233 250l-246 -250zM248 592l346 12q24 1 32.5 11.5t8.5 35.5q0 107 -40 165t-120 58q-87 0 -150.5 -72t-76.5 -210z" />
<glyph unicode="&#xeb;" horiz-adv-x="882" d="M70 444q0 133 57 248t157 183.5t218 68.5q87 0 151 -30t100 -83t53 -116t17 -137q0 -50 -47 -50l-534 9q-2 -25 -2 -50q0 -165 75.5 -261.5t208.5 -96.5q50 0 97 11.5t78 27.5t55 32.5t36 27.5l11 12l30 -37l-120 -154q-10 -8 -29 -20.5t-84.5 -33t-138.5 -20.5 q-183 0 -286 131t-103 338zM201 1223q0 47 31 79.5t77 32.5q45 0 77 -32.5t32 -79.5q0 -46 -32.5 -78.5t-76.5 -32.5q-45 0 -76.5 32.5t-31.5 78.5zM248 592l346 12q24 1 32.5 11.5t8.5 35.5q0 107 -40 165t-120 58q-87 0 -150.5 -72t-76.5 -210zM565 1223q0 47 32 79.5 t77 32.5q46 0 77 -32.5t31 -79.5q0 -46 -31.5 -78.5t-76.5 -32.5q-44 0 -76.5 32.5t-32.5 78.5z" />
<glyph unicode="&#xec;" horiz-adv-x="503" d="M4 1346q0 24 19 46.5t51 22.5q17 0 30 -5t26.5 -20.5t19.5 -24t24 -36.5l170 -274l-27 -23l-278 242q-35 32 -35 72zM41 0v57q86 6 114.5 33.5t28.5 112.5v446q0 75 -23.5 102.5t-101.5 51.5v47q67 16 148.5 43t128.5 51l16 -6v-213v-522q0 -84 27.5 -111t114.5 -35v-57 q-40 0 -115 5t-111 5t-111.5 -5t-115.5 -5z" />
<glyph unicode="&#xed;" horiz-adv-x="503" d="M41 0v57q86 6 114.5 33.5t28.5 112.5v446q0 75 -23.5 102.5t-101.5 51.5v47q67 16 148.5 43t128.5 51l16 -6v-213v-522q0 -84 27.5 -111t114.5 -35v-57q-40 0 -115 5t-111 5t-111.5 -5t-115.5 -5zM117 1055l172 274q20 33 29.5 46.5t28.5 26.5t42 13q32 0 51 -22.5 t19 -46.5q0 -40 -35 -72l-281 -242z" />
<glyph unicode="&#xee;" horiz-adv-x="503" d="M-14 1055l172 280q27 43 48.5 61.5t51.5 18.5q33 0 55.5 -19t46.5 -61l160 -280l-26 -23l-236 250l-244 -250zM41 0v57q86 6 114.5 33.5t28.5 112.5v446q0 75 -23.5 102.5t-101.5 51.5v47q67 16 148.5 43t128.5 51l16 -6v-213v-522q0 -84 27.5 -111t114.5 -35v-57 q-40 0 -115 5t-111 5t-111.5 -5t-115.5 -5z" />
<glyph unicode="&#xef;" horiz-adv-x="503" d="M-33 1223q0 47 31.5 79.5t75.5 32.5q46 0 77 -32.5t31 -79.5q0 -46 -31.5 -78.5t-76.5 -32.5q-44 0 -75.5 32.5t-31.5 78.5zM41 0v57q86 6 114.5 33.5t28.5 112.5v446q0 75 -23.5 102.5t-101.5 51.5v47q67 16 148.5 43t128.5 51l16 -6v-213v-522q0 -84 27.5 -111 t114.5 -35v-57q-40 0 -115 5t-111 5t-111.5 -5t-115.5 -5zM332 1223q0 47 31.5 79.5t76.5 32.5q46 0 77.5 -32.5t31.5 -79.5q0 -46 -31.5 -78.5t-77.5 -32.5q-44 0 -76 32.5t-32 78.5z" />
<glyph unicode="&#xf0;" horiz-adv-x="1034" d="M70 451q0 217 122 350t314 133q74 0 134 -31t81 -57q-68 242 -248 422l-180 -160l-53 61l174 152q-112 102 -250 164l31 51q65 -22 149.5 -70.5t134.5 -89.5l185 164l53 -61l-174 -154q198 -157 308 -373.5t110 -459.5q0 -119 -34.5 -217.5t-94.5 -163.5t-140 -100.5 t-172 -35.5q-187 0 -318.5 132t-131.5 344zM264 481q0 -194 70.5 -309t191.5 -115q240 0 240 387q0 189 -70 300.5t-190 111.5q-242 0 -242 -375z" />
<glyph unicode="&#xf1;" horiz-adv-x="1101" d="M41 0v57q86 6 114.5 33.5t28.5 112.5v446q0 75 -23.5 102.5t-101.5 51.5v47q67 16 148.5 43t128.5 51l16 -6l-2 -147q73 50 169.5 98t164.5 55q146 0 207 -72t61 -229v-440q0 -84 28 -110.5t114 -35.5v-57q-39 0 -112 5t-112 5t-108.5 -5t-108.5 -5v57q81 8 106 34.5 t25 111.5v377q0 114 -45.5 173.5t-150.5 59.5q-56 0 -124.5 -32.5t-111.5 -67.5v-510q0 -84 24.5 -110.5t104.5 -35.5v-57q-39 0 -106.5 5t-106.5 5t-113.5 -5t-113.5 -5zM211 1145q57 80 80 96q22 26 39 42.5t43 32t51 15.5q15 0 30.5 -3t32 -9t27 -10.5t30 -14t25.5 -12.5 q5 -3 30.5 -15.5t37.5 -17.5q36 -8 63 -8t53.5 15t37 25.5t47.5 49.5l32 -28q-56 -81 -79 -97q-72 -90 -134 -90q-19 0 -40 5.5t-34 11t-38 17.5t-33 15q-59 28 -68 31q-30 10 -63 10q-26 0 -51.5 -14.5t-38.5 -27.5t-47 -50z" />
<glyph unicode="&#xf2;" horiz-adv-x="1030" d="M70 451q0 215 127 354t313 139q91 0 173 -33.5t144 -93.5t98 -150.5t36 -197.5q0 -215 -127.5 -354.5t-313.5 -139.5q-187 0 -318.5 132t-131.5 344zM215 1346q0 24 19 46.5t51 22.5q23 0 42 -13t28.5 -26.5t29.5 -46.5l172 -274l-27 -23l-280 242q-35 32 -35 72z M264 481q0 -194 70.5 -309t191.5 -115q240 0 240 385q0 194 -70 309t-190 115q-242 0 -242 -385z" />
<glyph unicode="&#xf3;" horiz-adv-x="1030" d="M70 451q0 215 127 354t313 139q91 0 173 -33.5t144 -93.5t98 -150.5t36 -197.5q0 -215 -127.5 -354.5t-313.5 -139.5q-187 0 -318.5 132t-131.5 344zM264 481q0 -194 70.5 -309t191.5 -115q240 0 240 385q0 194 -70 309t-190 115q-242 0 -242 -385zM406 1055l169 274 q22 34 31.5 47t28.5 26t41 13q33 0 51 -22t18 -47q0 -46 -32 -72l-281 -242z" />
<glyph unicode="&#xf4;" horiz-adv-x="1030" d="M70 451q0 215 127 354t313 139q91 0 173 -33.5t144 -93.5t98 -150.5t36 -197.5q0 -215 -127.5 -354.5t-313.5 -139.5q-187 0 -318.5 132t-131.5 344zM248 1055l172 280q27 43 48.5 61.5t51.5 18.5q33 0 56.5 -19.5t46.5 -60.5l159 -280l-26 -23l-236 250l-244 -250z M264 481q0 -194 70.5 -309t191.5 -115q240 0 240 385q0 194 -70 309t-190 115q-242 0 -242 -385z" />
<glyph unicode="&#xf5;" horiz-adv-x="1030" d="M70 451q0 215 127 354t313 139q91 0 173 -33.5t144 -93.5t98 -150.5t36 -197.5q0 -215 -127.5 -354.5t-313.5 -139.5q-187 0 -318.5 132t-131.5 344zM188 1145q57 80 80 96q72 90 133 90q19 0 40.5 -5.5t34 -10.5t38.5 -17.5t33 -15.5q8 -4 31.5 -16t35.5 -17 q36 -8 64 -8q10 0 20.5 2t18 4t17.5 9t15 10t16.5 14.5t15 14.5t17.5 18t17 18l33 -28q-57 -81 -80 -97q-72 -90 -133 -90q-19 0 -40.5 5.5t-34 10.5t-38.5 17.5t-33 15.5q-61 29 -67 31q-30 10 -64 10q-26 0 -51.5 -14.5t-38.5 -27.5t-47 -50zM264 481q0 -194 70.5 -309 t191.5 -115q240 0 240 385q0 194 -70 309t-190 115q-242 0 -242 -385z" />
<glyph unicode="&#xf6;" horiz-adv-x="1030" d="M70 451q0 215 127 354t313 139q91 0 173 -33.5t144 -93.5t98 -150.5t36 -197.5q0 -215 -127.5 -354.5t-313.5 -139.5q-187 0 -318.5 132t-131.5 344zM223 1223q0 47 32 79.5t77 32.5q46 0 77 -32.5t31 -79.5q0 -46 -31.5 -78.5t-76.5 -32.5q-44 0 -76.5 32.5t-32.5 78.5z M264 481q0 -194 70.5 -309t191.5 -115q240 0 240 385q0 194 -70 309t-190 115q-242 0 -242 -385zM590 1223q0 47 31.5 79.5t76.5 32.5t77 -32.5t32 -79.5q0 -46 -32.5 -78.5t-76.5 -32.5t-76 32.5t-32 78.5z" />
<glyph unicode="&#xf7;" d="M51 420v88h922v-88h-922zM430 209q0 34 23 57t59 23q33 0 55.5 -22.5t22.5 -55.5q0 -35 -22.5 -60.5t-55.5 -25.5q-36 0 -59 24.5t-23 59.5zM430 723q0 34 23 57t59 23q33 0 55.5 -22.5t22.5 -55.5q0 -35 -22.5 -60.5t-55.5 -25.5q-36 0 -59 24.5t-23 59.5z" />
<glyph unicode="&#xf8;" horiz-adv-x="1030" d="M45 31l119 121q-94 124 -94 299q0 215 127 354t313 139q185 0 311 -123l115 119l49 -53l-117 -119q93 -127 93 -299q0 -215 -127.5 -354.5t-313.5 -139.5q-182 0 -309 121l-117 -119zM264 481q0 -111 25 -200l426 434q-71 151 -209 151q-242 0 -242 -385zM317 205 q71 -148 209 -148q240 0 240 385q0 103 -23 197z" />
<glyph unicode="&#xf9;" horiz-adv-x="1067" d="M45 834v57q39 0 134 13.5t143 29.5l16 -8l-6 -510q0 -155 35 -213q54 -86 165 -86q38 0 90.5 25.5t85.5 51.5l33 25v475q0 71 -24 102t-90 38v57q39 0 132.5 13.5t141.5 29.5l17 -8q-7 -269 -7 -512v-181q0 -57 18 -80t50 -20t76 6l6 -65q-160 -43 -299 -94l-14 10 l-5 151q-4 -3 -30.5 -23.5t-44 -34t-49 -34.5t-55.5 -34.5t-52.5 -25t-50.5 -14.5q-164 0 -236 107q-33 47 -48 108t-15 158v346q0 71 -24.5 102t-92.5 38zM238 1346q0 25 18 47t51 22q22 0 41 -13t28.5 -26t31.5 -47l170 -274l-27 -23l-279 242q-34 31 -34 72z" />
<glyph unicode="&#xfa;" horiz-adv-x="1067" d="M45 834v57q39 0 134 13.5t143 29.5l16 -8l-6 -510q0 -155 35 -213q54 -86 165 -86q38 0 90.5 25.5t85.5 51.5l33 25v475q0 71 -24 102t-90 38v57q39 0 132.5 13.5t141.5 29.5l17 -8q-7 -269 -7 -512v-181q0 -57 18 -80t50 -20t76 6l6 -65q-160 -43 -299 -94l-14 10 l-5 151q-4 -3 -30.5 -23.5t-44 -34t-49 -34.5t-55.5 -34.5t-52.5 -25t-50.5 -14.5q-164 0 -236 107q-33 47 -48 108t-15 158v346q0 71 -24.5 102t-92.5 38zM428 1055l170 274q2 4 9 15t9.5 14t8.5 12t8.5 11.5t8.5 9t9.5 9t9.5 6.5t11 5t12 2.5t14 1.5q32 0 51 -22.5 t19 -46.5q0 -40 -35 -72l-278 -242z" />
<glyph unicode="&#xfb;" horiz-adv-x="1067" d="M45 834v57q39 0 134 13.5t143 29.5l16 -8l-6 -510q0 -155 35 -213q54 -86 165 -86q38 0 90.5 25.5t85.5 51.5l33 25v475q0 71 -24 102t-90 38v57q39 0 132.5 13.5t141.5 29.5l17 -8q-7 -269 -7 -512v-181q0 -57 18 -80t50 -20t76 6l6 -65q-160 -43 -299 -94l-14 10 l-5 151q-4 -3 -30.5 -23.5t-44 -34t-49 -34.5t-55.5 -34.5t-52.5 -25t-50.5 -14.5q-164 0 -236 107q-33 47 -48 108t-15 158v346q0 71 -24.5 102t-92.5 38zM244 1055l170 280q27 43 48.5 61.5t53.5 18.5t54 -19.5t46 -60.5l160 -280l-26 -23l-234 250l-246 -250z" />
<glyph unicode="&#xfc;" horiz-adv-x="1067" d="M45 834v57q39 0 134 13.5t143 29.5l16 -8l-6 -510q0 -155 35 -213q54 -86 165 -86q38 0 90.5 25.5t85.5 51.5l33 25v475q0 71 -24 102t-90 38v57q39 0 132.5 13.5t141.5 29.5l17 -8q-7 -269 -7 -512v-181q0 -57 18 -80t50 -20t76 6l6 -65q-160 -43 -299 -94l-14 10 l-5 151q-4 -3 -30.5 -23.5t-44 -34t-49 -34.5t-55.5 -34.5t-52.5 -25t-50.5 -14.5q-164 0 -236 107q-33 47 -48 108t-15 158v346q0 71 -24.5 102t-92.5 38zM242 1223q0 47 31.5 79.5t76.5 32.5q46 0 77.5 -32.5t31.5 -79.5q0 -46 -31.5 -78.5t-77.5 -32.5q-44 0 -76 32.5 t-32 78.5zM608 1223q0 47 32 79.5t77 32.5t76.5 -32.5t31.5 -79.5q0 -46 -32 -78.5t-76 -32.5t-76.5 32.5t-32.5 78.5z" />
<glyph unicode="&#xfd;" horiz-adv-x="925" d="M-6 854v57q37 0 103 -4t102 -4t114 4t115 4v-57q-75 -7 -102 -20t-29 -37q0 -13 4.5 -28.5t15 -41.5t13.5 -35l184 -491l184 491q4 9 11.5 27t11.5 28.5t7.5 24.5t2.5 25q0 23 -26.5 36.5t-90.5 20.5v57q35 0 98.5 -4t88.5 -4t73 4t84 4v-57q-50 -4 -81 -35 q-15 -15 -30 -42t-23 -45t-29 -66l-373 -887q-56 -132 -109 -196t-120 -64q-68 0 -105 33t-37 83q0 46 26.5 75.5t65.5 29.5q23 0 40.5 -9t23.5 -17l6 -9v-33q0 -26 23 -26q5 0 10.5 2t15.5 9t20 19.5t23.5 36.5t26.5 56l90 227l-283 706q-31 83 -61 113q-29 29 -84 39z M436 1055l172 274q20 32 30 46.5t28.5 27t40.5 12.5q33 0 52 -22.5t19 -46.5q0 -40 -35 -72l-280 -242z" />
<glyph unicode="&#xfe;" horiz-adv-x="1050" d="M8 -420q92 8 118 33.5t26 110.5v1493q0 74 -28 105t-106 46v49q55 13 148.5 44.5t146.5 54.5l21 -13q-12 -113 -12 -401v-314q6 6 17 16.5t45 37.5t67 47.5t79 37.5t86 17q173 0 279 -135q86 -114 86 -317q0 -104 -34.5 -199.5t-90.5 -159.5q-139 -158 -330 -158 q-112 0 -204 43v-294q0 -84 28.5 -110t122.5 -34v-59q-35 0 -110 5t-123 5t-122.5 -5t-109.5 -5v59zM322 289q0 -110 49 -171t151 -61q114 0 192.5 96t78.5 285q0 186 -76 282.5t-180 96.5q-36 0 -71 -10.5t-60 -26t-44.5 -31t-29.5 -25.5l-10 -11v-424z" />
<glyph unicode="&#xff;" horiz-adv-x="925" d="M-6 854v57q37 0 103 -4t102 -4t114 4t115 4v-57q-75 -7 -102 -20t-29 -37q0 -13 4.5 -28.5t15 -41.5t13.5 -35l184 -491l184 491q4 9 11.5 27t11.5 28.5t7.5 24.5t2.5 25q0 23 -26.5 36.5t-90.5 20.5v57q35 0 98.5 -4t88.5 -4t73 4t84 4v-57q-50 -4 -81 -35 q-15 -15 -30 -42t-23 -45t-29 -66l-373 -887q-56 -132 -109 -196t-120 -64q-68 0 -105 33t-37 83q0 46 26.5 75.5t65.5 29.5q23 0 40.5 -9t23.5 -17l6 -9v-33q0 -26 23 -26q5 0 10.5 2t15.5 9t20 19.5t23.5 36.5t26.5 56l90 227l-283 706q-31 83 -61 113q-29 29 -84 39z M217 1223q0 45 32.5 77.5t76.5 32.5t77 -32t33 -76q0 -45 -33 -78t-77 -33t-76.5 32.5t-32.5 76.5zM586 1223q0 46 32 78t76 32t76.5 -32t32.5 -76q0 -46 -32.5 -78.5t-76.5 -32.5t-76 32.5t-32 76.5z" />
<glyph unicode="&#x152;" horiz-adv-x="1998" d="M80 655q0 158 51.5 292t139 225.5t206 142.5t250.5 51q111 0 236 -35q127 -4 211 -4l688 10l4 -305l-43 -6q-16 46 -25.5 70.5t-22.5 53.5t-25 42.5t-29 28t-38 20t-48 9t-64 3.5h-228q-57 0 -69 -14t-12 -74v-440l198 6q67 1 99 9.5t53 29.5q43 43 51 141h49 q0 -41 -5 -114.5t-5 -114.5t5 -115t5 -116h-51q-9 111 -49 151q-21 21 -53 29.5t-99 9.5l-198 6v-420q0 -84 24.5 -109.5t108.5 -25.5h223q107 0 176 69.5t121 200.5l53 -16l-82 -346q-120 0 -402 5t-317 5q-43 0 -97 -2.5t-87 -5.5l-33 -2q-102 -31 -202 -31 q-133 0 -253.5 47.5t-213 133.5t-147 217t-54.5 288zM303 700q0 -129 27.5 -237.5t73 -182.5t105.5 -126t124 -75.5t129 -23.5q151 0 233 49.5t82 124.5v832q0 105 -102 165t-264 60q-66 0 -123.5 -17.5t-111 -60.5t-91 -108.5t-60 -167.5t-22.5 -232z" />
<glyph unicode="&#x153;" horiz-adv-x="1574" d="M70 451q0 215 127 354t313 139q118 0 209 -52t139 -142q54 84 142 139t196 55q86 0 150.5 -33t100 -88t52.5 -118t17 -132q0 -45 -52 -45l-526 9q-2 -14 -2 -45q0 -165 75.5 -264t209.5 -99q50 0 97 11.5t77.5 27.5t54 32.5t34.5 27.5l11 12l31 -37l-121 -154 q-10 -8 -29 -20.5t-84 -33t-137 -20.5q-216 0 -319 183q-17 -28 -41 -55t-62.5 -58.5t-94 -50.5t-118.5 -19q-187 0 -318.5 132t-131.5 344zM264 481q0 -194 70 -309t190 -115q244 0 244 387q0 193 -71 307.5t-191 114.5q-242 0 -242 -385zM944 592l344 12q41 0 41 41 q0 108 -41.5 168.5t-116.5 60.5q-81 0 -147 -75t-80 -207z" />
<glyph unicode="&#x178;" horiz-adv-x="1140" d="M-25 1278v57q46 0 118 -4t116 -4q43 0 130.5 4t135.5 4v-57q-143 -9 -143 -61q0 -18 9.5 -43t29 -61.5t20.5 -37.5l215 -407l240 417q53 90 53 132q0 28 -31.5 41.5t-103.5 19.5v57q35 0 102 -4t107 -4t97.5 4t94.5 4v-57q-76 0 -123 -51q-18 -19 -88 -131l-305 -504 v-307q0 -83 5.5 -117.5t27.5 -56.5q23 -23 56.5 -34t109.5 -18v-59q-45 0 -138 5t-151 5t-153 -5t-140 -5v59q77 9 109 19t55 33q22 22 28.5 58t6.5 116v286l-297 543q-52 93 -82 121q-44 40 -111 43zM283 1624q0 44 33 76.5t77 32.5t76.5 -32.5t32.5 -76.5t-32.5 -77.5 t-76.5 -33.5t-77 33.5t-33 77.5zM653 1624q0 44 32.5 76.5t76.5 32.5t76 -32.5t32 -76.5q0 -45 -32 -78t-76 -33t-76.5 33.5t-32.5 77.5z" />
<glyph unicode="&#x2c6;" horiz-adv-x="507" d="M-12 1055l170 280q27 43 48.5 61.5t53.5 18.5t54 -19.5t46 -60.5l160 -280l-26 -23l-234 250l-246 -250z" />
<glyph unicode="&#x2dc;" horiz-adv-x="1077" d="M209 1145q57 80 80 96q72 90 133 90q19 0 40 -5.5t34 -11t38 -17.5t33 -15q4 -2 29 -15t39 -18q36 -8 63 -8q26 0 51.5 14.5t38.5 27t48 48.5l32 -28q-57 -81 -80 -97q-22 -26 -39 -42.5t-43 -32t-51 -15.5q-15 0 -30.5 3t-32 9t-27 10.5t-30 14t-25.5 12.5 q-58 28 -70 31q-27 10 -61 10q-11 0 -21 -2t-17.5 -4.5t-17.5 -9.5t-15 -10t-17 -14t-15.5 -14.5t-17.5 -18.5t-18 -19z" />
<glyph unicode="&#x2000;" horiz-adv-x="906" />
<glyph unicode="&#x2001;" horiz-adv-x="1812" />
<glyph unicode="&#x2002;" horiz-adv-x="906" />
<glyph unicode="&#x2003;" horiz-adv-x="1812" />
<glyph unicode="&#x2004;" horiz-adv-x="604" />
<glyph unicode="&#x2005;" horiz-adv-x="453" />
<glyph unicode="&#x2006;" horiz-adv-x="302" />
<glyph unicode="&#x2007;" horiz-adv-x="302" />
<glyph unicode="&#x2008;" horiz-adv-x="226" />
<glyph unicode="&#x2009;" horiz-adv-x="362" />
<glyph unicode="&#x200a;" horiz-adv-x="100" />
<glyph unicode="&#x2010;" horiz-adv-x="565" d="M59 401l23 138l422 43l-21 -138z" />
<glyph unicode="&#x2011;" horiz-adv-x="565" d="M59 401l23 138l422 43l-21 -138z" />
<glyph unicode="&#x2012;" horiz-adv-x="565" d="M59 401l23 138l422 43l-21 -138z" />
<glyph unicode="&#x2013;" d="M88 438v107h846v-107h-846z" />
<glyph unicode="&#x2014;" horiz-adv-x="1361" d="M41 440v103h1282v-103h-1282z" />
<glyph unicode="&#x2018;" horiz-adv-x="514" d="M92 1098q0 115 82 214t203 138l20 -51q-98 -47 -137 -106.5t-39 -110.5q0 -37 19.5 -54.5t52.5 -17.5h57q4 -4 10.5 -11t17.5 -31.5t11 -51.5q0 -54 -40 -90.5t-95 -36.5q-65 0 -113.5 50.5t-48.5 158.5z" />
<glyph unicode="&#x2019;" horiz-adv-x="514" d="M127 932q67 32 109 76t54.5 77t12.5 64q0 37 -19.5 54.5t-52.5 17.5h-57q-4 4 -10.5 11t-17.5 31.5t-11 51.5q0 55 39 90t96 35q65 0 112.5 -50t47.5 -157q0 -116 -81.5 -215.5t-201.5 -138.5z" />
<glyph unicode="&#x201a;" horiz-adv-x="514" d="M129 -279q98 47 137 107t39 111q0 71 -72 71h-57q-4 4 -10.5 11t-17.5 31.5t-11 51.5q0 55 39.5 91t95.5 36q65 0 112.5 -50t47.5 -158q0 -115 -81.5 -214.5t-200.5 -138.5z" />
<glyph unicode="&#x201c;" horiz-adv-x="917" d="M92 1098q0 115 82 214t203 138l20 -51q-98 -47 -137 -106.5t-39 -110.5q0 -37 19.5 -54.5t52.5 -17.5h57q4 -4 10.5 -11t17.5 -31.5t11 -51.5q0 -54 -40 -90.5t-95 -36.5q-65 0 -113.5 50.5t-48.5 158.5zM498 1098q0 115 81.5 214t200.5 138l21 -51q-67 -32 -108.5 -76 t-53.5 -77t-12 -64q0 -72 71 -72h56q4 -4 10.5 -11t17.5 -31.5t11 -51.5q0 -55 -40 -91t-96 -36q-65 0 -112 50t-47 159z" />
<glyph unicode="&#x201d;" horiz-adv-x="917" d="M119 932q98 47 137 106.5t39 110.5q0 37 -19.5 54.5t-52.5 17.5h-57q-4 4 -10.5 11t-17.5 31.5t-11 51.5q0 55 39 90t96 35q65 0 112.5 -50t47.5 -157q0 -116 -81.5 -215.5t-201.5 -138.5zM522 932q98 47 137 106.5t39 110.5q0 72 -71 72h-56q-5 4 -11.5 11t-18 31.5 t-11.5 51.5q0 54 40.5 89.5t97.5 35.5q64 0 111.5 -50t47.5 -157q0 -116 -81.5 -215.5t-202.5 -138.5z" />
<glyph unicode="&#x201e;" horiz-adv-x="921" d="M129 -281q68 33 110 78t54 78t12 64q0 71 -72 71h-57q-4 3 -10.5 10t-17.5 31.5t-11 52.5q0 53 39.5 89t95.5 36q65 0 112.5 -49.5t47.5 -156.5q0 -116 -81.5 -216t-200.5 -139zM539 -281q68 33 110 78t54 78t12 64q0 71 -72 71h-57q-4 3 -10.5 10t-17.5 31.5t-11 52.5 q0 53 39.5 89t95.5 36q65 0 112.5 -49.5t47.5 -156.5q0 -116 -81.5 -216t-201.5 -139z" />
<glyph unicode="&#x2022;" horiz-adv-x="645" d="M82 668q0 105 69 176t171 71q105 0 174 -70.5t69 -174.5q0 -106 -68.5 -177t-172.5 -71t-173 70.5t-69 175.5z" />
<glyph unicode="&#x2026;" horiz-adv-x="1654" d="M137 100q0 54 35.5 89.5t87.5 35.5q53 0 88 -35.5t35 -89.5t-35 -89.5t-88 -35.5q-52 0 -87.5 35.5t-35.5 89.5zM709 100q0 54 34.5 89.5t87.5 35.5q51 0 87 -35.5t36 -89.5t-36 -89.5t-87 -35.5q-53 0 -87.5 35.5t-34.5 89.5zM1280 100q0 54 35 89.5t86 35.5 q53 0 88 -35.5t35 -89.5t-35 -89.5t-88 -35.5q-51 0 -86 35.5t-35 89.5z" />
<glyph unicode="&#x202f;" horiz-adv-x="362" />
<glyph unicode="&#x2039;" horiz-adv-x="550" d="M51 461q87 86 191 210.5t174 223.5l43 -29q-120 -263 -215 -405q93 -140 215 -406l-43 -28q-70 99 -174 223.5t-191 210.5z" />
<glyph unicode="&#x203a;" horiz-adv-x="550" d="M92 55q117 257 217 406q-101 152 -217 405l43 29q70 -99 174 -223.5t191 -210.5q-88 -87 -192 -212t-171 -222z" />
<glyph unicode="&#x205f;" horiz-adv-x="453" />
<glyph unicode="&#x20ac;" horiz-adv-x="931" d="M47 426v74h92q-2 34 -2 65l2 66h-92v71h100q16 109 59 196.5t102.5 141.5t128.5 82.5t141 28.5q52 0 98 -7.5t74 -18.5t48.5 -22t29.5 -19l8 -7l10 -231l-49 -8q-31 128 -84 190t-138 62q-94 0 -158.5 -92t-80.5 -296h344v-71h-350q-2 -35 -2 -66l2 -65h350v-74h-346 q11 -184 76.5 -284.5t152.5 -100.5q186 0 258 258l53 -12l-47 -232q-3 -3 -9.5 -8.5t-31 -20t-53 -25t-77 -19.5t-103.5 -9q-77 0 -142.5 25t-120.5 77t-92.5 141.5t-52.5 209.5h-98z" />
<glyph unicode="&#x2122;" horiz-adv-x="1716" d="M72 1145l30 221h29q0 -35 45 -35h447q55 0 63 35h29l-19 -225h-41q-4 66 -16 92t-39 35q-10 3 -68 7.5t-75 4.5v-504q0 -59 22 -74.5t101 -25.5v-45q-40 0 -98 3t-87 3t-86.5 -3t-97.5 -3v43q78 11 99.5 27t21.5 75v504q-86 0 -127 -12q-19 -4 -31.5 -11.5t-30.5 -37.5 t-32 -84zM721 631v43q63 9 86 28t27 70l45 473q-31 31 -103 41v45q20 0 62 -3t65 -3l125 6q0 -31 29 -110l147 -410l164 438q5 15 10.5 35.5t7.5 33.5l3 13q79 -6 124 -6q2 0 125 6v-45q-56 -7 -73 -23.5t-17 -58.5l15 -442q1 -47 21 -61.5t81 -24.5v-45q-30 0 -78 3t-82 3 t-81.5 -3t-77.5 -3v43q54 6 74 24.5t18 59.5l-15 454l-168 -442l-47 -143l-65 -4q-20 76 -43 137l-162 440l-31 -426q-4 -55 17.5 -74t85.5 -24v-45q-30 0 -73 3t-73 3t-71 -3t-72 -3z" />
<glyph unicode="&#xe000;" horiz-adv-x="911" d="M0 0v911h911v-911h-911z" />
</font>
</defs>
</svg>
