<?xml version="1.0" standalone="no"?>
<!DOCTYPE svg PUBLIC "-//W3C//DTD SVG 1.1//EN" "http://www.w3.org/Graphics/SVG/1.1/DTD/svg11.dtd" >
<svg xmlns="http://www.w3.org/2000/svg">
<metadata></metadata>
<defs>
<font id="new_macleans_displayregular" horiz-adv-x="1024" >
<font-face units-per-em="2048" ascent="1638" descent="-410" />
<missing-glyph horiz-adv-x="409" />
<glyph unicode="&#xfb01;" horiz-adv-x="1048" d="M45 0v51q92 7 117.5 33t25.5 111v624h-143v41l143 51v31q0 266 119 410q132 164 348 164q120 0 183 -50.5t63 -113.5q0 -55 -32 -89t-85 -34q-51 0 -77.5 30t-26.5 72q4 1 9.5 4t14.5 16t9 31q0 32 -28.5 52t-80.5 20q-72 0 -127 -38t-82 -95q-47 -100 -47 -277v-143h397 q27 0 60.5 10.5t53.5 20.5l20 10l16 -4v-743q0 -83 27 -109.5t114 -34.5v-51q-36 0 -107 5t-110 5t-108 -5t-107 -5v51q81 8 107 34.5t26 109.5v532q0 54 -19 73t-73 19h-295v-624q0 -82 34 -107.5t140 -36.5v-51q-51 0 -121.5 5t-119.5 5q-50 0 -121.5 -5t-116.5 -5z" />
<glyph unicode="&#xfb02;" horiz-adv-x="1085" d="M45 0v51q92 7 117.5 33t25.5 111v624h-143v41l143 51v21q0 146 24 236.5t75 162.5q52 75 145 130t193 55q40 0 73.5 -5.5t53 -13t33.5 -15t19 -12.5l5 -6q67 45 98 68l21 -10q-13 -100 -13 -410v-917q0 -84 27 -110t117 -34v-51q-24 0 -96.5 5t-122.5 5t-124.5 -5 t-101.5 -5v51q89 8 116.5 34.5t27.5 109.5v624h-408v-624q0 -82 37 -109t148 -35v-51q-51 0 -127 5t-125 5q-50 0 -121.5 -5t-116.5 -5zM352 901h408v359q0 89 -40.5 141.5t-121.5 52.5q-142 0 -205 -133q-41 -87 -41 -277v-143z" />
<glyph unicode="&#xfb03;" horiz-adv-x="1595" d="M45 0v51q92 7 117.5 33t25.5 111v624h-143v41l143 51q0 240 117 389q129 164 348 164q162 0 215 -98q49 61 132.5 105.5t201.5 44.5q120 0 183 -50.5t63 -113.5q0 -55 -32 -89t-85 -34q-51 0 -77.5 30t-26.5 72q4 1 9.5 4t14.5 16t9 31q0 32 -28.5 52t-80.5 20 q-72 0 -127 -38t-82 -95q-47 -100 -47 -277v-143h397q27 0 60.5 10.5t53.5 20.5l19 10l17 -4v-743q0 -83 27 -109.5t114 -34.5v-51q-38 0 -109 5t-110 5q-38 0 -107 -5t-108 -5v51q81 8 107 34.5t26 109.5v532q0 54 -19 73t-73 19h-295v-624q0 -82 36.5 -109t147.5 -35v-51 q-48 0 -125 5t-125 5q-50 0 -116 -5t-111 -5v51q87 11 110 35.5t23 108.5v624h-387v-624q0 -82 34 -107.5t140 -36.5v-51q-48 0 -119.5 5t-119.5 5q-50 0 -121.5 -5t-116.5 -5zM348 901h387v31q0 194 37 276q-36 0 -59 23t-23 49q21 21 21 55q0 29 -32 48.5t-85 19.5 q-71 0 -121 -37.5t-78 -95.5q-47 -100 -47 -277v-92z" />
<glyph unicode="&#xfb04;" horiz-adv-x="1632" d="M45 0v51q92 7 117.5 33t25.5 111v624h-143v41l143 51q0 240 117 389q135 164 350 164q158 0 209 -98q45 55 128 102.5t179 47.5q64 0 110 -13t61 -26l14 -13q67 45 98 68l21 -10q-13 -100 -13 -410v-917q0 -84 27 -110t117 -34v-51q-27 0 -99.5 5t-122.5 5t-124 -5 t-101 -5v51q88 6 116 33t28 111v624h-408v-624q0 -82 36.5 -109t147.5 -35v-51q-45 0 -123 5t-127 5q-50 0 -116 -5t-111 -5v51q87 11 110 35.5t23 108.5v624h-387v-624q0 -82 34 -107.5t140 -36.5v-51q-48 0 -119.5 5t-119.5 5q-50 0 -121.5 -5t-116.5 -5zM348 901h387v31 q0 194 37 276q-36 0 -59 23t-23 49q21 21 21 55q0 29 -32 48.5t-85 19.5q-71 0 -121 -37.5t-78 -95.5q-47 -100 -47 -277v-92zM895 901h408v359q0 89 -40.5 141.5t-121.5 52.5q-142 0 -205 -133q-41 -87 -41 -277v-143z" />
<glyph horiz-adv-x="2048" />
<glyph horiz-adv-x="2048" />
<glyph unicode="&#xd;" horiz-adv-x="2048" />
<glyph unicode=" "  horiz-adv-x="409" />
<glyph unicode="&#x09;" horiz-adv-x="409" />
<glyph unicode="&#xa0;" horiz-adv-x="409" />
<glyph unicode="!" horiz-adv-x="532" d="M147 92q0 51 34 86t85 35t85 -35t34 -86t-34 -86t-85 -35t-85 35t-34 86zM160 1311q0 45 30 73.5t76 28.5t76.5 -28.5t30.5 -73.5q0 -32 -21.5 -226.5t-27.5 -265.5l-33 -440h-49l-31 440q-5 80 -28 271.5t-23 220.5z" />
<glyph unicode="&#x22;" horiz-adv-x="911" d="M174 1341q-6 46 20.5 79.5t71.5 33.5t71.5 -33.5t20.5 -79.5l-71 -481h-41zM553 1341q-6 46 20.5 79.5t71.5 33.5t71.5 -33.5t20.5 -79.5l-71 -481h-41z" />
<glyph unicode="#" d="M45 602l10 74h232l47 332h-232l11 71h231l39 279h82l-39 -279h242l37 279h81l-36 -277h229l-10 -71h-230l-47 -334h234l-11 -72h-233l-55 -411h-82l55 411h-240l-57 -411h-82l58 409h-234zM369 676h241l47 334h-241z" />
<glyph unicode="$" d="M113 422l55 10q38 -169 122 -259t171 -95v543l-72 38q-121 66 -168 113q-94 94 -94 221q0 73 34.5 140t84.5 106q45 35 106 58t109 26v121h82v-117q167 0 303 -78l-10 -268l-52 -4q-37 268 -241 280v-473l102 -57q123 -67 178 -137q74 -94 74 -215q0 -154 -123 -264 q-88 -81 -231 -101v-164h-82v158q-84 3 -175 31.5t-153 70.5zM287 1059q0 -156 174 -234v428q-84 -17 -129 -68.5t-45 -125.5zM543 82q68 9 116 57q29 29 48.5 76t19.5 92q0 96 -45 160q-40 53 -139 113v-498z" />
<glyph unicode="%" horiz-adv-x="1536" d="M102 1014q0 164 78 276.5t199 112.5q122 0 202.5 -113t80.5 -276q0 -164 -78 -276.5t-199 -112.5q-122 0 -202.5 113t-80.5 276zM250 1020q0 -141 33 -237.5t100 -96.5q47 0 77 50t41 121t11 163q0 90 -12 161.5t-43 121t-78 49.5q-46 0 -76 -49.5t-41.5 -121 t-11.5 -161.5zM383 0l672 1378h96l-670 -1378h-98zM874 362q0 165 78 278.5t199 113.5q122 0 202.5 -113t80.5 -276q0 -164 -78 -278t-199 -114q-122 0 -202.5 113t-80.5 276zM1024 369q0 -141 32.5 -237.5t100.5 -96.5q46 0 76 49.5t41.5 121.5t11.5 163q0 140 -33 236.5 t-100 96.5q-47 0 -77 -49.5t-41 -120.5t-11 -163z" />
<glyph unicode="&#x26;" horiz-adv-x="1454" d="M82 338q0 234 338 414q-32 25 -49 39t-45.5 44.5t-43.5 57.5t-27.5 68.5t-12.5 87.5q0 117 92.5 189.5t222.5 72.5q129 0 206 -60t77 -166q0 -156 -242 -280q100 -63 190.5 -154.5t143.5 -185.5q174 251 174 307q0 26 -25.5 42.5t-48.5 21t-39 4.5v51q36 0 107.5 -4 t107.5 -4t102.5 4t102.5 4v-51q-95 -7 -142.5 -40t-113.5 -124l-194 -266q10 -15 30 -57t41 -82.5t49 -82t65 -67t77 -25.5q37 0 68.5 11t56 33.5t35 34.5t28.5 36l37 -27q-14 -29 -36 -60.5t-58 -69t-88.5 -61.5t-110.5 -24q-46 0 -86 18t-66.5 42t-54 67.5t-42 74 t-36.5 81.5l-6 14l-10 -14q-33 -46 -51 -69.5t-62.5 -71t-82 -73.5t-94.5 -47.5t-115 -21.5q-154 0 -261.5 107.5t-107.5 261.5zM246 399q0 -118 75.5 -202t190.5 -84q45 0 87 13.5t70 29.5t64 51t52 53.5t51 61.5q-52 104 -162 218t-217 183q-211 -132 -211 -324zM383 1085 q0 -71 51.5 -137t128.5 -114q62 32 108 92.5t46 138.5q0 86 -44 138t-120 52q-77 0 -123.5 -46.5t-46.5 -123.5z" />
<glyph unicode="'" horiz-adv-x="512" d="M164 1341q-6 46 20.5 79.5t71.5 33.5t71.5 -33.5t20.5 -79.5l-72 -481h-40z" />
<glyph unicode="(" horiz-adv-x="614" d="M49 573q0 162 42 322t102 277t132.5 218t126.5 156.5t91 81.5l30 -31q-368 -415 -368 -1024t368 -1024l-30 -30q-37 26 -91 81.5t-126.5 156.5t-132.5 217.5t-102 276.5t-42 322z" />
<glyph unicode=")" horiz-adv-x="614" d="M41 -451q369 416 369 1024t-369 1024l31 31q37 -26 91 -81.5t126 -156.5t132 -218t102 -277t42 -322t-42 -322t-102 -276.5t-132 -217.5t-126 -156.5t-91 -81.5z" />
<glyph unicode="*" horiz-adv-x="911" d="M106 1198q9 30 37.5 45t55.5 0l245 -141l-57 278q-6 30 16 52t54 22t53.5 -22t15.5 -52l-57 -278l248 141q25 15 52 0t38 -45q9 -31 -4 -58t-43 -30l-283 -31l211 -192q21 -21 16 -51.5t-30 -49.5t-56 -13.5t-43 32.5l-118 260l-117 -260q-12 -27 -43.5 -32.5t-56.5 13.5 q-26 19 -30.5 49.5t17.5 51.5l211 192l-282 31q-30 3 -44.5 30.5t-5.5 57.5z" />
<glyph unicode="+" d="M51 420v88h414v416h94v-416h414v-88h-414v-416h-94v416h-414z" />
<glyph unicode="," horiz-adv-x="512" d="M133 -276q54 25 91.5 57t54 64t22.5 56.5t6 47.5q0 36 -18 57t-43 21q-14 0 -26.5 -5.5t-18.5 -11.5l-6 -6q-6 3 -14.5 9.5t-23 31.5t-14.5 57q0 53 39 88t94 35q29 0 56 -11t51 -33.5t38.5 -64t14.5 -96.5q0 -113 -82 -211t-200 -137z" />
<glyph unicode="-" horiz-adv-x="563" d="M61 403l21 134l420 43l-21 -134z" />
<glyph unicode="." horiz-adv-x="512" d="M139 96q0 51 34.5 86t84.5 35q51 0 86 -35t35 -86q0 -50 -35 -84.5t-86 -34.5q-50 0 -84.5 34.5t-34.5 84.5z" />
<glyph unicode="/" horiz-adv-x="614" d="M31 -98l450 1532h103l-451 -1532h-102z" />
<glyph unicode="0" d="M76 655q0 153 36.5 283.5t97 217.5t139.5 136t163 49q85 0 163.5 -48t139 -133.5t97 -215t36.5 -282.5t-36.5 -284t-97 -218.5t-139.5 -137t-163 -49.5q-85 0 -163.5 48.5t-139 134.5t-97 216t-36.5 283zM270 662q0 -316 67 -466.5t175 -150.5t175 150.5t67 466.5 q0 162 -19 283t-52.5 192t-76 105t-94.5 34q-108 0 -175 -149.5t-67 -464.5z" />
<glyph unicode="1" horiz-adv-x="911" d="M123 1147q105 35 241.5 100.5t172.5 93.5l32 -20q-14 -143 -14 -338v-707q0 -81 6 -116.5t25 -57.5q18 -22 63.5 -32.5t138.5 -18.5v-51q-67 0 -174 5t-143 5t-141 -5t-172 -5v51q91 8 137 18.5t63 32.5q18 23 24.5 59.5t6.5 114.5v830q0 33 -27 33q-12 0 -18 -2 l-205 -41z" />
<glyph unicode="2" d="M72 1044q50 133 149 215t244 82q156 0 258 -93t102 -244q0 -59 -21 -123.5t-47.5 -115t-74.5 -116t-79 -101.5t-85 -97l-262 -297h471q73 0 109.5 24t89.5 98l37 -20l-103 -276h-24q0 20 -31 20h-703l-26 51q71 71 201 229t198 252q39 54 51 70.5t42.5 66.5t42 81.5 t23 81.5t11.5 100q0 128 -70 202t-180 74q-98 0 -172 -55.5t-110 -128.5z" />
<glyph unicode="3" d="M117 164q0 44 24 68t64 24q15 0 27 -6t22.5 -19t17 -23.5t16 -28.5t13.5 -25q12 -20 23 -34.5t32 -34t51.5 -30t67.5 -10.5q43 0 85.5 17.5t81 52.5t62 95.5t23.5 137.5q0 97 -37.5 162t-85.5 94q-67 41 -164 41q-27 0 -59 -4t-50 -8l-18 -4l-16 51l188 82 q57 35 101.5 97t44.5 145q0 93 -57 154t-148 61q-151 0 -246 -134l-37 25q49 99 142.5 165t210.5 66q128 0 213.5 -68.5t85.5 -187.5q0 -58 -22 -110.5t-59 -91.5t-75 -66.5t-82 -48.5q147 0 240.5 -96.5t93.5 -231.5q0 -194 -125 -319q-148 -148 -356 -148q-141 0 -217 60 t-76 131z" />
<glyph unicode="4" d="M51 369v133l615 839h112v-849h191v-123h-191v-379h-164v379h-563zM137 492h477v655z" />
<glyph unicode="5" d="M102 164q0 45 23.5 68.5t62.5 23.5q15 0 27.5 -6t23.5 -19.5t17.5 -22.5t17 -29t13.5 -25q14 -23 22.5 -35t29.5 -33t51.5 -31t70.5 -10q44 0 87 18.5t81 54t61 96.5t23 138q0 160 -131 266.5t-351 129.5l-22 30l160 533h440q36 0 56.5 14.5t45.5 52.5l31 -16l-61 -164 q-9 -24 -19 -32.5t-33 -8.5h-419l-82 -256q258 -45 395 -168.5t137 -302.5q0 -194 -143 -328q-62 -58 -136 -93.5t-186 -35.5q-139 0 -216 60t-77 131z" />
<glyph unicode="6" d="M96 471q0 205 77.5 373.5t209.5 292.5q196 185 494 256l10 -41q-111 -37 -215.5 -113.5t-184.5 -173.5q-78 -94 -133.5 -215.5t-70.5 -235.5q46 79 127 126.5t180 47.5q154 0 256 -105.5t102 -272.5q0 -85 -28.5 -163t-80.5 -139.5t-134.5 -98t-182.5 -36.5 q-135 0 -232.5 65t-145.5 176.5t-48 256.5zM283 389q0 -145 64 -244.5t175 -99.5q114 0 183 91.5t69 232.5q0 144 -65 241t-177 97q-114 0 -181.5 -89t-67.5 -229z" />
<glyph unicode="7" d="M66 1044l102 287h27q0 -20 30 -20h752l16 -25l-686 -1327l-92 51l604 1147h-536q-21 0 -39 -3t-33.5 -11.5t-25 -14.5t-23 -22t-19.5 -23.5t-21 -29t-20 -29.5z" />
<glyph unicode="8" d="M102 307q0 61 23 115t55.5 90t76.5 66.5t76.5 45.5t65.5 27q-34 20 -54 32.5t-52 35t-51 41.5t-42.5 47.5t-36 57.5t-21.5 67.5t-9 81.5q0 98 57 174.5t142.5 114.5t179.5 38q71 0 137 -18t121 -53t88 -93.5t33 -132.5q0 -49 -18.5 -93t-41 -72t-62.5 -57t-62.5 -41 t-61.5 -30.5t-41 -19.5q54 -29 93 -53t84.5 -61.5t74 -75.5t47.5 -91t19 -112q0 -153 -120 -259t-290 -106q-114 0 -206 38t-148 115t-56 181zM256 317q0 -113 69 -192.5t187 -79.5q117 0 181.5 73t64.5 179q0 48 -18.5 90.5t-45 74t-72.5 64t-85 54.5t-97 51 q-78 -52 -131 -133.5t-53 -180.5zM291 1055q0 -60 20.5 -107t67.5 -84.5t78 -55.5t94 -50l12 -6q170 113 170 292q0 107 -60.5 170.5t-160.5 63.5t-160.5 -61.5t-60.5 -161.5z" />
<glyph unicode="9" d="M76 905q0 85 28.5 163t80.5 139t134.5 97.5t182.5 36.5q202 0 314 -137t112 -358q0 -385 -283 -651q-112 -105 -251.5 -177t-243.5 -96l-13 41q111 37 218 116.5t188 176.5q76 91 129.5 212.5t70.5 238.5q-47 -79 -128.5 -127t-178.5 -48q-156 0 -258 103t-102 270z M250 958q0 -144 65 -242t177 -98q114 0 181.5 89t67.5 231q0 144 -64 241t-175 97q-114 0 -183 -89t-69 -229z" />
<glyph unicode=":" horiz-adv-x="512" d="M147 96q0 51 35 86t86 35q50 0 84.5 -34.5t34.5 -84.5q0 -51 -34.5 -86t-84.5 -35q-51 0 -86 34.5t-35 84.5zM147 782q0 51 35 86t86 35q50 0 84.5 -34.5t34.5 -84.5q0 -51 -34.5 -85.5t-84.5 -34.5q-51 0 -86 34t-35 84z" />
<glyph unicode=";" horiz-adv-x="512" d="M133 -276q54 25 91.5 57t54 64t22.5 56.5t6 47.5q0 36 -18 57t-43 21q-14 0 -26.5 -5.5t-18.5 -11.5l-6 -6q-6 3 -14.5 9.5t-23 31.5t-14.5 57q0 53 39 88t94 35q29 0 56 -11t51 -33.5t38.5 -64t14.5 -96.5q0 -113 -82 -211t-200 -137zM147 782q0 51 35 86t86 35 q50 0 84.5 -34.5t34.5 -84.5q0 -51 -34.5 -85.5t-84.5 -34.5q-51 0 -86 34t-35 84z" />
<glyph unicode="&#x3c;" d="M51 418v90l922 436v-110l-793 -371l793 -371v-110z" />
<glyph unicode="=" d="M51 258v94h922v-94h-922zM51 573v95h922v-95h-922z" />
<glyph unicode="&#x3e;" d="M51 -18v110l793 371l-793 371v110l922 -436v-90z" />
<glyph unicode="?" horiz-adv-x="737" d="M121 92q0 51 34.5 86t84.5 35q51 0 85.5 -35t34.5 -86q0 -50 -34.5 -85.5t-85.5 -35.5q-49 0 -84 35.5t-35 85.5zM133 1413h41q4 -14 18 -26t26.5 -17.5t40.5 -15t38 -13.5q39 -15 63 -26t72 -43t90 -74q133 -133 133 -328q0 -160 -102 -235q-39 -29 -94.5 -45.5 t-110.5 -16.5q-51 0 -60 -9.5t-12 -51.5l-10 -133h-51l-20 297q-3 51 41 51h51q127 0 212 53.5t85 161.5q0 56 -20.5 95.5t-61 63t-86.5 36.5t-109 20l-82 10q-45 6 -62 26t-20 67z" />
<glyph unicode="@" horiz-adv-x="1976" d="M154 430q0 188 73.5 353t197 280t290.5 181.5t350 66.5q224 0 401 -82.5t277 -235t100 -348.5q0 -144 -54 -266.5t-141 -201.5t-193.5 -123t-215.5 -44q-35 0 -60 3t-50 12t-37.5 28.5t-12.5 48.5q0 103 119 390q-92 -147 -235 -297q-74 -79 -153.5 -133t-129.5 -54 q-127 0 -127 176q0 107 70.5 254.5t185.5 268.5q214 225 412 225q44 0 74 -13t38 -25l8 -13l41 71h82l-204 -665q-29 -92 -29 -129q0 -56 59 -56q106 0 215 62q28 16 55 36.5t65.5 62.5t66.5 91.5t48.5 126.5t20.5 164q0 166 -86.5 300t-236 209t-332.5 75 q-180 0 -333 -66.5t-256.5 -180.5t-161.5 -267.5t-58 -325.5q0 -168 59 -305.5t161 -226.5t237 -137t290 -48q115 0 220.5 21t174 51t121 60.5t76.5 51.5l23 21l33 -43q-8 -9 -25 -25t-78 -56t-132.5 -71t-191 -56t-251.5 -25q-176 0 -333 58.5t-274 163.5t-185 262.5 t-68 344.5zM707 246q0 -48 14.5 -71t48.5 -23q88 0 254 186q114 127 184 266q52 102 52 156q0 31 -25 55.5t-76 24.5q-143 0 -289 -185q-82 -105 -122.5 -219.5t-40.5 -189.5z" />
<glyph unicode="A" horiz-adv-x="1255" d="M-20 0v53q76 15 112 51q37 37 62 111l327 891q58 154 72 225q107 11 158 21q12 -59 77 -246l308 -891q26 -76 61 -111q36 -36 113 -51v-53q-46 0 -123 5t-123 5t-133 -5t-133 -5v53q124 13 145 60q8 16 8 39q0 31 -14 77l-84 273h-459l-96 -271q-16 -45 -16 -78 q0 -23 8 -40q24 -47 147 -60v-53q-41 0 -111.5 5t-111.5 5t-97 -5t-97 -5zM381 590h401l-194 598z" />
<glyph unicode="B" horiz-adv-x="1177" d="M37 0v53q77 11 103.5 19.5t49.5 31.5t30 59.5t7 115.5v780q0 85 -6 121t-24 59q-34 39 -150 45v53q45 0 131.5 -4t136.5 -4t121.5 4t116.5 4q65 0 126.5 -8.5t122.5 -30.5t106.5 -54.5t73.5 -85t28 -118.5t-28 -120t-67 -87t-93.5 -58.5t-94.5 -37t-82 -18.5 q53 -3 110 -16.5t118.5 -42t110 -68t79.5 -102t31 -136.5q0 -75 -31.5 -137t-81.5 -101t-114 -66t-126 -38.5t-120 -11.5q-52 0 -157.5 5t-150.5 5q-46 0 -138 -5t-138 -5zM401 207q0 -42 4.5 -66t18.5 -43.5t41.5 -27t73.5 -7.5q81 0 141.5 15t108.5 49t73 95t25 147 q0 68 -26.5 122.5t-68.5 89t-100 58t-115 34t-120 13.5l-56 2v-481zM401 743l127 9q62 4 110 18t88.5 43t62.5 79.5t22 121.5q0 262 -344 262q-38 0 -52 -14.5t-14 -53.5v-465z" />
<glyph unicode="C" horiz-adv-x="1300" d="M82 676q0 128 38 240.5t103.5 194t152.5 140.5t187 88t205 29q77 0 150 -11t121.5 -27t86 -32t54.5 -27l18 -11l10 -310l-51 -8q-71 354 -399 354q-94 0 -176.5 -40t-147 -115.5t-102 -195.5t-37.5 -269t36 -269t98.5 -196t144 -116t174.5 -40q89 0 165 28.5t130.5 79 t93.5 109t65 127.5l58 -20l-93 -287q-5 -5 -16 -13t-48.5 -29t-81 -37t-115 -29t-148.5 -13q-310 0 -493 188.5t-183 516.5z" />
<glyph unicode="D" horiz-adv-x="1413" d="M39 0v53q78 11 104.5 19.5t49.5 31.5q22 22 29 58t7 117v780q0 85 -6 121t-24 59q-34 39 -150 45v53q46 0 133 -4t133 -4q41 0 116 4t147 4q258 0 421 -88q44 -24 86 -55.5t88 -83t80 -111.5t56 -144.5t22 -178.5q0 -357 -278 -553q-174 -123 -451 -123q-52 0 -147 5 t-140 5q-46 0 -138 -5t-138 -5zM403 205q0 -70 27.5 -98.5t95.5 -28.5h49q248 0 375 127q71 71 118.5 191.5t47.5 289.5q0 318 -190 471q-133 107 -369 107h-41q-76 0 -94.5 -18t-18.5 -95v-946z" />
<glyph unicode="E" horiz-adv-x="1157" d="M39 0v53q72 9 101.5 18.5t52.5 32.5q22 22 29 58.5t7 116.5v780q0 84 -6 120.5t-24 59.5q-34 39 -150 45v53q46 0 133 -4t133 -4l703 8l6 -303l-41 -4q-18 53 -28 79.5t-26.5 57t-31.5 43.5t-40 25.5t-55.5 16t-74.5 3.5h-235q-61 0 -73.5 -14t-12.5 -76v-440l208 6 q70 2 104 9.5t54 27.5q43 43 49 143h49q0 -41 -5 -117t-5 -114t5 -114t5 -117h-47q-9 113 -49 153q-20 20 -55 27.5t-105 9.5l-208 6v-420q0 -86 25 -112.5t112 -26.5h235q108 0 177 70.5t120 199.5l51 -14l-84 -342q-117 0 -406 5t-321 5q-46 0 -138 -5t-138 -5z" />
<glyph unicode="F" horiz-adv-x="1034" d="M39 0v53q72 9 101.5 18.5t52.5 32.5q22 22 29 58.5t7 116.5v780q0 84 -6 120.5t-24 59.5q-34 39 -150 45v53q46 0 133 -4t133 -4l682 8l7 -303l-41 -2q-18 53 -28 79.5t-26.5 57t-31.5 43.5t-40 25.5t-55.5 16t-74.5 3.5h-215q-61 0 -73.5 -14t-12.5 -76v-460l202 6 q70 2 105 9.5t55 27.5q40 40 49 143h49q0 -41 -5 -115.5t-5 -115.5t5 -116t5 -116h-49q-6 111 -49 154q-34 34 -158 37l-204 6v-348q0 -83 6 -118t28 -57q23 -23 55 -32.5t111 -18.5v-53q-45 0 -139.5 5t-144.5 5t-144 -5t-139 -5z" />
<glyph unicode="G" horiz-adv-x="1433" d="M80 676q0 139 42 256t110.5 196t157.5 134.5t181.5 80.5t184.5 25q83 0 160.5 -10.5t128.5 -25.5t90 -30t57 -26l18 -10l7 -305l-52 -9q-77 344 -399 344q-97 0 -182 -40t-150.5 -115.5t-103 -195.5t-37.5 -269q0 -150 36 -269.5t99.5 -195.5t147 -116t180.5 -40 q73 0 129 10t88 25t51.5 36t26 39.5t6.5 39.5v205q0 38 -5 59t-22.5 40t-53.5 27.5t-97 12.5v51q46 0 134 -5t134 -5t123 5t123 5v-51q-39 -4 -66 -10t-45 -18t-27.5 -23t-14.5 -33.5t-6 -41t-1 -54.5v-179q0 -20 8.5 -28t28.5 -8v-31q-8 -6 -23.5 -16.5t-67.5 -36.5 t-110 -46t-148.5 -36.5t-185.5 -16.5q-130 0 -245.5 43.5t-208 127.5t-147 222t-54.5 312z" />
<glyph unicode="H" horiz-adv-x="1525" d="M41 0v53q78 11 104.5 19.5t49.5 31.5q22 22 29 58.5t7 116.5v780q0 84 -6 120.5t-24 59.5q-34 39 -150 45v53q46 0 133 -4t133 -4t129 4t129 4v-51q-57 -5 -89 -15t-50 -32q-19 -22 -24.5 -57.5t-5.5 -120.5v-309h714v307q0 86 -5 122t-23 58q-34 39 -142 45v53 q46 0 129 -4t129 -4t133.5 4t133.5 4v-51q-118 -10 -148 -47q-20 -23 -26.5 -60t-6.5 -118v-782q0 -79 7 -115.5t30 -59.5t49.5 -31.5t104.5 -19.5v-53q-46 0 -138.5 5t-138.5 5t-138.5 -5t-139.5 -5v53q70 8 101 18t54 33q22 22 28.5 58t6.5 117v383h-714v-383 q0 -83 6 -118t28 -57q23 -23 54.5 -33t101.5 -18v-53q-47 0 -140 5t-139 5t-138 -5t-138 -5z" />
<glyph unicode="I" horiz-adv-x="636" d="M41 0v53q78 11 104.5 19.5t49.5 31.5q22 22 29 58.5t7 116.5v780q0 84 -6 120.5t-24 59.5q-34 39 -150 45v53q46 0 133 -4t133 -4t133.5 4t133.5 4v-51q-118 -10 -148 -47q-19 -22 -24.5 -57.5t-5.5 -120.5v-782q0 -83 6 -118t28 -57q23 -23 54.5 -33t101.5 -18v-53 q-47 0 -140 5t-139 5t-138 -5t-138 -5z" />
<glyph unicode="J" horiz-adv-x="614" d="M-154 -297q0 33 22.5 57.5t59.5 24.5q17 0 33 -14.5t28.5 -31.5t37 -31.5t55.5 -14.5q160 0 160 409v957q0 83 -6 120t-25 60q-34 39 -150 45v53q46 0 133.5 -4t133.5 -4t133 4t133 4v-51q-118 -10 -148 -47q-19 -22 -24.5 -57.5t-5.5 -120.5v-754q0 -369 -119 -522 q-69 -88 -153.5 -136t-163.5 -48q-69 0 -101.5 32t-32.5 70z" />
<glyph unicode="K" horiz-adv-x="1255" d="M39 0v53q78 11 104.5 19.5t49.5 31.5t29.5 57.5t6.5 117.5v782q0 86 -5.5 120.5t-24.5 57.5q-34 39 -150 45v53q46 0 134 -4t134 -4t133.5 4t133.5 4v-51q-64 -5 -97 -15t-51 -32q-19 -22 -24.5 -57t-5.5 -119v-428l413 450q5 6 21 22.5t22.5 24t19.5 22t19 23t13.5 19.5 t10.5 19t3 14q0 49 -99 55v53q45 0 114 -4t91 -4t91 4t114 4v-51q-74 -7 -143 -45q-57 -31 -123 -104l-277 -297l369 -647q47 -80 90 -103q47 -27 115 -37v-53q-20 0 -85 4t-85 4l-150 -8l-383 707l-164 -175v-253q0 -81 6.5 -117t28.5 -58q23 -23 54 -33t100 -18v-53 q-47 0 -139 5t-138 5t-138 -5t-138 -5z" />
<glyph unicode="L" horiz-adv-x="1126" d="M41 0v53q72 9 101.5 18.5t52.5 32.5q22 22 29 58.5t7 116.5v780q0 84 -6 120.5t-24 59.5q-34 39 -150 45v53q46 0 136.5 -4t136.5 -4t136 4t136 4v-51q-71 -5 -106.5 -14.5t-53.5 -32.5q-19 -22 -24.5 -57.5t-5.5 -120.5v-819q0 -49 2 -72t12.5 -44t32 -27.5t59.5 -6.5 h236q109 0 173 67.5t123 215.5l52 -17l-82 -358q-117 0 -391 5t-306 5q-46 0 -138 -5t-138 -5z" />
<glyph unicode="M" horiz-adv-x="1767" d="M20 0v53q102 11 139 51t46 156l71 856q1 14 1 26q0 53 -21 79q-38 48 -164 63v53q36 0 97.5 -4t97.5 -4l194 8q6 -55 41 -139l373 -907l385 928q12 27 20 56.5t10 45.5l1 16q122 -8 194 -8q36 0 97.5 4t97.5 4v-51q-48 -5 -77 -14t-48 -22t-27.5 -40t-10.5 -58 q-1 -21 -1 -52v-33l25 -831q2 -58 10.5 -91.5t33.5 -52.5t55.5 -26t90.5 -13v-53q-46 0 -133 5t-133 5t-133 -5t-133 -5v53q115 11 141 39q24 26 24 128v16l-16 931l-395 -931q-23 -54 -46 -115.5t-35 -96.5l-11 -34h-52q-43 125 -92 246l-368 886l-56 -860q-2 -24 -2 -45 q1 -84 27 -115q32 -39 154 -49v-53q-46 0 -118 5t-118 5t-118 -5t-118 -5z" />
<glyph unicode="N" horiz-adv-x="1454" d="M37 0v53q65 8 98 18.5t55 32.5q22 21 26.5 54.5t4.5 120.5l8 829q0 84 -39 123q-37 37 -143 53v53q31 0 87 -4t87 -4l170 8q19 -41 113 -170l661 -891l-10 779v25q-1 51 -2.5 73t-8 45t-20.5 37q-23 23 -56 32.5t-97 16.5v53q44 0 118.5 -4t118.5 -4t118.5 4t117.5 4v-51 q-61 -6 -94.5 -16.5t-55.5 -32.5q-5 -5 -9 -10.5t-7 -13.5t-5 -14t-3.5 -17.5t-2.5 -18.5t-1.5 -23t-0.5 -24.5t-0.5 -29t-0.5 -31.5l-9 -697v-33q0 -67 3 -140q4 -92 8 -143l4 -52l-68 -31q-86 90 -174 209l-711 958l15 -847q0 -11 1 -31.5t0.5 -28.5t0 -23.5t1.5 -21.5 t2.5 -17.5t3.5 -16.5l5 -12.5t7 -13t9 -10.5q22 -22 53.5 -31.5t104.5 -19.5v-53q-46 0 -120.5 5t-120.5 5t-121 -5t-121 -5z" />
<glyph unicode="O" horiz-adv-x="1474" d="M82 655q0 157 52 292t140 226.5t205.5 143t247.5 51.5q131 0 251 -47.5t212.5 -133.5t147.5 -217.5t55 -287.5q0 -157 -52 -292t-140 -226.5t-205.5 -143t-247.5 -51.5q-131 0 -251 47.5t-212.5 133.5t-147.5 217.5t-55 287.5zM297 702q0 -160 42 -288.5t110.5 -205.5 t149 -117t163.5 -40q67 0 126 18t113 61.5t92.5 109.5t61.5 168t23 231q0 160 -42 288.5t-110.5 205.5t-149 117t-163.5 40q-67 0 -126 -18t-113 -61.5t-92.5 -109.5t-61.5 -168t-23 -231z" />
<glyph unicode="P" horiz-adv-x="1101" d="M41 0v53q78 11 104.5 19.5t49.5 31.5q22 22 29 58.5t7 116.5v780q0 84 -6 120.5t-24 59.5q-34 39 -150 45v53q46 0 133 -4t133 -4q38 0 130.5 4t177.5 4q80 0 154 -21.5t136.5 -63t100 -111t37.5 -158.5q0 -108 -37.5 -182.5t-106.5 -134.5q-106 -93 -276 -93 q-36 0 -73.5 10.5t-57.5 20.5l-19 10l21 48q40 -23 106 -23q103 0 172.5 85t69.5 239q0 156 -89 230.5t-249 74.5q-42 0 -59 -3t-27 -14q-20 -17 -20 -90v-882q0 -83 6 -118t28 -57q23 -23 54.5 -32.5t109.5 -18.5v-53q-52 0 -143 5t-139 5q-50 0 -144 -5t-139 -5z" />
<glyph unicode="Q" horiz-adv-x="1474" d="M82 655q0 157 52 292t140 226.5t205.5 143t247.5 51.5q131 0 251 -47.5t212.5 -133.5t147.5 -217.5t55 -287.5q0 -123 -31.5 -231.5t-81 -184t-113.5 -134t-125 -90.5t-120 -46q71 -89 143 -150q46 -39 82 -64t103 -52.5t143 -36.5l-11 -51q-184 0 -325.5 54.5 t-257.5 170.5l-103 102q-93 8 -181 39.5t-167 89.5t-138 136.5t-93.5 187t-34.5 233.5zM297 702q0 -160 42 -288.5t110.5 -205.5t149 -117t163.5 -40q67 0 126 18t113 61t92.5 109t61.5 168t23 232q0 160 -42 288.5t-110.5 205.5t-149 117t-163.5 40q-67 0 -126 -18 t-113 -61.5t-92.5 -109.5t-61.5 -168t-23 -231z" />
<glyph unicode="R" horiz-adv-x="1208" d="M41 0v53q69 8 100 18t54 33t29.5 57.5t6.5 117.5v780q0 86 -6 121.5t-24 58.5q-34 39 -150 45v53q45 0 124.5 -4t131.5 -4q51 0 148.5 4t148.5 4q131 0 225 -37q21 -8 41.5 -18.5t52 -34.5t54.5 -52t40 -73.5t17 -97.5q0 -129 -95.5 -221.5t-227.5 -126.5q29 -4 54.5 -20 t49 -47.5t38 -57t38.5 -70.5l158 -297q35 -62 81 -92t109 -39v-53q-25 0 -79 4t-79 4l-149 -8l-264 508q-4 7 -13 25t-12 23.5t-11.5 19t-13 18l-13.5 13.5t-17.5 12t-20 6t-24.5 4l-137 6v-356q0 -83 6 -118t28 -57q23 -23 52.5 -33t91.5 -18v-53q-46 0 -133.5 5t-133.5 5 t-138 -5t-138 -5zM408 696l116 4q314 9 314 304q0 59 -18 106t-48 76t-71.5 48t-84.5 26.5t-92 7.5h-65q-31 0 -41 -10t-10 -41v-521z" />
<glyph unicode="S" horiz-adv-x="911" d="M66 410l61 10q19 -93 50 -163t62.5 -109.5t68.5 -63.5t65.5 -31.5t56.5 -7.5q110 0 178 68t68 180q0 83 -35 141q-43 71 -139 129l-154 92q-118 71 -168 123q-96 101 -96 242q0 88 40.5 156t100.5 108q111 78 287 78q88 0 165.5 -26.5t121.5 -55.5l-11 -279l-51 -8 q-7 85 -32 145.5t-63 92t-79.5 45.5t-91.5 14q-94 0 -160.5 -56.5t-66.5 -143.5q0 -92 53 -152q58 -64 133 -109l154 -92q134 -80 188 -149q74 -95 74 -230q0 -156 -123 -276q-57 -54 -137.5 -83.5t-165.5 -29.5q-205 0 -328 123z" />
<glyph unicode="T" horiz-adv-x="1157" d="M4 1008l43 381h31q0 -20 10.5 -33t31.5 -18t37.5 -6t43.5 -1q266 -4 383 -4l372 6q90 2 115 10q34 13 49 46h33l-31 -392h-47q-8 138 -49.5 193.5t-146.5 58.5l-209 6v-976q0 -79 7 -115.5t30 -59.5q22 -22 52 -31t111 -20v-53q-51 0 -143 5t-143 5t-143.5 -5t-143.5 -5 v53q81 11 111.5 20t52.5 31q23 23 30 59.5t7 115.5v976l-232 -6q-73 -1 -123 -63.5t-90 -188.5z" />
<glyph unicode="U" horiz-adv-x="1443" d="M23 1284v53q47 0 136 -4t132 -4t132 4t136 4v-51q-116 -9 -149 -47q-18 -23 -24.5 -60t-6.5 -118v-461q0 -238 47 -338q14 -30 37.5 -57t61.5 -54t98.5 -43t134.5 -16q75 0 135.5 16t99 42.5t62 53t37.5 56.5q47 100 47 312v26l-6 461q-2 89 -7 123.5t-24 56.5 q-18 23 -49.5 32.5t-94.5 12.5v53q39 0 114 -4t114 -4t116.5 4t116.5 4v-51h-8q-105 0 -143 -47q-19 -22 -25 -58.5t-6 -119.5v-498q0 -199 -37 -311q-98 -283 -481 -283q-76 0 -141.5 12t-111 30t-83.5 45t-61.5 51.5t-42 54t-26.5 48.5t-15 40q-35 101 -35 313v496 q0 83 -6.5 120t-26.5 60q-18 22 -52 32t-95 13z" />
<glyph unicode="V" horiz-adv-x="1234" d="M-16 1284v53q46 0 120.5 -4t120.5 -4t133.5 4t133.5 4v-51q-120 -8 -144 -55q-7 -13 -7 -36q0 -45 28 -128l290 -893l297 893q29 87 29 132q0 20 -6 32q-28 48 -145 53v53q46 0 115.5 -4t115.5 -4t97.5 4t97.5 4v-51q-32 -4 -66.5 -19.5t-50.5 -31.5q-37 -37 -62 -107 l-313 -882q-60 -166 -72 -226q-67 -11 -147 -40q-15 76 -82 266l-307 882q-25 70 -62 107q-43 43 -114 49z" />
<glyph unicode="W" horiz-adv-x="1822" d="M-14 1284v53q30 0 95 -4t95 -4t102 4t103 4v-51q-59 -11 -78 -35q-9 -12 -9 -35q0 -42 30 -120l338 -918l194 467l-194 481q-34 87 -62 115q-39 39 -88 43v53q30 0 92 -4t92 -4t95 4t96 4v-51q-30 -4 -44 -12t-22 -23q-6 -10 -6 -27q0 -32 21 -87l116 -308l119 308 q21 55 21 87q0 16 -5 27q-15 30 -67 33v53q30 0 85 -4t85 -4t74 4t75 4v-51q-75 -10 -102 -35l-8 -8t-8 -9.5t-6.5 -9t-6.5 -10.5l-6 -10.5t-6.5 -13t-5.5 -12.5t-6.5 -15t-7.5 -16l-181 -420l211 -549l353 918q28 72 28 113q0 19 -6 32q-11 20 -34 30t-74 13v53q31 0 95 -4 t95 -4t85.5 4t84.5 4v-51q-50 -5 -80 -35q-36 -32 -82 -145l-379 -942q-14 -33 -28 -71.5l-22 -60.5l-7 -22l-123 -30q-28 92 -65 184l-150 379l-143 -369l-62 -164l-123 -30q-30 92 -65 184l-375 962q-37 92 -61 115q-30 30 -82 43z" />
<glyph unicode="X" horiz-adv-x="1280" d="M-20 0v53q71 12 143 60q56 37 113 112l323 430l-303 455q-73 113 -117 141q-41 26 -114 33v53q46 0 125.5 -4t125.5 -4t138.5 4t138.5 4v-51q-143 -14 -143 -65q0 -38 61 -129l205 -314l215 307q72 101 72 136q0 49 -144 63v53q46 0 118 -4t118 -4t105.5 4t105.5 4v-51 q-84 -9 -129 -45q-29 -23 -113 -133l-307 -391l327 -492q47 -72 97 -112q71 -53 155 -60v-53q-46 0 -136 5t-136 5t-143.5 -5t-143.5 -5v53q131 12 144 64q5 21 -6 48.5t-46 80.5l-229 348l-242 -358q-52 -79 -52 -110q0 -4 1 -7q12 -54 144 -66v-53q-46 0 -123 5t-123 5 t-112.5 -5t-112.5 -5z" />
<glyph unicode="Y" horiz-adv-x="1136" d="M-25 1284v53q47 0 118 -4t114 -4t129.5 4t132.5 4v-51q-143 -12 -143 -65q0 -14 8 -36.5t16 -38t21.5 -40.5t15.5 -29l215 -411l236 411q2 4 13.5 24.5t17 31.5t14 29t12.5 32.5t4 26.5q0 30 -30.5 43.5t-102.5 19.5v53q35 0 101 -4t106 -4t97.5 4t92.5 4v-53 q-81 -2 -125 -53q-10 -10 -21 -25.5t-19 -28.5t-23 -38.5t-25 -40.5l-307 -504v-315q0 -81 6.5 -117t28.5 -58t52.5 -31t113.5 -20v-53q-44 0 -138 5t-151 5t-151 -5t-138 -5v53q81 11 111.5 20t52.5 31q23 23 30 59.5t7 115.5v294l-297 545q-51 94 -82 123q-43 40 -113 43z " />
<glyph unicode="Z" horiz-adv-x="1157" d="M31 51l835 1202h-303h-40.5h-43t-40 -0.5t-41.5 -2.5t-37 -4.5t-38 -7t-32.5 -10.5t-33 -14.5t-26.5 -19.5q-35 -30 -65.5 -81.5t-43.5 -87.5l-13 -36l-54 15l88 385h31q0 -32 23.5 -46t83.5 -14h794l17 -39l-842 -1208l399 6q199 3 277 66q72 58 149 225l51 -14 l-96 -396q-24 15 -53.5 22t-50.5 8t-62 1h-813z" />
<glyph unicode="[" horiz-adv-x="614" d="M143 -451v2048h420v-71h-293v-1905h293v-72h-420z" />
<glyph unicode="\" horiz-adv-x="608" d="M31 1434h102l451 -1532h-103z" />
<glyph unicode="]" horiz-adv-x="614" d="M51 -379h293v1905h-293v71h420v-2048h-420v72z" />
<glyph unicode="^" d="M231 913l226 428h110l226 -428h-113l-168 344l-168 -344h-113z" />
<glyph unicode="_" d="M0 -113h1024v-102h-1024v102z" />
<glyph unicode="`" horiz-adv-x="727" d="M195 1346q0 24 17 45.5t48 21.5q17 0 29.5 -4.5t25.5 -18.5t19.5 -23t23.5 -36l174 -276l-24 -21l-283 246q-30 24 -30 66z" />
<glyph unicode="a" horiz-adv-x="897" d="M82 195q0 153 154 204l342 113v123q0 109 -53 162t-136 53q-69 0 -99 -31.5t-30 -70.5q0 -18 8 -36t16 -27l9 -9q-8 -24 -38 -43t-60 -19q-39 0 -69 24t-30 79q0 29 13.5 52.5t43.5 42.5t54.5 30t68.5 28q138 54 199 74q120 0 191 -57.5t71 -169.5v-512q0 -109 72 -109 q40 0 84 35l25 -39q-117 -117 -205 -117q-61 0 -97 45.5t-36 122.5q-140 -140 -242 -168q-114 0 -185 63t-71 157zM250 225q0 -50 42 -94.5t107 -44.5q32 0 76.5 30t73.5 60l29 29v252l-209 -78q-70 -27 -94.5 -64t-24.5 -90z" />
<glyph unicode="b" horiz-adv-x="1044" d="M20 1393v41q59 14 148.5 45t138.5 53l19 -10q-15 -138 -15 -410v-326q6 6 17.5 17t45.5 38t68 48t80 38t86 17q173 0 277 -137q88 -116 88 -318q0 -104 -33.5 -198t-89.5 -158q-61 -69 -144.5 -113.5t-183.5 -44.5q-162 0 -276 86l-82 -61l-21 10q11 195 11 400v829 q0 76 -28 107.5t-106 46.5zM311 285q0 -111 50.5 -173.5t154.5 -62.5q116 0 197.5 100.5t81.5 288.5q0 96 -22.5 172t-60.5 121t-84 68.5t-96 23.5q-36 0 -71.5 -11t-61.5 -27t-46.5 -32t-30.5 -27l-11 -11v-430z" />
<glyph unicode="c" horiz-adv-x="819" d="M72 430q0 242 164 393q69 65 148.5 92t147.5 27q65 0 115 -16.5t77.5 -43.5t40.5 -56t13 -58q0 -54 -33 -88.5t-83 -34.5q-44 0 -66.5 29t-22.5 53q15 7 26 26t11 35q0 11 -3.5 23t-13.5 28.5t-34.5 27t-60.5 10.5q-32 0 -66.5 -12t-70.5 -41t-64 -72t-46 -110.5 t-18 -149.5q0 -103 24.5 -178t66.5 -115t87 -58t95 -18q150 0 252 102l30 -35l-133 -149q-9 -7 -26.5 -18t-73.5 -29.5t-115 -18.5q-160 0 -266 127q-102 122 -102 328z" />
<glyph unicode="d" horiz-adv-x="1062" d="M72 430q0 104 33.5 198t89.5 158q139 158 327 158q64 0 116.5 -16t73.5 -32l21 -15v358q0 76 -28 107.5t-107 46.5v41q59 14 148.5 45t138.5 53l18 -10q-12 -110 -12 -410v-887q0 -61 18.5 -83.5t65.5 -22.5l53 4l12 -51q-137 -33 -292 -92l-11 10l-4 143 q-6 -6 -17.5 -17t-45.5 -38t-68 -48t-80 -38t-86 -17q-172 0 -276 138q-88 116 -88 317zM250 481q0 -96 22.5 -172t60.5 -121t83.5 -68.5t95.5 -23.5q36 0 71.5 11t61 27t46 32.5t30.5 27.5l10 11l2 430q0 111 -50.5 173t-154.5 62q-116 0 -197 -100.5t-81 -288.5z" />
<glyph unicode="e" horiz-adv-x="880" d="M72 444q0 134 58 249t157 183t215 68q85 0 148.5 -29.5t99 -80.5t52.5 -111t17 -129q0 -24 -9 -35.5t-32 -11.5l-542 6q-3 -30 -3 -61q0 -171 76 -270t213 -99q52 0 99 11.5t78 28.5t55 33.5t34 27.5l11 12l30 -35l-116 -150q-4 -3 -10.5 -8t-30.5 -18.5t-51 -23.5 t-70.5 -18t-89.5 -8q-181 0 -285 131t-104 338zM240 604l358 10q23 0 32 9t9 32q0 102 -42 162t-120 60q-87 0 -154 -70.5t-83 -202.5z" />
<glyph unicode="f" horiz-adv-x="589" d="M45 0v51q92 7 117.5 33t25.5 111v624h-143v41l143 51v21q0 145 24.5 234.5t74.5 164.5q50 76 136.5 130.5t180.5 54.5q91 0 133.5 -40t42.5 -94q0 -45 -32.5 -73.5t-79.5 -28.5q-27 0 -47.5 15t-27.5 31l-7 15q20 20 20 45q0 13 -4.5 24.5t-21.5 22.5t-45 11 q-86 0 -144 -123q-41 -87 -41 -277v-143h262v-82h-262v-624q0 -82 37 -109t148 -35v-51q-51 0 -127 5t-125 5q-50 0 -121.5 -5t-116.5 -5z" />
<glyph unicode="g" horiz-adv-x="952" d="M55 -236q50 50 125 110.5t113 78.5q-27 3 -55.5 13t-60.5 31t-54.5 62t-26.5 95l207 159q-39 16 -72.5 40t-63.5 60t-47.5 90t-17.5 120q0 137 100 229t242 92q60 0 110.5 -12t71.5 -22.5t29 -18.5l293 16l-10 -98l-190 6q7 -8 17 -23.5t27 -69t17 -114.5 q0 -137 -100 -229t-242 -92q-25 0 -52.5 2.5t-42.5 4.5l-14 3q-85 -82 -108 -113q0 -40 36 -62q31 -20 91 -20h16l225 11q17 1 33 1q50 0 91 -8q53 -9 96.5 -34.5t66.5 -74.5t23 -120q0 -95 -73 -183.5t-191 -142t-244 -53.5q-91 0 -164 25.5t-115 65.5t-64 85t-22 90z M199 -215q0 -25 16 -55t47.5 -59.5t89 -49.5t129.5 -20q150 0 237 60t87 155q0 87 -52 118q-45 26 -126 26q-13 0 -27 -1l-235 -10q-118 -90 -166 -164zM272 633q0 -126 49.5 -201.5t139.5 -75.5q178 0 178 250q0 126 -49 200.5t-139 74.5q-179 0 -179 -248z" />
<glyph unicode="h" horiz-adv-x="1081" d="M27 0v51q89 8 116 34t27 110v1044q0 75 -28.5 107t-106.5 47v41q59 14 148.5 45t138.5 53l18 -10q-12 -110 -12 -410v-324q72 51 167.5 100t163.5 56q144 0 206.5 -71.5t62.5 -227.5v-450q0 -83 28 -109.5t115 -34.5v-51q-41 0 -111 5t-108 5q-39 0 -108 -5t-107 -5v51 q83 8 108 34t25 110v389q0 115 -45.5 175t-155.5 60q-56 0 -124 -32t-117 -70v-522q0 -83 25 -109t108 -35v-51q-27 0 -94 5t-117 5t-123 -5t-100 -5z" />
<glyph unicode="i" horiz-adv-x="497" d="M43 0v51q86 5 113.5 32.5t27.5 111.5v460q0 75 -22.5 102.5t-100.5 51.5v41q65 16 144 43t123 49l16 -4v-743q0 -83 27 -109.5t114 -34.5v-51q-39 0 -111 5t-108 5t-110 -5t-113 -5zM135 1280q0 51 34 86t85 35t85 -35t34 -86t-34 -86t-85 -35t-85 35t-34 86z" />
<glyph unicode="j" horiz-adv-x="471" d="M-20 -477q113 107 163 272q47 155 47 428v33l-6 410q-1 74 -22 96.5t-101 46.5v41q64 16 142.5 42.5t122.5 49.5l16 -4l6 -682v-23q0 -285 -72 -438q-79 -167 -266 -307zM135 1280q0 51 34 86t85 35t85 -35t34 -86t-34 -86t-85 -35t-85 35t-34 86z" />
<glyph unicode="k" horiz-adv-x="983" d="M27 0v51q89 8 116 34t27 110v1044q0 76 -28 107.5t-107 46.5v41q59 14 148.5 45t138.5 53l20 -10q-12 -92 -12 -410v-575l73 6q35 4 62 35l139 159q4 5 12.5 14.5t12.5 14t10.5 12t9.5 12t6.5 10.5t5 10.5t1.5 8.5q0 34 -89 41v51q31 0 98 -4t97 -4t97 4t98 4v-51 q-78 -2 -134 -31q-45 -20 -92 -71l-174 -189l260 -405q10 -16 20.5 -29t20.5 -22t16 -14t15 -10.5t10 -6.5q12 -8 44.5 -19t49.5 -12v-51q-19 0 -74.5 4t-76.5 4l-113 -8l-272 455q-8 16 -16 20t-25 6l-90 6v-292q0 -84 26.5 -110t116.5 -34v-51q-27 0 -100 5t-123 5 t-124 -5t-101 -5z" />
<glyph unicode="l" horiz-adv-x="499" d="M27 0v51q89 8 116 34t27 110v1044q0 76 -28 107.5t-107 46.5v41q59 14 148.5 45t138.5 53l20 -10q-12 -92 -12 -410v-917q0 -84 26.5 -110t116.5 -34v-51q-25 0 -98 5t-123 5t-124 -5t-101 -5z" />
<glyph unicode="m" horiz-adv-x="1654" d="M43 0v51q86 5 113.5 32.5t27.5 111.5v460q0 75 -22.5 102.5t-100.5 51.5v41q65 16 144 43t123 49l16 -4l-2 -160q1 0 44 30t66.5 44.5t66 39t79 37t68.5 15.5q107 0 164.5 -41.5t80.5 -134.5q67 56 163.5 112.5t170.5 63.5q137 0 197.5 -72t60.5 -227v-450 q0 -83 28 -109.5t116 -34.5v-51q-37 0 -109 5t-111 5t-107 -5t-106 -5v51q81 8 106.5 34.5t25.5 109.5v389q0 116 -40 175.5t-141 59.5q-102 0 -241 -112q2 -41 2 -82v-430q0 -84 24.5 -110t106.5 -34v-51q-39 0 -105.5 5t-105.5 5t-107 -5t-106 -5v51q81 8 106 34.5 t25 109.5v389q0 116 -39.5 175.5t-140.5 59.5t-240 -112v-512q0 -84 24.5 -110t106.5 -34v-51q-38 0 -104 5t-105 5t-112 -5t-111 -5z" />
<glyph unicode="n" horiz-adv-x="1095" d="M43 0v51q86 5 113.5 32.5t27.5 111.5v460q0 75 -22.5 102.5t-100.5 51.5v41q65 16 144 43t123 49l16 -4l-2 -150q71 50 168.5 99.5t165.5 56.5q144 0 206 -71.5t62 -227.5v-450q0 -83 27.5 -109.5t115.5 -34.5v-51q-37 0 -108 5t-111 5q-39 0 -107 -5t-106 -5v51 q81 8 106 34.5t25 109.5v389q0 115 -45 175t-155 60q-56 0 -125 -32.5t-115 -69.5v-522q0 -83 25 -109t106 -35v-51q-39 0 -105.5 5t-105.5 5t-112 -5t-111 -5z" />
<glyph unicode="o" d="M72 451q0 214 126.5 353.5t307.5 139.5q89 0 169.5 -33.5t142 -93.5t98 -150.5t36.5 -197.5q0 -214 -127 -354t-307 -140q-89 0 -169.5 33.5t-142 94t-98 151t-36.5 197.5zM256 481q0 -194 72 -312t194 -118q246 0 246 391q0 194 -72 312t-194 118q-246 0 -246 -391z" />
<glyph unicode="p" horiz-adv-x="1060" d="M25 -451q92 8 118.5 33.5t26.5 110.5v962q0 75 -23 102.5t-102 51.5v41q163 40 266 92l17 -4v-152q6 6 17.5 17t45.5 38t68 48t80 38t86 17q172 0 276 -137q88 -116 88 -318q0 -104 -33.5 -198t-89.5 -158q-139 -158 -327 -158q-64 0 -116.5 15.5t-73.5 31.5l-21 15v-344 q0 -83 29.5 -109.5t123.5 -34.5v-51q-33 0 -107 5t-122 5t-120.5 -5t-106.5 -5v51zM328 285q0 -112 50 -174t154 -62q116 0 197.5 100.5t81.5 288.5q0 186 -78 285.5t-184 99.5q-36 0 -72 -11t-62 -27t-46 -32t-31 -27l-10 -11v-430z" />
<glyph unicode="q" horiz-adv-x="1030" d="M72 430q0 104 33.5 198t89.5 158q139 158 327 158q65 0 121 -18.5t79.5 -34t39.5 -31.5l121 82l26 -14q-18 -211 -18 -416v-819q0 -83 29.5 -109.5t123.5 -34.5v-51q-34 0 -107 5t-122 5t-121 -5t-106 -5v51q92 8 118.5 33.5t26.5 110.5v440q-6 -6 -17.5 -17t-45.5 -38 t-68 -48t-80 -38t-86 -17q-172 0 -276 138q-88 116 -88 317zM250 481q0 -96 22.5 -172t60.5 -121t83.5 -68.5t95.5 -23.5q36 0 71.5 11t61 27t46 32.5t30.5 27.5l10 11l2 430q0 111 -50.5 173t-154.5 62q-116 0 -197 -100.5t-81 -288.5z" />
<glyph unicode="r" horiz-adv-x="727" d="M43 0v51q86 5 113.5 32.5t27.5 111.5v460q0 75 -22.5 102.5t-100.5 51.5v41q65 16 144 43t123 49l16 -4l-2 -205q62 100 125.5 154.5t118.5 54.5q57 0 93 -32.5t36 -86.5q0 -51 -33 -82.5t-68 -31.5q-65 0 -86 53q13 10 13 26q0 11 -8.5 19t-22.5 8q-60 0 -164 -172v-448 q0 -46 5 -69.5t24 -40.5t50.5 -23.5t92.5 -10.5v-51q-42 0 -121 5t-118 5t-118.5 -5t-117.5 -5z" />
<glyph unicode="s" horiz-adv-x="716" d="M66 303l57 8q24 -121 78.5 -195.5t130.5 -74.5q82 0 126 45t44 129q0 24 -7 45.5t-15.5 37.5t-28.5 33.5t-32 27.5t-40.5 26t-41 22.5t-44.5 22.5q-37 18 -62 33t-55.5 39.5t-49 50.5t-31.5 64.5t-13 82.5q0 111 85 177.5t206 66.5q68 0 128.5 -13t86.5 -27l26 -13v-209 l-51 -6q-14 106 -69 156.5t-119 50.5q-63 0 -109.5 -32.5t-46.5 -102.5q0 -30 11.5 -55.5t27.5 -43.5t43 -36.5t48 -29t53.5 -26.5t48.5 -25q46 -26 72 -43t60.5 -50t51 -77t16.5 -100q0 -119 -89.5 -204t-213.5 -85q-74 0 -137 19.5t-88 36t-41 32.5z" />
<glyph unicode="t" horiz-adv-x="634" d="M51 809v41q77 38 152.5 114t113.5 152h31l-2 -215h268v-92h-268l-8 -543v-8q0 -166 123 -166q36 0 73 13t56 25l18 13l27 -41q-11 -11 -31.5 -27.5t-79.5 -51.5t-114 -50q-70 0 -118 21.5t-72 63t-34 88.5q-9 43 -8 98v12l8 553h-135z" />
<glyph unicode="u" horiz-adv-x="1060" d="M45 840v51q35 0 128.5 13.5t139.5 27.5l17 -4q-3 -71 -4.5 -200.5t-1.5 -223.5v-94q0 -159 34 -215q54 -89 168 -89q25 0 56 11t58.5 27t51 32.5t37.5 27.5l14 11v485q0 71 -24.5 102t-91.5 38v51q35 0 127.5 13.5t138.5 27.5l16 -4q-6 -160 -6 -516v-187q0 -57 11.5 -79 t43.5 -26q11 -1 26 -1q25 0 60 4l7 -51q-68 -19 -291 -92l-10 10l-7 153q-126 -101 -195 -137q-53 -27 -91 -31q-160 0 -232 107q-32 47 -46.5 108t-14.5 158v352q0 71 -25 102t-94 38z" />
<glyph unicode="v" horiz-adv-x="901" d="M-12 860v51q36 0 100 -4t100 -4t113 4t113 4v-51q-78 -7 -106.5 -21.5t-28.5 -39.5q0 -14 4.5 -30t13.5 -39.5t12 -33.5l185 -512l194 512q31 80 31 103q0 48 -117 61v51q34 0 93 -4t93 -4t77.5 4t76.5 4v-51q-47 -4 -84 -41q-9 -9 -16.5 -20t-16 -28.5t-14 -30.5 t-17 -40.5t-18.5 -44.5l-276 -665l-82 -10l-287 727q-33 88 -61 112q-31 31 -82 41z" />
<glyph unicode="w" horiz-adv-x="1310" d="M4 860v51q36 0 82 -4t82 -4t95 4t95 4v-51q-69 -4 -82 -31q-3 -5 -4.5 -11.5t-1 -14.5t1 -14.5t2.5 -16.5l3 -15t4 -16t4 -14l159 -532l201 501l-20 72q-13 48 -41 72q-20 14 -54 20v51q30 0 82 -4t82 -4t85 4t85 4v-51q-35 -5 -52 -11t-24 -20q-6 -10 -6 -28 q0 -30 15 -84l139 -522l168 501q26 78 26 113q0 13 -4 20q-19 31 -88 31v51q20 0 76 -4t80 -4t71.5 4t67.5 4v-51q-42 0 -69 -24q-26 -29 -56 -109l-272 -727l-86 -20l-174 610l-232 -590l-86 -20l-252 788q-15 47 -40 66q-29 26 -62 26z" />
<glyph unicode="x" horiz-adv-x="880" d="M-27 0v51q40 13 82 41q27 18 92 92l220 260l-136 201q-9 14 -29.5 44t-32 47.5t-27 39t-26.5 34.5t-18 19q-30 23 -88 31v51q30 0 87 -4t87 -4t105 4t106 4v-51q-79 -4 -88 -35q-1 -3 -1 -8q0 -28 42 -90l117 -174l129 174q51 70 51 92q0 17 -18 27t-70 14v51q31 0 90 -4 t90 -4q30 0 79.5 4t80.5 4v-51q-48 -3 -82 -20q-40 -20 -92 -82l-221 -260l225 -334q35 -54 72 -78q46 -28 102 -35v-51h-4q-4 1 -12 1.5t-18.5 1t-24 1.5t-27.5 2t-29 1.5t-29.5 1t-28.5 1t-26 0.5q-36 0 -110.5 -5t-110.5 -5v51q99 5 99 47q0 24 -31 70l-146 221 l-151 -205q-47 -60 -47 -88q0 -40 98 -45v-51q-31 0 -90 5t-90 5t-75.5 -5t-74.5 -5z" />
<glyph unicode="y" horiz-adv-x="921" d="M-2 860v51q36 0 100.5 -4t100.5 -4t112.5 4t112.5 4v-51q-78 -7 -106.5 -21.5t-28.5 -39.5q0 -9 1.5 -18t5 -20t6 -18.5t8.5 -23t9 -23.5l191 -501l188 501q4 10 11.5 28.5t11 27.5t7 22.5t3.5 24.5q0 24 -27.5 39t-91.5 22v51q36 0 100 -4t87 -4q24 0 71 4t82 4v-51 q-50 -7 -84 -41q-11 -11 -22.5 -30.5t-18 -34t-21 -49.5t-20.5 -50l-378 -901q-56 -131 -108 -193.5t-118 -62.5t-99.5 32t-33.5 81q0 45 26.5 73.5t65.5 28.5q18 0 31.5 -3.5t19 -7t11.5 -8.5l6 -5q-2 -3 -4.5 -6.5t-4 -5.5t-2.5 -7t-1 -12q0 -15 10.5 -24t25.5 -9 q16 0 38.5 29t43.5 80l109 266l-283 707q-33 84 -61 112q-31 31 -82 41z" />
<glyph unicode="z" horiz-adv-x="839" d="M41 31l532 815l-280 -6q-42 -1 -63.5 -5t-46 -22.5t-44.5 -53.5t-47 -100l-41 11l55 282h31q0 -23 15 -32t53 -9h553l10 -24l-528 -815l303 4q30 0 55.5 8t47 26t36.5 32.5t33 46t26.5 46.5t26.5 52l41 -11q-41 -146 -72 -296q-72 20 -276 20h-410z" />
<glyph unicode="{" horiz-adv-x="614" d="M61 567v11q111 34 151 112.5t24 200.5l-52 379q-10 83 19.5 152t93.5 114q55 39 127 55.5t119 16.5l10 -45q-105 -9 -164 -47q-86 -56 -61 -246l41 -307q11 -82 -5.5 -153.5t-74.5 -135t-156 -94.5v-11q98 -32 156 -96t74.5 -135.5t5.5 -153.5l-41 -307q-25 -190 61 -246 q59 -38 164 -47l-10 -45q-47 0 -119 16.5t-127 55.5q-64 45 -93.5 114t-19.5 152l52 379q16 122 -24 200.5t-151 110.5z" />
<glyph unicode="|" horiz-adv-x="419" d="M162 -512v2048h96v-2048h-96z" />
<glyph unicode="}" horiz-adv-x="614" d="M61 -416q105 9 164 47q87 56 62 246l-41 307q-11 82 5.5 153.5t74 135t155.5 94.5v11q-98 32 -155.5 96t-74 135.5t-5.5 153.5l41 307q25 190 -62 246q-61 39 -164 45l11 47q47 0 118.5 -16.5t126.5 -55.5q64 -45 93.5 -114t19.5 -152l-51 -379q-16 -122 23.5 -200.5 t150.5 -110.5v-11q-111 -34 -150.5 -112.5t-23.5 -200.5l51 -379q10 -83 -19.5 -152t-93.5 -114q-55 -39 -126.5 -55.5t-118.5 -16.5z" />
<glyph unicode="~" d="M51 348q0 122 65.5 189t170.5 67q60 0 120.5 -27t134 -76t103.5 -65q58 -30 92 -30q133 0 133 178l103 -21q0 -122 -65.5 -189t-170.5 -67q-60 0 -120.5 27t-134 76t-103.5 65q-60 31 -92 31q-133 0 -133 -178z" />
<glyph unicode="&#xa0;" />
<glyph unicode="&#xa1;" horiz-adv-x="532" d="M147 823q0 51 34 86t85 35t85 -35t34 -86q0 -50 -34.5 -85.5t-84.5 -35.5t-84.5 35.5t-34.5 85.5zM160 -395q0 32 21.5 226t27.5 265l33 441h49l31 -441q5 -80 28 -271t23 -220q0 -45 -30.5 -74t-76.5 -29t-76 29t-30 74z" />
<glyph unicode="&#xa2;" d="M154 645q0 107 36.5 199.5t95.5 153t132 96t149 39.5l51 208h74l-53 -206q120 -7 179 -61t59 -105q0 -48 -27.5 -83.5t-81.5 -35.5q-34 0 -57 19t-29 38l-6 19q31 26 31 61q0 29 -21 51t-61 29l-170 -672q62 -37 149 -37q40 0 79 10.5t66 26t48.5 30.5t32.5 25l10 11 l30 -31l-122 -143q-9 -8 -26.5 -20t-74 -32t-115.5 -20q-66 0 -114 21l-60 -236h-71l67 262q-81 42 -140.5 141.5t-59.5 241.5zM317 717q0 -40 3.5 -75t10 -61t13 -46.5t15.5 -36.5t14.5 -25t13 -18.5t8.5 -10.5l158 625q-95 -8 -165.5 -108.5t-70.5 -243.5z" />
<glyph unicode="&#xa3;" d="M51 92q0 35 29.5 59.5t73.5 36.5q67 21 168 21q73 73 73 190q0 41 -22 97.5t-44 92.5l-22 36h-211v71h176q-88 145 -88 287q0 85 35.5 153.5t87.5 112.5q110 92 260 92q76 0 133.5 -18t87.5 -46.5t44 -56t14 -53.5q0 -48 -27.5 -80t-75.5 -32q-45 0 -66.5 24.5 t-21.5 46.5q27 22 27 66q0 32 -29 63t-90 31q-77 0 -133 -47q-33 -28 -57.5 -79.5t-24.5 -115.5q0 -125 72 -256l51 -92h313v-71h-278q37 -62 37 -144q0 -63 -44.5 -139.5t-119.5 -136.5q48 -7 168 -41q5 -1 23.5 -6.5t31 -9t34 -7.5t47 -6t54.5 -2q69 0 128 27t91 61 l27 -26q-51 -72 -102 -123q-48 -48 -95.5 -75.5t-109.5 -27.5q-32 0 -61.5 9.5t-55.5 29.5t-38 31.5t-34 34.5q-26 27 -42.5 42.5t-45.5 31.5t-55 16q-59 0 -108 -62q-1 -2 -12 -17t-18 -22.5t-19.5 -19.5t-26 -17.5t-27.5 -5.5q-82 0 -82 72z" />
<glyph unicode="&#xa4;" d="M55 506v72h107q-4 47 -4 84l4 83h-107v72h113q21 135 71 240t116.5 166t140 92t149.5 31q55 0 103.5 -8.5t79 -20.5t53 -24t31.5 -21l10 -8l10 -277l-51 -10q-68 307 -246 307q-238 0 -279 -465h387v-71h-391q-2 -47 -2 -84l2 -84h391v-72h-387q14 -224 87 -345.5 t171 -121.5q218 0 297 307l52 -10l-52 -277q-4 -4 -11.5 -10t-35 -22t-59.5 -28t-86.5 -22t-114.5 -10q-83 0 -154 30.5t-130 93.5t-98 168t-52 245h-115z" />
<glyph unicode="&#xa5;" d="M0 1255v52q46 0 106.5 -4.5t106.5 -4.5t116.5 4.5t116.5 4.5v-52q-59 -8 -86.5 -22t-27.5 -39q0 -17 5.5 -33.5t19.5 -43.5t16 -32l182 -364l182 364q2 4 11 20.5t12 23t8.5 19.5t7.5 23.5t2 20.5q0 27 -27 41t-87 22v52q36 0 92 -4.5t92 -4.5t83 4.5t83 4.5v-52 q-45 -3 -80 -26q-33 -22 -72 -92l-241 -441h231v-71h-264v-164h264v-72h-264v-133q0 -67 5 -101t25 -58.5t54 -33t98 -12.5v-51q-52 0 -134.5 5t-127.5 5t-127.5 -5t-134.5 -5v51q64 4 98 12.5t54 33t25 58.5t5 101v133h-264v72h264v164h-264v71h231l-241 441q-39 70 -72 92 q-31 20 -82 26z" />
<glyph unicode="&#xa6;" horiz-adv-x="419" d="M162 -358v716h96v-716h-96zM162 666v716h96v-716h-96z" />
<glyph unicode="&#xa7;" d="M92 -231q0 64 40.5 109.5t107.5 45.5q62 0 95.5 -41.5t33.5 -81.5q-62 -20 -62 -98q0 -52 47.5 -97.5t126.5 -45.5q87 0 141 52.5t54 145.5q0 53 -31 116t-80.5 127t-109.5 135.5t-120.5 150.5t-110 160.5t-80.5 178.5t-31 193q0 142 40.5 245t102.5 165q65 65 138.5 102 t178.5 37q157 0 261 -92q32 -27 58 -74t26 -96q0 -55 -33.5 -92t-89.5 -37q-53 0 -86 35t-33 67q41 33 41 92q0 57 -45 98.5t-119 41.5q-83 0 -144 -52.5t-61 -146.5q0 -51 32 -114t83.5 -127.5t114 -136t125 -150t114 -158t83.5 -172.5t32 -182q0 -233 -113 -389 q-62 -85 -156 -135t-196 -50q-94 0 -168 26t-115 60q-39 32 -65.5 80t-26.5 105zM209 866q0 -68 20.5 -140.5t47 -128t72.5 -124t75.5 -105t78.5 -95t60 -72.5q46 -59 73 -97t56.5 -90.5t42.5 -106t13 -112.5q0 -14 -3 -37t-5 -39l-3 -16q4 5 10.5 14t23 39t29.5 62.5 t23.5 83t10.5 102.5q0 69 -20 141t-47.5 128t-71.5 120t-76 103t-77.5 91.5t-60.5 71.5q-40 50 -61 78t-51.5 75.5t-46 83.5t-27.5 84t-12 95l10 92q-3 -4 -9 -11.5t-20.5 -35.5t-25.5 -59.5t-20 -84.5t-9 -110z" />
<glyph unicode="&#xa8;" horiz-adv-x="1060" d="M240 1223q0 44 32 76t76 32q43 0 76 -32t33 -74q0 -44 -32.5 -76.5t-76.5 -32.5q-43 0 -75.5 32t-32.5 75zM608 1223q0 44 32.5 76t76.5 32q43 0 75.5 -31.5t32.5 -74.5q0 -44 -32 -76.5t-76 -32.5q-43 0 -76 32t-33 75z" />
<glyph unicode="&#xa9;" horiz-adv-x="1628" d="M90 692q0 196 97.5 362.5t264 263.5t361.5 97q196 0 363 -97t264.5 -263.5t97.5 -362.5t-97.5 -362.5t-264 -263.5t-361.5 -97q-196 0 -363 97t-264.5 263.5t-97.5 362.5zM164 692q0 -176 87 -326t236.5 -237.5t325.5 -87.5q177 0 327 87.5t237 237.5t87 326t-87 326 t-237 237.5t-327 87.5q-176 0 -325.5 -87.5t-236.5 -237.5t-87 -326zM352 696q0 139 68 247t177 164t237 56q88 0 163.5 -19.5t107.5 -39.5l32 -19l14 -215l-41 -10q-67 236 -276 236q-132 0 -214.5 -103.5t-82.5 -296.5q0 -189 87 -294t210 -105q113 0 190.5 64t116.5 182 l47 -11l-47 -208q-133 -99 -307 -99q-215 0 -348.5 128.5t-133.5 342.5z" />
<glyph unicode="&#xaa;" horiz-adv-x="743" d="M106 909q0 69 37 95q29 20 150 63l110 41v57q0 62 -26.5 93.5t-69.5 31.5q-32 0 -49.5 -16t-17.5 -39q0 -12 4.5 -23.5t9.5 -16.5l4 -5q-6 -15 -25 -30t-45 -15q-31 0 -50 17.5t-19 51.5q0 53 102 89q99 37 148 51q84 0 126 -42t42 -116v-254q0 -84 38 -84q24 0 56 19 l12 -31q-86 -72 -147 -72q-42 0 -64 27t-26 59q-91 -70 -148 -86q-68 0 -110 39.5t-42 95.5zM111 614v72h532v-72h-532zM244 942q0 -38 24 -61t56 -23q18 0 38 10t30 20l11 9v168l-55 -25q-77 -32 -84 -39q-20 -25 -20 -59z" />
<glyph unicode="&#xab;" horiz-adv-x="911" d="M51 461q87 87 187 208t172 222l41 -25q-111 -249 -215 -405q105 -158 215 -404l-41 -26q-68 97 -169 219t-190 211zM420 461q86 86 185.5 207t172.5 223l41 -25q-111 -249 -215 -405q105 -158 215 -404l-41 -26q-69 98 -169.5 220t-188.5 210z" />
<glyph unicode="&#xac;" d="M51 580v88h922v-410h-94v322h-828z" />
<glyph unicode="&#xad;" horiz-adv-x="563" d="M61 403l21 134l420 43l-21 -134z" />
<glyph unicode="&#xae;" horiz-adv-x="1280" d="M61 967q0 158 77.5 291.5t210.5 210.5t290 77q158 0 291.5 -77t211 -210.5t77.5 -291.5q0 -157 -78 -290t-211.5 -210.5t-290.5 -77.5q-119 0 -226 46t-184 123.5t-122.5 184t-45.5 224.5zM127 967q0 -140 68.5 -258t186.5 -186t257 -68q140 0 258.5 68.5t187 186.5 t68.5 257q0 140 -69 258.5t-187.5 187t-257.5 68.5q-140 0 -258 -69t-186 -187.5t-68 -257.5zM338 629v41q69 12 85.5 29.5t16.5 78.5v410q0 60 -16 77t-76 25v41q28 0 72.5 -3t75.5 -3q27 0 88.5 3t111.5 3q78 0 134.5 -39t56.5 -118q0 -40 -17.5 -72.5t-45.5 -51.5 t-56.5 -30.5t-56.5 -15.5q41 -7 65.5 -29.5t42.5 -63.5l66 -143q21 -46 41 -66q22 -22 61 -30v-43l-3 1q-2 0 -7 0.5t-12 1t-15 1l-16 1t-17 1t-16 0.5l-88 -6l-129 282q-14 31 -25.5 43.5t-29.5 12.5l-68 6v-195q0 -63 14.5 -79.5t83.5 -26.5v-43q-31 0 -78 3t-77 3t-83 -3 t-83 -3zM563 1014l76 4q52 3 83.5 40.5t31.5 98.5q0 60 -34 93.5t-89 33.5h-31q-22 0 -29.5 -10t-7.5 -35v-225z" />
<glyph unicode="&#xaf;" horiz-adv-x="563" d="M-20 1171v105h604v-102z" />
<glyph unicode="&#xb0;" horiz-adv-x="860" d="M143 1055q0 118 84 202t203 84t203 -84t84 -202q0 -119 -84.5 -203t-202.5 -84t-202.5 84t-84.5 203zM238 1055q0 -80 56.5 -136.5t135.5 -56.5q80 0 136.5 57t56.5 136t-56.5 135.5t-136.5 56.5t-136 -56.5t-56 -135.5z" />
<glyph unicode="&#xb1;" d="M51 -86h922v-88h-922v88zM51 420v88h414v416h94v-416h414v-88h-414v-416h-94v416h-414z" />
<glyph unicode="&#xb2;" horiz-adv-x="819" d="M139 573q24 24 205 258q119 154 119 267q0 77 -38 112t-97 35q-103 0 -156 -106l-33 16q68 180 250 180q104 0 164.5 -56t60.5 -149q0 -29 -9.5 -60t-22 -54.5t-35 -52.5t-38 -46.5t-42 -45.5t-37.5 -40l-160 -176h267q46 0 69 17q7 5 18.5 19.5t19.5 26.5l7 11l33 -12 l-61 -201h-25q0 21 -41 21h-405z" />
<glyph unicode="&#xb3;" horiz-adv-x="819" d="M164 633q0 65 61 65q11 0 19 -3.5t14.5 -11.5t9.5 -13t8.5 -17.5t6.5 -15.5q32 -66 102 -66q52 0 91.5 48.5t39.5 128.5q0 84 -41.5 132t-114.5 48q-16 0 -38.5 -3t-37.5 -7l-14 -3l-8 37q94 33 131 45q8 5 19.5 14t31 43t19.5 74q0 63 -31.5 93t-79.5 30q-82 0 -135 -82 l-29 17q23 60 80 107.5t142 47.5q84 0 136 -43t52 -116q0 -127 -152 -185q96 0 152.5 -55t56.5 -137q0 -121 -94 -205q-87 -78 -213 -78q-87 0 -135.5 35.5t-48.5 75.5z" />
<glyph unicode="&#xb4;" horiz-adv-x="669" d="M166 1055l174 276q17 27 23.5 35.5t19 23t25 19t28.5 4.5q32 0 50 -21t18 -44q0 -43 -31 -68l-280 -246z" />
<glyph unicode="&#xb5;" horiz-adv-x="1060" d="M45 840v51q35 0 128.5 13.5t139.5 27.5l17 -4q-3 -71 -5 -200.5t-3 -223.5v-94q-3 -150 36 -215q54 -89 168 -89q25 0 56 11t58.5 27t51 32.5t37.5 27.5l14 11v485q0 71 -24.5 102t-91.5 38v51q35 0 127.5 13.5t138.5 27.5l16 -4q-6 -160 -6 -516v-187q0 -57 11 -79 t42 -26t86 3l9 -51q-68 -19 -291 -92l-10 10l-7 153q-126 -101 -195 -137q-53 -27 -91 -31q-35 0 -81.5 22.5t-74.5 53.5l16 -502q-48 -15 -133 -57l-20 10q10 498 10 703q0 91 -2.5 215t-5.5 202l-2 78q-2 72 -25.5 102.5t-93.5 37.5z" />
<glyph unicode="&#xb6;" d="M92 -256q0 64 40.5 109t107.5 45q62 0 95.5 -41.5t33.5 -81.5q-26 0 -49 -23t-23 -59q0 -46 33 -79.5t110 -33.5q74 0 123.5 39.5t71.5 83.5q47 92 47 287v383h-47q-48 0 -95 5.5t-102 20.5t-103 38.5t-93.5 62.5t-78 89.5t-52 122.5t-19.5 158t19.5 158t52 122t78 89.5 t93.5 63t103 39t102.5 21t94.5 5.5q91 0 173 -7t118 -13l37 -7v-57q-40 6 -70 6q-58 0 -84 -26q-22 -22 -28.5 -65.5t-6.5 -129.5v-1008q0 -177 -16 -257t-51 -142q-37 -64 -114.5 -114t-182.5 -50q-158 0 -246 82q-72 67 -72 164z" />
<glyph unicode="&#xb7;" horiz-adv-x="512" d="M137 604q0 51 35 86t86 35q50 0 84.5 -35t34.5 -86t-34.5 -86t-84.5 -35q-51 0 -86 35t-35 86z" />
<glyph unicode="&#xb8;" horiz-adv-x="778" d="M158 -328l16 31q30 -15 81 -27t83 -14q55 -3 92 10q20 7 35.5 25.5t15.5 46.5t-15.5 46.5t-35.5 25.5q-29 10 -82 10l-51 -6l-21 37l138 143h53l-98 -123q30 6 61 6q72 0 115 -26q69 -41 69 -119q0 -74 -71 -117l-8 -3q-8 -4 -15 -7t-20 -7t-26 -7t-30 -5t-34 -2 q-78 0 -174 31z" />
<glyph unicode="&#xb9;" horiz-adv-x="819" d="M201 1217q43 14 136 55.5t130 70.5l37 -16q-8 -74 -8 -197v-417q0 -31 0.5 -44.5t4 -28t11.5 -22.5q27 -27 123 -32v-49q-37 0 -104.5 4t-104.5 4t-104.5 -4t-104.5 -4v49q96 5 123 32q8 8 11.5 22.5t4 28t0.5 44.5v458q0 16 -5 22t-19 3l-119 -25z" />
<glyph unicode="&#xba;" horiz-adv-x="743" d="M86 1061q0 127 78 210t203 83q128 0 210 -79.5t82 -205.5q0 -129 -77 -212t-203 -83q-127 0 -210 80t-83 207zM98 614v72h553v-72h-553zM238 1075q0 -116 39 -183t102 -67q131 0 131 232q0 117 -39.5 183.5t-103.5 66.5q-129 0 -129 -232z" />
<glyph unicode="&#xbb;" horiz-adv-x="911" d="M92 55q112 252 215 406q-107 160 -215 403l41 27q68 -97 169 -219t190 -211q-87 -87 -187 -208t-172 -222zM461 55q112 252 215 406q-107 160 -215 403l41 27q69 -98 169.5 -220t188.5 -210q-86 -86 -185.5 -207t-172.5 -223z" />
<glyph unicode="&#xbc;" horiz-adv-x="1536" d="M111 1217q43 14 136 55.5t130 70.5l37 -16q-8 -74 -8 -197v-417q0 -31 0.5 -44.5t4 -28t11.5 -22.5q27 -27 123 -32v-49q-37 0 -104.5 4t-104.5 4t-104.5 -4t-104.5 -4v49q96 5 123 32q8 8 11.5 22.5t4 28t0.5 44.5v458q0 16 -5 22t-19 3l-119 -25zM377 0l684 1315h98 l-684 -1315h-98zM799 172v90l356 496h127v-492h107v-94h-107v-217h-139v217h-344zM877 266h266v373z" />
<glyph unicode="&#xbd;" horiz-adv-x="1536" d="M111 1217q43 14 136 55.5t130 70.5l37 -16q-8 -74 -8 -197v-417q0 -31 0.5 -44.5t4 -28t11.5 -22.5q27 -27 123 -32v-49q-37 0 -104.5 4t-104.5 4t-104.5 -4t-104.5 -4v49q96 5 123 32q8 8 11.5 22.5t4 28t0.5 44.5v458q0 16 -5 22t-19 3l-119 -25zM377 0l684 1315h98 l-684 -1315h-98zM918 37q20 19 204 258q119 154 119 266q0 77 -38 112.5t-97 35.5q-102 0 -156 -107l-32 16q68 181 249 181q104 0 165 -56t61 -149q0 -35 -11 -69t-35.5 -69t-41.5 -55.5t-52.5 -58t-44.5 -47.5l-159 -176h266q48 0 69 16q7 5 18.5 19.5t19.5 26.5l8 12 l32 -13l-61 -200h-25q0 20 -41 20h-405z" />
<glyph unicode="&#xbe;" horiz-adv-x="1536" d="M98 631q0 65 62 65q11 0 19 -3.5t14 -11.5t9 -13.5t8 -17t7 -15.5q32 -66 102 -66q53 0 92.5 48.5t39.5 127.5q0 84 -41.5 132.5t-114.5 48.5q-16 0 -38.5 -3t-36.5 -7l-15 -3l-8 37q94 33 131 45l7.5 5t16.5 15t21 26t16.5 37t7.5 48q0 63 -31.5 93t-78.5 30 q-82 0 -135 -82l-29 17q23 60 79.5 107.5t141.5 47.5q84 0 136 -43t52 -116q0 -127 -151 -185q96 0 152.5 -55t56.5 -137q0 -121 -94 -205q-87 -78 -213 -78q-87 0 -136 35.5t-49 75.5zM377 0l684 1315h98l-684 -1315h-98zM799 172v90l356 496h127v-492h107v-94h-107v-217 h-139v217h-344zM877 266h266v373z" />
<glyph unicode="&#xbf;" horiz-adv-x="737" d="M82 45q0 161 102 236q83 61 205 61q51 0 60 9.5t12 51.5l10 134h51l21 -297q3 -52 -41 -52h-51q-127 0 -212 -53.5t-85 -161.5q0 -56 20.5 -95.5t60.5 -63t86 -36.5t109 -20l82 -10q45 -6 62 -25.5t20 -66.5l10 -154h-41q-4 14 -18 26t-26.5 17.5t-40.5 15t-38 13.5 q-39 15 -63 26t-72 43t-90 74q-133 133 -133 328zM377 823q0 51 34.5 86t84.5 35q51 0 85.5 -35t34.5 -86q0 -50 -34.5 -85.5t-83.5 -35.5q-51 0 -86 35.5t-35 85.5z" />
<glyph unicode="&#xc0;" horiz-adv-x="1255" d="M-20 0v53q76 15 112 51q37 37 62 111l327 891q58 154 72 225q107 11 158 21q12 -59 77 -246l308 -891q26 -76 61 -111q36 -36 113 -51v-53q-46 0 -123 5t-123 5t-133 -5t-133 -5v53q124 13 145 60q19 36 -6 116l-84 273h-459l-96 -271q-27 -76 -8 -118q24 -47 147 -60 v-53q-41 0 -111.5 5t-111.5 5t-97 -5t-97 -5zM348 1745q0 24 17.5 45.5t48.5 21.5q22 0 40.5 -12.5t26.5 -23t31 -45.5l180 -267l-26 -20l-287 235q-31 25 -31 66zM381 590h401l-194 598z" />
<glyph unicode="&#xc1;" horiz-adv-x="1255" d="M-20 0v53q76 15 112 51q37 37 62 111l327 891q58 154 72 225q107 11 158 21q12 -59 77 -246l308 -891q26 -76 61 -111q36 -36 113 -51v-53q-46 0 -123 5t-123 5t-133 -5t-133 -5v53q124 13 145 60q19 36 -6 116l-84 273h-459l-96 -271q-27 -76 -8 -118q24 -47 147 -60 v-53q-41 0 -111.5 5t-111.5 5t-97 -5t-97 -5zM381 590h401l-194 598zM537 1464l180 267q2 3 7 10q18 27 27.5 39t25.5 22t36 10q32 0 50 -21t18 -44q0 -43 -31 -68l-287 -235z" />
<glyph unicode="&#xc2;" horiz-adv-x="1255" d="M-20 0v53q76 15 112 51q37 37 62 111l327 891q58 154 72 225q107 11 158 21q12 -59 77 -246l308 -891q26 -76 61 -111q36 -36 113 -51v-53q-46 0 -123 5t-123 5t-133 -5t-133 -5v53q124 13 145 60q19 36 -6 116l-84 273h-459l-96 -271q-27 -76 -8 -118q24 -47 147 -60 v-53q-41 0 -111.5 5t-111.5 5t-97 -5t-97 -5zM358 1464l179 271q30 44 49.5 60.5t48.5 16.5q30 0 50.5 -17t47.5 -58l168 -273l-24 -20l-242 242l-250 -242zM381 590h401l-194 598z" />
<glyph unicode="&#xc3;" horiz-adv-x="1255" d="M-20 0v53q76 15 112 51q37 37 62 111l327 891q58 154 72 225q107 11 158 21q12 -59 77 -246l308 -891q26 -76 61 -111q36 -36 113 -51v-53q-46 0 -123 5t-123 5t-133 -5t-133 -5v53q124 13 145 60q19 36 -6 116l-84 273h-459l-96 -271q-27 -76 -8 -118q24 -47 147 -60 v-53q-41 0 -111.5 5t-111.5 5t-97 -5t-97 -5zM291 1550q47 58 78 99q67 88 137 88q20 0 43.5 -5.5t39.5 -11.5t43 -18t38 -16q68 -30 98 -35q16 -2 35 -2q39 0 72 21.5t77 66.5l31 -27q-45 -55 -76 -96q-67 -88 -139 -88q-19 0 -43 6t-39.5 11.5t-43.5 17.5t-38 16 q-4 2 -16 7.5t-15 7t-13 5.5t-14 5t-12.5 4t-14 3.5t-14 2t-17 2t-17.5 0.5q-38 0 -69.5 -21t-77.5 -67zM381 590h401l-194 598z" />
<glyph unicode="&#xc4;" horiz-adv-x="1255" d="M-20 0v53q76 15 112 51q37 37 62 111l327 891q58 154 72 225q107 11 158 21q12 -59 77 -246l308 -891q26 -76 61 -111q36 -36 113 -51v-53q-46 0 -123 5t-123 5t-133 -5t-133 -5v53q124 13 145 60q19 36 -6 116l-84 273h-459l-96 -271q-27 -76 -8 -118q24 -47 147 -60 v-53q-41 0 -111.5 5t-111.5 5t-97 -5t-97 -5zM340 1626q0 44 32.5 76.5t76.5 32.5q43 0 75.5 -32t32.5 -75q0 -44 -32 -76t-76 -32q-43 0 -76 32t-33 74zM381 590h401l-194 598zM709 1626q0 44 32 76.5t76 32.5q43 0 76 -32t33 -75q0 -44 -32.5 -76t-76.5 -32 q-43 0 -75.5 31.5t-32.5 74.5z" />
<glyph unicode="&#xc5;" horiz-adv-x="1255" d="M-20 0v53q76 15 112 51q37 37 62 111l327 891q58 154 72 225q107 11 158 21q12 -59 77 -246l308 -891q26 -76 61 -111q36 -36 113 -51v-53q-46 0 -123 5t-123 5t-133 -5t-133 -5v53q124 13 145 60q19 36 -6 116l-84 273h-459l-96 -271q-27 -76 -8 -118q24 -47 147 -60 v-53q-41 0 -111.5 5t-111.5 5t-97 -5t-97 -5zM381 590h401l-194 598zM440 1622q0 81 55.5 135.5t133.5 54.5q77 0 133.5 -54.5t56.5 -133.5q0 -81 -55 -135.5t-133 -54.5q-77 0 -134 54.5t-57 133.5zM516 1624q0 -50 33 -82.5t80 -32.5t79.5 32.5t32.5 82.5t-31.5 81.5 t-78.5 31.5t-81 -32.5t-34 -80.5z" />
<glyph unicode="&#xc6;" horiz-adv-x="1822" d="M-84 0v53q33 3 47.5 4.5t38 9t47.5 21.5q61 37 154 193l532 886q31 53 31 72q0 12 -5.5 20t-29.5 15.5t-67 9.5v53q46 0 163.5 -4t163.5 -4l692 8l7 -303l-41 -4q-18 53 -28 79.5t-26.5 57t-31.5 43.5t-40 25.5t-55.5 16t-74.5 3.5h-226q-61 0 -73.5 -14t-12.5 -76v-440 l209 6q68 1 98 9t50 28q43 43 49 143h49q0 -40 -5 -115t-5 -116t5 -116t5 -115h-47q-10 114 -49 153q-20 20 -50.5 28t-99.5 9l-209 6v-420q0 -86 25.5 -112.5t112.5 -26.5h225q108 0 177 70.5t120 199.5l51 -14l-82 -342q-118 0 -404.5 5t-312.5 5q-40 0 -134.5 -5 t-141.5 -5v53q69 7 99.5 17.5t53.5 33.5t30 59.5t7 115.5v368l-375 4l-215 -375q-67 -113 -67 -147q0 -31 31.5 -50t117.5 -26v-53q-53 0 -126 5t-115 5t-115.5 -5t-126.5 -5zM573 723l334 2v535h-20z" />
<glyph unicode="&#xc7;" horiz-adv-x="1300" d="M82 676q0 128 38 240.5t103.5 194t152.5 140.5t187 88t205 29q77 0 150 -11t121.5 -27t86 -32t54.5 -27l18 -11l10 -310l-51 -8q-71 354 -399 354q-94 0 -176.5 -40t-147 -115.5t-102 -195.5t-37.5 -269t36 -269t98.5 -196t144 -116t174.5 -40q89 0 165 28.5t130.5 79 t93.5 109t65 127.5l58 -20l-93 -287q-5 -5 -16 -13t-48.5 -29t-81 -37t-115 -29t-148.5 -13l-31 2l-82 -106h72q67 0 117 -25q84 -47 84 -129t-82 -133q-56 -31 -150 -31q-41 0 -87 7.5t-71 15.5l-26 8l-92 62l20 30q43 -22 96.5 -34.5t87.5 -12.5q64 0 103 17q51 26 51 73 q0 28 -15.5 49.5t-35.5 30.5q-39 17 -82 17l-72 -7l-20 41l133 127q-125 10 -231.5 60t-188 136t-128 216t-46.5 291z" />
<glyph unicode="&#xc8;" horiz-adv-x="1157" d="M39 0v53q72 9 101.5 18.5t52.5 32.5q22 22 29 58.5t7 116.5v780q0 84 -6 120.5t-24 59.5q-34 39 -150 45v53q46 0 133 -4t133 -4l703 8l6 -303l-41 -4q-18 53 -28 79.5t-26.5 57t-31.5 43.5t-40 25.5t-55.5 16t-74.5 3.5h-235q-61 0 -73.5 -14t-12.5 -76v-440l208 6 q70 2 104 9.5t54 27.5q43 43 49 143h49q0 -41 -5 -117t-5 -114t5 -114t5 -117h-47q-9 113 -49 153q-20 20 -55 27.5t-105 9.5l-208 6v-420q0 -86 25 -112.5t112 -26.5h235q108 0 177 70.5t120 199.5l51 -16l-84 -340q-117 0 -406 5t-321 5q-46 0 -138 -5t-138 -5zM328 1743 q0 24 17 45.5t48 21.5q22 0 40.5 -12t27.5 -24t31 -45l180 -267l-27 -20l-287 235q-30 24 -30 66z" />
<glyph unicode="&#xc9;" horiz-adv-x="1157" d="M39 0v53q72 9 101.5 18.5t52.5 32.5q22 22 29 58.5t7 116.5v780q0 84 -6 120.5t-24 59.5q-34 39 -150 45v53q46 0 133 -4t133 -4l703 8l6 -303l-41 -4q-18 53 -28 79.5t-26.5 57t-31.5 43.5t-40 25.5t-55.5 16t-74.5 3.5h-235q-61 0 -73.5 -14t-12.5 -76v-440l208 6 q70 2 104 9.5t54 27.5q43 43 49 143h49q0 -41 -5 -117t-5 -114t5 -114t5 -117h-47q-9 113 -49 153q-20 20 -55 27.5t-105 9.5l-208 6v-420q0 -86 25 -112.5t112 -26.5h235q108 0 177 70.5t120 199.5l51 -16l-84 -340q-117 0 -406 5t-321 5q-46 0 -138 -5t-138 -5zM496 1462 l180 267q2 3 7 10q18 27 27.5 39t25.5 22t36 10q32 0 50 -21t18 -44q0 -43 -31 -68l-287 -235z" />
<glyph unicode="&#xca;" horiz-adv-x="1157" d="M39 0v53q72 9 101.5 18.5t52.5 32.5q22 22 29 58.5t7 116.5v780q0 84 -6 120.5t-24 59.5q-34 39 -150 45v53q46 0 133 -4t133 -4l703 8l6 -303l-41 -4q-18 53 -28 79.5t-26.5 57t-31.5 43.5t-40 25.5t-55.5 16t-74.5 3.5h-235q-61 0 -73.5 -14t-12.5 -76v-440l208 6 q70 2 104 9.5t54 27.5q43 43 49 143h49q0 -41 -5 -117t-5 -114t5 -114t5 -117h-47q-9 113 -49 153q-20 20 -55 27.5t-105 9.5l-208 6v-420q0 -86 25 -112.5t112 -26.5h235q108 0 177 70.5t120 199.5l51 -16l-84 -340q-117 0 -406 5t-321 5q-46 0 -138 -5t-138 -5zM297 1462 l178 271q30 44 49.5 60.5t48.5 16.5q31 0 51.5 -17t47.5 -58l168 -273l-25 -20l-242 241l-249 -241z" />
<glyph unicode="&#xcb;" horiz-adv-x="1157" d="M39 0v53q72 9 101.5 18.5t52.5 32.5q22 22 29 58.5t7 116.5v780q0 84 -6 120.5t-24 59.5q-34 39 -150 45v53q46 0 133 -4t133 -4l703 8l6 -303l-41 -4q-18 53 -28 79.5t-26.5 57t-31.5 43.5t-40 25.5t-55.5 16t-74.5 3.5h-235q-61 0 -73.5 -14t-12.5 -76v-440l208 6 q70 2 104 9.5t54 27.5q43 43 49 143h49q0 -41 -5 -117t-5 -114t5 -114t5 -117h-47q-9 113 -49 153q-20 20 -55 27.5t-105 9.5l-208 6v-420q0 -86 25 -112.5t112 -26.5h235q108 0 177 70.5t120 199.5l51 -16l-84 -340q-117 0 -406 5t-321 5q-46 0 -138 -5t-138 -5zM276 1624 q0 44 32.5 76.5t76.5 32.5q43 0 76 -32t33 -75q0 -44 -32.5 -76t-76.5 -32q-43 0 -76 32t-33 74zM645 1624q0 44 32.5 76.5t76.5 32.5q43 0 75.5 -32t32.5 -75q0 -44 -32 -76t-76 -32q-43 0 -76 32t-33 74z" />
<glyph unicode="&#xcc;" horiz-adv-x="636" d="M41 0v53q78 11 104.5 19.5t49.5 31.5q22 22 29 58.5t7 116.5v780q0 84 -6 120.5t-24 59.5q-34 39 -150 45v53q46 0 133 -4t133 -4t133.5 4t133.5 4v-51q-118 -10 -148 -47q-19 -22 -24.5 -57.5t-5.5 -120.5v-782q0 -83 6 -118t28 -57q23 -23 54.5 -33t101.5 -18v-53 q-47 0 -140 5t-139 5t-138 -5t-138 -5zM78 1745q0 24 17.5 45.5t49.5 21.5q16 0 28.5 -4.5t25.5 -19t19 -22.5t24 -35l180 -267l-25 -20l-286 235q-33 26 -33 66z" />
<glyph unicode="&#xcd;" horiz-adv-x="636" d="M41 0v53q78 11 104.5 19.5t49.5 31.5q22 22 29 58.5t7 116.5v780q0 84 -6 120.5t-24 59.5q-34 39 -150 45v53q46 0 133 -4t133 -4t133.5 4t133.5 4v-51q-118 -10 -148 -47q-19 -22 -24.5 -57.5t-5.5 -120.5v-782q0 -83 6 -118t28 -57q23 -23 54.5 -33t101.5 -18v-53 q-47 0 -140 5t-139 5t-138 -5t-138 -5zM215 1464l178 267q22 33 31 45t27.5 24t40.5 12q31 0 49 -21.5t18 -43.5q0 -44 -31 -68l-286 -235z" />
<glyph unicode="&#xce;" horiz-adv-x="636" d="M41 0v53q78 11 104.5 19.5t49.5 31.5q22 22 29 58.5t7 116.5v780q0 84 -6 120.5t-24 59.5q-34 39 -150 45v53q46 0 133 -4t133 -4t133.5 4t133.5 4v-51q-118 -10 -148 -47q-19 -22 -24.5 -57.5t-5.5 -120.5v-782q0 -83 6 -118t28 -57q23 -23 54.5 -33t101.5 -18v-53 q-47 0 -140 5t-139 5t-138 -5t-138 -5zM45 1464l178 271q30 44 50 60.5t49 16.5q31 0 52 -17.5t46 -57.5l170 -273l-27 -20l-239 242l-252 -242z" />
<glyph unicode="&#xcf;" horiz-adv-x="636" d="M25 1626q0 44 32 76.5t76 32.5q43 0 76 -32t33 -75q0 -44 -32.5 -76t-76.5 -32q-43 0 -75.5 31.5t-32.5 74.5zM41 0v53q78 11 104.5 19.5t49.5 31.5q22 22 29 58.5t7 116.5v780q0 84 -6 120.5t-24 59.5q-34 39 -150 45v53q46 0 133 -4t133 -4t133.5 4t133.5 4v-51 q-118 -10 -148 -47q-19 -22 -24.5 -57.5t-5.5 -120.5v-782q0 -83 6 -118t28 -57q23 -23 54.5 -33t101.5 -18v-53q-47 0 -140 5t-139 5t-138 -5t-138 -5zM393 1626q0 44 32.5 76.5t76.5 32.5q43 0 75.5 -32t32.5 -75q0 -44 -32 -76t-76 -32q-43 0 -76 32t-33 74z" />
<glyph unicode="&#xd0;" horiz-adv-x="1413" d="M39 0v53q78 11 104.5 19.5t49.5 31.5q22 22 29 58t7 117v356h-180v102h180v322q0 85 -6 121t-24 59q-34 39 -150 45v53q46 0 133 -4t133 -4q41 0 116 4t147 4q258 0 421 -88q44 -24 86 -55.5t88 -83t80 -111.5t56 -144.5t22 -178.5q0 -357 -278 -553q-174 -123 -451 -123 q-52 0 -147 5t-140 5q-46 0 -138 -5t-138 -5zM403 205q0 -70 27.5 -98.5t95.5 -28.5h49q248 0 375 127q71 71 118.5 191.5t47.5 289.5q0 318 -190 471q-133 107 -369 107h-41q-76 0 -94.5 -18t-18.5 -95v-414h271v-102h-271v-430z" />
<glyph unicode="&#xd1;" horiz-adv-x="1454" d="M37 0v53q65 8 98 18.5t55 32.5q22 21 26.5 54.5t4.5 120.5l8 829q0 84 -39 123q-37 37 -143 53v53q31 0 87 -4t87 -4l170 8q19 -41 113 -170l661 -891l-10 779v25q-1 51 -2.5 73t-8 45t-20.5 37q-23 23 -56 32.5t-97 16.5v53q44 0 118.5 -4t118.5 -4t118.5 4t117.5 4v-51 q-61 -6 -94.5 -16.5t-55.5 -32.5q-5 -5 -9 -10.5t-7 -13.5t-5 -14t-3.5 -17.5t-2.5 -18.5t-1.5 -23t-0.5 -24.5t-0.5 -29t-0.5 -31.5l-9 -697q-1 -81 3 -173t8 -143l4 -52l-68 -31q-86 90 -174 209l-711 958l15 -847q0 -11 0.5 -31.5t0.5 -28.5t0.5 -23.5t1.5 -21.5 t2.5 -17.5t3.5 -16.5l5 -12.5t7 -13t9 -10.5q22 -22 53.5 -31.5t104.5 -19.5v-53q-46 0 -120.5 5t-120.5 5t-121 -5t-121 -5zM399 1550q45 58 76 99q67 88 139 88q19 0 43 -6t39.5 -11.5t43.5 -17.5t38 -16q4 -2 16 -7.5t15 -7t13 -5.5t14 -5t12.5 -4t14 -3.5t14 -2t17 -2 t17.5 -0.5q38 0 71.5 21.5t76.5 66.5l33 -27q-47 -55 -78 -96q-67 -88 -137 -88q-53 0 -166 51q-9 4 -26.5 11.5t-26 10.5t-22 7.5t-27 6t-29.5 1.5q-39 0 -72 -21.5t-78 -66.5z" />
<glyph unicode="&#xd2;" horiz-adv-x="1474" d="M82 655q0 157 52 292t140 226.5t205.5 143t247.5 51.5q131 0 251 -47.5t212.5 -133.5t147.5 -217.5t55 -287.5q0 -157 -52 -292t-140 -226.5t-205.5 -143t-247.5 -51.5q-131 0 -251 47.5t-212.5 133.5t-147.5 217.5t-55 287.5zM297 702q0 -160 42 -288.5t110.5 -205.5 t149 -117t163.5 -40q67 0 126 18t113 61.5t92.5 109.5t61.5 168t23 231q0 160 -42 288.5t-110.5 205.5t-149 117t-163.5 40q-67 0 -126 -18t-113 -61.5t-92.5 -109.5t-61.5 -168t-23 -231zM440 1745q0 24 17.5 45.5t48.5 21.5q22 0 40.5 -12.5t26.5 -23t31 -45.5l180 -267 l-26 -20l-287 235q-31 25 -31 66z" />
<glyph unicode="&#xd3;" horiz-adv-x="1474" d="M82 655q0 157 52 292t140 226.5t205.5 143t247.5 51.5q131 0 251 -47.5t212.5 -133.5t147.5 -217.5t55 -287.5q0 -157 -52 -292t-140 -226.5t-205.5 -143t-247.5 -51.5q-131 0 -251 47.5t-212.5 133.5t-147.5 217.5t-55 287.5zM297 702q0 -160 42 -288.5t110.5 -205.5 t149 -117t163.5 -40q67 0 126 18t113 61.5t92.5 109.5t61.5 168t23 231q0 160 -42 288.5t-110.5 205.5t-149 117t-163.5 40q-67 0 -126 -18t-113 -61.5t-92.5 -109.5t-61.5 -168t-23 -231zM666 1464l178 267q23 35 31 45.5t26.5 23t40.5 12.5q31 0 49.5 -21.5t18.5 -43.5 q0 -44 -31 -68l-287 -235z" />
<glyph unicode="&#xd4;" horiz-adv-x="1474" d="M82 655q0 157 52 292t140 226.5t205.5 143t247.5 51.5q131 0 251 -47.5t212.5 -133.5t147.5 -217.5t55 -287.5q0 -157 -52 -292t-140 -226.5t-205.5 -143t-247.5 -51.5q-131 0 -251 47.5t-212.5 133.5t-147.5 217.5t-55 287.5zM297 702q0 -160 42 -288.5t110.5 -205.5 t149 -117t163.5 -40q67 0 126 18t113 61.5t92.5 109.5t61.5 168t23 231q0 160 -42 288.5t-110.5 205.5t-149 117t-163.5 40q-67 0 -126 -18t-113 -61.5t-92.5 -109.5t-61.5 -168t-23 -231zM461 1464l178 271q30 44 49.5 60.5t48.5 16.5q31 0 51.5 -17t47.5 -58l168 -273 l-25 -20l-242 242l-250 -242z" />
<glyph unicode="&#xd5;" horiz-adv-x="1474" d="M82 655q0 157 52 292t140 226.5t205.5 143t247.5 51.5q131 0 251 -47.5t212.5 -133.5t147.5 -217.5t55 -287.5q0 -157 -52 -292t-140 -226.5t-205.5 -143t-247.5 -51.5q-131 0 -251 47.5t-212.5 133.5t-147.5 217.5t-55 287.5zM297 702q0 -160 42 -288.5t110.5 -205.5 t149 -117t163.5 -40q67 0 126 18t113 61.5t92.5 109.5t61.5 168t23 231q0 160 -42 288.5t-110.5 205.5t-149 117t-163.5 40q-67 0 -126 -18t-113 -61.5t-92.5 -109.5t-61.5 -168t-23 -231zM389 1550q45 58 76 99q67 88 139 88q19 0 43 -6t39.5 -11.5t43.5 -17.5t38 -16 q4 -2 16 -7.5t15 -7t13 -5.5t14 -5t12.5 -4t14 -3.5t14 -2t17 -2t17.5 -0.5q38 0 71.5 21.5t76.5 66.5l32 -27q-46 -55 -77 -96q-67 -88 -138 -88q-53 0 -166 51q-9 4 -26.5 11.5t-26 10.5t-22 7.5t-27 6t-29.5 1.5q-39 0 -71 -21t-78 -67z" />
<glyph unicode="&#xd6;" horiz-adv-x="1474" d="M82 655q0 157 52 292t140 226.5t205.5 143t247.5 51.5q131 0 251 -47.5t212.5 -133.5t147.5 -217.5t55 -287.5q0 -157 -52 -292t-140 -226.5t-205.5 -143t-247.5 -51.5q-131 0 -251 47.5t-212.5 133.5t-147.5 217.5t-55 287.5zM297 702q0 -160 42 -288.5t110.5 -205.5 t149 -117t163.5 -40q67 0 126 18t113 61.5t92.5 109.5t61.5 168t23 231q0 160 -42 288.5t-110.5 205.5t-149 117t-163.5 40q-67 0 -126 -18t-113 -61.5t-92.5 -109.5t-61.5 -168t-23 -231zM444 1626q0 44 32.5 76.5t76.5 32.5q43 0 76 -32t33 -75q0 -44 -32.5 -76t-76.5 -32 q-43 0 -76 32t-33 74zM813 1626q0 44 32.5 76.5t76.5 32.5q43 0 75.5 -32t32.5 -75q0 -44 -32 -76t-76 -32q-43 0 -76 32t-33 74z" />
<glyph unicode="&#xd7;" d="M137 152l309 309l-307 307l66 66l307 -308l309 310l66 -66l-309 -309l307 -307l-66 -66l-307 307l-309 -309z" />
<glyph unicode="&#xd8;" horiz-adv-x="1474" d="M20 20l203 199q-141 181 -141 436q0 157 52 292t140 226.5t205.5 143t247.5 51.5q134 0 256.5 -49t214.5 -141l199 194l57 -55l-203 -199q142 -182 142 -436q0 -158 -52 -293t-140 -226t-205.5 -142.5t-247.5 -51.5q-134 0 -257 49.5t-215 141.5l-198 -197zM297 702 q0 -196 63 -348l717 705q-66 113 -164.5 172t-199.5 59q-68 0 -127 -18t-113 -61.5t-92.5 -109.5t-61 -168t-22.5 -231zM399 281q66 -113 163.5 -171.5t199.5 -58.5q68 0 127 18t113 61.5t92.5 109.5t61 168t22.5 231q0 193 -64 344z" />
<glyph unicode="&#xd9;" horiz-adv-x="1443" d="M23 1284v53q47 0 136 -4t132 -4t132 4t136 4v-51q-116 -9 -149 -47q-18 -23 -24.5 -60t-6.5 -118v-461q0 -238 47 -338q14 -30 37.5 -57t61.5 -54t98.5 -43t134.5 -16q75 0 135.5 16t99 42.5t62 53t37.5 56.5q50 106 47 338l-6 461q-2 89 -7 123.5t-24 56.5 q-18 23 -49.5 32.5t-94.5 12.5v53q39 0 114 -4t114 -4t116.5 4t116.5 4v-51h-8q-105 0 -143 -47q-19 -22 -25 -58.5t-6 -119.5v-498q0 -199 -37 -311q-98 -283 -481 -283q-76 0 -141.5 12t-111 30t-83.5 45t-61.5 51.5t-42 54t-26.5 48.5t-15 40q-35 101 -35 313v496 q0 83 -6.5 120t-26.5 60q-18 22 -52 32t-95 13zM451 1745q0 24 17 45.5t48 21.5q22 0 40.5 -12.5t26.5 -23t31 -45.5l181 -267l-27 -20l-287 235q-30 24 -30 66z" />
<glyph unicode="&#xda;" horiz-adv-x="1443" d="M23 1284v53q47 0 136 -4t132 -4t132 4t136 4v-51q-116 -9 -149 -47q-18 -23 -24.5 -60t-6.5 -118v-461q0 -238 47 -338q14 -30 37.5 -57t61.5 -54t98.5 -43t134.5 -16q75 0 135.5 16t99 42.5t62 53t37.5 56.5q50 106 47 338l-6 461q-2 89 -7 123.5t-24 56.5 q-18 23 -49.5 32.5t-94.5 12.5v53q39 0 114 -4t114 -4t116.5 4t116.5 4v-51h-8q-105 0 -143 -47q-19 -22 -25 -58.5t-6 -119.5v-498q0 -199 -37 -311q-98 -283 -481 -283q-76 0 -141.5 12t-111 30t-83.5 45t-61.5 51.5t-42 54t-26.5 48.5t-15 40q-35 101 -35 313v496 q0 83 -6.5 120t-26.5 60q-18 22 -52 32t-95 13zM639 1464l180 267q2 3 7 10q18 27 27.5 39t25.5 22t36 10q32 0 50 -21t18 -44q0 -43 -31 -68l-286 -235z" />
<glyph unicode="&#xdb;" horiz-adv-x="1443" d="M23 1284v53q47 0 136 -4t132 -4t132 4t136 4v-51q-116 -9 -149 -47q-18 -23 -24.5 -60t-6.5 -118v-461q0 -238 47 -338q14 -30 37.5 -57t61.5 -54t98.5 -43t134.5 -16q75 0 135.5 16t99 42.5t62 53t37.5 56.5q50 106 47 338l-6 461q-2 89 -7 123.5t-24 56.5 q-18 23 -49.5 32.5t-94.5 12.5v53q39 0 114 -4t114 -4t116.5 4t116.5 4v-51h-8q-105 0 -143 -47q-19 -22 -25 -58.5t-6 -119.5v-498q0 -199 -37 -311q-98 -283 -481 -283q-76 0 -141.5 12t-111 30t-83.5 45t-61.5 51.5t-42 54t-26.5 48.5t-15 40q-35 101 -35 313v496 q0 83 -6.5 120t-26.5 60q-18 22 -52 32t-95 13zM451 1464l178 271q30 44 49.5 60.5t48.5 16.5q30 0 50.5 -17t47.5 -58l168 -273l-24 -20l-242 242l-250 -242z" />
<glyph unicode="&#xdc;" horiz-adv-x="1443" d="M23 1284v53q47 0 136 -4t132 -4t132 4t136 4v-51q-116 -9 -149 -47q-18 -23 -24.5 -60t-6.5 -118v-461q0 -238 47 -338q14 -30 37.5 -57t61.5 -54t98.5 -43t134.5 -16q75 0 135.5 16t99 42.5t62 53t37.5 56.5q50 106 47 338l-6 461q-2 89 -7 123.5t-24 56.5 q-18 23 -49.5 32.5t-94.5 12.5v53q39 0 114 -4t114 -4t116.5 4t116.5 4v-51h-8q-105 0 -143 -47q-19 -22 -25 -58.5t-6 -119.5v-498q0 -199 -37 -311q-98 -283 -481 -283q-76 0 -141.5 12t-111 30t-83.5 45t-61.5 51.5t-42 54t-26.5 48.5t-15 40q-35 101 -35 313v496 q0 83 -6.5 120t-26.5 60q-18 22 -52 32t-95 13zM434 1626q0 44 32.5 76.5t76.5 32.5q43 0 75.5 -32t32.5 -75q0 -44 -32 -76t-76 -32q-43 0 -76 32t-33 74zM803 1626q0 44 32 76.5t76 32.5q43 0 76 -32t33 -75q0 -44 -32.5 -76t-76.5 -32q-43 0 -75.5 31.5t-32.5 74.5z" />
<glyph unicode="&#xdd;" horiz-adv-x="1136" d="M-25 1284v53q47 0 118 -4t114 -4t129.5 4t132.5 4v-51q-143 -12 -143 -65q0 -14 8 -36.5t16 -38t21.5 -40.5t15.5 -29l215 -411l236 411q2 4 13.5 24.5t17 31.5t14 29t12.5 32.5t4 26.5q0 30 -30.5 43.5t-102.5 19.5v53q35 0 101 -4t106 -4t97.5 4t92.5 4v-53 q-81 -2 -125 -53q-10 -10 -21 -25.5t-19 -28.5t-23 -38.5t-25 -40.5l-307 -504v-315q0 -81 6.5 -117t28.5 -58t52.5 -31t113.5 -20v-53q-44 0 -138 5t-151 5t-151 -5t-138 -5v53q81 11 111.5 20t52.5 31q23 23 30 59.5t7 115.5v294l-297 545q-51 94 -82 123q-43 40 -113 43z M526 1464l181 267q2 3 7 10q18 27 27.5 39t25.5 22t36 10q32 0 49.5 -21t17.5 -44q0 -44 -30 -68l-287 -235z" />
<glyph unicode="&#xde;" horiz-adv-x="1105" d="M41 0v53q78 11 104.5 19.5t49.5 31.5q22 22 29 58t7 117v782q0 85 -6 120t-24 58q-34 39 -150 45v53q47 0 136.5 -4t129.5 -4t130 4t137 4v-51q-118 -10 -148 -47q-19 -22 -24.5 -57t-5.5 -117q96 10 178 10q90 0 169 -18t148 -56.5t109.5 -109.5t40.5 -168 q0 -143 -119 -262q-46 -46 -123 -74.5t-154 -28.5q-100 0 -174 41l21 47q40 -22 133 -22q36 0 72.5 19t69 54.5t53 94t20.5 129.5q0 145 -87.5 215t-240.5 70h-41q-50 0 -62.5 -21t-12.5 -74v-632q0 -83 6 -118t28 -57q23 -23 54.5 -33t101.5 -18v-53q-46 0 -139.5 5 t-139.5 5t-138 -5t-138 -5z" />
<glyph unicode="&#xdf;" horiz-adv-x="1054" d="M45 0v51q92 8 118.5 33.5t26.5 110.5v624h-143v41l141 51v31q0 243 129 399q73 88 173 131.5t206 43.5t181 -55t75 -150q0 -27 -6 -53.5t-17.5 -50.5t-22.5 -42.5t-28 -38t-26.5 -29.5t-25.5 -25.5t-17 -16.5q-2 -2 -19 -18t-27 -26.5t-26.5 -31t-26 -38.5t-17 -42.5 t-7.5 -48.5q0 -17 1.5 -32t7.5 -30t9 -25t14 -25.5t15.5 -22t19.5 -23t19.5 -21l23.5 -23.5l23 -23q6 -6 39.5 -38.5t49 -48.5t44.5 -52.5t43.5 -65.5t26.5 -70.5t12 -83.5q0 -127 -94.5 -209t-222.5 -82q-116 0 -181 57t-65 132q0 64 35 98.5t78 34.5q39 0 65.5 -27.5 t26.5 -68.5q-24 0 -43 -19t-19 -49q0 -36 28.5 -64t84.5 -28q68 0 116 44t48 130q0 18 -3 35.5t-6 32t-11 31t-13 27t-17.5 27t-18 24t-21 24t-20.5 21.5l-22.5 22.5l-21.5 21.5q-7 7 -31.5 31t-35 35t-31.5 34.5t-31 41t-22.5 42t-17.5 50t-5 53.5q0 38 11.5 73.5 t31.5 65.5t37 50t39 41.5t25 25.5q18 20 28 33.5t28 43.5t27 67.5t9 80.5q0 93 -45 144t-129 51q-127 0 -205 -103q-70 -93 -70 -327v-1014q-104 8 -155 8q-25 0 -75 -4t-75 -4z" />
<glyph unicode="&#xe0;" horiz-adv-x="897" d="M82 195q0 153 154 204l342 113v123q0 109 -53 162t-136 53q-69 0 -99 -31.5t-30 -70.5q0 -18 8 -36t16 -27l9 -9q-8 -24 -38 -43t-60 -19q-39 0 -69 24t-30 79q0 29 13.5 52.5t43.5 42.5t54.5 30t68.5 28q138 54 199 74q120 0 191 -57.5t71 -169.5v-512q0 -109 72 -109 q40 0 84 35l25 -39q-117 -117 -205 -117q-61 0 -97 45.5t-36 122.5q-140 -140 -242 -168q-114 0 -185 63t-71 157zM199 1346q0 24 17.5 45.5t49.5 21.5q16 0 28.5 -4.5t25 -19t19 -23t23.5 -35.5l177 -276l-27 -21l-281 246q-32 26 -32 66zM250 225q0 -50 42 -94.5 t107 -44.5q32 0 76.5 30t73.5 60l29 29v252l-209 -78q-70 -27 -94.5 -64t-24.5 -90z" />
<glyph unicode="&#xe1;" horiz-adv-x="897" d="M82 195q0 153 154 204l342 113v123q0 109 -53 162t-136 53q-69 0 -99 -31.5t-30 -70.5q0 -18 8 -36t16 -27l9 -9q-8 -24 -38 -43t-60 -19q-39 0 -69 24t-30 79q0 29 13.5 52.5t43.5 42.5t54.5 30t68.5 28q138 54 199 74q120 0 191 -57.5t71 -169.5v-512q0 -109 72 -109 q40 0 84 35l25 -39q-117 -117 -205 -117q-61 0 -97 45.5t-36 122.5q-140 -140 -242 -168q-114 0 -185 63t-71 157zM250 225q0 -50 42 -94.5t107 -44.5q32 0 76.5 30t73.5 60l29 29v252l-209 -78q-70 -27 -94.5 -64t-24.5 -90zM348 1055l174 276q21 33 31 46t28 24.5t40 11.5 q31 0 49 -21.5t18 -43.5q0 -41 -31 -68l-282 -246z" />
<glyph unicode="&#xe2;" horiz-adv-x="897" d="M82 195q0 153 154 204l342 113v123q0 109 -53 162t-136 53q-69 0 -99 -31.5t-30 -70.5q0 -18 8 -36t16 -27l9 -9q-8 -24 -38 -43t-60 -19q-39 0 -69 24t-30 79q0 29 13.5 52.5t43.5 42.5t54.5 30t68.5 28q138 54 199 74q120 0 191 -57.5t71 -169.5v-512q0 -109 72 -109 q40 0 84 35l25 -39q-117 -117 -205 -117q-61 0 -97 45.5t-36 122.5q-140 -140 -242 -168q-114 0 -185 63t-71 157zM158 1055l174 280q27 44 47.5 61t50.5 17q31 0 52 -17.5t46 -58.5l164 -282l-26 -21l-236 252l-246 -252zM250 225q0 -50 42 -94.5t107 -44.5q32 0 76.5 30 t73.5 60l29 29v252l-209 -78q-70 -27 -94.5 -64t-24.5 -90z" />
<glyph unicode="&#xe3;" horiz-adv-x="897" d="M82 195q0 153 154 204l342 113v123q0 109 -53 162t-136 53q-69 0 -99 -31.5t-30 -70.5q0 -18 8 -36t16 -27l9 -9q-8 -24 -38 -43t-60 -19q-39 0 -69 24t-30 79q0 29 13.5 52.5t43.5 42.5t54.5 30t68.5 28q138 54 199 74q120 0 191 -57.5t71 -169.5v-512q0 -109 72 -109 q40 0 84 35l25 -39q-117 -117 -205 -117q-61 0 -97 45.5t-36 122.5q-140 -140 -242 -168q-114 0 -185 63t-71 157zM106 1141q47 57 78 98q67 88 133 88q25 0 49 -7t59 -23.5t46 -20.5q7 -3 23 -10.5t21 -9.5t17.5 -6.5t20 -6t20 -3t25.5 -1.5q14 0 27.5 4t22 8t23 15.5 t20 17t23 23.5t23.5 24l31 -24q-45 -58 -76 -99q-67 -88 -133 -88q-19 0 -41.5 6t-36.5 11.5t-41.5 19t-36.5 17.5q-8 3 -26 11t-24.5 10t-20.5 6t-26.5 5.5t-29.5 1.5q-13 0 -26 -4t-22 -8t-22.5 -15.5t-19.5 -17.5l-23.5 -23.5l-23.5 -23.5zM250 225q0 -50 42 -94.5 t107 -44.5q32 0 76.5 30t73.5 60l29 29v252l-209 -78q-70 -27 -94.5 -64t-24.5 -90z" />
<glyph unicode="&#xe4;" horiz-adv-x="897" d="M82 195q0 153 154 204l342 113v123q0 109 -53 162t-136 53q-69 0 -99 -31.5t-30 -70.5q0 -18 8 -36t16 -27l9 -9q-8 -24 -38 -43t-60 -19q-39 0 -69 24t-30 79q0 29 13.5 52.5t43.5 42.5t54.5 30t68.5 28q138 54 199 74q120 0 191 -57.5t71 -169.5v-512q0 -109 72 -109 q40 0 84 35l25 -39q-117 -117 -205 -117q-61 0 -97 45.5t-36 122.5q-140 -140 -242 -168q-114 0 -185 63t-71 157zM135 1223q0 44 32.5 76t76.5 32q43 0 75.5 -31.5t32.5 -74.5q0 -44 -32 -76.5t-76 -32.5q-43 0 -76 32t-33 75zM250 225q0 -50 42 -94.5t107 -44.5 q32 0 76.5 30t73.5 60l29 29v252l-209 -78q-70 -27 -94.5 -64t-24.5 -90zM504 1223q0 44 32 76t76 32q43 0 76 -32t33 -74q0 -44 -32.5 -76.5t-76.5 -32.5q-43 0 -75.5 32t-32.5 75z" />
<glyph unicode="&#xe5;" horiz-adv-x="897" d="M82 195q0 153 154 204l342 113v123q0 109 -53 162t-136 53q-69 0 -99 -31.5t-30 -70.5q0 -18 8 -36t16 -27l9 -9q-8 -24 -38 -43t-60 -19q-39 0 -69 24t-30 79q0 29 13.5 52.5t43.5 42.5t54.5 30t68.5 28q138 54 199 74q120 0 191 -57.5t71 -169.5v-512q0 -109 72 -109 q40 0 84 35l25 -39q-117 -117 -205 -117q-61 0 -97 45.5t-36 122.5q-140 -140 -242 -168q-114 0 -185 63t-71 157zM240 1223q0 81 56 135.5t134 54.5q77 0 134 -54.5t57 -133.5q0 -81 -56.5 -136t-134.5 -55q-77 0 -133.5 55t-56.5 134zM250 225q0 -50 42 -94.5t107 -44.5 q32 0 76.5 30t73.5 60l29 29v252l-209 -78q-70 -27 -94.5 -64t-24.5 -90zM317 1225q0 -50 33 -82.5t80 -32.5t80 32.5t33 82.5q0 49 -33 80.5t-80 31.5t-80 -31.5t-33 -80.5z" />
<glyph unicode="&#xe6;" horiz-adv-x="1359" d="M82 195q0 153 154 204l325 105v131q0 104 -46.5 159.5t-125.5 55.5q-69 0 -99 -31.5t-30 -70.5q0 -18 8 -36t16 -27l9 -9q-8 -24 -38 -43t-60 -19q-39 0 -69 24t-30 79q0 29 13.5 52.5t43.5 42.5t54.5 30t68.5 28q134 54 195 74q95 0 147.5 -34.5t77.5 -100.5 q4 5 12 14.5t36 32.5t58.5 41t79.5 32.5t101 14.5q85 0 148 -29.5t98.5 -80.5t52 -111t16.5 -129q0 -47 -41 -47l-538 6q-2 -30 -2 -61q0 -166 73.5 -267.5t208.5 -101.5q52 0 99 11.5t78 28.5t55 33.5t35 27.5l10 12l33 -35l-119 -150q-3 -3 -10 -8t-30 -18.5t-49.5 -23.5 t-69.5 -18t-89 -8q-67 0 -125.5 20.5t-93.5 49.5t-60.5 58.5t-36.5 50.5l-10 20q-173 -173 -278 -199q-114 0 -185 63t-71 157zM250 225q0 -50 42 -94.5t107 -44.5q36 0 85 35t80 69l30 35q-12 27 -22.5 82.5t-10.5 112.5v31l-192 -72q-70 -27 -94.5 -64t-24.5 -90zM723 604 l354 10q23 0 32 9t9 32q0 102 -41 162t-119 60q-87 0 -153 -70.5t-82 -202.5z" />
<glyph unicode="&#xe7;" horiz-adv-x="819" d="M72 430q0 242 164 393q69 65 148.5 92t147.5 27q65 0 115 -16.5t77.5 -43.5t40.5 -56t13 -58q0 -54 -33 -88.5t-83 -34.5q-44 0 -66.5 29t-22.5 53q15 7 26 26t11 35q0 11 -3.5 23t-13.5 28.5t-34.5 27t-60.5 10.5q-32 0 -66.5 -12t-70.5 -41t-64 -72t-46 -110.5 t-18 -149.5q0 -103 24.5 -178t66.5 -115t87 -58t95 -18q150 0 252 102l30 -35l-133 -149q-9 -7 -26 -18t-72 -29.5t-111 -18.5l-77 -98q30 6 61 6q72 0 115 -26q9 -4 23 -15t30 -39.5t16 -62.5q0 -76 -71 -119l-8 -3q-8 -4 -15 -7t-20 -7t-26 -7t-30 -5t-34 -2 q-78 0 -174 31l-78 51l16 31q30 -15 81 -27t83 -14q55 -3 92 10q20 7 35.5 25.5t15.5 46.5t-15.5 46.5t-35.5 25.5q-29 10 -82 10l-51 -6l-21 37l119 123q-130 13 -221 122q-102 122 -102 328z" />
<glyph unicode="&#xe8;" horiz-adv-x="880" d="M72 444q0 134 58 249t157 183t215 68q85 0 148.5 -29.5t99 -80.5t52.5 -111t17 -129q0 -24 -9 -35.5t-32 -11.5l-542 6q-3 -30 -3 -61q0 -171 76 -270t213 -99q52 0 99 11.5t78 28.5t55 33.5t34 27.5l11 12l30 -35l-116 -150q-4 -3 -10.5 -8t-30.5 -18.5t-51 -23.5 t-70.5 -18t-89.5 -8q-181 0 -285 131t-104 338zM213 1346q0 24 17.5 45.5t48.5 21.5q17 0 29.5 -4.5t25.5 -18.5t19.5 -23t23.5 -36l174 -276l-25 -21l-282 246q-31 25 -31 66zM240 604l358 10q23 0 32 9t9 32q0 102 -42 162t-120 60q-87 0 -154 -70.5t-83 -202.5z" />
<glyph unicode="&#xe9;" horiz-adv-x="880" d="M72 444q0 134 58 249t157 183t215 68q85 0 148.5 -29.5t99 -80.5t52.5 -111t17 -129q0 -24 -9 -35.5t-32 -11.5l-542 6q-3 -30 -3 -61q0 -171 76 -270t213 -99q52 0 99 11.5t78 28.5t55 33.5t34 27.5l11 12l30 -35l-116 -150q-4 -3 -10.5 -8t-30.5 -18.5t-51 -23.5 t-70.5 -18t-89.5 -8q-181 0 -285 131t-104 338zM240 604l358 10q23 0 32 9t9 32q0 102 -42 162t-120 60q-87 0 -154 -70.5t-83 -202.5zM391 1055l174 276q21 33 31 46t28 24.5t40 11.5q31 0 49 -21.5t18 -43.5q0 -41 -31 -68l-282 -246z" />
<glyph unicode="&#xea;" horiz-adv-x="880" d="M72 444q0 134 58 249t157 183t215 68q85 0 148.5 -29.5t99 -80.5t52.5 -111t17 -129q0 -24 -9 -35.5t-32 -11.5l-542 6q-3 -30 -3 -61q0 -171 76 -270t213 -99q52 0 99 11.5t78 28.5t55 33.5t34 27.5l11 12l30 -35l-116 -150q-4 -3 -10.5 -8t-30.5 -18.5t-51 -23.5 t-70.5 -18t-89.5 -8q-181 0 -285 131t-104 338zM225 1055l172 280q27 44 48 61t51 17q31 0 52 -17.5t46 -58.5l164 -282l-25 -21l-235 252l-246 -252zM240 604l358 10q23 0 32 9t9 32q0 102 -42 162t-120 60q-87 0 -154 -70.5t-83 -202.5z" />
<glyph unicode="&#xeb;" horiz-adv-x="880" d="M72 444q0 134 58 249t157 183t215 68q85 0 148.5 -29.5t99 -80.5t52.5 -111t17 -129q0 -24 -9 -35.5t-32 -11.5l-542 6q-3 -30 -3 -61q0 -171 76 -270t213 -99q52 0 99 11.5t78 28.5t55 33.5t34 27.5l11 12l30 -35l-116 -150q-4 -3 -10.5 -8t-30.5 -18.5t-51 -23.5 t-70.5 -18t-89.5 -8q-181 0 -285 131t-104 338zM197 1223q0 44 32 76t76 32q43 0 76 -32t33 -74q0 -44 -32.5 -76.5t-76.5 -32.5q-43 0 -75.5 32t-32.5 75zM240 604l358 10q23 0 32 9t9 32q0 102 -42 162t-120 60q-87 0 -154 -70.5t-83 -202.5zM565 1223q0 44 32.5 76 t76.5 32q43 0 75.5 -31.5t32.5 -74.5q0 -44 -32 -76.5t-76 -32.5q-43 0 -76 32t-33 75z" />
<glyph unicode="&#xec;" horiz-adv-x="497" d="M4 1346q0 24 17.5 45.5t48.5 21.5q17 0 29.5 -4.5t25.5 -18.5t19.5 -23t23.5 -36l174 -276l-25 -21l-282 246q-31 25 -31 66zM43 0v51q86 5 113.5 32.5t27.5 111.5v460q0 75 -22.5 102.5t-100.5 51.5v41q65 16 144 43t123 49l16 -4v-743q0 -83 27 -109.5t114 -34.5v-51 q-39 0 -111 5t-108 5t-110 -5t-113 -5z" />
<glyph unicode="&#xed;" horiz-adv-x="497" d="M43 0v51q86 5 113.5 32.5t27.5 111.5v460q0 75 -22.5 102.5t-100.5 51.5v41q65 16 144 43t123 49l16 -4v-743q0 -83 27 -109.5t114 -34.5v-51q-39 0 -111 5t-108 5t-110 -5t-113 -5zM117 1055l174 276q17 27 23.5 35.5t19 23t25 19t28.5 4.5q32 0 50 -21t18 -44 q0 -43 -31 -68l-281 -246z" />
<glyph unicode="&#xee;" horiz-adv-x="497" d="M-16 1055l174 280q27 44 47.5 61t50.5 17q31 0 52 -17.5t46 -58.5l164 -282l-26 -21l-236 252l-246 -252zM43 0v51q86 5 113.5 32.5t27.5 111.5v460q0 75 -22.5 102.5t-100.5 51.5v41q65 16 144 43t123 49l16 -4v-743q0 -83 27 -109.5t114 -34.5v-51q-39 0 -111 5t-108 5 t-110 -5t-113 -5z" />
<glyph unicode="&#xef;" horiz-adv-x="497" d="M-37 1223q0 44 32 76t75 32q44 0 76 -31.5t32 -74.5q0 -44 -31.5 -76.5t-74.5 -32.5q-44 0 -76.5 32t-32.5 75zM43 0v51q86 5 113.5 32.5t27.5 111.5v460q0 75 -22.5 102.5t-100.5 51.5v41q65 16 144 43t123 49l16 -4v-743q0 -83 27 -109.5t114 -34.5v-51q-39 0 -111 5 t-108 5t-110 -5t-113 -5zM332 1223q0 44 31.5 76t74.5 32q44 0 76.5 -31.5t32.5 -74.5q0 -44 -32 -76.5t-75 -32.5q-44 0 -76 32t-32 75z" />
<glyph unicode="&#xf0;" horiz-adv-x="1028" d="M72 451q0 215 121.5 348t308.5 133q65 0 129.5 -29t89.5 -63q-65 249 -250 434l-180 -158l-53 60l174 153q-45 41 -124 90t-120 66l27 51q47 -18 128.5 -62.5t147.5 -93.5l176 156l53 -61l-163 -144q196 -159 305.5 -377.5t109.5 -461.5q0 -120 -34.5 -218.5t-94 -163.5 t-138 -100t-167.5 -35t-169.5 33.5t-142 94t-98 151t-36.5 197.5zM256 481q0 -194 72 -312t194 -118q246 0 246 391q0 190 -72 305t-194 115q-246 0 -246 -381z" />
<glyph unicode="&#xf1;" horiz-adv-x="1095" d="M43 0v51q86 5 113.5 32.5t27.5 111.5v460q0 75 -22.5 102.5t-100.5 51.5v41q65 16 144 43t123 49l16 -4l-2 -150q71 50 168.5 99.5t165.5 56.5q144 0 206 -71.5t62 -227.5v-450q0 -83 27.5 -109.5t115.5 -34.5v-51q-37 0 -108 5t-111 5q-39 0 -107 -5t-106 -5v51 q81 8 106 34.5t25 109.5v389q0 115 -45 175t-155 60q-56 0 -125 -32.5t-115 -69.5v-522q0 -83 25 -109t106 -35v-51q-39 0 -105.5 5t-105.5 5t-112 -5t-111 -5zM205 1141q45 57 76 98q67 88 133 88q26 0 50 -7.5t57.5 -23t45.5 -20.5q6 -3 22.5 -10.5t21.5 -9.5t17.5 -6.5 t20.5 -6t20.5 -3t26.5 -1.5q13 0 26.5 4t22 7.5t23 16t19.5 17t23.5 23.5t23.5 24l32 -24q-47 -58 -78 -99q-67 -88 -133 -88q-19 0 -41 6t-36 12t-39.5 18.5t-36.5 17.5q-9 4 -26.5 11l-25 10t-21 6.5t-26 5t-28.5 1.5q-14 0 -27.5 -4t-22 -8t-23 -15.5t-20 -17t-23 -23.5 t-23.5 -24z" />
<glyph unicode="&#xf2;" d="M72 451q0 214 126.5 353.5t307.5 139.5q89 0 169.5 -33.5t142 -93.5t98 -150.5t36.5 -197.5q0 -214 -127 -354t-307 -140q-89 0 -169.5 33.5t-142 94t-98 151t-36.5 197.5zM213 1346q0 24 17.5 45.5t48.5 21.5q17 0 29.5 -4.5t25.5 -18.5t19.5 -23t23.5 -36l174 -276 l-25 -21l-282 246q-31 25 -31 66zM256 481q0 -194 72 -312t194 -118q246 0 246 391q0 194 -72 312t-194 118q-246 0 -246 -391z" />
<glyph unicode="&#xf3;" d="M72 451q0 214 126.5 353.5t307.5 139.5q89 0 169.5 -33.5t142 -93.5t98 -150.5t36.5 -197.5q0 -214 -127 -354t-307 -140q-89 0 -169.5 33.5t-142 94t-98 151t-36.5 197.5zM256 481q0 -194 72 -312t194 -118q246 0 246 391q0 194 -72 312t-194 118q-246 0 -246 -391z M401 1055l174 276q21 33 31 46t28 24.5t40 11.5q31 0 49 -21.5t18 -43.5q0 -42 -30 -68l-283 -246z" />
<glyph unicode="&#xf4;" d="M72 451q0 214 126.5 353.5t307.5 139.5q89 0 169.5 -33.5t142 -93.5t98 -150.5t36.5 -197.5q0 -214 -127 -354t-307 -140q-89 0 -169.5 33.5t-142 94t-98 151t-36.5 197.5zM246 1055l172 280q27 44 47.5 61t50.5 17q31 0 53 -18t45 -58l164 -282l-24 -21l-236 252 l-246 -252zM256 481q0 -194 72 -312t194 -118q246 0 246 391q0 194 -72 312t-194 118q-246 0 -246 -391z" />
<glyph unicode="&#xf5;" d="M72 451q0 214 126.5 353.5t307.5 139.5q89 0 169.5 -33.5t142 -93.5t98 -150.5t36.5 -197.5q0 -214 -127 -354t-307 -140q-89 0 -169.5 33.5t-142 94t-98 151t-36.5 197.5zM184 1141q45 57 76 98q67 88 133 88q26 0 50 -7t58 -23t46 -21q6 -3 22.5 -10.5t21.5 -9.5 t17.5 -6.5t20.5 -6t20.5 -3t26.5 -1.5q13 0 26 4t22 8t22.5 15.5t19.5 17.5l23.5 23.5l23.5 23.5l33 -24q-47 -58 -78 -99q-67 -88 -133 -88q-19 0 -41 6t-36 12t-40.5 18.5t-36.5 17.5q-9 4 -26.5 11l-25 10t-21 6.5t-26 5t-28.5 1.5q-14 0 -27.5 -4t-22 -8t-23 -15.5 t-20 -17t-23 -23.5t-23.5 -24zM256 481q0 -194 72 -312t194 -118q246 0 246 391q0 194 -72 312t-194 118q-246 0 -246 -391z" />
<glyph unicode="&#xf6;" d="M72 451q0 214 126.5 353.5t307.5 139.5q89 0 169.5 -33.5t142 -93.5t98 -150.5t36.5 -197.5q0 -214 -127 -354t-307 -140q-89 0 -169.5 33.5t-142 94t-98 151t-36.5 197.5zM219 1223q0 44 32.5 76t76.5 32q43 0 75.5 -31.5t32.5 -74.5q0 -44 -32 -76.5t-76 -32.5 q-43 0 -76 32t-33 75zM256 481q0 -194 72 -312t194 -118q246 0 246 391q0 194 -72 312t-194 118q-246 0 -246 -391zM588 1223q0 44 32 76t76 32q43 0 76 -32t33 -74q0 -44 -32.5 -76.5t-76.5 -32.5q-43 0 -75.5 32t-32.5 75z" />
<glyph unicode="&#xf7;" d="M51 420v88h922v-88h-922zM430 229q0 34 23 57t59 23q33 0 55.5 -22.5t22.5 -55.5q0 -35 -22.5 -60.5t-55.5 -25.5q-36 0 -59 24.5t-23 59.5zM430 702q0 34 23 57t59 23q34 0 56 -22t22 -55q0 -35 -22.5 -61t-55.5 -26q-36 0 -59 24.5t-23 59.5z" />
<glyph unicode="&#xf8;" d="M45 31l119 121q-92 126 -92 299q0 215 126.5 354t307.5 139q182 0 309 -127l117 121l47 -51l-119 -121q92 -126 92 -297q0 -143 -59.5 -257t-158 -175.5t-216.5 -61.5q-181 0 -309 125l-117 -120zM256 481q0 -128 29 -217l428 459q-75 149 -211 149q-246 0 -246 -391z M313 197q75 -146 209 -146q246 0 246 391q0 110 -29 215z" />
<glyph unicode="&#xf9;" horiz-adv-x="1060" d="M45 840v51q35 0 128.5 13.5t139.5 27.5l17 -4q-3 -71 -4.5 -200.5t-1.5 -223.5v-94q0 -159 34 -215q54 -89 168 -89q25 0 56 11t58.5 27t51 32.5t37.5 27.5l14 11v485q0 71 -24.5 102t-91.5 38v51q35 0 127.5 13.5t138.5 27.5l16 -4q-6 -160 -6 -516v-187q0 -57 11.5 -79 t43 -26t86.5 3l7 -51q-68 -19 -291 -92l-10 10l-7 153q-126 -101 -195 -137q-53 -27 -91 -31q-160 0 -232 107q-32 47 -46.5 108t-14.5 158v352q0 71 -25 102t-94 38zM236 1346q0 24 17 45.5t48 21.5q17 0 29.5 -4.5t25.5 -18.5t19.5 -23t23.5 -36l174 -276l-24 -21 l-283 246q-30 24 -30 66z" />
<glyph unicode="&#xfa;" horiz-adv-x="1060" d="M45 840v51q35 0 128.5 13.5t139.5 27.5l17 -4q-3 -71 -4.5 -200.5t-1.5 -223.5v-94q0 -159 34 -215q54 -89 168 -89q25 0 56 11t58.5 27t51 32.5t37.5 27.5l14 11v485q0 71 -24.5 102t-91.5 38v51q35 0 127.5 13.5t138.5 27.5l16 -4q-6 -160 -6 -516v-187q0 -57 11.5 -79 t43 -26t86.5 3l7 -51q-68 -19 -291 -92l-10 10l-7 153q-126 -101 -195 -137q-53 -27 -91 -31q-160 0 -232 107q-32 47 -46.5 108t-14.5 158v352q0 71 -25 102t-94 38zM426 1055l174 276q17 27 23.5 35.5t19 23t25 19t28.5 4.5q32 0 50 -21t18 -44q0 -43 -31 -68l-280 -246z " />
<glyph unicode="&#xfb;" horiz-adv-x="1060" d="M45 840v51q35 0 128.5 13.5t139.5 27.5l17 -4q-3 -71 -4.5 -200.5t-1.5 -223.5v-94q0 -159 34 -215q54 -89 168 -89q25 0 56 11t58.5 27t51 32.5t37.5 27.5l14 11v485q0 71 -24.5 102t-91.5 38v51q35 0 127.5 13.5t138.5 27.5l16 -4q-6 -160 -6 -516v-187q0 -57 11.5 -79 t43 -26t86.5 3l7 -51q-68 -19 -291 -92l-10 10l-7 153q-126 -101 -195 -137q-53 -27 -91 -31q-160 0 -232 107q-32 47 -46.5 108t-14.5 158v352q0 71 -25 102t-94 38zM240 1055l174 280q27 44 47.5 61t50.5 17q31 0 52 -17.5t46 -58.5l164 -282l-26 -21l-236 252l-246 -252z " />
<glyph unicode="&#xfc;" horiz-adv-x="1060" d="M45 840v51q35 0 128.5 13.5t139.5 27.5l17 -4q-3 -71 -4.5 -200.5t-1.5 -223.5v-94q0 -159 34 -215q54 -89 168 -89q25 0 56 11t58.5 27t51 32.5t37.5 27.5l14 11v485q0 71 -24.5 102t-91.5 38v51q35 0 127.5 13.5t138.5 27.5l16 -4q-6 -160 -6 -516v-187q0 -57 11.5 -79 t43 -26t86.5 3l7 -51q-68 -19 -291 -92l-10 10l-7 153q-126 -101 -195 -137q-53 -27 -91 -31q-160 0 -232 107q-32 47 -46.5 108t-14.5 158v352q0 71 -25 102t-94 38zM240 1223q0 44 32 76t76 32q43 0 76 -32t33 -74q0 -44 -32.5 -76.5t-76.5 -32.5q-43 0 -75.5 32t-32.5 75 zM608 1223q0 44 32.5 76t76.5 32q43 0 75.5 -31.5t32.5 -74.5q0 -44 -32 -76.5t-76 -32.5q-43 0 -76 32t-33 75z" />
<glyph unicode="&#xfd;" horiz-adv-x="921" d="M-2 860v51q36 0 100.5 -4t100.5 -4t112.5 4t112.5 4v-51q-78 -7 -106.5 -21.5t-28.5 -39.5q0 -9 1.5 -18t5 -20t6 -18.5t8.5 -23t9 -23.5l191 -501l188 501q4 10 11.5 28.5t11 27.5t7 22.5t3.5 24.5q0 24 -27.5 39t-91.5 22v51q36 0 100 -4t87 -4q24 0 71 4t82 4v-51 q-50 -7 -84 -41q-11 -11 -22.5 -30.5t-18 -34t-21 -49.5t-20.5 -50l-378 -901q-56 -131 -108 -193.5t-118 -62.5t-99.5 32t-33.5 81q0 45 26.5 73.5t65.5 28.5q18 0 31.5 -3.5t19 -7t11.5 -8.5l6 -5q-2 -3 -4.5 -6.5t-4 -5.5t-2.5 -7t-1 -12q0 -15 10.5 -24t25.5 -9 q16 0 38.5 29t43.5 80l109 266l-283 707q-33 84 -61 112q-31 31 -82 41zM436 1055l174 276q21 33 31 46t27.5 24.5t38.5 11.5q32 0 49.5 -21t17.5 -44q0 -43 -31 -68l-280 -246z" />
<glyph unicode="&#xfe;" horiz-adv-x="1044" d="M8 -451q93 8 119.5 34t26.5 110v1546q0 76 -28 107.5t-106 46.5v41q59 14 148.5 45t138.5 53l19 -10q-15 -138 -15 -410v-326q6 6 17.5 17t45.5 38t68 48t80 38t86 17q173 0 277 -137q88 -116 88 -318q0 -104 -33.5 -198t-89.5 -158q-61 -69 -144.5 -113.5t-183.5 -44.5 q-64 0 -116.5 15.5t-73.5 31.5l-21 15v-344q0 -83 30 -109.5t124 -34.5v-51q-33 0 -107 5t-122 5t-121.5 -5t-106.5 -5v51zM311 285q0 -111 50.5 -173.5t154.5 -62.5q116 0 197.5 100.5t81.5 288.5q0 96 -22.5 172t-60.5 121t-84 68.5t-96 23.5q-36 0 -71.5 -11t-61.5 -27 t-46.5 -32t-30.5 -27l-11 -11v-430z" />
<glyph unicode="&#xff;" horiz-adv-x="921" d="M-2 860v51q36 0 100.5 -4t100.5 -4t112.5 4t112.5 4v-51q-78 -7 -106.5 -21.5t-28.5 -39.5q0 -9 1.5 -18t5 -20t6 -18.5t8.5 -23t9 -23.5l191 -501l188 501q4 10 11.5 28.5t11 27.5t7 22.5t3.5 24.5q0 24 -27.5 39t-91.5 22v51q36 0 100 -4t87 -4q24 0 71 4t82 4v-51 q-50 -7 -84 -41q-11 -11 -22.5 -30.5t-18 -34t-21 -49.5t-20.5 -50l-378 -901q-56 -131 -108 -193.5t-118 -62.5t-99.5 32t-33.5 81q0 45 26.5 73.5t65.5 28.5q18 0 31.5 -3.5t19 -7t11.5 -8.5l6 -5q-2 -3 -4.5 -6.5t-4 -5.5t-2.5 -7t-1 -12q0 -15 10.5 -24t25.5 -9 q16 0 38.5 29t43.5 80l109 266l-283 707q-33 84 -61 112q-31 31 -82 41zM215 1223q0 44 32.5 76t76.5 32q43 0 75.5 -31.5t32.5 -74.5q0 -44 -32 -76.5t-76 -32.5q-43 0 -76 32t-33 75zM584 1223q0 44 32 76t76 32q43 0 76 -32t33 -74q0 -44 -32.5 -76.5t-76.5 -32.5 q-43 0 -75.5 32t-32.5 75z" />
<glyph unicode="&#x152;" horiz-adv-x="1996" d="M82 655q0 157 52 292t140 226.5t205.5 143t247.5 51.5q39 0 78.5 -4.5t58 -8.5t52 -13t34.5 -9q139 -6 221 -6l687 10l6 -303l-41 -4q-18 53 -28 79.5t-26.5 57t-31.5 43.5t-40 25.5t-55.5 16t-74.5 3.5h-226q-61 0 -73.5 -14t-12.5 -76v-440l209 6q68 1 98 9t50 28 q43 43 51 143h47q0 -41 -5 -115.5t-5 -115.5t5 -115.5t5 -115.5h-47q-9 113 -49 153q-20 20 -50.5 28t-99.5 9l-209 6v-420q0 -86 25.5 -112.5t112.5 -26.5h225q108 0 177 70.5t120 199.5l51 -14l-78 -342q-116 0 -399.5 5t-319.5 5q-44 0 -99 -2t-88 -4l-34 -2 q-102 -33 -200 -33q-131 0 -251 47.5t-212.5 133.5t-147.5 217.5t-55 287.5zM297 702q0 -129 28 -238.5t74 -184t107 -127t126 -77t132 -24.5q154 0 237.5 50t83.5 122v852q0 99 -104.5 157t-267.5 58q-67 0 -126 -18t-113 -61.5t-92.5 -109.5t-61.5 -168t-23 -231z" />
<glyph unicode="&#x153;" horiz-adv-x="1572" d="M72 451q0 214 126.5 353.5t307.5 139.5q118 0 209 -54t139 -147q52 84 143.5 142.5t198.5 58.5q68 0 122 -20t89.5 -53t59.5 -78.5t34 -95t10 -103.5q0 -47 -41 -47l-538 6q-2 -30 -2 -61q0 -170 76 -269.5t211 -99.5q51 0 97.5 11.5t77 28.5t53.5 33.5t33 27.5l11 12 l33 -35l-117 -150q-4 -3 -10.5 -8t-30.5 -18.5t-51 -23.5t-70 -18t-88 -8q-215 0 -321 189q-12 -21 -29 -43t-46 -49.5t-62.5 -48t-80.5 -34.5t-98 -14q-89 0 -169.5 33.5t-142 94t-98 151t-36.5 197.5zM256 481q0 -194 72 -312t194 -118q246 0 246 391q0 194 -72 312 t-194 118q-246 0 -246 -391zM936 604l354 10q23 0 32 9t9 32q0 102 -41.5 162t-118.5 60q-85 0 -152 -71t-83 -202z" />
<glyph unicode="&#x178;" horiz-adv-x="1136" d="M-25 1284v53q47 0 118 -4t114 -4t129.5 4t132.5 4v-51q-143 -12 -143 -65q0 -14 8 -36.5t16 -38t21.5 -40.5t15.5 -29l215 -411l236 411q2 4 13.5 24.5t17 31.5t14 29t12.5 32.5t4 26.5q0 30 -30.5 43.5t-102.5 19.5v53q35 0 101 -4t106 -4t97.5 4t92.5 4v-53 q-81 -2 -125 -53q-10 -10 -21 -25.5t-19 -28.5t-23 -38.5t-25 -40.5l-307 -504v-315q0 -81 6.5 -117t28.5 -58t52.5 -31t113.5 -20v-53q-44 0 -138 5t-151 5t-151 -5t-138 -5v53q81 11 111.5 20t52.5 31q23 23 30 59.5t7 115.5v294l-297 545q-51 94 -82 123q-43 40 -113 43z M281 1626q0 44 32 76.5t76 32.5q43 0 76 -32t33 -75q0 -44 -32.5 -76t-76.5 -32q-43 0 -75.5 31.5t-32.5 74.5zM649 1626q0 44 32.5 76.5t76.5 32.5q43 0 75.5 -32t32.5 -75q0 -44 -32 -76t-76 -32q-43 0 -76 32t-33 74z" />
<glyph unicode="&#x2c6;" horiz-adv-x="503" d="M-14 1055l172 280q28 44 48.5 61t49.5 17q31 0 52 -17.5t46 -58.5l164 -282l-24 -21l-236 252l-246 -252z" />
<glyph unicode="&#x2dc;" horiz-adv-x="1071" d="M205 1141q45 57 76 98q67 88 133 88q26 0 50 -7.5t57.5 -23t45.5 -20.5q6 -3 22.5 -10.5t21.5 -9.5t17.5 -6.5t20.5 -6t20.5 -3t26.5 -1.5q13 0 26.5 4t22 7.5t23 16t19.5 17t23.5 23.5t23.5 24l32 -24q-47 -58 -78 -99q-67 -88 -133 -88q-19 0 -41 6t-36 12t-39.5 18.5 t-36.5 17.5q-9 4 -26.5 11l-25 10t-21 6.5t-26 5t-28.5 1.5q-14 0 -27.5 -4t-22 -8t-23 -15.5t-20 -17t-23 -23.5t-23.5 -24z" />
<glyph unicode="&#x2000;" horiz-adv-x="906" />
<glyph unicode="&#x2001;" horiz-adv-x="1812" />
<glyph unicode="&#x2002;" horiz-adv-x="906" />
<glyph unicode="&#x2003;" horiz-adv-x="1812" />
<glyph unicode="&#x2004;" horiz-adv-x="604" />
<glyph unicode="&#x2005;" horiz-adv-x="453" />
<glyph unicode="&#x2006;" horiz-adv-x="302" />
<glyph unicode="&#x2007;" horiz-adv-x="302" />
<glyph unicode="&#x2008;" horiz-adv-x="226" />
<glyph unicode="&#x2009;" horiz-adv-x="362" />
<glyph unicode="&#x200a;" horiz-adv-x="100" />
<glyph unicode="&#x2010;" horiz-adv-x="563" d="M61 403l21 134l420 43l-21 -134z" />
<glyph unicode="&#x2011;" horiz-adv-x="563" d="M61 403l21 134l420 43l-21 -134z" />
<glyph unicode="&#x2012;" horiz-adv-x="563" d="M61 403l21 134l420 43l-21 -134z" />
<glyph unicode="&#x2013;" d="M92 438v107h840v-107h-840z" />
<glyph unicode="&#x2014;" horiz-adv-x="1361" d="M41 440v103h1280v-103h-1280z" />
<glyph unicode="&#x2018;" horiz-adv-x="512" d="M96 1106q0 113 82 211t201 137l20 -51q-54 -25 -91.5 -57t-54 -64t-22.5 -56.5t-6 -47.5q0 -36 18.5 -57t43.5 -21q14 0 26.5 5.5t18.5 10.5l6 6q6 -3 14.5 -9.5t22.5 -31.5t14 -57q0 -53 -39 -88t-94 -35q-29 0 -56 11t-51 33.5t-38.5 64t-14.5 96.5z" />
<glyph unicode="&#x2019;" horiz-adv-x="512" d="M133 936q54 25 91.5 57t54 64t22.5 56.5t6 47.5q0 36 -18 57t-43 21q-14 0 -26.5 -5t-18.5 -10l-6 -5q-6 3 -14.5 9t-23 30.5t-14.5 56.5q0 53 39 89t94 36q29 0 56 -11t51 -33.5t38.5 -64t14.5 -96.5q0 -113 -81.5 -211t-200.5 -139z" />
<glyph unicode="&#x201a;" horiz-adv-x="512" d="M133 -276q54 25 91.5 57t54 64t22.5 56.5t6 47.5q0 36 -18 57t-43 21q-14 0 -26.5 -5.5t-18.5 -11.5l-6 -6q-6 3 -14.5 9.5t-23 31.5t-14.5 57q0 53 39 88t94 35q29 0 56 -11t51 -33.5t38.5 -64t14.5 -96.5q0 -113 -82 -211t-200 -137z" />
<glyph unicode="&#x201c;" horiz-adv-x="911" d="M96 1106q0 113 82 211t201 137l20 -51q-54 -25 -92.5 -57.5t-56 -64t-24.5 -56t-7 -47.5q0 -36 18.5 -57t43.5 -21q14 0 26.5 5.5t18.5 10.5l6 6q6 -3 15 -9.5t23.5 -31.5t14.5 -57q0 -53 -39 -88t-94 -35q-63 0 -109.5 49.5t-46.5 155.5zM496 1106q0 113 82 211t200 137 l21 -51q-54 -25 -92.5 -57.5t-56.5 -64t-25 -56t-7 -47.5q0 -36 18.5 -57t43.5 -21q14 0 26.5 5.5t18.5 10.5l6 6q6 -3 15 -9.5t23.5 -31.5t14.5 -57q0 -53 -39 -88t-94 -35q-63 0 -109 49.5t-46 155.5z" />
<glyph unicode="&#x201d;" horiz-adv-x="911" d="M113 936q54 25 92.5 57.5t56 64t24.5 56t7 47.5q0 36 -18.5 57t-43.5 21q-14 0 -26.5 -5t-18.5 -10l-6 -5q-6 3 -15 9t-23.5 30.5t-14.5 56.5q0 53 39 89t94 36q63 0 109.5 -49.5t46.5 -155.5q0 -113 -82 -211t-201 -139zM512 936q54 25 92.5 57.5t56 64t24.5 56t7 47.5 q0 36 -18 57t-43 21q-14 0 -26.5 -5t-18.5 -10l-6 -5q-6 3 -15 9t-24 30.5t-15 56.5q0 53 39 89t94 36q63 0 109.5 -49.5t46.5 -155.5q0 -113 -82 -211t-201 -139z" />
<glyph unicode="&#x201e;" horiz-adv-x="911" d="M133 -276q54 25 92.5 57.5t56 64t24.5 56t7 47.5q0 36 -18 57t-43 21q-14 0 -26.5 -5.5t-18.5 -11.5l-6 -6q-6 3 -15 9.5t-24 31.5t-15 57q0 53 39.5 88t94.5 35q63 0 109 -49.5t46 -155.5q0 -113 -82 -211t-200 -137zM532 -276q54 25 92.5 57.5t56.5 64t25 56t7 47.5 q0 36 -18.5 57t-43.5 21q-14 0 -26.5 -5.5t-18.5 -11.5l-6 -6q-6 3 -15 9.5t-23.5 31.5t-14.5 57q0 53 39 88t94 35q63 0 109.5 -49.5t46.5 -155.5q0 -113 -82 -211t-201 -137z" />
<glyph unicode="&#x2022;" horiz-adv-x="645" d="M82 668q0 105 69 176t171 71q104 0 172.5 -70.5t68.5 -174.5q0 -105 -68.5 -176.5t-170.5 -71.5q-104 0 -173 71t-69 175z" />
<glyph unicode="&#x2026;" horiz-adv-x="1648" d="M137 96q0 51 35 86t86 35q50 0 84.5 -35t34.5 -86q0 -50 -34.5 -84.5t-84.5 -34.5q-51 0 -86 34.5t-35 84.5zM713 96q0 51 34 86t84 35q51 0 86 -35t35 -86q0 -50 -35 -84.5t-86 -34.5q-49 0 -83.5 34.5t-34.5 84.5zM1286 96q0 51 35 86t86 35q50 0 84.5 -35t34.5 -86 q0 -50 -35 -84.5t-84 -34.5q-51 0 -86 34.5t-35 84.5z" />
<glyph unicode="&#x202f;" horiz-adv-x="362" />
<glyph unicode="&#x2039;" horiz-adv-x="542" d="M51 461q87 87 187 208t172 222l41 -25q-111 -249 -215 -405q105 -158 215 -404l-41 -26q-68 97 -169 219t-190 211z" />
<glyph unicode="&#x203a;" horiz-adv-x="542" d="M92 55q112 252 215 406q-107 160 -215 403l41 27q68 -97 169 -219t190 -211q-87 -87 -187 -208t-172 -222z" />
<glyph unicode="&#x205f;" horiz-adv-x="453" />
<glyph unicode="&#x20ac;" d="M55 506v72h107q-4 47 -4 84l4 83h-107v72h113q21 135 71 240t116.5 166t140 92t149.5 31q55 0 103.5 -8.5t79 -20.5t53 -24t31.5 -21l10 -8l10 -277l-51 -10q-68 307 -246 307q-238 0 -279 -465h387v-71h-391q-2 -47 -2 -84l2 -84h391v-72h-387q14 -224 87 -345.5 t171 -121.5q218 0 297 307l52 -10l-52 -277q-4 -4 -11.5 -10t-35 -22t-59.5 -28t-86.5 -22t-114.5 -10q-83 0 -154 30.5t-130 93.5t-98 168t-52 245h-115z" />
<glyph unicode="&#x2122;" horiz-adv-x="1720" d="M72 1147l30 221h25q0 -37 47 -37h451q60 0 65 37h27l-21 -227h-34q-7 105 -48 123q-14 7 -67 11.5t-90 4.5v-512q0 -21 1.5 -35t9.5 -24t13.5 -15t24.5 -10t30.5 -6.5t43.5 -5.5v-43q-41 0 -99 3t-86 3t-85.5 -3t-98.5 -3v41q26 4 33.5 5t25.5 4.5t22.5 6t15.5 8t13 11.5 t6.5 15t5.5 20.5t1 27.5v512q-77 0 -129 -10q-15 -3 -25.5 -8t-24.5 -18t-25.5 -40t-20.5 -67zM725 629v41q66 13 87.5 30t25.5 68l41 481q-31 31 -103 41v41q20 0 60.5 -3t62.5 -3l125 6q4 -40 31 -112l153 -410l168 440q5 14 10.5 34.5t7.5 34.5l3 13q78 -6 123 -6 q21 0 41.5 1t44.5 2.5t39 2.5v-41q-60 -7 -78.5 -26t-16.5 -66l17 -444q1 -47 21 -60.5t81 -21.5v-43q-31 0 -78 3t-82 3t-82 -3t-77 -3v41q53 4 73.5 21.5t18.5 56.5l-15 460l-170 -440q-9 -23 -20.5 -59t-18.5 -61l-8 -25h-57q-24 74 -49 135l-168 440l-27 -430 q-3 -57 20 -75t83 -21v-43q-31 0 -72.5 3t-71.5 3t-71 -3t-72 -3z" />
<glyph unicode="&#xe000;" horiz-adv-x="911" d="M0 0v911h911v-911h-911z" />
</font>
</defs>
</svg>
