<?xml version="1.0" standalone="no"?>
<!DOCTYPE svg PUBLIC "-//W3C//DTD SVG 1.1//EN" "http://www.w3.org/Graphics/SVG/1.1/DTD/svg11.dtd" >
<svg xmlns="http://www.w3.org/2000/svg">
<metadata></metadata>
<defs>
<font id="new_macleans_displayitalic" horiz-adv-x="993" >
<font-face units-per-em="2048" ascent="1628" descent="-420" />
<missing-glyph horiz-adv-x="389" />
<glyph unicode="&#xfb01;" horiz-adv-x="983" d="M-225 -420q0 35 25.5 59.5t66.5 24.5q12 0 20 -2q-10 -21 -10 -41q0 -18 10.5 -32.5t34.5 -14.5q29 0 52 32t46 107q28 93 72 318l154 792h-166l12 78h168l37 154q63 257 195 368q68 57 128 75t128 18q92 0 166.5 -46.5t74.5 -121.5q0 -54 -28 -89.5t-80 -35.5 q-51 0 -77 28t-26 70q4 2 10 6.5t16.5 20.5t10.5 34q0 78 -108 78q-43 0 -77.5 -17t-51 -35t-35.5 -46q-45 -66 -82 -236l-47 -225h190q69 0 125.5 10.5t79.5 10.5q92 0 92 -72q0 -11 -1 -22t-4 -25t-5 -23.5t-7.5 -27.5t-8 -26.5t-9.5 -30t-10 -29.5l-113 -349 q-36 -105 -36 -153q0 -26 6 -36.5t28 -10.5q26 0 73 37.5t108 117.5l30 -26q-63 -97 -125 -160.5t-107.5 -87t-84.5 -23.5q-98 0 -98 117q0 21 3 43t11 52.5t12 44.5t17 53t14 43l82 256l16 53q17 53 26 88t9 53q0 29 -14 38t-47 9h-267l-92 -446q-96 -461 -184 -635 q-57 -113 -123.5 -179.5t-132.5 -66.5q-39 0 -65.5 22.5t-26.5 59.5z" />
<glyph unicode="&#xfb02;" horiz-adv-x="1013" d="M-225 -420q0 35 25.5 59.5t66.5 24.5q12 0 20 -2q-10 -21 -10 -41q0 -18 10.5 -32.5t34.5 -14.5q29 0 52 32t46 107q28 93 72 318l154 792h-166l12 78h168l37 154q63 257 195 368q111 93 256 93q54 0 100 -17.5t57 -30.5q78 37 129 64l10 -10q-8 -32 -28 -113.5 t-37 -149.5t-27 -112l-178 -768q-43 -186 -43 -215q0 -24 9 -35.5t32 -11.5q61 0 180 155l31 -26q-63 -97 -125 -160.5t-107.5 -87t-84.5 -23.5q-99 0 -99 117q0 25 9.5 79t19 95t25.5 109.5t18 75.5l90 374h-330l-92 -446q-96 -461 -184 -635q-57 -113 -123.5 -179.5 t-132.5 -66.5q-39 0 -65.5 22.5t-26.5 59.5zM414 901h331l64 266q31 132 31 185q0 47 -36.5 77.5t-96.5 30.5q-98 0 -164 -98q-51 -76 -82 -236z" />
<glyph unicode="&#xfb03;" horiz-adv-x="1470" d="M-225 -420q0 40 30 64.5t82 17.5q-10 -21 -10 -41q0 -18 10.5 -32.5t34.5 -14.5q29 0 52 32t46 107q28 93 72 318l154 792h-166l12 78h168l27 113q28 125 70.5 211.5t113.5 146.5q110 92 246 92q80 0 133.5 -30.5t64.5 -71.5q29 36 58 61q109 93 256 93q59 0 115.5 -19 t96.5 -59t40 -90t-29 -87.5t-80 -37.5t-76.5 28t-25.5 70q4 2 10 6.5t16.5 20.5t10.5 34q0 33 -26 55.5t-77 22.5q-111 0 -174 -98q-28 -42 -52 -112.5t-36 -133.5l-47 -215h195q70 0 126 10.5t78 10.5q95 0 95 -72q0 -18 -5 -42t-9.5 -40t-17 -52.5t-16.5 -49.5l-112 -349 q-37 -126 -37 -153q0 -25 7.5 -36t29.5 -11q26 0 72 37.5t106 117.5l33 -26q-92 -142 -174.5 -206.5t-143.5 -64.5q-98 0 -98 117q0 13 1.5 28.5t3.5 28t6.5 31.5t7 29.5t9 32t9 28.5t10 30.5t8.5 27.5l82 256q53 155 53 194q0 29 -14 38t-47 9h-272l-93 -446 q-82 -390 -174 -574q-57 -112 -123.5 -178.5t-132.5 -66.5q-39 0 -65.5 22.5t-26.5 59.5q0 40 30.5 64.5t82.5 17.5q-10 -21 -10 -41q0 -19 10.5 -33.5t34.5 -14.5q28 0 51.5 32.5t46.5 107.5q29 95 72 317l143 733h-328l-92 -446q-95 -458 -184 -635 q-57 -113 -123.5 -179.5t-132.5 -66.5q-39 0 -65.5 22.5t-26.5 59.5zM414 901h327l37 154q21 88 56 174q-6 -6 -15 -6q-30 0 -50.5 23t-20.5 54q26 26 26 46q0 23 -20 43t-68 20q-98 0 -164 -98q-43 -64 -73 -246z" />
<glyph unicode="&#xfb04;" horiz-adv-x="1495" d="M-225 -420q0 40 30 64.5t82 17.5q-10 -21 -10 -41q0 -18 10.5 -32.5t34.5 -14.5q29 0 52 32t46 107q28 93 72 318l154 792h-166l12 78h168l27 113q28 125 70.5 211.5t113.5 146.5q110 92 246 92q80 0 133.5 -30.5t64.5 -71.5q19 28 58 61q111 93 256 93q54 0 100 -17.5 t57 -30.5q79 37 130 64l10 -10q-8 -32 -28 -113.5t-37 -149.5t-27 -112l-179 -768q-43 -167 -43 -215q0 -24 9 -35.5t32 -11.5q26 0 73 37.5t108 117.5l30 -26q-63 -97 -125 -160.5t-107.5 -87t-84.5 -23.5q-98 0 -98 117q0 32 13.5 100t33.5 154.5t24 104.5l90 374h-329 l-93 -446q-81 -388 -174 -574q-57 -112 -123.5 -178.5t-132.5 -66.5q-39 0 -65.5 22.5t-26.5 59.5q0 40 30.5 64.5t82.5 17.5q-10 -21 -10 -41q0 -19 10.5 -33.5t34.5 -14.5q28 0 51.5 32.5t46.5 107.5q29 95 72 317l143 733h-328l-92 -446q-96 -461 -184 -635 q-57 -113 -123.5 -179.5t-132.5 -66.5q-39 0 -65.5 22.5t-26.5 59.5zM414 901h327l37 154q21 88 56 174q-6 -6 -15 -6q-30 0 -50.5 23t-20.5 54q26 26 26 46q0 23 -20 43t-68 20q-98 0 -164 -98q-43 -64 -73 -246zM895 901h332l63 266q31 132 31 185q0 47 -36.5 77.5 t-96.5 30.5q-98 0 -164 -98q-51 -76 -82 -236z" />
<glyph horiz-adv-x="2048" />
<glyph horiz-adv-x="2048" />
<glyph unicode="&#xd;" horiz-adv-x="2048" />
<glyph unicode=" "  horiz-adv-x="389" />
<glyph unicode="&#x09;" horiz-adv-x="389" />
<glyph unicode="&#xa0;" horiz-adv-x="389" />
<glyph unicode="!" horiz-adv-x="563" d="M61 86q0 54 36.5 91.5t90.5 37.5q46 0 75.5 -30t29.5 -76q0 -54 -37.5 -91.5t-91.5 -37.5q-45 0 -74 30t-29 76zM209 358q16 136 33 295t26 249l8 91q4 33 10 106.5t11.5 128t9.5 72.5q23 93 107 93q41 0 64.5 -26.5t23.5 -66.5q0 -23 -11.5 -67.5t-29.5 -100t-21 -67.5 q-102 -350 -194 -707h-37z" />
<glyph unicode="&#x22;" horiz-adv-x="774" d="M236 860l10 481q2 47 30 80t72 33q45 0 68 -38.5t8 -84.5l-152 -471h-36zM594 860l10 481q2 47 30.5 80t72.5 33q45 0 68.5 -38.5t8.5 -84.5l-153 -471h-37z" />
<glyph unicode="#" d="M82 614l24 72h226l104 322h-227l27 71h223l88 279h84l-90 -279h225l88 279h84l-90 -277h227l-24 -71h-226l-104 -324h227l-26 -72h-224l-135 -419h-82l135 419h-225l-135 -419h-82l135 419h-227zM414 686h225l104 324h-225z" />
<glyph unicode="$" d="M92 113l41 297l51 6q0 -131 41 -226q45 -104 160 -139l117 563l-51 41q-50 40 -82.5 70.5t-66 72.5t-50 89t-16.5 100q0 102 48.5 174t114.5 109q114 65 250 65l21 109h73l-24 -113q158 -17 264 -92l-61 -281l-52 -6q4 40 4 60q0 209 -167 254l-105 -502 q16 -14 51.5 -42.5t61 -49.5t58.5 -56t54 -68t35.5 -78.5t14.5 -94.5q0 -159 -103 -266q-51 -51 -136 -92.5t-196 -41.5l-32 -159h-72l37 164q-171 21 -283 133zM393 1051q0 -43 10.5 -78.5t33 -66t44 -52t58.5 -51.5l96 469q-110 0 -176 -64.5t-66 -156.5zM455 41 q118 0 190 79t72 197q0 32 -6 61t-18 52.5t-23.5 42t-29.5 36t-28.5 27t-27 22.5t-19.5 15z" />
<glyph unicode="%" horiz-adv-x="1382" d="M174 866q0 71 23 151.5t64.5 152.5t107.5 119.5t143 47.5q95 0 146 -76t51 -190q0 -71 -23 -151.5t-64.5 -152.5t-107.5 -119.5t-143 -47.5q-95 0 -146 76t-51 190zM260 0l877 1321h92l-875 -1321h-94zM303 784q0 -28 2.5 -48.5t9.5 -43t23.5 -35t42.5 -12.5 q50 0 91.5 64t64.5 154t35 170.5t12 129.5q0 28 -2.5 48.5t-9.5 43.5t-23.5 35.5t-42.5 12.5q-50 0 -91.5 -64t-64.5 -154t-35 -171t-12 -130zM776 240q0 71 23.5 152t64.5 153.5t107 120t143 47.5q95 0 146 -76.5t51 -190.5q0 -71 -23.5 -152t-64.5 -153.5t-107 -120 t-143 -47.5q-95 0 -146 76.5t-51 190.5zM905 160q0 -28 2.5 -48.5t9.5 -44.5t23.5 -36.5t42.5 -12.5q50 0 91.5 64t64.5 154t35 171t12 130q0 28 -2.5 48.5t-9.5 44t-23.5 36t-42.5 12.5q-50 0 -91.5 -64t-64.5 -154t-35 -170.5t-12 -129.5z" />
<glyph unicode="&#x26;" horiz-adv-x="1873" d="M82 543q0 310 225 501q133 113 256 113q72 0 113 -33t41 -100l143 168q63 76 82 123q21 57 21 108q0 38 20 60t51 22q33 0 51 -24t11 -68q-7 -45 -47.5 -101t-126.5 -145l-492 -512q-3 -3 -20.5 -21.5t-23.5 -25t-22 -24.5t-23 -28.5t-20 -28t-19 -31t-13 -30.5 t-10 -33.5t-3 -33.5q0 -39 26.5 -86t72.5 -90t118 -71.5t152 -28.5q156 0 265.5 49t195.5 135q82 82 149.5 210.5t96.5 281.5l-72 51q-9 7 -49.5 36.5t-55 38.5t-43 21t-51.5 12q-45 0 -64.5 -20t-19.5 -41t17.5 -36.5t54.5 -4.5q27 -16 27 -57q0 -33 -22.5 -57.5 t-59.5 -24.5q-39 0 -65.5 28.5t-26.5 73.5q0 73 75 148q88 88 181 88q23 0 45.5 -5t43.5 -15t33 -17t31 -20t21 -15l133 -92q93 -66 151 -83q29 -9 54 -9q59 0 101 42.5t42 90.5q0 41 -21 61.5t-45 20.5q-12 0 -23.5 -5t-17.5 -11l-6 -5q-5 2 -11.5 7t-18 25t-11.5 44 q0 45 30.5 77t82.5 32q54 0 88.5 -41t34.5 -103q0 -98 -86 -215q-42 -54 -100 -93.5t-121 -39.5q-104 0 -209 82q-29 -158 -99.5 -302t-169 -254.5t-228 -176.5t-267.5 -66q-137 0 -245.5 49t-174 131t-99.5 182.5t-34 211.5zM188 635q0 -55 9 -106t19 -75l9 -24 q3 21 8.5 41t16.5 40t18 33t23 33t21.5 27t24.5 28t21 23l154 174l16 19q16 19 22.5 28.5t14.5 30t8 39.5q0 43 -28.5 70.5t-73.5 27.5q-98 0 -184 -102q-46 -55 -72.5 -135.5t-26.5 -171.5z" />
<glyph unicode="'" horiz-adv-x="430" d="M246 860l10 481q2 47 30 80t72 33q45 0 69 -38.5t9 -84.5l-153 -471h-37z" />
<glyph unicode="(" horiz-adv-x="604" d="M61 348q0 417 246 809q96 153 219 279.5t211 191.5l21 -20q-119 -119 -225 -275t-175 -319q-153 -363 -153 -748q0 -427 174 -717l-31 -20q-287 384 -287 819z" />
<glyph unicode=")" horiz-adv-x="604" d="M-154 -451q119 119 225 275t175 319q153 363 153 748q0 427 -174 717l31 20q287 -384 287 -819q0 -417 -246 -809q-96 -153 -219 -279.5t-211 -191.5z" />
<glyph unicode="*" horiz-adv-x="774" d="M143 1237q5 28 28 46.5t52 14.5q16 -3 76.5 -51.5t112.5 -95.5l53 -47q-2 28 -4 66t-5 131.5t3 99.5q4 25 29 38.5t53 8.5q25 -3 43 -24.5t14 -47.5q-4 -23 -31.5 -92t-52.5 -126l-25 -58q11 4 28.5 11t64 24.5t84.5 31t73 23.5t45 8q28 -4 44.5 -31.5t11.5 -56.5 q-5 -23 -21.5 -38.5t-40.5 -14.5l-284 20l174 -227q13 -16 10 -43q-4 -29 -30.5 -47t-55.5 -12q-40 7 -49 40l-72 277l-160 -236q-19 -29 -61 -22q-30 5 -48 30.5t-12 55.5q4 25 25 37l242 153l-275 80q-22 6 -33 28t-6 46z" />
<glyph unicode="+" horiz-adv-x="1024" d="M51 420v88h414v416h94v-416h414v-88h-414v-416h-94v416h-414z" />
<glyph unicode="," horiz-adv-x="430" d="M-27 -272q106 47 151.5 102.5t45.5 108.5q0 77 -51 77q-12 0 -22 -4t-15 -8l-4 -4q-53 23 -53 86q0 44 34.5 81.5t94.5 37.5q65 0 104 -46t39 -122q0 -66 -28 -126.5t-73.5 -104.5t-96.5 -75.5t-103 -47.5z" />
<glyph unicode="-" horiz-adv-x="552" d="M51 399l41 133l410 52l-41 -133z" />
<glyph unicode="." horiz-adv-x="430" d="M20 86q0 54 36.5 91.5t90.5 37.5q46 0 75.5 -30t29.5 -76q0 -54 -37.5 -91.5t-91.5 -37.5q-45 0 -74 30t-29 76z" />
<glyph unicode="/" horiz-adv-x="614" d="M-61 -102l706 1536h103l-707 -1536h-102z" />
<glyph unicode="0" d="M102 481q0 152 49.5 319.5t114.5 268.5q174 272 379 272q74 0 132 -32.5t94 -83t60 -119t33 -135t9 -135.5q0 -153 -49.5 -321t-114.5 -269q-175 -273 -379 -273q-74 0 -132.5 32.5t-94 84t-59.5 120.5t-33 135.5t-9 135.5zM266 324q0 -137 43.5 -213t120.5 -76 q143 0 256 282q52 128 87.5 335t35.5 352q0 137 -43.5 211.5t-120.5 74.5q-143 0 -256 -280q-52 -130 -87.5 -335.5t-35.5 -350.5z" />
<glyph unicode="1" horiz-adv-x="880" d="M123 0l10 49q15 1 38 4.5t70.5 17t65.5 31.5q19 19 33.5 56t21.5 68.5t17 90.5l147 789q8 31 1.5 43t-35.5 4l-168 -47l-17 51q103 36 231 92.5t173 91.5l28 -20q-34 -141 -77 -369l-125 -676q-2 -9 -8 -37.5t-8 -41.5t-4 -34.5t1 -35.5t10 -25q27 -40 181 -53l-11 -49 q-46 0 -146 4t-146 4t-141.5 -4t-141.5 -4z" />
<glyph unicode="2" d="M41 51l471 481q128 131 192 238.5t64 222.5q0 59 -19 104t-50.5 71t-68.5 38.5t-77 12.5q-86 0 -156.5 -39t-144.5 -146l-37 25q65 127 169 204.5t230 77.5q139 0 228.5 -77.5t89.5 -219.5q0 -49 -8.5 -92t-31.5 -87t-45 -78.5t-67 -84t-78.5 -83.5t-97.5 -97l-385 -375 h406q44 0 67.5 1t49.5 5.5t39.5 11.5t31 23t31 35.5t33.5 52.5l34 -14l-112 -282h-21q0 13 -20.5 16.5t-61.5 3.5h-635z" />
<glyph unicode="3" d="M45 160q0 86 78 86q12 0 23.5 -5.5t18.5 -11.5t16 -19.5t12.5 -21t11.5 -24.5t10 -21q11 -23 19.5 -35.5t28 -32.5t51.5 -30t75 -10q48 0 98 21.5t94.5 61.5t72.5 108.5t28 152.5q0 67 -23 119t-55 80.5t-72.5 47t-69.5 24t-52 5.5q-27 0 -55.5 -5t-42.5 -10l-15 -5 l-10 51l194 62q124 39 195.5 120t71.5 187q0 98 -57 141t-138 43q-67 0 -133.5 -41.5t-122.5 -112.5l-35 25q132 231 363 231q121 0 203.5 -68.5t82.5 -187.5q0 -117 -98 -210.5t-229 -126.5q49 -8 94 -32t84.5 -65t63.5 -106t24 -146q0 -109 -71.5 -208.5t-185.5 -158.5 t-235 -59q-70 0 -126.5 14t-90.5 35t-56.5 47.5t-31 49t-8.5 41.5z" />
<glyph unicode="4" d="M41 358l31 123l716 840l140 10l-152 -850h197l-21 -123h-196l-70 -368h-164l70 368h-551zM174 481h440l138 697z" />
<glyph unicode="5" d="M72 158q0 88 75 88q12 0 23.5 -5t18.5 -11.5t15.5 -18.5t12.5 -19t11 -21t8 -17q9 -20 17 -33t28 -36.5t53 -36.5t76 -13q47 0 95 22.5t89 64.5t66.5 109t25.5 148q0 64 -18.5 118t-42.5 87.5t-59 61t-57.5 39.5t-47.5 22q-68 30 -174 51l-21 41l236 512h420q25 0 40.5 6 t23 13.5t22.5 27.5l26 -17l-71 -133q-13 -24 -26.5 -34.5t-35.5 -10.5h-389l-123 -266q91 -16 169 -51.5t139.5 -90t96.5 -133t35 -171.5q0 -125 -63 -236t-167 -176.5t-220 -65.5q-67 0 -122 14t-88.5 35t-56 47t-31.5 48.5t-9 40.5z" />
<glyph unicode="6" d="M123 410q0 177 79 346.5t208 298.5q115 115 277 203t280 114l16 -41q-222 -88 -410 -276q-90 -90 -161 -208t-95 -212q41 65 116.5 107t170.5 42q52 0 103 -21.5t95 -62.5t71.5 -111.5t27.5 -158.5q0 -122 -55.5 -226.5t-155 -167.5t-219.5 -63q-90 0 -158 33.5 t-109 93.5t-61 137.5t-20 172.5zM287 313q0 -56 9.5 -104t29.5 -88t55.5 -63t83.5 -23q108 0 187 110t79 306q0 56 -9.5 103.5t-29.5 87.5t-55.5 62.5t-83.5 22.5q-108 0 -187 -109.5t-79 -304.5z" />
<glyph unicode="7" d="M154 1049l112 282h21q0 -13 20.5 -16.5t61.5 -3.5h655l20 -41l-737 -1301l-82 45l656 1149h-441q-53 0 -79.5 -2t-53 -7.5t-43.5 -21t-34 -37.5t-40 -61z" />
<glyph unicode="8" d="M92 307q0 59 23 112t58 91.5t83.5 72.5t92 55t91.5 38q-4 4 -40.5 38t-52.5 53t-42 57.5t-37.5 83t-11.5 96.5q0 139 108 238t261 99q151 0 239 -82t88 -215q0 -210 -313 -337q15 -11 34 -27.5t54.5 -54.5t63 -78.5t48.5 -97t21 -111.5q0 -148 -116 -255.5t-283 -107.5 q-169 0 -269 89.5t-100 242.5zM231 317q-9 -126 63 -204t177 -78q100 0 162.5 73t62.5 189q0 28 -6.5 56.5t-13 49t-26 49.5t-27 41.5t-36.5 43t-34.5 36t-40 38.5t-35.5 34q-101 -43 -170 -125t-76 -203zM410 1055q0 -26 5 -51.5t11.5 -45t21 -43t24.5 -38t31 -38t31.5 -34 t35.5 -35t34 -33.5q215 108 215 307q0 104 -53 173t-145 69q-97 0 -154 -62t-57 -169z" />
<glyph unicode="9" d="M76 -27q230 98 409 277q92 92 166 214t97 222q-9 -19 -30 -43.5t-55.5 -53t-86.5 -48t-109 -19.5q-131 0 -220 93t-89 266q0 119 55.5 224.5t155 170.5t219.5 65q175 0 262.5 -123.5t87.5 -320.5q0 -177 -79 -346.5t-208 -298.5q-113 -113 -270 -198t-289 -122zM328 874 q0 -77 16 -137t57.5 -101.5t104.5 -41.5q109 0 187.5 104.5t78.5 296.5q0 57 -9.5 106.5t-29.5 92t-55.5 67.5t-83.5 25q-107 0 -186.5 -110t-79.5 -302z" />
<glyph unicode=":" horiz-adv-x="430" d="M20 86q0 54 36.5 91.5t90.5 37.5q46 0 75.5 -30t29.5 -76q0 -54 -37.5 -91.5t-91.5 -37.5q-45 0 -74 30t-29 76zM168 772q0 54 37.5 91.5t91.5 37.5q45 0 73.5 -30t28.5 -76q0 -54 -36.5 -91.5t-90.5 -37.5q-46 0 -75 30t-29 76z" />
<glyph unicode=";" horiz-adv-x="430" d="M-27 -272q106 47 151.5 102.5t45.5 108.5q0 77 -51 77q-12 0 -22 -4t-15 -8l-4 -4q-53 23 -53 86q0 44 34.5 81.5t94.5 37.5q65 0 104 -46t39 -122q0 -66 -28 -126.5t-73.5 -104.5t-96.5 -75.5t-103 -47.5zM168 772q0 54 37.5 91.5t91.5 37.5q45 0 73.5 -30t28.5 -76 q0 -54 -36.5 -91.5t-90.5 -37.5q-46 0 -75 30t-29 76z" />
<glyph unicode="&#x3c;" horiz-adv-x="1024" d="M51 418v90l922 436v-110l-793 -371l793 -371v-110z" />
<glyph unicode="=" horiz-adv-x="1024" d="M51 258v94h922v-94h-922zM51 573v95h922v-95h-922z" />
<glyph unicode="&#x3e;" horiz-adv-x="1024" d="M51 -18v110l793 371l-793 371v110l922 -436v-90z" />
<glyph unicode="?" horiz-adv-x="768" d="M123 86q0 54 36.5 91.5t90.5 37.5q46 0 75 -30t29 -76q0 -54 -37.5 -91.5t-91.5 -37.5q-45 0 -73.5 30t-28.5 76zM184 666q7 35 24 64.5t52 60t58.5 47.5t76.5 53q3 2 5 3.5t5 3t5 3.5q13 9 55 36t59 39t48.5 37t45 42.5t25.5 42t12 49.5q0 71 -46 115.5t-97 44.5 q-45 0 -68.5 -18t-23.5 -50q0 -18 6.5 -31t13.5 -16l6 -4q-11 -29 -43 -45.5t-65 -16.5q-37 0 -69.5 28.5t-32.5 84.5q0 62 55 102.5t139 40.5q74 0 133 -29t92 -63q93 -93 93 -215q0 -79 -58.5 -144.5t-177.5 -142.5q-19 -13 -58 -37.5t-56.5 -35.5t-46 -31t-42.5 -32 t-30 -28.5t-23.5 -31t-9.5 -29.5q-7 -48 17 -70t54 -22q22 0 37 12.5t15 28.5q37 7 62.5 -16t25.5 -56q0 -31 -25.5 -54.5t-62.5 -23.5q-67 0 -133 78q-30 36 -48 96.5t-4 129.5z" />
<glyph unicode="@" horiz-adv-x="2007" d="M164 420q0 182 69.5 346.5t188.5 284t287 190t356 70.5q224 0 401 -82.5t277 -235t100 -348.5q0 -144 -54 -266.5t-140 -201.5t-190.5 -123t-209.5 -44q-89 0 -129.5 22t-40.5 81q0 83 119 379q-92 -147 -235 -297q-72 -75 -144 -126.5t-123 -58.5q-62 -9 -104 34.5 t-39 150.5q3 113 74.5 253.5t181.5 258.5q103 111 212 168t198 57q32 0 56 -6.5t36 -15.5t19.5 -18t9.5 -16l1 -6l52 82h71l-204 -665q-29 -92 -29 -131q0 -60 59 -60q106 0 215 62q27 15 55 36.5t66 64.5t66 93.5t48.5 128t20.5 164.5q0 166 -86.5 300t-236 209t-332.5 75 q-180 0 -333 -66.5t-256.5 -180.5t-161.5 -267.5t-58 -325.5q0 -169 56.5 -304t157.5 -222.5t239.5 -133.5t304.5 -46q183 0 340 56.5t264 147.5l31 -41q-273 -235 -666 -235q-254 0 -449 99t-303 283t-108 427zM707 266q-3 -63 16.5 -91t64.5 -21q82 13 236 184 q112 124 184 266q52 102 52 154q0 34 -26 58t-77 24q-141 0 -287 -185q-77 -98 -118 -206.5t-45 -182.5z" />
<glyph unicode="A" horiz-adv-x="1177" d="M-150 0l11 51q26 6 40 10.5t34 14.5t38 26q39 33 133 195l437 778q111 197 127 256q98 11 149 21q0 -71 31 -297l113 -840q11 -78 34 -106q37 -43 115 -58l-14 -51q-41 0 -123 5t-123 5t-118 -5t-118 -5l11 51q61 8 93.5 19.5t49.5 35.5q18 24 18 78v9q0 48 -6 73 l-26 242h-443l-131 -242q-55 -102 -55 -145q0 -11 4 -19q17 -37 139 -51l-10 -51q-36 0 -102.5 5t-102.5 5t-102.5 -5t-102.5 -5zM352 584h391l-65 604z" />
<glyph unicode="B" horiz-adv-x="1105" d="M-63 0l10 51q92 6 137 51q21 21 32.5 60.5t24.5 113.5l144 799q0 2 4.5 26.5t5.5 37t3 33.5t0 35.5t-7 23.5q-14 27 -40 39t-89 16l10 51q45 0 123.5 -4t118.5 -4t122.5 4t129.5 4q176 0 272 -78.5t96 -193.5q0 -167 -174 -266q-56 -32 -109.5 -49t-136.5 -27 q143 -22 226 -78q149 -100 149 -256q0 -95 -54 -176.5t-136 -130.5q-137 -82 -318 -82q-53 0 -155 5t-144 5q-44 0 -123 -5t-122 -5zM297 184q-4 -24 -4 -43q1 -35 15 -53q22 -27 91 -27q164 0 256 62q52 35 89 99.5t44 156.5q1 15 1 30q0 140 -103 216q-75 55 -235 61 l-66 2zM395 745l66 3q176 7 266 71q47 34 77 85t36 100q4 28 4 54q0 99 -56 154q-28 29 -74.5 44.5t-76.5 17.5t-74 2t-59.5 -15t-24.5 -63z" />
<glyph unicode="C" horiz-adv-x="1208" d="M72 553q0 103 22 198t55.5 166.5t80 135t90 105.5t90.5 75q98 70 214.5 102.5t215.5 32.5q102 0 207 -29.5t182 -99.5l-66 -297l-47 -6q2 31 2 45q0 78 -20.5 138t-50.5 93t-71.5 54t-77 27.5t-73.5 6.5q-187 0 -344 -157q-91 -91 -151 -253t-60 -358q0 -143 34.5 -249.5 t114.5 -172t199 -65.5q71 0 133.5 21t107 52.5t86 80.5t68 93.5t56.5 102.5l47 -24l-127 -299q-149 -103 -385 -103q-246 0 -389 157.5t-143 426.5z" />
<glyph unicode="D" horiz-adv-x="1341" d="M-61 0l10 51q92 6 137 51q15 15 26 45t16.5 54t14.5 75l144 799q14 72 14 113q0 31 -8 45q-17 27 -45.5 38.5t-83.5 14.5l10 51q43 0 121.5 -5t118.5 -5q32 0 140 4t194 4q187 0 317 -86q205 -136 205 -471q0 -110 -27.5 -214.5t-74 -186t-101.5 -144.5t-115 -104 q-182 -129 -430 -129q-54 0 -182 5t-166 5q-41 0 -117.5 -5t-117.5 -5zM294 134q0 -14 3 -21q8 -25 33 -36t90 -11h123q188 0 327 139q79 79 139 243.5t60 370.5q0 229 -82.5 340t-269.5 111h-154q-46 0 -61.5 -13t-22.5 -59l-162 -891q-1 -8 -5.5 -32.5t-6.5 -38.5t-5 -36 q-2 -23 -4 -37q-1 -10 -2 -21v-8z" />
<glyph unicode="E" horiz-adv-x="1105" d="M-61 0l10 51q92 6 137 51q34 34 57 174l144 799q14 70 14 111q0 31 -8 45q-14 26 -42 39t-87 16l10 51q43 0 121.5 -5t118.5 -5q102 0 330 3t331 3l-45 -295l-41 -10q-4 20 -10.5 52t-9.5 46t-9 36t-11.5 31t-15 23t-20.5 18.5t-28 11t-37.5 8t-48.5 1.5h-246 q-43 0 -55.5 -12.5t-20.5 -54.5l-86 -467l201 10q111 6 147.5 34.5t67.5 135.5h49q-35 -145 -49 -225q-18 -104 -33 -232h-49q0 47 -1 70.5t-5.5 50t-13 37.5t-26 22t-41 15t-60.5 6l-197 10l-64 -348q-21 -130 -21 -170q0 -10 1 -14q7 -20 23.5 -30.5t58.5 -10.5h225 q54 0 99.5 13.5t79 35.5t65.5 59.5t55.5 75t52.5 92.5l48 -20l-127 -346q-461 18 -693 18q-43 0 -122 -5t-123 -5z" />
<glyph unicode="F" horiz-adv-x="1044" d="M-61 0l10 51q92 6 137 51q34 34 57 174l144 799q14 70 14 111q0 31 -8 45q-14 26 -42 39t-87 16l10 51q43 0 121.5 -5t118.5 -5q102 0 330 3t331 3l-45 -295l-41 -10q-4 20 -10.5 52t-9.5 46t-9 36t-11.5 31t-15 23t-20.5 18.5t-28 11t-37.5 8t-48.5 1.5h-246 q-43 0 -55.5 -12.5t-20.5 -54.5l-90 -488l199 11q111 6 147.5 34.5t67.5 135.5h51q-35 -142 -49 -226q-18 -106 -33 -231h-49q0 46 -1 70.5t-6 50.5t-14 37.5t-26.5 22t-41.5 14.5t-61 6l-194 10l-70 -379q-12 -59 -11.5 -97.5t11.5 -56.5q16 -24 48 -35.5t106 -15.5 l-10 -51q-47 0 -135 5t-132 5q-43 0 -122 -5t-123 -5z" />
<glyph unicode="G" horiz-adv-x="1331" d="M72 553q0 103 22 198t55.5 166.5t80 135t90 105.5t90.5 75q98 70 214.5 102.5t215.5 32.5q102 0 207 -29.5t182 -99.5l-62 -287l-47 -6v27q0 80 -20.5 141t-50.5 95t-71.5 55.5t-77.5 28.5t-75 7q-187 0 -344 -157q-91 -91 -151 -253t-60 -358q0 -143 34.5 -249.5 t114.5 -172t199 -65.5q265 0 293 139l25 127q1 7 5.5 29.5t7 36.5t4.5 33t1 33.5t-6 23.5q-24 49 -145 55l10 51q41 0 123 -4t123 -4t115.5 4t115.5 4l-10 -49q-92 -7 -127 -47q-6 -8 -11.5 -15.5t-9.5 -18.5t-6.5 -16t-5.5 -20t-3.5 -18t-3.5 -21.5t-3 -19.5l-29 -153 q-5 -24 1 -32.5t30 -8.5l-6 -21q-7 -7 -20.5 -18t-61.5 -39t-101.5 -50t-140 -39.5t-178.5 -17.5q-246 0 -389 157.5t-143 426.5z" />
<glyph unicode="H" horiz-adv-x="1423" d="M-66 0l11 51q94 6 139 51q15 15 25.5 43.5t15.5 53t14 77.5l144 799q13 72 13 113q0 30 -7 43q-14 27 -40 39t-89 16l10 51q45 0 123.5 -4t118.5 -4t118 4t123 4l-10 -51q-53 -3 -81 -13t-52 -34q-33 -33 -55 -164l-60 -327h660l59 327q13 72 13 113q0 30 -7 43 q-14 27 -40 39t-89 16l10 51q45 0 123.5 -4t118.5 -4t118.5 4t123.5 4l-10 -51q-53 -3 -81.5 -13t-52.5 -34q-33 -33 -55 -164l-149 -819q-7 -40 -9.5 -62t-1 -50t10.5 -42q29 -46 133 -51l-10 -51q-44 0 -124 5t-124 5t-123.5 -5t-122.5 -5l10 51q94 6 139 51q21 21 32 60 t24 114l69 390h-659l-76 -410q-12 -59 -11.5 -97.5t11.5 -56.5q29 -46 133 -51l-10 -51q-44 0 -124 5t-124 5t-123.5 -5t-122.5 -5z" />
<glyph unicode="I" horiz-adv-x="593" d="M-63 0l10 51q94 6 139 51q15 15 25.5 43.5t15.5 53t14 77.5l144 799q14 70 14 111q0 31 -8 45q-14 26 -42 39t-87 16l10 51q45 0 123.5 -4t118.5 -4t118 4t123 4l-10 -51q-53 -3 -81 -13t-52 -34q-21 -21 -32.5 -59.5t-22.5 -104.5l-150 -819q-7 -40 -9.5 -62t-1 -50 t10.5 -42q29 -46 133 -51l-10 -51q-44 0 -124 5t-124 5t-123 -5t-122 -5z" />
<glyph unicode="J" horiz-adv-x="614" d="M-276 -276q0 38 27 65t65 27q17 0 32.5 -22t26 -48t30.5 -48t44 -22q116 0 174 334l188 1065q15 75 15 116q0 28 -7 40q-14 26 -42.5 39t-88.5 16l11 51q45 0 121 -4t116 -4t121 4t125 4l-10 -51q-91 -5 -133 -47q-37 -37 -58 -164l-112 -635q-41 -234 -82 -368 q-61 -200 -133 -297q-129 -174 -267 -174q-78 0 -120.5 39t-42.5 84z" />
<glyph unicode="K" horiz-adv-x="1208" d="M-66 0l11 51q94 6 139 51q15 15 25.5 43.5t15.5 53t14 77.5l144 799q13 72 13 113q0 30 -7 43q-14 27 -40 39t-89 16l10 51q45 0 123.5 -4t118.5 -4t118 4t123 4l-10 -51q-53 -3 -81 -13t-52 -34q-32 -32 -55 -164l-82 -440l489 471q105 100 105 133q0 34 -88 47l10 51 q36 0 105.5 -4t105.5 -4t100 4t100 4l-12 -51q-50 -6 -74 -13t-59 -24q-44 -22 -133 -102l-344 -322l252 -579q35 -82 50.5 -111.5t31.5 -42.5q32 -25 133 -41l-10 -51q-31 0 -82.5 4t-81.5 4q-27 0 -60.5 -2t-52.5 -4l-20 -2l-291 702l-193 -180l-49 -266 q-12 -59 -11.5 -97.5t11.5 -56.5q29 -46 133 -51l-10 -51q-44 0 -124 5t-124 5t-123.5 -5t-122.5 -5z" />
<glyph unicode="L" horiz-adv-x="1044" d="M-63 0l10 51q94 6 139 51q15 15 25.5 43.5t15.5 53t14 77.5l144 799q13 72 13 113q0 30 -7 43q-14 27 -40 39t-89 16l10 51q45 0 123.5 -4t118.5 -4q39 0 121.5 4t130.5 4l-11 -51q-60 -3 -89.5 -13t-53.5 -34q-33 -33 -55 -164l-140 -768q-1 -8 -6.5 -39.5t-7 -42 t-5.5 -40.5t-3 -33.5t2 -22.5q7 -23 23 -33t59 -10h199q67 0 121.5 21t97 62.5t74 89t65.5 116.5l47 -21l-135 -362q-461 18 -676 18q-44 0 -117.5 -5t-117.5 -5z" />
<glyph unicode="M" horiz-adv-x="1679" d="M-102 0l10 51q48 9 78.5 21.5t58.5 40.5q19 19 34 49.5t21 50.5t17 63l221 799q10 36 14.5 57t4 51t-12.5 46q-28 37 -145 57l10 51q35 0 103 -5t98 -5q82 0 184 10q4 -67 10 -108l158 -973l522 942q49 90 62 139q68 -10 190 -10q32 0 95 5t100 5l-7 -51 q-102 -6 -147 -51q-35 -35 -51 -143l-119 -826q-7 -54 -7 -90q0 -45 11 -63q31 -49 150 -62l-11 -51q-45 0 -131.5 5t-126.5 5t-126 -5t-130 -5l11 51q109 13 137 41q36 36 47 123l139 959l-553 -990q-21 -36 -44 -80.5t-35 -71.5l-13 -26l-78 -16q-27 164 -41 246l-153 942 l-236 -902q-21 -80 -21 -126q0 -22 5 -37q11 -29 45.5 -41.5t103.5 -20.5l-10 -51q-40 0 -116 5t-111 5t-105.5 -5t-109.5 -5z" />
<glyph unicode="N" horiz-adv-x="1392" d="M-63 0l10 51q92 6 137 51q7 7 14 20.5t11.5 26.5t9.5 35.5t7.5 35t7.5 40t7 37.5l133 727q2 9 6.5 35.5t6.5 38.5t4.5 34t2.5 35t-2 27.5t-7 24.5q-15 30 -47.5 44.5t-96.5 22.5l11 51q30 0 87 -5t87 -5q61 0 163 10q39 -98 86 -190l447 -881l143 809q8 51 11 70.5t3 47 t-8 42.5q-25 51 -137 51l10 51q40 0 107 -4t102 -4t103 4t108 4l-10 -51q-53 -3 -81 -13t-52 -34q-34 -34 -55 -164l-144 -788q-45 -257 -47 -301l-65 -17q-43 43 -129 215l-486 969l-159 -887q-1 -9 -5.5 -32t-6.5 -37t-3.5 -33.5t0.5 -34.5t8 -27q15 -27 52.5 -37 t97.5 -14l-10 -51q-42 0 -109 5t-102 5t-108 -5t-113 -5z" />
<glyph unicode="O" horiz-adv-x="1351" d="M72 557q0 153 55 299.5t148.5 259.5t228.5 182.5t284 69.5q101 0 183 -31t139 -85t95.5 -129.5t56.5 -161.5t18 -183q0 -152 -55 -299t-149 -259.5t-229 -181.5t-284 -69q-124 0 -220 47t-154 129t-87.5 186t-29.5 226zM270 528q0 -235 79.5 -359t228.5 -124 q176 0 303 143q76 85 137 250t61 377q0 235 -78 358t-227 123q-176 0 -303 -143q-47 -53 -89.5 -133t-77 -213.5t-34.5 -278.5z" />
<glyph unicode="P" horiz-adv-x="1071" d="M-63 0l10 51q92 6 137 51q21 21 33 60.5t24 113.5l144 799q14 70 14 111q0 31 -8 45q-14 26 -42 39t-87 16l10 51q45 0 123.5 -4t118.5 -4q38 0 123 4t139 4q105 0 189.5 -34.5t137 -107t52.5 -171.5q0 -109 -34 -185t-101 -143q-62 -62 -146 -95.5t-176 -33.5 q-37 0 -90.5 13t-65.5 24l21 47q44 -22 119 -22q130 0 204 102.5t82 251.5q1 11 1 22q-1 119 -73 189q-78 76 -218 76q-58 0 -75 -9.5t-24 -52.5l-174 -952q-7 -40 -9.5 -62t-1 -50t10.5 -42q29 -46 154 -51l-10 -51q-46 0 -133.5 5t-133.5 5t-124 -5t-121 -5z" />
<glyph unicode="Q" horiz-adv-x="1351" d="M72 557q0 153 55 299.5t148.5 259.5t228.5 182.5t284 69.5q101 0 183 -31t139 -85t95.5 -129.5t56.5 -161.5t18 -183q0 -134 -40.5 -261t-108.5 -224.5t-154 -169.5t-178 -107q93 -127 205 -214t235 -109l-10 -51q-146 0 -307 61q-66 25 -115.5 59.5t-110.5 104.5 l-92 104q-25 -2 -41 -2q-125 0 -221 47t-154 129t-87 186t-29 226zM270 528q0 -235 79.5 -359t228.5 -124q176 0 303 143q76 85 137 250t61 377q0 235 -78 358t-227 123q-176 0 -303 -143q-47 -53 -89.5 -133t-77 -213.5t-34.5 -278.5z" />
<glyph unicode="R" horiz-adv-x="1116" d="M-63 0l10 51q94 6 139 51q15 15 25.5 43.5t15.5 53t14 77.5l144 799q13 72 13 113q0 30 -7 43q-14 26 -42 39t-87 16l10 51q42 0 123 -4t119 -4q34 0 110 4t131 4q81 0 148 -16t121 -51q54 -34 84 -94q26 -53 26 -123v-19q-4 -80 -41.5 -149t-93.5 -113t-116 -71 t-117 -35q29 -7 51.5 -42.5t60.5 -121.5l113 -256q53 -120 68 -140q7 -8 14 -14q31 -24 133 -41l-8 -51q-26 0 -85 4t-85 4l-129 -8l-226 543q-2 4 -6.5 16l-6 16t-5.5 13.5t-6.5 13t-6.5 10t-8 9t-9 6t-10.5 5t-12.5 1.5l-125 4l-70 -381q-7 -40 -9.5 -62t-1 -50t10.5 -42 q29 -46 133 -51l-10 -51q-44 0 -124 5t-124 5t-123 -5t-122 -5zM389 692l135 4q152 4 237 91.5t91 236.5v19q0 59 -16 103q-19 50 -56 77.5t-82 40t-102 12.5q-71 0 -92 -21q-22 -25 -41 -149z" />
<glyph unicode="S" horiz-adv-x="921" d="M25 102l41 318l57 6q0 -160 41 -242q68 -137 219 -137q98 0 170 71t72 189q0 34 -7.5 66t-24.5 62t-32 52.5t-43.5 51t-44.5 43.5t-49.5 44.5t-44.5 39.5q-96 87 -128 123q-87 103 -87 215q0 106 54.5 184.5t133.5 122.5q103 57 246 57q66 0 151 -24.5t148 -83.5 l-61 -281l-54 -6q4 43 4 61q0 134 -60.5 198t-162.5 64q-104 0 -172.5 -61.5t-68.5 -159.5q0 -20 4 -39.5t8.5 -35t17 -35.5t19 -31.5t26 -31.5t26 -28t30.5 -29t29 -25.5t32 -27t29 -24.5t30 -25t34.5 -28.5t32.5 -29.5t34.5 -34.5t30.5 -35.5t30.5 -41.5t23 -43 t20.5 -49.5t11 -52.5t5 -59.5q0 -145 -113 -267q-47 -53 -129 -93t-199 -40q-191 0 -329 133z" />
<glyph unicode="T" horiz-adv-x="1126" d="M61 1014l113 375h31q0 -45 65 -52q37 -6 215 -6h437q173 0 208 4q31 5 48 16.5t24 37.5h33l-86 -379l-47 -6q0 152 -41 198q-25 29 -60.5 41.5t-123.5 16.5l-134 6l-184 -1010q-7 -40 -9.5 -62t-1 -50t10.5 -42q16 -24 49 -36t101 -15l-11 -51q-46 0 -130 5t-130 5 t-130 -5t-130 -5l12 51q108 5 154 51q15 15 25.5 43.5t15.5 53t14 77.5l179 990l-148 -6q-74 -3 -114 -14.5t-74 -37.5q-64 -47 -133 -204z" />
<glyph unicode="U" horiz-adv-x="1372" d="M139 1286l11 51q45 0 123 -4t118 -4q41 0 121 4t121 4l-10 -51q-53 -3 -81.5 -13t-52.5 -34q-34 -34 -55 -164l-92 -516q-23 -130 -23 -201q0 -121 48 -184q70 -92 245 -92q113 0 183 26.5t129 100.5q38 47 67.5 126.5t41 131.5t24.5 127l88 481q13 72 13 113q0 30 -7 43 q-14 26 -42 39t-87 16l10 51q40 0 104 -4t103 -4t103 4t102 4l-14 -51q-53 -3 -81.5 -13t-52.5 -34q-21 -21 -32.5 -59.5t-22.5 -104.5l-92 -512q-58 -321 -191 -454q-140 -140 -372 -140q-211 0 -328 103q-108 95 -108 266q0 115 30 287l82 450q13 72 13 113q0 30 -7 43 q-14 26 -41.5 38.5t-87.5 16.5z" />
<glyph unicode="V" horiz-adv-x="1163" d="M63 1286l11 51q41 0 112.5 -4t112.5 -4t128 4t128 4l-10 -51q-102 -10 -139 -47q-23 -23 -23 -87q0 -21 2 -46l102 -901l420 799q88 161 88 208q0 32 -31.5 50.5t-76.5 23.5l10 51q37 0 110 -4t107 -4t92 4t94 4l-12 -51q-69 -8 -123 -51q-56 -45 -143 -211 q-359 -671 -543 -1018l-129 -26q0 81 -8 153l-119 932q-19 129 -45 164q-37 47 -115 57z" />
<glyph unicode="W" horiz-adv-x="1679" d="M59 1286l11 51q30 0 90 -4t90 -4t102 4t103 4l-11 -51q-34 -6 -48 -9t-27.5 -10t-22.5 -18q-11 -14 -11 -52.5t11 -100.5l164 -918l260 451l-100 518q-14 70 -31 96q-20 29 -74 43l10 51q31 0 82 -4t82 -4t101 4t100 4l-10 -51q-70 -6 -92 -41q-11 -28 -9.5 -54.5 t13.5 -94.5l53 -285l172 305q54 94 54 126q0 4 -1 7q-9 31 -67 37l10 51q31 0 82 -4t82 -4t75 4t74 4l-10 -51q-67 -7 -113 -47q-35 -28 -77 -102l-256 -441l102 -518l516 918q55 96 55 132q0 6 -2 11q-14 40 -104 47l10 51q30 0 87.5 -4t92.5 -4t96 4t91 4l-13 -51 q-54 -3 -96 -37q-37 -28 -92 -123l-645 -1110l-119 -36l-104 534l-291 -498l-117 -36l-215 1146q-18 91 -35 117q-22 32 -78 43z" />
<glyph unicode="X" horiz-adv-x="1208" d="M-137 0l10 51q122 40 174 82q64 52 174 174l324 352l-180 385q-8 16 -22 46.5t-21 45.5t-18 36t-21 34.5t-21 22.5q-54 48 -139 57l10 51q39 0 122.5 -4t125.5 -4t135.5 4t130.5 4l-10 -51q-117 -13 -139 -47q-7 -11 -8 -25.5t4 -33t10 -31t14 -33.5l154 -334l266 303 q93 106 93 142q0 3 -1 6q-4 13 -16.5 22.5t-34.5 16t-35.5 9t-36.5 5.5l11 51q36 0 112 -4t109 -4t98.5 4t103.5 4l-10 -51q-57 -4 -123 -47q-31 -20 -164 -164l-337 -358l204 -441q67 -137 97 -167q47 -47 139 -58l-10 -51q-45 0 -128.5 5t-123.5 5t-134 -5t-139 -5l11 51 q78 14 106 29t37 37q3 8 3 18q0 42 -44 135l-147 324l-263 -307q-102 -114 -102 -164q0 -23 23.5 -40t48.5 -23t51 -9l-10 -51q-42 0 -123 5t-119 5q-39 0 -109 -5t-112 -5z" />
<glyph unicode="Y" horiz-adv-x="1105" d="M72 1286l10 51q44 0 115.5 -4t115.5 -4t128.5 4t127.5 4l-10 -51q-115 -10 -139 -47q-5 -7 -6 -19.5t0 -24t5 -28t7 -26.5t8 -26t6 -19l138 -441l313 430q73 102 73 138q0 3 -1 6q-11 46 -119 57l10 51q40 0 108 -4t103 -4t98 4t103 4l-13 -51q-81 -13 -123 -43 q-38 -28 -118 -131l-402 -528l-59 -328q-7 -40 -9.5 -62t-1 -50t10.5 -42q16 -25 46.5 -36.5t96.5 -14.5l-10 -51q-46 0 -128 5t-128 5t-128 -5t-128 -5l10 51q60 4 93 15.5t57 35.5q15 15 25.5 43.5t15.5 53t14 77.5l53 291l-176 529q-40 114 -76 143q-54 40 -116 47z" />
<glyph unicode="Z" horiz-adv-x="1177" d="M0 51l948 1209h-313q-65 0 -96.5 -1.5t-73.5 -11t-76 -28.5q-51 -29 -92 -83t-82 -139l-47 21l108 371h31q0 -58 113 -58h727l20 -47l-948 -1208l488 6q71 1 126.5 21.5t99.5 64t75.5 90.5t70.5 121l47 -21l-143 -389q-31 31 -164 31h-799z" />
<glyph unicode="[" horiz-adv-x="604" d="M-10 -451l381 2048h391l-14 -71h-265l-356 -1905h266l-12 -72h-391z" />
<glyph unicode="\" horiz-adv-x="696" d="M332 1454h119l178 -1495h-119z" />
<glyph unicode="]" horiz-adv-x="604" d="M-158 -451l15 72h264l356 1905h-266l12 71h391l-381 -2048h-391z" />
<glyph unicode="^" horiz-adv-x="1024" d="M231 913l226 428h110l226 -428h-113l-168 344l-168 -344h-113z" />
<glyph unicode="_" horiz-adv-x="1024" d="M-113 -113h1024v-102h-1024v102z" />
<glyph unicode="`" horiz-adv-x="804" d="M281 1346q0 25 22 46t55 21q30 0 47.5 -23.5t30.5 -64.5l86 -264l-24 -17l-185 230q-32 41 -32 72z" />
<glyph unicode="a" horiz-adv-x="983" d="M45 205q0 140 72 303.5t184 269.5q107 99 184.5 131.5t165.5 32.5q44 0 84.5 -9t58.5 -19l19 -9l72 37l16 -10q-20 -68 -59.5 -219t-69.5 -268l-29 -117q-32 -125 -32 -164q0 -25 7.5 -36t29.5 -11q26 0 72 37.5t106 117.5l32 -26q-93 -143 -175 -207t-144 -64 q-96 0 -96 117q0 49 22 129.5t70 224.5q-69 -126 -154 -241q-171 -230 -266 -230q-80 0 -125 50.5t-45 179.5zM219 266q0 -153 72 -153q18 0 36 9t42.5 34.5t40.5 45t51 64.5q53 68 113.5 161.5t91.5 156.5l61 219q-30 16 -102 26q-51 7 -78 7q-45 0 -80 -17t-77.5 -65 t-78.5 -119q-37 -78 -64.5 -186t-27.5 -183z" />
<glyph unicode="b" horiz-adv-x="948" d="M86 195q0 32 9.5 88.5t24 120t27.5 117t25 99.5l12 46l129 542q19 77 19 117q0 26 -8 37q-14 19 -40 25t-96 6l11 45q194 38 327 94l13 -10q-16 -60 -52.5 -210t-40.5 -165l-131 -553q74 141 204 245.5t218 104.5q84 0 124 -55.5t40 -171.5q0 -104 -38.5 -217t-84 -188 t-92.5 -128q-186 -209 -379 -209q-59 0 -103 18t-69 50t-37 70t-12 82zM240 195q0 -72 33.5 -104t88.5 -32q57 0 121 42t121 135q57 92 90 211.5t33 197.5q0 40 -3 67t-12.5 53.5t-29.5 40t-51 13.5q-62 0 -143 -77.5t-140 -178.5q-52 -89 -80 -188.5t-28 -179.5z" />
<glyph unicode="c" horiz-adv-x="747" d="M45 266q0 164 83.5 321.5t188.5 241.5q144 115 287 115q60 0 107 -34.5t47 -94.5t-34 -89.5t-79 -29.5q-35 0 -56.5 23t-21.5 49q23 10 27 45q3 27 -14 42t-48 15q-86 0 -178 -112q-62 -75 -103.5 -188t-41.5 -242q0 -66 13 -112t37 -68.5t50 -32t60 -9.5q128 0 280 191 l37 -31l-164 -194q-29 -33 -94.5 -65t-140.5 -32q-47 0 -86.5 13t-76.5 43.5t-58 90.5t-21 144z" />
<glyph unicode="d" horiz-adv-x="1019" d="M45 205q0 141 71.5 304.5t184.5 268.5q107 99 184 131.5t164 32.5q23 0 50 -5t43 -10l16 -5l65 286q19 77 19 117q0 26 -8 37q-14 19 -39 25t-95 6l11 45q194 38 327 94l13 -10q-33 -126 -93 -375l-180 -768q-41 -174 -41 -215q0 -24 9 -35.5t32 -11.5q26 0 73 39 t105 116l33 -26q-63 -97 -125 -160.5t-107.5 -87t-84.5 -23.5q-99 0 -99 117q0 32 18 120.5t36 161.5l18 72q-53 -100 -158 -241q-65 -87 -138.5 -158.5t-127.5 -71.5q-85 0 -130.5 50.5t-45.5 179.5zM219 266q0 -153 72 -153q35 0 72.5 36t101.5 117q54 69 118.5 166.5 t92.5 151.5l55 219l-1 1q-2 1 -6 2.5t-9.5 3.5t-14.5 4.5t-19 5t-23.5 5t-28.5 4.5q-51 7 -78 7q-51 0 -86 -17q-34 -17 -76 -64.5t-78 -119.5q-37 -78 -64.5 -186t-27.5 -183z" />
<glyph unicode="e" horiz-adv-x="774" d="M45 266q0 270 180 482q82 97 176.5 146.5t182.5 49.5q84 0 129 -38t45 -107q0 -152 -236 -277q-126 -67 -305 -102q-8 -41 -8 -113q0 -31 7 -62.5t23 -64.5t49.5 -53.5t80.5 -20.5q32 0 65 11.5t57.5 26t54 39.5t43.5 39t36.5 39t23.5 26l37 -31l-174 -195q-3 -3 -9.5 -9 t-29 -21t-48 -26t-66 -20.5t-83.5 -9.5q-114 0 -172.5 75.5t-58.5 215.5zM223 471q123 23 217 82q139 87 154 195q3 22 3 41q0 92 -75 92q-50 0 -101.5 -41t-92.5 -103q-75 -114 -105 -266z" />
<glyph unicode="f" horiz-adv-x="532" d="M-225 -420q0 35 25.5 59.5t66.5 24.5q12 0 20 -2q-10 -21 -10 -41q0 -18 10.5 -32.5t34.5 -14.5q29 0 52 32t46 107q28 93 72 318l154 792h-166l12 78h168l37 154q62 256 195 368q111 93 235 93q92 0 138 -41t46 -97q0 -49 -28 -78.5t-68 -29.5q-37 0 -60.5 25t-23.5 57 q27 20 27 45q0 63 -72 63q-41 0 -78.5 -29.5t-64.5 -68.5q-46 -68 -82 -236l-47 -225h250l-13 -78h-252l-92 -444q-96 -461 -184 -635q-57 -113 -123.5 -179.5t-132.5 -66.5q-39 0 -65.5 22.5t-26.5 59.5z" />
<glyph unicode="g" horiz-adv-x="901" d="M-92 -236q0 29 36 61t87 57t102 46.5t87 33.5l36 11l-113 17q-53 7 -82.5 39t-29.5 73q0 23 10.5 46t20.5 35l10 12l235 106q-7 2 -18 6.5t-39 24t-50 46t-39.5 76t-17.5 109.5q0 159 113.5 270t269.5 111q39 0 75.5 -10t53.5 -20l17 -9l270 13l-20 -89l-170 11 q6 -7 15.5 -20t25.5 -60.5t16 -102.5q0 -159 -113.5 -270t-269.5 -111q-16 0 -34 3t-28 5l-10 3l-108 -62q-54 -32 -64 -46q-8 -10 -8 -21q0 -31 41 -35l246 -31q139 -16 201 -65q75 -59 75 -160q0 -61 -39.5 -123t-83.5 -102q-47 -43 -148.5 -88.5t-209.5 -45.5 q-74 0 -139 20t-90.5 35.5t-36.5 26.5q-82 82 -82 174zM51 -229q0 -24 13.5 -52.5t42 -58.5t83.5 -50t127 -20q73 0 132.5 20t94 52t52.5 66.5t18 66.5q0 65 -38 103.5t-125 50.5l-123 16q-87 -32 -182 -94t-95 -100zM307 514q0 -84 27 -130t96 -46q51 0 93.5 37t68 95 t39.5 122.5t14 124.5q0 84 -27 130t-96 46q-51 0 -93.5 -37t-68 -95t-39.5 -122.5t-14 -124.5z" />
<glyph unicode="h" horiz-adv-x="1019" d="M35 -20q124 543 149 645l138 583q19 79 19 119q0 25 -7 35q-14 19 -39.5 25t-95.5 6l10 45q196 38 328 94l12 -10q-16 -59 -50.5 -202.5t-41.5 -172.5l-142 -600q32 44 94 113.5t123 127.5q164 156 277 156q62 0 87.5 -32t25.5 -72q0 -58 -45 -195l-109 -328 q-37 -108 -37 -153q0 -25 7.5 -36t29.5 -11q26 0 72 37.5t106 117.5l33 -26q-63 -97 -125 -160.5t-107.5 -87t-84.5 -23.5q-99 0 -99 117q0 15 1 30t5 33t6.5 30t9 35t9.5 32.5l12 38t12 37.5l93 286q38 129 41 154q5 26 -5.5 43.5t-39.5 17.5q-78 0 -215 -153 q-165 -184 -203 -246l-94 -430z" />
<glyph unicode="i" horiz-adv-x="552" d="M61 680q64 109 154 186.5t164 77.5q92 0 92 -94q0 -11 -1 -22t-4 -25t-5 -23.5t-7.5 -27.5t-8 -26.5t-9.5 -30t-10 -29.5l-113 -349q-37 -108 -37 -153q0 -26 6.5 -36.5t28.5 -10.5q61 0 181 155l30 -26q-63 -97 -125 -160.5t-107.5 -87t-84.5 -23.5q-99 0 -99 117 q0 17 3 38t5.5 36t10.5 41.5t11.5 37.5t14.5 43.5t13 39.5l82 256q1 2 17 54t25 86t9 48q0 25 -5 34t-20 9q-22 0 -70 -38.5t-110 -121.5zM358 1274q0 51 36 86t87 35q41 0 66.5 -27.5t25.5 -69.5q0 -51 -35.5 -85.5t-86.5 -34.5q-41 0 -67 27t-26 69z" />
<glyph unicode="j" horiz-adv-x="518" d="M-236 -406q0 32 18 53t48 21q14 0 26 -5.5t16.5 -9t15.5 -17.5l10 -15q9 -13 15.5 -20t20 -14t29.5 -7q33 0 60 21t49 82q28 75 75 317l123 625q2 10 10 46t12.5 61.5t4.5 39.5q0 24 -5 33.5t-20 9.5q-22 0 -70 -38.5t-110 -121.5l-31 25q64 109 154 186.5t164 77.5 q92 0 92 -94q0 -32 -55 -266l-88 -389q-77 -347 -164 -492q-51 -85 -123 -145t-143 -60q-69 0 -101.5 29.5t-32.5 66.5zM358 1274q0 51 36 86t87 35q41 0 66.5 -27.5t25.5 -69.5q0 -51 -35.5 -85.5t-86.5 -34.5q-41 0 -67 27t-26 69z" />
<glyph unicode="k" horiz-adv-x="962" d="M35 -20q124 543 149 645l138 583q18 77 18 117q0 27 -8 37q-14 19 -38.5 25t-94.5 6l10 45q196 38 328 94l12 -10q-16 -60 -50.5 -203t-41.5 -172l-117 -481q39 42 97.5 95t109.5 89q133 94 246 94q74 0 110 -38q30 -32 30 -85q0 -10 -1 -22q-12 -107 -164 -215 q-107 -75 -242 -123q27 -21 47 -82l52 -154q22 -63 39.5 -87.5t52.5 -24.5q56 0 164 82l20 -31q-35 -38 -73.5 -74.5t-97 -75.5t-95.5 -39q-56 0 -79.5 26.5t-43.5 90.5l-82 256q-12 38 -27 49t-45 2l-82 -24l-81 -375zM287 424q94 28 215 88q138 69 194 133q58 66 62 133v7 q0 24 -12 43q-14 22 -44 22q-63 0 -163 -72q-49 -35 -113.5 -93.5t-101.5 -100.5z" />
<glyph unicode="l" horiz-adv-x="518" d="M72 92q0 20 5.5 57.5t15.5 84.5t18.5 83.5t19 81.5t12.5 52l179 757q18 77 18 117q0 27 -8 37q-14 19 -38.5 25t-94.5 6l10 45q196 38 328 94l12 -10q-1 -5 -92 -375l-181 -768q-40 -173 -40 -215q0 -24 9 -35.5t31 -11.5q26 0 72.5 37.5t106.5 117.5l32 -26 q-63 -97 -125 -160.5t-107.5 -87t-84.5 -23.5q-98 0 -98 117z" />
<glyph unicode="m" horiz-adv-x="1576" d="M61 680q64 109 154 186.5t164 77.5q92 0 92 -94q0 -52 -82 -318q96 142 215 256q164 156 270 156q61 0 85 -31.5t24 -72.5q0 -59 -92 -308q28 49 89 124t122 132q164 156 270 156q61 0 85 -31.5t24 -72.5q0 -52 -47 -195l-107 -328q-37 -108 -37 -153q0 -26 6.5 -36.5 t28.5 -10.5q61 0 180 155l31 -26q-63 -97 -125 -160.5t-107.5 -87t-84.5 -23.5q-99 0 -99 117q0 17 3 38t5.5 36t10.5 41.5t11.5 37.5t14.5 43.5t13 39.5l92 286q1 4 12 40t18.5 66t10.5 48q5 32 -4.5 46.5t-36.5 14.5q-35 0 -95 -46.5t-114 -106.5q-49 -54 -113.5 -136.5 t-87.5 -119.5l-117 -420l-159 -20l178 604q3 10 15 49.5t22.5 78t13.5 56.5q2 12 2 21q0 40 -41 40q-35 0 -96 -47t-115 -106q-45 -50 -107 -132.5t-87 -123.5l-117 -420l-160 -20l164 593q41 156 41 199q0 25 -5 34t-20 9q-22 0 -70 -38.5t-110 -121.5z" />
<glyph unicode="n" horiz-adv-x="1091" d="M61 680q64 109 154 186.5t164 77.5q92 0 92 -94q0 -52 -82 -318q26 42 91 121t124 135q164 156 277 156q62 0 87 -32t25 -72q0 -62 -45 -195l-108 -328q-37 -108 -37 -153q0 -25 7.5 -36t29.5 -11q26 0 72 37.5t106 117.5l33 -26q-92 -142 -174.5 -206.5t-143.5 -64.5 q-98 0 -98 117q0 15 1 30t5 33t6.5 30t9 35t9.5 32.5l12 38t12 37.5l92 286q35 107 41 154q5 26 -5.5 43.5t-39.5 17.5q-78 0 -215 -153q-39 -44 -104.5 -130.5t-89.5 -125.5l-117 -420l-160 -20l164 593q41 156 41 199q0 25 -5 34t-20 9q-22 0 -70 -38.5t-110 -121.5z" />
<glyph unicode="o" horiz-adv-x="880" d="M51 297q0 114 41.5 228t102.5 200q62 87 161.5 153t206.5 66q70 0 123 -26.5t83.5 -73t45 -102t14.5 -119.5q0 -114 -42 -228t-103 -200q-62 -88 -161.5 -154t-205.5 -66q-70 0 -123 27t-83.5 73t-45 102t-14.5 120zM219 297q0 -53 4.5 -91.5t16.5 -77.5t39 -59t67 -20 q120 0 211 164q45 82 73.5 203.5t28.5 218.5q0 53 -4.5 91.5t-16.5 76.5t-39 58t-67 20q-62 0 -112 -39.5t-96 -124.5q-46 -83 -75.5 -204t-29.5 -216z" />
<glyph unicode="p" horiz-adv-x="968" d="M-133 -502l10 51q94 14 121 35q20 17 30.5 42t20.5 71l227 1067q-32 -16 -81.5 -47.5t-82.5 -54.5l-34 -23l-27 47q32 24 119 76.5t121 66.5l37 185l157 71l13 -10l-41 -180q10 5 28 13t75 21t116 13q107 0 176.5 -67.5t69.5 -198.5q0 -125 -44.5 -251.5t-99.5 -209.5 q-56 -85 -148.5 -155t-189.5 -70q-37 0 -67.5 7.5t-48 17.5t-29 20.5t-15.5 18.5l-4 7l-71 -337l-3 -15q-10 -49 -10 -74q0 -11 2 -18q2 -5 5 -10q13 -21 52.5 -31t127.5 -10l-10 -51q-262 0 -502 -17zM317 154q1 -11 6 -25t16.5 -33.5t35 -32t55.5 -12.5q65 0 123.5 51.5 t101.5 133.5q42 79 69.5 187.5t27.5 211.5q0 104 -46 159.5t-122 55.5q-43 0 -72.5 -5t-48 -12t-21.5 -8l-114 -518q-15 -66 -15 -112q0 -23 4 -41z" />
<glyph unicode="q" horiz-adv-x="948" d="M45 205q0 141 71.5 304.5t184.5 268.5q108 100 185.5 132t172.5 32q50 0 91 -9t57 -19l16 -9l74 37l14 -10q-32 -118 -96 -400l-180 -808q-8 -40 -10.5 -53.5t-2.5 -32.5t7 -31q13 -21 52.5 -31t127.5 -10l-10 -51q-262 0 -502 -17l10 51q94 14 121 35q32 27 51 113 l166 749q-97 -159 -158 -241q-65 -87 -138.5 -158.5t-127.5 -71.5q-85 0 -130.5 50.5t-45.5 179.5zM219 266q0 -153 72 -153q35 0 72.5 36t101.5 117q54 69 118.5 166.5t92.5 151.5l55 219l-1 1q-2 1 -6 2.5t-9.5 3.5t-14.5 4.5t-19 5t-23.5 5t-28.5 4.5q-51 7 -80 7 q-49 0 -84 -17q-34 -17 -76 -64.5t-78 -119.5q-37 -78 -64.5 -186t-27.5 -183z" />
<glyph unicode="r" horiz-adv-x="768" d="M61 680q64 109 154 186.5t164 77.5q92 0 92 -94q0 -25 -10.5 -69.5t-21 -78.5t-34 -103.5t-32.5 -96.5q100 200 196.5 323t171.5 123q44 0 66 -25.5t22 -66.5q0 -61 -44.5 -100t-77.5 -39q0 20 -13 38.5t-43 18.5q-37 0 -90.5 -60.5t-102.5 -141.5t-100 -183l-106 -389 l-160 -20l164 593q41 156 41 199q0 24 -5 33.5t-20 9.5q-22 0 -70 -38.5t-110 -121.5z" />
<glyph unicode="s" horiz-adv-x="665" d="M-6 154q0 50 22.5 76t49.5 26q18 0 30.5 -15.5t26 -44t24.5 -42.5q54 -72 134 -72q77 0 118 41t41 102q0 14 -4.5 28.5t-10 26.5t-18.5 27.5t-20.5 24t-25 24.5t-24 22t-26.5 22.5t-24 19.5q-78 65 -106 101q-48 62 -48 124q0 143 133 236q98 69 230 69q59 0 112.5 -35 t53.5 -86q0 -92 -72 -92q-18 0 -31.5 9t-29.5 30.5t-17 22.5q-34 42 -82 51q-18 3 -34 3q-45 0 -83 -24q-57 -37 -57 -112q0 -13 3.5 -25t13 -26t16 -22.5t23.5 -24.5t23 -21.5t28 -23.5t26 -21q1 -1 33 -27t42 -35t36.5 -36.5t37 -46t21 -46.5t10.5 -55q0 -117 -102 -225 q-103 -109 -252 -109q-83 0 -152 50.5t-69 130.5z" />
<glyph unicode="t" horiz-adv-x="604" d="M86 823l16 78h185l55 225l145 21l-55 -246h244l-14 -78h-246l-109 -475q-33 -140 -33 -174q0 -29 6.5 -43t30.5 -14q28 0 79.5 41.5t115.5 117.5l33 -24q-97 -141 -185.5 -209t-148.5 -68q-99 0 -99 117q0 72 41 236l123 495h-184z" />
<glyph unicode="u" horiz-adv-x="1054" d="M72 690q57 102 145.5 178t161.5 76q92 0 92 -94q0 -60 -61 -236l-72 -215q-51 -162 -55 -204q-6 -38 2.5 -60t42.5 -22q64 0 215 194q50 65 121 173.5t84 154.5l86 287l159 26l-174 -579q-51 -178 -51 -205q0 -26 6.5 -36.5t28.5 -10.5q61 0 180 155l31 -26 q-92 -142 -174.5 -206.5t-143.5 -64.5q-98 0 -98 117q0 17 4 40t8 41t13.5 48.5t13.5 43t16 46t13 37.5l41 119q-85 -141 -164 -242q-73 -93 -159.5 -171.5t-147.5 -78.5q-119 0 -119 138q0 91 67 286l72 215q39 125 41 154q3 47 -25 47q-23 0 -66 -33.5t-104 -115.5z" />
<glyph unicode="v" horiz-adv-x="870" d="M41 700q54 112 124.5 178t135.5 66q109 0 109 -156q0 -81 -31 -307l-51 -379q186 224 256 328q106 157 127 266q6 28 6 63q-1 14 -1 28q-2 24 -1 44q0 23 2 39q7 44 33.5 68.5t58.5 24.5q34 0 58 -26t24 -77q0 -52 -18.5 -100.5t-63.5 -124.5q-92 -155 -256 -359 q-60 -75 -149 -176.5t-128 -140.5l-92 51l62 625q7 55 7 94q0 15 -1 29q-4 46 -33 47q-53 0 -143 -129z" />
<glyph unicode="w" horiz-adv-x="1300" d="M41 700q54 112 124.5 178t135.5 66q109 0 109 -156q0 -37 -6 -91t-19.5 -142t-15.5 -104l-41 -308q32 39 105.5 141t109.5 156q57 87 112 184t62 144q2 16 2 29q0 26 -9 41q-14 22 -34 22q0 33 29 60.5t73 27.5q45 0 72 -38.5t27 -100.5q0 -37 -8.5 -100t-22 -145.5 t-17.5 -112.5l-41 -308q36 42 109 136t111 151q115 174 133 266q6 28 6 63q-1 14 -1 28q-2 24 -1 44q0 23 2 39q7 44 33.5 68.5t58.5 24.5q34 0 58 -26t24 -77q0 -52 -18.5 -100.5t-63.5 -124.5q-53 -89 -235 -328q-27 -36 -97.5 -123t-126.5 -156l-57 -69l-88 51 q15 92 31 215l51 389q-38 -78 -160 -256q-49 -72 -153.5 -213.5t-141.5 -185.5l-88 51q29 186 41 307q21 185 31 308q7 66 7 107q0 16 -1 29q-4 44 -33 44q-53 0 -143 -129z" />
<glyph unicode="x" horiz-adv-x="901" d="M-72 82q0 55 43 94t111 39q-21 -20 -21 -51q0 -23 14.5 -37t37.5 -14q27 0 67.5 39t106.5 145l98 158l-57 262q-9 46 -21.5 69t-40.5 23q-30 0 -63 -31.5t-80 -101.5l-31 20q50 108 117 177t139 69q21 0 38.5 -7.5t29.5 -22.5t20.5 -28.5t15 -36.5t9.5 -34t6.5 -32.5 t3.5 -22.5l41 -195l92 164q63 112 120 168.5t116 56.5q102 0 102 -102q0 -42 -36 -82.5t-87 -40.5q8 33 -2 57.5t-39 24.5t-58 -28t-65 -85l-129 -204l58 -256q15 -69 30.5 -96t51.5 -27q64 0 153 143l31 -20q-17 -35 -31 -60t-41.5 -66.5t-52.5 -67.5t-60.5 -46.5 t-70.5 -20.5q-26 0 -46.5 8t-36 27t-25.5 35t-19.5 48t-14 48.5t-12.5 55t-10 49.5l-31 139l-96 -170q-44 -78 -83.5 -129.5t-72 -75.5t-56.5 -32.5t-50 -8.5q-48 0 -80.5 30.5t-32.5 82.5z" />
<glyph unicode="y" horiz-adv-x="860" d="M-133 -399q0 43 33 77.5t90 34.5q0 -16 1 -25t6.5 -21.5t18.5 -18.5t35 -6q80 0 154 102q65 89 82 195q3 17 4 45q1 15 1 32t-1 37q-1 40 -2 69.5t-3 78t-3 65.5q-2 28 -10 189.5t-11 199.5q-1 9 -3 28.5t-3.5 30.5t-4 27.5t-6 26t-8.5 19t-12 14t-16 4.5 q-53 0 -143 -129l-35 24q54 112 124.5 178t135.5 66q25 0 45 -9.5t33.5 -23.5t23 -38t14.5 -44t8.5 -52t4.5 -52t2 -53.5t2 -46.5q5 -90 7 -280q1 -76 1 -137q0 -91 -2 -147q154 277 199 379q68 148 78 267q1 14 1 30q0 25 -2 56q-2 22 -2 40q0 23 3 37q7 44 33.5 68.5 t58.5 24.5q34 0 58 -26t24 -77q0 -34 -15 -83t-29.5 -83t-48.5 -110q-34 -75 -118.5 -226t-147.5 -256q-141 -235 -209 -327q-37 -49 -66.5 -85t-78 -86.5t-97 -78t-91.5 -27.5q-57 0 -85 30t-28 73z" />
<glyph unicode="z" horiz-adv-x="808" d="M-20 51q0 4 0.5 8t3 7.5t3.5 6t5 7.5t6 6.5t8 7.5l8 8q38 38 113 123l453 516q-48 3 -132 17.5t-150 27.5t-73 13q-15 0 -22.5 -8.5t-28.5 -53.5l-31 -67l-47 16l78 215q8 24 18 32.5t33 8.5q11 0 199 -34t225 -34q30 0 58.5 13.5t41.5 26.5l13 14l37 -37l-580 -666 q16 0 34.5 -4t40 -12.5t35 -14t36.5 -17t28 -13.5q7 -3 57.5 -28t90.5 -39.5t67 -14.5q41 0 62.5 20.5t21.5 40.5q0 41 -41 41q-22 10 -22 41q0 25 16 43.5t45 18.5q31 0 49.5 -21t18.5 -55q0 -13 -2.5 -26t-8.5 -29t-9 -23.5t-13 -27t-12 -23.5q-48 -85 -82 -116 q-36 -32 -72 -32q-19 0 -40 4.5t-35 8t-39.5 15.5t-34 16.5t-40 21.5t-36.5 20q-4 2 -25 13t-26.5 14t-24 12t-25.5 12t-22 10t-24 9.5t-21.5 6t-22.5 4.5t-20 1q-21 0 -39 -13t-28 -28t-20 -28t-16 -13q-16 0 -28 8.5t-12 22.5z" />
<glyph unicode="{" horiz-adv-x="604" d="M10 -174q0 56 41 174l92 266q21 65 21 144q0 137 -150 168l6 20q114 27 177 106.5t69 196.5l21 410q4 88 37.5 150.5t91 96.5t122 50t148.5 20v-41q-151 -15 -210.5 -74t-65.5 -192l-21 -399q-6 -115 -86.5 -202.5t-214.5 -125.5l-4 -10q90 -23 141 -85t51 -141 q0 -73 -10 -102l-123 -373q-20 -59 -20 -129q0 -137 211 -164l-17 -41q-54 7 -95.5 17t-83 30.5t-68.5 49.5t-43.5 74.5t-16.5 105.5z" />
<glyph unicode="|" horiz-adv-x="419" d="M162 -512v2048h96v-2048h-96z" />
<glyph unicode="}" horiz-adv-x="604" d="M-82 -410q151 15 211 74.5t66 192.5l20 399q6 115 86.5 202.5t214.5 125.5l4 10q-90 23 -141 84.5t-51 140.5q0 74 10 103l123 372q20 59 20 129q0 137 -211 164l17 41q54 -7 95.5 -17t83 -30t68.5 -49t43.5 -74.5t16.5 -105.5q0 -56 -41 -174l-92 -267q-21 -65 -21 -143 q0 -137 150 -168l-6 -20q-114 -27 -177 -107t-69 -197l-21 -409q-4 -88 -37.5 -150.5t-91 -97t-122.5 -50.5t-148 -20v41z" />
<glyph unicode="~" horiz-adv-x="1024" d="M51 328q0 124 58 200t178 76q56 0 116 -27t136.5 -76.5t105.5 -64.5q58 -30 92 -30q133 0 133 178h103q0 -124 -58 -200.5t-178 -76.5q-56 0 -116 27t-136.5 76.5t-105.5 64.5q-60 31 -92 31q-133 0 -133 -178h-103z" />
<glyph unicode="&#xa0;" />
<glyph unicode="&#xa1;" horiz-adv-x="563" d="M61 -377q0 23 11.5 67.5t29.5 101t21 67.5q102 349 194 706h37q-16 -136 -33 -295t-25 -250l-9 -90q-4 -33 -10 -106.5t-11.5 -128t-9.5 -72.5q-22 -92 -106 -92q-41 0 -65 26t-24 66zM270 815q0 54 37.5 91.5t91.5 37.5q45 0 74 -30t29 -76q0 -54 -36.5 -91.5 t-90.5 -37.5q-46 0 -75.5 30t-29.5 76z" />
<glyph unicode="&#xa2;" d="M174 604q0 253 164 410q129 121 309 129l60 188h67l-63 -188q112 -11 169.5 -63t57.5 -107q0 -46 -28.5 -77.5t-73.5 -31.5q-40 0 -59 27.5t-19 50.5q1 1 7 6t8.5 8.5t6.5 10.5t6 16t2 21q0 31 -25.5 53t-68.5 26l-223 -694q9 -9 43 -20t84 -11q62 0 126 25.5t116 77.5 l26 -25l-145 -170q-74 -51 -193 -51q-23 0 -49.5 4t-41.5 8l-15 4l-74 -231h-67l84 256q-84 42 -137.5 130t-53.5 218zM328 676q0 -170 88 -252l211 661q-132 -15 -215.5 -133t-83.5 -276z" />
<glyph unicode="&#xa3;" d="M31 113q0 50 53 76t149 26q37 0 84 -6q93 93 93 221q0 41 -10 89.5t-20 76.5l-11 29h-215l14 71h176q-57 146 -57 246q0 175 112 287q123 123 318 123q111 0 178.5 -50t67.5 -118q0 -61 -34.5 -93t-78.5 -32q-39 0 -65.5 25t-26.5 63q5 2 13 7t21 23.5t13 41.5 q0 38 -31.5 59.5t-83.5 21.5q-99 0 -168 -69q-78 -78 -78 -207q0 -67 27 -167.5t51 -160.5h314l-17 -71h-272q16 -50 16 -113q0 -99 -58.5 -176.5t-146.5 -130.5q45 -4 149 -38t159 -34q90 0 156.5 17t129.5 71l21 -26q-171 -226 -338 -226q-48 0 -89 21t-68.5 51t-51 60.5 t-48.5 51.5t-50 21q-31 0 -62.5 -19t-54 -42.5t-52.5 -42.5t-57 -19q-32 0 -51.5 16t-19.5 46z" />
<glyph unicode="&#xa4;" d="M10 508l13 72h104q8 49 14 86l17 77h-103l13 72h108q66 237 210.5 381.5t334.5 144.5q56 0 105.5 -10.5t79.5 -25.5t52.5 -30t31.5 -25l9 -11l-61 -250l-53 -6v45q0 133 -37.5 194.5t-136.5 61.5q-116 0 -211.5 -116.5t-151.5 -352.5h389l-12 -72h-391q-9 -38 -15 -77 l-14 -86h385l-12 -72h-381q-25 -230 29 -348.5t166 -118.5q102 0 191.5 90t139.5 217l47 -14l-82 -252q-5 -4 -13.5 -11.5t-39.5 -26.5t-66 -33t-91.5 -26t-116.5 -12q-166 0 -259.5 140t-78.5 395h-113z" />
<glyph unicode="&#xa5;" d="M123 1257l10 50q36 0 97.5 -4.5t97.5 -4.5t122.5 4.5t122.5 4.5l-10 -52q-33 -4 -47 -6t-36.5 -7.5t-31.5 -13t-16.5 -20t-7.5 -30.5q0 -11 4.5 -31t9 -36.5t13 -42.5t10.5 -34l96 -327l252 362q65 93 65 133q0 26 -24 37t-82 16l10 52q30 0 97 -4.5t98 -4.5t82 4.5 t82 4.5l-9 -52q-21 -2 -39 -6t-30.5 -7.5t-26 -12.5t-20 -13.5t-19 -18.5t-16 -18t-16.5 -22.5t-17 -23.5l-317 -437h223l-12 -71h-256l-33 -164h258l-12 -72h-258l-27 -143q-13 -73 -13.5 -105.5t9.5 -42.5q22 -44 153 -49l-10 -49q-46 0 -129 4t-129 4t-129 -4t-129 -4 l10 49q63 5 98 14.5t58 32.5q5 5 9 10.5t7.5 10.5t7 13t5.5 13t5 15t4.5 15.5t4 18.5t3.5 19t4.5 22t4.5 23l27 133h-256l12 72h256l31 164h-256l12 71h230l-144 430q-21 64 -52 94t-91 37z" />
<glyph unicode="&#xa6;" horiz-adv-x="419" d="M162 -358v716h96v-716h-96zM162 666v716h96v-716h-96z" />
<glyph unicode="&#xa7;" d="M-51 -246q0 47 15 82t39 53t49 26.5t50 8.5q46 0 84.5 -37t38.5 -82q-32 -8 -51.5 -37.5t-19.5 -74.5q0 -52 39.5 -90.5t117.5 -38.5q91 0 154 60.5t63 170.5q0 50 -21 108.5t-55 117t-75 122.5t-82.5 134t-75.5 141t-55 154.5t-21 164.5q0 87 19.5 167.5t46.5 135 t63 103.5t61 73.5t50 43.5q40 31 73.5 51t98.5 38.5t141 18.5q120 0 211.5 -72t91.5 -159q0 -82 -32.5 -118t-96.5 -36q-54 0 -83 40t-29 73q1 1 9 7.5t13.5 13t13 17.5t11.5 26t4 32q0 49 -38.5 84t-104.5 35q-99 0 -165.5 -58t-66.5 -168q0 -52 29.5 -121.5t73 -137.5 t95 -152.5t95 -164t73 -174.5t29.5 -181q0 -272 -157 -461q-162 -195 -406 -195q-129 0 -223 77.5t-94 178.5zM250 764q0 -98 37 -202t90 -192t106 -172.5t90 -171t37 -159.5q0 -92 -32 -174q63 63 101 168.5t38 220.5q0 96 -26.5 191t-65.5 168.5t-85.5 150.5t-85.5 139 t-65.5 132.5t-26.5 133.5q0 96 33 181q-66 -73 -105.5 -180t-39.5 -234z" />
<glyph unicode="&#xa8;" horiz-adv-x="778" d="M102 1219q0 49 36 83.5t87 34.5q41 0 66.5 -27.5t25.5 -70.5q0 -50 -35.5 -84.5t-86.5 -34.5q-41 0 -67 28t-26 71zM461 1219q0 49 36 83.5t87 34.5q41 0 66.5 -27.5t25.5 -70.5q0 -49 -36 -84t-87 -35q-41 0 -66.5 28t-25.5 71z" />
<glyph unicode="&#xa9;" horiz-adv-x="1628" d="M90 692q0 196 97.5 362.5t264 263.5t361.5 97q196 0 363 -97t264.5 -263.5t97.5 -362.5t-97.5 -362.5t-264 -263.5t-361.5 -97q-196 0 -363 97t-264.5 263.5t-97.5 362.5zM164 692q0 -176 87 -326t236.5 -237.5t325.5 -87.5q177 0 327 87.5t237 237.5t87 326t-87 326 t-237 237.5t-327 87.5q-176 0 -325.5 -87.5t-236.5 -237.5t-87 -326zM352 696q0 139 68 247t177 164t237 56q88 0 163.5 -19.5t107.5 -39.5l32 -19l14 -215l-41 -10q-67 236 -276 236q-132 0 -217 -104t-85 -296q0 -96 25.5 -174t68.5 -126t96.5 -73.5t111.5 -25.5 q226 0 307 246l47 -11l-47 -208q-128 -99 -307 -99q-216 0 -349 128.5t-133 342.5z" />
<glyph unicode="&#xaa;" horiz-adv-x="737" d="M133 614l14 72h533l-14 -72h-533zM156 911q0 88 41.5 184.5t109.5 159.5q65 61 111 81t102 20q30 0 57.5 -6t39.5 -12l12 -5l55 25l10 -8l-94 -365q-18 -81 -18 -92q0 -27 20 -27q14 0 43.5 24.5t63.5 70.5l22 -19q-55 -82 -109 -125t-94 -43q-67 0 -67 74q0 52 49 201 q-32 -64 -88 -138q-98 -137 -162 -137q-50 0 -77 29t-27 108zM276 954q0 -88 39 -88q21 0 42 20.5t57 67.5q60 78 118 191l37 123q-20 10 -61 16q-32 4 -45 4q-31 0 -49 -10q-44 -23 -86 -111q-23 -46 -37.5 -107t-14.5 -106z" />
<glyph unicode="&#xab;" horiz-adv-x="860" d="M31 469q237 208 375 371l47 -27q-27 -43 -64 -94t-57 -78t-72.5 -95t-62.5 -81q101 -207 151 -346l-49 -23q-84 149 -268 373zM358 469q237 208 375 371l47 -27q-27 -43 -64 -94t-57 -78t-72.5 -95t-62.5 -81q105 -215 152 -346l-49 -23q-82 145 -269 373z" />
<glyph unicode="&#xac;" horiz-adv-x="1024" d="M51 580v88h922v-410h-94v322h-828z" />
<glyph unicode="&#xad;" horiz-adv-x="552" d="M51 399l41 133l410 52l-41 -133z" />
<glyph unicode="&#xae;" horiz-adv-x="1280" d="M154 967q0 117 46 224.5t123.5 185t184 123.5t223.5 46q157 0 290.5 -77.5t211.5 -210.5t78 -289q0 -157 -78 -290.5t-211 -211.5t-289 -78q-157 0 -290.5 78t-211 211t-77.5 289zM219 969q0 -139 69 -257.5t187 -187.5t256 -69q139 0 257 69t186.5 187.5t68.5 257.5 t-68.5 257t-186 186.5t-255.5 68.5q-139 0 -257.5 -69t-187.5 -187t-69 -256zM430 631v37q62 8 82 27.5t20 80.5v412q0 63 -17 82t-81 26v35q26 0 75 -3t75 -3q22 0 85.5 3t108.5 3q47 0 88 -11.5t74 -46t33 -89.5t-29.5 -96.5t-66.5 -59.5t-78 -24q25 -6 39 -12t31 -24.5 t32 -49.5l62 -130q25 -55 51 -81q29 -29 71 -39v-37q-55 6 -86 6l-88 -6l-143 301q-17 36 -72 41l-53 6v-203q0 -61 20 -80.5t82 -27.5v-37q-25 0 -78 4t-79 4t-79 -4t-79 -4zM643 1014l66 4q143 8 143 145q0 63 -39 93t-104 30q-45 0 -55.5 -9.5t-10.5 -51.5v-211z" />
<glyph unicode="&#xaf;" horiz-adv-x="600" d="M102 1171l15 105h585l-16 -105h-584z" />
<glyph unicode="&#xb0;" horiz-adv-x="624" d="M102 1079q0 119 84.5 204t202.5 85t202.5 -85t84.5 -202q0 -119 -84.5 -203.5t-202.5 -84.5t-202.5 84.5t-84.5 201.5zM197 1081q0 -80 56.5 -137t135.5 -57t136 57t57 137q0 79 -57 136t-136 57t-135.5 -57.5t-56.5 -135.5z" />
<glyph unicode="&#xb1;" horiz-adv-x="1024" d="M51 -86h922v-88h-922v88zM51 420v88h414v416h94v-416h414v-88h-414v-416h-94v416h-414z" />
<glyph unicode="&#xb2;" horiz-adv-x="819" d="M90 578l303 290q81 77 120.5 137t39.5 121q0 60 -37.5 89.5t-89.5 29.5t-97.5 -24t-90.5 -91l-41 33q46 79 114 127.5t152 48.5q94 0 155.5 -48t61.5 -136q0 -36 -11.5 -70t-25 -58.5t-48.5 -61.5t-56.5 -57t-75.5 -68l-217 -193h250q57 0 77.5 12t53.5 66l41 -20 l-82 -185h-29q0 12 -3.5 14.5t-16.5 2.5h-431z" />
<glyph unicode="&#xb3;" horiz-adv-x="819" d="M111 635q0 65 61 65q14 0 26.5 -9.5t19 -18.5t15 -26l9.5 -19q29 -49 102 -49q59 0 113.5 49.5t54.5 138.5q0 46 -18.5 78.5t-46.5 47t-50.5 20.5t-40.5 6q-16 0 -36.5 -4t-33.5 -8l-12 -5l-12 53l164 50q62 31 94.5 67t32.5 88t-31.5 77.5t-75.5 25.5q-95 0 -163 -103 l-37 33q86 147 241 147q80 0 136.5 -44.5t56.5 -118.5q0 -71 -48 -116t-132 -77q23 -5 45.5 -18t45.5 -36t37.5 -62.5t14.5 -88.5q0 -102 -101 -180t-223 -78q-107 0 -157.5 37.5t-50.5 77.5z" />
<glyph unicode="&#xb4;" horiz-adv-x="542" d="M102 1065l179 276q16 25 25.5 37.5t27.5 23.5t39 11q33 0 50 -19.5t17 -45.5q0 -39 -37 -68l-280 -236z" />
<glyph unicode="&#xb5;" horiz-adv-x="1054" d="M-61 -481l256 880q99 327 102 369q3 47 -25 47q-23 0 -66 -33.5t-104 -115.5l-30 24q57 102 145.5 178t161.5 76q92 0 92 -94q0 -45 -61 -236l-62 -204q-51 -162 -55 -205q-6 -38 1.5 -60t37.5 -22q38 0 98.5 58.5t112.5 125.5q50 65 121 173.5t84 154.5l86 287l159 26 l-174 -579q-51 -178 -51 -205q0 -26 6.5 -36.5t28.5 -10.5q61 0 180 155l31 -26q-92 -142 -174.5 -206.5t-143.5 -64.5q-98 0 -98 117q0 17 4 40t8 41t13.5 48.5t13.5 43t16 46t13 37.5l41 119q-85 -141 -164 -242q-69 -88 -145.5 -156.5t-131.5 -68.5q-28 0 -44.5 16.5 t-16.5 34.5q-72 -297 -113 -502l-133 -51z" />
<glyph unicode="&#xb6;" d="M-72 -297q0 83 43.5 128.5t114.5 45.5q61 0 90 -40.5t29 -82.5q-27 0 -49.5 -18t-22.5 -53q0 -41 29.5 -67t87.5 -26q118 0 205 123q69 97 112 328l60 332h-82q-158 0 -266 82q-20 15 -39 36.5t-42.5 58.5t-38 92t-14.5 120q0 267 179 446q160 160 446 160q82 0 158 -8 t112 -16l35 -7l-10 -53q-30 6 -61 6q-24 0 -44 -6.5t-34 -15t-26 -26.5t-18.5 -31t-13.5 -39.5t-9.5 -40.5t-8.5 -46t-8 -45l-172 -927q-19 -103 -35 -171t-47.5 -150t-69.5 -130q-132 -164 -338 -164q-107 0 -179.5 60t-72.5 145z" />
<glyph unicode="&#xb7;" horiz-adv-x="430" d="M102 594q0 54 36.5 91.5t90.5 37.5q45 0 75 -31.5t30 -77.5q0 -54 -37.5 -91.5t-91.5 -37.5q-45 0 -74 31.5t-29 77.5z" />
<glyph unicode="&#xb8;" horiz-adv-x="747" d="M-47 -307l20 31q35 -27 88 -47.5t103 -20.5q53 0 86 24.5t33 63.5q0 60 -68 82q-14 4 -34.5 6.5t-34.5 3.5h-13l-20 41l153 123h51l-122 -119q65 8 122 -14q93 -36 93 -129q0 -58 -53 -103t-152 -45q-45 0 -88.5 10t-64.5 20l-21 11z" />
<glyph unicode="&#xb9;" horiz-adv-x="716" d="M127 537l12 53q87 0 111 24q25 25 41 115l94 455q4 19 0.5 23.5t-20.5 0.5l-103 -24l-16 45q68 23 150.5 58.5t115.5 60.5l33 -21q-29 -88 -53 -213l-78 -385q-21 -98 -8 -115q18 -24 118 -24l-12 -53q-35 0 -97.5 4t-97.5 4t-95 -4t-95 -4z" />
<glyph unicode="&#xba;" horiz-adv-x="737" d="M143 614l15 72h491l-14 -72h-492zM197 967q0 145 90 262q39 53 98 90t131 37q84 0 127 -54t43 -139q0 -143 -88 -262q-98 -127 -231 -127q-84 0 -127 54t-43 139zM315 963q0 -142 72 -142q68 0 119 94q28 49 45.5 124t17.5 137q0 141 -73 141q-68 0 -119 -94 q-28 -49 -45 -123t-17 -137z" />
<glyph unicode="&#xbb;" horiz-adv-x="860" d="M31 123q27 42 62 91t61 83t69 89t64 83q-123 266 -152 346l51 25q86 -154 267 -375q-232 -204 -375 -369zM358 123q27 42 62 91t61 83t69 89t64 83q-118 255 -151 346l51 25q88 -158 266 -375q-228 -200 -374 -369z" />
<glyph unicode="&#xbc;" horiz-adv-x="1433" d="M111 537l12 53q86 0 110 24q25 25 41 115l95 455q3 19 -0.5 23.5t-20.5 0.5l-102 -24l-17 45q68 23 151 58.5t116 60.5l32 -21q-29 -88 -53 -213l-78 -385q-21 -98 -8 -115q18 -24 119 -24l-12 -53q-35 0 -97.5 4t-97.5 4t-95 -4t-95 -4zM233 0l873 1315h94l-872 -1315 h-95zM713 197l24 90l443 495l123 13l-97 -504h129l-20 -94h-127l-39 -201h-127l39 201h-348zM836 291h247l70 364z" />
<glyph unicode="&#xbd;" horiz-adv-x="1433" d="M111 537l12 53q86 0 110 24q25 25 41 115l95 455q3 19 -0.5 23.5t-20.5 0.5l-102 -24l-17 45q68 23 151 58.5t116 60.5l32 -21q-29 -88 -53 -213l-78 -385q-21 -98 -8 -115q18 -24 119 -24l-12 -53q-35 0 -97.5 4t-97.5 4t-95 -4t-95 -4zM233 0l873 1315h94l-872 -1315 h-95zM770 33l303 291q81 77 120.5 137t39.5 121q0 60 -37.5 89t-89.5 29t-97.5 -23.5t-90.5 -90.5l-41 32q46 80 114 128.5t152 48.5q94 0 155.5 -48t61.5 -137q0 -36 -11.5 -70t-25 -58.5t-48.5 -61.5t-56.5 -57t-75.5 -68l-217 -193h250q57 0 77.5 12t53.5 66l41 -20 l-82 -185h-29q0 11 -3.5 14t-16.5 3h-431z" />
<glyph unicode="&#xbe;" horiz-adv-x="1433" d="M98 635q0 65 62 65q14 0 26.5 -9.5t18.5 -19t14 -25.5t10 -19q29 -49 103 -49q59 0 113.5 49.5t54.5 138.5q0 46 -18.5 78.5t-46.5 47t-50.5 20.5t-40.5 6q-16 0 -36.5 -4t-33.5 -8l-12 -5l-12 53l164 50q62 31 94.5 67t32.5 88t-31.5 77.5t-75.5 25.5q-96 0 -164 -103 l-37 33q85 147 242 147q80 0 136.5 -44.5t56.5 -118.5q0 -71 -48.5 -116t-132.5 -77q23 -5 45.5 -18t46 -36t38 -62.5t14.5 -88.5q0 -102 -101 -180t-223 -78q-107 0 -158 37.5t-51 77.5zM274 0l873 1315h94l-872 -1315h-95zM713 197l24 90l443 495l123 13l-97 -504h129 l-20 -94h-127l-39 -201h-127l39 201h-348zM836 291h247l70 364z" />
<glyph unicode="&#xbf;" horiz-adv-x="768" d="M20 -152q0 79 58.5 144.5t177.5 142.5q19 13 58 37.5t56.5 35.5t46 31t42.5 32t30 28.5t23.5 31t9.5 29.5q7 48 -17 70.5t-54 22.5q-22 0 -37 -12.5t-15 -28.5q-37 -7 -62.5 15.5t-25.5 55.5q0 31 25.5 54.5t62.5 23.5q67 0 133 -78q30 -36 48 -96t4 -129 q-7 -35 -24 -64.5t-52 -60t-58.5 -47.5t-76.5 -53q-3 -2 -5 -3.5t-5 -3t-5 -3.5q-13 -9 -55 -36t-59 -39t-48.5 -37t-45 -42.5t-25.5 -42t-12 -49.5q0 -71 46 -115.5t97 -44.5q45 0 68.5 18t23.5 50q0 18 -6.5 31t-13.5 16l-6 4q11 29 42.5 45t65.5 16q37 0 69.5 -28 t32.5 -84q0 -62 -55 -103t-139 -41q-74 0 -133 29.5t-92 62.5q-93 93 -93 215zM414 815q0 54 37.5 91.5t91.5 37.5q45 0 73.5 -30t28.5 -76q0 -54 -36.5 -91.5t-90.5 -37.5q-46 0 -75 30t-29 76z" />
<glyph unicode="&#xc0;" horiz-adv-x="1177" d="M-150 0l11 51q26 6 40 10.5t34 14.5t38 26q39 33 133 195l437 778q111 197 127 256q98 11 149 21q0 -71 31 -297l113 -840q11 -78 34 -106q37 -43 115 -58l-14 -51q-41 0 -123 5t-123 5t-118 -5t-118 -5l11 51q61 8 93.5 19.5t49.5 35.5t17.5 78.5t-5.5 81.5l-26 242 h-443l-131 -242q-69 -128 -51 -164q17 -37 139 -51l-10 -51q-36 0 -102.5 5t-102.5 5t-102.5 -5t-102.5 -5zM352 584h391l-65 604zM532 1745q0 25 22 46t54 21q22 0 38 -14.5t23.5 -30.5t16.5 -43l88 -264l-26 -16l-185 229q-31 40 -31 72z" />
<glyph unicode="&#xc1;" horiz-adv-x="1177" d="M-150 0l11 51q26 6 40 10.5t34 14.5t38 26q39 33 133 195l437 778q111 197 127 256q98 11 149 21q0 -71 31 -297l113 -840q11 -78 34 -106q37 -43 115 -58l-14 -51q-41 0 -123 5t-123 5t-118 -5t-118 -5l11 51q61 8 93.5 19.5t49.5 35.5t17.5 78.5t-5.5 81.5l-26 242 h-443l-131 -242q-69 -128 -51 -164q17 -37 139 -51l-10 -51q-36 0 -102.5 5t-102.5 5t-102.5 -5t-102.5 -5zM352 584h391l-65 604zM690 1464l180 277q19 28 26.5 37.5t26 21.5t40.5 12q32 0 49.5 -19.5t17.5 -45.5q0 -39 -37 -68l-280 -235z" />
<glyph unicode="&#xc2;" horiz-adv-x="1177" d="M-150 0l11 51q26 6 40 10.5t34 14.5t38 26q39 33 133 195l437 778q111 197 127 256q98 11 149 21q0 -71 31 -297l113 -840q11 -78 34 -106q37 -43 115 -58l-14 -51q-41 0 -123 5t-123 5t-118 -5t-118 -5l11 51q61 8 93.5 19.5t49.5 35.5t17.5 78.5t-5.5 81.5l-26 242 h-443l-131 -242q-69 -128 -51 -164q17 -37 139 -51l-10 -51q-36 0 -102.5 5t-102.5 5t-102.5 -5t-102.5 -5zM352 584h391l-65 604zM475 1464l246 271q5 5 22.5 25.5t25.5 27.5t25 15.5t35 8.5q62 0 82 -75l82 -277l-24 -16l-160 242l-311 -242z" />
<glyph unicode="&#xc3;" horiz-adv-x="1177" d="M-150 0l11 51q26 6 40 10.5t34 14.5t38 26q39 33 133 195l437 778q111 197 127 256q98 11 149 21q0 -71 31 -297l113 -840q11 -78 34 -106q37 -43 113 -58l-12 -51q-41 0 -123 5t-123 5t-118 -5t-118 -5l11 51q61 8 93.5 19.5t49.5 35.5t17.5 78.5t-5.5 81.5l-26 242 h-443l-131 -242q-69 -128 -51 -164q17 -37 139 -51l-10 -51q-36 0 -102.5 5t-102.5 5t-102.5 -5t-102.5 -5zM352 584h391l-65 604zM420 1546q1 1 16.5 18t21 22.5t22.5 23t26 25.5t26 23.5t28.5 23.5t27.5 19t29 16.5t27.5 9.5t27.5 4q42 0 134 -44.5t142 -44.5q67 0 158 95 l27 -27q-30 -32 -39 -42t-45 -44.5t-58.5 -50.5t-54 -31.5t-55.5 -15.5q-43 0 -135 44t-142 44q-68 0 -158 -94z" />
<glyph unicode="&#xc4;" horiz-adv-x="1177" d="M-150 0l11 51q26 6 40 10.5t34 14.5t38 26q39 33 133 195l437 778q111 197 127 256q98 11 149 21q0 -71 31 -297l113 -840q11 -78 34 -106q37 -43 115 -58l-14 -51q-41 0 -123 5t-123 5t-118 -5t-118 -5l11 51q61 8 93.5 19.5t49.5 35.5t17.5 78.5t-5.5 81.5l-26 242 h-443l-131 -242q-69 -128 -51 -164q17 -37 139 -51l-10 -51q-36 0 -102.5 5t-102.5 5t-102.5 -5t-102.5 -5zM352 584h391l-65 604zM502 1618q0 49 36 84t87 35q41 0 66.5 -28t25.5 -71q0 -49 -36 -83.5t-87 -34.5q-41 0 -66.5 27.5t-25.5 70.5zM860 1618q0 49 36 84t87 35 q41 0 66.5 -28t25.5 -71q0 -49 -36 -83.5t-87 -34.5q-41 0 -66.5 27.5t-25.5 70.5z" />
<glyph unicode="&#xc5;" horiz-adv-x="1177" d="M-150 0l11 51q26 6 40 10.5t34 14.5t38 26q39 33 133 195l437 778q111 197 127 256q98 11 149 21q0 -71 31 -297l113 -840q11 -78 34 -106q37 -43 115 -58l-14 -51q-41 0 -123 5t-123 5t-118 -5t-118 -5l11 51q61 8 93.5 19.5t49.5 35.5t17.5 78.5t-5.5 81.5l-26 242 h-443l-131 -242q-69 -128 -51 -164q17 -37 139 -51l-10 -51q-36 0 -102.5 5t-102.5 5t-102.5 -5t-102.5 -5zM352 584h391l-65 604zM614 1612q0 84 62.5 142t148.5 58q74 0 117 -47.5t43 -119.5q0 -84 -62.5 -142.5t-148.5 -58.5q-74 0 -117 48t-43 120zM692 1618 q0 -45 26.5 -71.5t65.5 -26.5q53 0 88 35.5t35 82.5q0 45 -26.5 72t-65.5 27q-52 0 -87.5 -36t-35.5 -83z" />
<glyph unicode="&#xc6;" horiz-adv-x="1812" d="M-154 0l11 51q90 9 153 51q59 40 185 205l645 840q57 73 57 102q0 15 -32 26t-77 11l11 51q51 0 163.5 -5t163.5 -5q102 0 328 3t328 3l-45 -295l-41 -10q-4 20 -10.5 52t-9.5 45.5t-9.5 36.5t-11.5 31.5t-15 22.5t-21 18.5t-28 11t-37.5 8t-48.5 1.5h-239 q-44 0 -56 -12.5t-20 -54.5l-86 -467l207 10q70 3 104 16t55.5 46.5t42.5 107.5h50q-5 -23 -24 -102.5t-26 -122.5q-11 -66 -32 -232h-49v45t-1 36.5t-2.5 31.5t-5 24t-8.5 21t-13 14.5t-18 12t-24.5 7.5t-31 6.5t-38.5 2.5l-198 10l-62 -348q-28 -168 -22 -184 q7 -20 23.5 -30.5t58.5 -10.5h221q54 0 99.5 13.5t79 35.5t65.5 59.5t55.5 75t52.5 92.5l47 -20l-127 -346q-461 18 -688 18q-44 0 -123 -5t-123 -5l10 51q95 6 140 51q14 14 25.5 45t16.5 56.5t13 72.5l70 379l-361 4l-287 -383q-92 -119 -92 -157q0 -19 6.5 -30t37 -22 t89.5 -16l-10 -51q-42 0 -121 5t-114 5t-109.5 -5t-116.5 -5zM608 719l326 2l98 539h-20z" />
<glyph unicode="&#xc7;" horiz-adv-x="1208" d="M72 553q0 103 22 198t55.5 166.5t80 135t90 105.5t90.5 75q98 70 214.5 102.5t215.5 32.5q102 0 207 -29.5t182 -99.5l-66 -297l-47 -6q2 31 2 45q0 78 -20.5 138t-50.5 93t-71.5 54t-77 27.5t-73.5 6.5q-187 0 -344 -157q-91 -91 -151 -253t-60 -358q0 -143 34.5 -249.5 t114.5 -172t199 -65.5q71 0 133.5 21t107 52.5t86 80.5t68 93.5t56.5 102.5l47 -24l-127 -299q-149 -103 -385 -103l-112 -102q65 16 137 -4q125 -35 125 -150q0 -68 -62 -116t-184 -48q-36 0 -77 7.5t-64 15.5l-23 8l-104 72l26 37q101 -68 199 -68q145 0 145 96 q0 83 -108 99q-18 3 -41 3t-37 -1l-14 -2l-21 41l154 114q-219 20 -345 175.5t-126 406.5z" />
<glyph unicode="&#xc8;" horiz-adv-x="1105" d="M-61 0l10 51q92 6 137 51q34 34 57 174l144 799q24 123 6 156q-14 26 -42 39t-87 16l10 51q43 0 121.5 -5t118.5 -5q102 0 330 3t331 3l-45 -295l-41 -10q-4 20 -10.5 52t-9.5 46t-9 36t-11.5 31t-15 23t-20.5 18.5t-28 11t-37.5 8t-48.5 1.5h-246q-43 0 -55.5 -12.5 t-20.5 -54.5l-86 -467l201 10q111 6 147.5 34.5t67.5 135.5h49q-35 -145 -49 -225q-18 -104 -33 -232h-49q0 47 -1 70.5t-5.5 50t-13 37.5t-26 22t-41 15t-60.5 6l-197 10l-64 -348q-27 -164 -20 -184t23.5 -30.5t58.5 -10.5h225q54 0 99.5 13.5t79 35.5t65.5 59.5t55.5 75 t52.5 92.5l48 -20l-127 -346q-461 18 -693 18q-43 0 -122 -5t-123 -5zM492 1745q0 25 21.5 46t53.5 21q22 0 38 -14.5t23.5 -30.5t16.5 -43l88 -264l-26 -16l-185 229q-30 38 -30 72z" />
<glyph unicode="&#xc9;" horiz-adv-x="1105" d="M-61 0l10 51q92 6 137 51q34 34 57 174l144 799q24 123 6 156q-14 26 -42 39t-87 16l10 51q43 0 121.5 -5t118.5 -5q102 0 330 3t331 3l-45 -295l-41 -10q-4 20 -10.5 52t-9.5 46t-9 36t-11.5 31t-15 23t-20.5 18.5t-28 11t-37.5 8t-48.5 1.5h-246q-43 0 -55.5 -12.5 t-20.5 -54.5l-86 -467l201 10q111 6 147.5 34.5t67.5 135.5h49q-35 -145 -49 -225q-18 -104 -33 -232h-49q0 47 -1 70.5t-5.5 50t-13 37.5t-26 22t-41 15t-60.5 6l-197 10l-64 -348q-27 -164 -20 -184t23.5 -30.5t58.5 -10.5h225q54 0 99.5 13.5t79 35.5t65.5 59.5t55.5 75 t52.5 92.5l48 -20l-127 -346q-461 18 -693 18q-43 0 -122 -5t-123 -5zM608 1464l180 277q19 28 26.5 37.5t26 21.5t40.5 12q32 0 49.5 -19.5t17.5 -45.5q0 -39 -37 -68l-280 -235z" />
<glyph unicode="&#xca;" horiz-adv-x="1105" d="M-61 0l10 51q92 6 137 51q34 34 57 174l144 799q24 123 6 156q-14 26 -42 39t-87 16l10 51q43 0 121.5 -5t118.5 -5q102 0 330 3t331 3l-45 -295l-41 -10q-4 20 -10.5 52t-9.5 46t-9 36t-11.5 31t-15 23t-20.5 18.5t-28 11t-37.5 8t-48.5 1.5h-246q-43 0 -55.5 -12.5 t-20.5 -54.5l-86 -467l201 10q111 6 147.5 34.5t67.5 135.5h49q-35 -145 -49 -225q-18 -104 -33 -232h-49q0 47 -1 70.5t-5.5 50t-13 37.5t-26 22t-41 15t-60.5 6l-197 10l-64 -348q-27 -164 -20 -184t23.5 -30.5t58.5 -10.5h225q54 0 99.5 13.5t79 35.5t65.5 59.5t55.5 75 t52.5 92.5l48 -20l-127 -346q-461 18 -693 18q-43 0 -122 -5t-123 -5zM410 1464l245 271q4 5 17.5 21t20 22t18.5 16t24 14t27 4q62 0 82 -75l84 -277l-27 -16l-158 242l-313 -242z" />
<glyph unicode="&#xcb;" horiz-adv-x="1105" d="M-61 0l10 51q92 6 137 51q34 34 57 174l144 799q24 123 6 156q-14 26 -42 39t-87 16l10 51q43 0 121.5 -5t118.5 -5q102 0 330 3t331 3l-45 -295l-41 -10q-4 20 -10.5 52t-9.5 46t-9 36t-11.5 31t-15 23t-20.5 18.5t-28 11t-37.5 8t-48.5 1.5h-246q-43 0 -55.5 -12.5 t-20.5 -54.5l-86 -467l201 10q111 6 147.5 34.5t67.5 135.5h49q-35 -145 -49 -225q-18 -104 -33 -232h-49q0 47 -1 70.5t-5.5 50t-13 37.5t-26 22t-41 15t-60.5 6l-197 10l-64 -348q-27 -164 -20 -184t23.5 -30.5t58.5 -10.5h225q54 0 99.5 13.5t79 35.5t65.5 59.5t55.5 75 t52.5 92.5l48 -20l-127 -346q-461 18 -693 18q-43 0 -122 -5t-123 -5zM426 1618q0 49 36 84t87 35q41 0 66.5 -28t25.5 -71q0 -49 -36 -83.5t-87 -34.5q-41 0 -66.5 27.5t-25.5 70.5zM784 1618q0 49 36 84t87 35q41 0 66.5 -28t25.5 -71q0 -49 -35.5 -83.5t-86.5 -34.5 q-41 0 -67 27.5t-26 70.5z" />
<glyph unicode="&#xcc;" horiz-adv-x="593" d="M-63 0l10 51q94 6 139 51q15 15 25.5 43.5t15.5 53t14 77.5l144 799q24 123 6 156q-14 26 -42 39t-87 16l10 51q45 0 123.5 -4t118.5 -4t118 4t123 4l-10 -51q-53 -3 -81 -13t-52 -34q-21 -21 -32.5 -59.5t-22.5 -104.5l-150 -819q-7 -40 -9.5 -62t-1 -50t10.5 -42 q29 -46 133 -51l-10 -51q-44 0 -124 5t-124 5t-123 -5t-122 -5zM250 1747q0 25 22.5 46.5t55.5 21.5q30 0 47.5 -24t30.5 -65l86 -264l-25 -16l-184 229q-33 42 -33 72z" />
<glyph unicode="&#xcd;" horiz-adv-x="593" d="M-63 0l10 51q94 6 139 51q15 15 25.5 43.5t15.5 53t14 77.5l144 799q24 123 6 156q-14 26 -42 39t-87 16l10 51q45 0 123.5 -4t118.5 -4t118 4t123 4l-10 -51q-53 -3 -81 -13t-52 -34q-21 -21 -32.5 -59.5t-22.5 -104.5l-150 -819q-7 -40 -9.5 -62t-1 -50t10.5 -42 q29 -46 133 -51l-10 -51q-44 0 -124 5t-124 5t-123 -5t-122 -5zM362 1466l181 277q2 3 8.5 12.5t8.5 12.5t8 11t9 10.5t9 8t10.5 7.5t11 5t13 4t14.5 1q32 0 49.5 -20t17.5 -46q0 -40 -36 -68l-281 -235z" />
<glyph unicode="&#xce;" horiz-adv-x="593" d="M-63 0l10 51q94 6 139 51q15 15 25.5 43.5t15.5 53t14 77.5l144 799q24 123 6 156q-14 26 -42 39t-87 16l10 51q45 0 123.5 -4t118.5 -4t118 4t123 4l-10 -51q-53 -3 -81 -13t-52 -34q-21 -21 -32.5 -59.5t-22.5 -104.5l-150 -819q-7 -40 -9.5 -62t-1 -50t10.5 -42 q29 -46 133 -51l-10 -51q-44 0 -124 5t-124 5t-123 -5t-122 -5zM164 1466l246 271l17.5 21t19.5 22t18 17t23.5 14t27.5 4q61 0 82 -76l84 -277l-27 -16l-157 242l-314 -242z" />
<glyph unicode="&#xcf;" horiz-adv-x="593" d="M-63 0l10 51q94 6 139 51q15 15 25.5 43.5t15.5 53t14 77.5l144 799q24 123 6 156q-14 26 -42 39t-87 16l10 51q45 0 123.5 -4t118.5 -4t118 4t123 4l-10 -51q-53 -3 -81 -13t-52 -34q-21 -21 -32.5 -59.5t-22.5 -104.5l-150 -819q-7 -40 -9.5 -62t-1 -50t10.5 -42 q29 -46 133 -51l-10 -51q-44 0 -124 5t-124 5t-123 -5t-122 -5zM184 1620q0 49 36 84t87 35q41 0 66.5 -28t25.5 -71q0 -49 -36 -83.5t-87 -34.5q-41 0 -66.5 27.5t-25.5 70.5zM543 1620q0 49 36 84t87 35q41 0 66.5 -28t25.5 -71q0 -49 -36 -83.5t-87 -34.5 q-41 0 -66.5 27.5t-25.5 70.5z" />
<glyph unicode="&#xd0;" horiz-adv-x="1341" d="M-61 0l10 51q92 6 137 51q15 15 26 45t16.5 54t14.5 75l66 361h-166l20 102h164l60 336q25 126 6 158q-17 27 -45.5 38.5t-83.5 14.5l10 51q43 0 121.5 -5t118.5 -5q32 0 140 4t194 4q187 0 317 -86q205 -136 205 -471q0 -110 -27.5 -214.5t-74 -186t-101.5 -144.5 t-115 -104q-182 -129 -430 -129q-54 0 -182 5t-166 5q-41 0 -117.5 -5t-117.5 -5zM294.5 134.5q0.5 -14.5 2.5 -21.5q8 -25 33 -36t90 -11h123q188 0 327 139q79 79 139 243.5t60 370.5q0 229 -82.5 340t-269.5 111h-154q-46 0 -61.5 -13t-22.5 -59l-84 -459h223l-20 -102 h-221l-60 -330q-1 -8 -5.5 -32.5t-6.5 -38.5t-5 -36.5t-4.5 -36.5t-1 -28.5z" />
<glyph unicode="&#xd1;" horiz-adv-x="1392" d="M-63 0l10 51q92 6 137 51q7 7 14 20.5t11.5 26.5t9.5 35.5t7.5 35t7.5 40t7 37.5l133 727q2 9 6.5 35.5t6.5 38.5t4.5 34t2.5 35t-2 27.5t-7 24.5q-15 30 -47.5 44.5t-96.5 22.5l11 51q30 0 87 -5t87 -5q61 0 163 10q39 -98 86 -190l447 -881l143 809q8 51 11 70.5t3 47 t-8 42.5q-25 51 -137 51l10 51q40 0 107 -4t102 -4t103 4t108 4l-10 -51q-53 -3 -81 -13t-52 -34q-34 -34 -55 -164l-144 -788q-45 -257 -47 -301l-65 -17q-43 43 -129 215l-486 969l-159 -887q-1 -9 -5.5 -32t-6.5 -37t-3.5 -33.5t0.5 -34.5t8 -27q15 -27 52.5 -37 t97.5 -14l-10 -51q-42 0 -109 5t-102 5t-108 -5t-113 -5zM481 1548q1 1 16.5 18t21 22.5t22.5 23t26 25.5t26 23.5t28.5 23.5t27.5 19t29 16.5t27.5 9.5t27.5 4q41 0 134 -44t143 -44q67 0 157 94l27 -27q-88 -95 -134 -131q-69 -53 -118 -53q-43 0 -134.5 44t-141.5 44 q-68 0 -158 -94z" />
<glyph unicode="&#xd2;" horiz-adv-x="1351" d="M72 557q0 153 55 299.5t148.5 259.5t228.5 182.5t284 69.5q101 0 183 -31t139 -85t95.5 -129.5t56.5 -161.5t18 -183q0 -152 -55 -299t-149 -259.5t-229 -181.5t-284 -69q-124 0 -220 47t-154 129t-87.5 186t-29.5 226zM270 528q0 -235 79.5 -359t228.5 -124 q176 0 303 143q76 85 137 250t61 377q0 235 -78 358t-227 123q-176 0 -303 -143q-47 -53 -89.5 -133t-77 -213.5t-34.5 -278.5zM563 1745q0 25 22 46t54 21q22 0 38 -14.5t23.5 -30.5t16.5 -43l88 -264l-27 -16l-184 229q-31 40 -31 72z" />
<glyph unicode="&#xd3;" horiz-adv-x="1351" d="M72 557q0 153 55 299.5t148.5 259.5t228.5 182.5t284 69.5q101 0 183 -31t139 -85t95.5 -129.5t56.5 -161.5t18 -183q0 -152 -55 -299t-149 -259.5t-229 -181.5t-284 -69q-124 0 -220 47t-154 129t-87.5 186t-29.5 226zM270 528q0 -235 79.5 -359t228.5 -124 q176 0 303 143q76 85 137 250t61 377q0 235 -78 358t-227 123q-176 0 -303 -143q-47 -53 -89.5 -133t-77 -213.5t-34.5 -278.5zM762 1464l180 277q20 30 26.5 38.5t25 20.5t40.5 12q32 0 50 -20t18 -45q0 -39 -37 -68l-281 -235z" />
<glyph unicode="&#xd4;" horiz-adv-x="1351" d="M72 557q0 153 55 299.5t148.5 259.5t228.5 182.5t284 69.5q101 0 183 -31t139 -85t95.5 -129.5t56.5 -161.5t18 -183q0 -152 -55 -299t-149 -259.5t-229 -181.5t-284 -69q-124 0 -220 47t-154 129t-87.5 186t-29.5 226zM270 528q0 -235 79.5 -359t228.5 -124 q176 0 303 143q76 85 137 250t61 377q0 235 -78 358t-227 123q-176 0 -303 -143q-47 -53 -89.5 -133t-77 -213.5t-34.5 -278.5zM512 1464l246 271l17.5 21t19 22t18.5 16.5t24 13.5t27 4q62 0 82 -75l84 -277l-26 -16l-158 242l-314 -242z" />
<glyph unicode="&#xd5;" horiz-adv-x="1351" d="M72 557q0 153 55 299.5t148.5 259.5t228.5 182.5t284 69.5q101 0 183 -31t139 -85t95.5 -129.5t56.5 -161.5t18 -183q0 -152 -55 -299t-149 -259.5t-229 -181.5t-284 -69q-124 0 -220 47t-154 129t-87.5 186t-29.5 226zM270 528q0 -235 79.5 -359t228.5 -124 q176 0 303 143q76 85 137 250t61 377q0 235 -78 358t-227 123q-176 0 -303 -143q-47 -53 -89.5 -133t-77 -213.5t-34.5 -278.5zM498 1546q3 3 19 20.5t23.5 25.5t25 26t29 28t29.5 25.5t32 24t30.5 18t32 13.5t29.5 4q42 0 134.5 -44.5t141.5 -44.5q69 0 160 95l24 -27 q-89 -96 -135 -132q-68 -52 -115 -52q-43 0 -135 44t-141 44q-70 0 -160 -94z" />
<glyph unicode="&#xd6;" horiz-adv-x="1351" d="M72 557q0 153 55 299.5t148.5 259.5t228.5 182.5t284 69.5q101 0 183 -31t139 -85t95.5 -129.5t56.5 -161.5t18 -183q0 -152 -55 -299t-149 -259.5t-229 -181.5t-284 -69q-124 0 -220 47t-154 129t-87.5 186t-29.5 226zM270 528q0 -235 79.5 -359t228.5 -124 q176 0 303 143q76 85 137 250t61 377q0 235 -78 358t-227 123q-176 0 -303 -143q-47 -53 -89.5 -133t-77 -213.5t-34.5 -278.5zM553 1618q0 49 36 84t87 35q41 0 66.5 -28t25.5 -71q0 -49 -36 -83.5t-87 -34.5q-41 0 -66.5 27.5t-25.5 70.5zM911 1618q0 49 36 84t87 35 q41 0 66.5 -28t25.5 -71q0 -49 -35.5 -83.5t-86.5 -34.5q-41 0 -67 27.5t-26 70.5z" />
<glyph unicode="&#xd7;" horiz-adv-x="1024" d="M137 152l309 309l-307 307l66 66l307 -308l309 310l66 -66l-309 -309l307 -307l-66 -66l-307 307l-309 -309z" />
<glyph unicode="&#xd8;" horiz-adv-x="1351" d="M-51 25l196 188q-73 146 -73 344q0 153 55 300t148.5 260t228.5 182t284 69q248 0 379 -182l189 182l47 -57l-197 -189q74 -148 74 -344q0 -152 -55 -299t-149 -259.5t-229 -181.5t-284 -69q-249 0 -379 181l-188 -181zM270 528q0 -92 17 -182l760 725q-70 225 -273 225 q-176 0 -303 -143q-76 -86 -138.5 -251.5t-62.5 -373.5zM305 266q73 -221 273 -221q176 0 303 143q75 84 136.5 251.5t61.5 375.5q0 97 -12 176z" />
<glyph unicode="&#xd9;" horiz-adv-x="1372" d="M139 1284l11 51q45 0 123 -4t118 -4q41 0 121 4t121 4l-10 -51q-53 -3 -81.5 -13t-52.5 -34q-34 -34 -55 -164l-92 -516q-23 -130 -23 -201q0 -121 48 -184q70 -92 245 -92q113 0 183 26.5t129 100.5q38 47 67.5 126.5t41 131.5t24.5 127l88 481q23 125 6 156 q-14 26 -42 39t-87 16l10 51q40 0 104 -4t103 -4t103 4t102 4l-14 -51q-53 -3 -81.5 -13t-52.5 -34q-21 -21 -32.5 -59.5t-22.5 -104.5l-92 -512q-58 -322 -191 -455q-139 -139 -372 -139q-211 0 -328 103q-108 95 -108 266q0 114 30 287l82 450q23 125 6 156 q-14 26 -41.5 38.5t-87.5 16.5zM614 1745q0 25 22 46t54 21q22 0 38 -14.5t23.5 -30.5t16.5 -43l88 -264l-27 -16l-184 229q-31 40 -31 72z" />
<glyph unicode="&#xda;" horiz-adv-x="1372" d="M139 1284l11 51q45 0 123 -4t118 -4q41 0 121 4t121 4l-10 -51q-53 -3 -81.5 -13t-52.5 -34q-34 -34 -55 -164l-92 -516q-23 -130 -23 -201q0 -121 48 -184q70 -92 245 -92q113 0 183 26.5t129 100.5q38 47 67.5 126.5t41 131.5t24.5 127l88 481q23 125 6 156 q-14 26 -42 39t-87 16l10 51q40 0 104 -4t103 -4t103 4t102 4l-14 -51q-53 -3 -81.5 -13t-52.5 -34q-21 -21 -32.5 -59.5t-22.5 -104.5l-92 -512q-58 -322 -191 -455q-139 -139 -372 -139q-211 0 -328 103q-108 95 -108 266q0 114 30 287l82 450q23 125 6 156 q-14 26 -41.5 38.5t-87.5 16.5zM762 1464l180 277q20 30 26.5 38.5t25 20.5t40.5 12q32 0 50 -20t18 -45q0 -39 -37 -68l-281 -235z" />
<glyph unicode="&#xdb;" horiz-adv-x="1372" d="M139 1284l11 51q45 0 123 -4t118 -4q41 0 121 4t121 4l-10 -51q-53 -3 -81.5 -13t-52.5 -34q-34 -34 -55 -164l-92 -516q-23 -130 -23 -201q0 -121 48 -184q70 -92 245 -92q113 0 183 26.5t129 100.5q38 47 67.5 126.5t41 131.5t24.5 127l88 481q23 125 6 156 q-14 26 -42 39t-87 16l10 51q40 0 104 -4t103 -4t103 4t102 4l-14 -51q-53 -3 -81.5 -13t-52.5 -34q-21 -21 -32.5 -59.5t-22.5 -104.5l-92 -512q-58 -322 -191 -455q-139 -139 -372 -139q-211 0 -328 103q-108 95 -108 266q0 114 30 287l82 450q23 125 6 156 q-14 26 -41.5 38.5t-87.5 16.5zM584 1464l245 271q4 5 17.5 21t20 22t18.5 16t24 14t27 4q62 0 82 -75l84 -277l-27 -16l-157 242l-314 -242z" />
<glyph unicode="&#xdc;" horiz-adv-x="1372" d="M139 1284l11 51q45 0 123 -4t118 -4q41 0 121 4t121 4l-10 -51q-53 -3 -81.5 -13t-52.5 -34q-34 -34 -55 -164l-92 -516q-23 -130 -23 -201q0 -121 48 -184q70 -92 245 -92q113 0 183 26.5t129 100.5q38 47 67.5 126.5t41 131.5t24.5 127l88 481q23 125 6 156 q-14 26 -42 39t-87 16l10 51q40 0 104 -4t103 -4t103 4t102 4l-14 -51q-53 -3 -81.5 -13t-52.5 -34q-21 -21 -32.5 -59.5t-22.5 -104.5l-92 -512q-58 -322 -191 -455q-139 -139 -372 -139q-211 0 -328 103q-108 95 -108 266q0 114 30 287l82 450q23 125 6 156 q-14 26 -41.5 38.5t-87.5 16.5zM567 1618q0 49 36.5 84t86.5 35q42 0 67 -27.5t25 -71.5h2q0 -49 -36 -83.5t-86 -34.5q-42 0 -68.5 27.5t-26.5 70.5zM926 1618q0 49 36.5 84t86.5 35q42 0 68 -28t26 -71q0 -49 -36.5 -83.5t-86.5 -34.5q-42 0 -68 27.5t-26 70.5z" />
<glyph unicode="&#xdd;" horiz-adv-x="1105" d="M72 1286l10 51q44 0 115.5 -4t115.5 -4t128.5 4t127.5 4l-10 -51q-115 -10 -139 -47q-5 -7 -6 -19.5t0 -24t5 -28t7 -26.5t8 -26t6 -19l138 -441l313 430q80 112 72 144q-11 46 -119 57l10 51q40 0 108 -4t103 -4t98 4t103 4l-13 -51q-81 -13 -123 -43q-38 -28 -118 -131 l-402 -528l-59 -328q-7 -40 -9.5 -62t-1 -50t10.5 -42q16 -25 46.5 -36.5t96.5 -14.5l-10 -51q-46 0 -128 5t-128 5t-128 -5t-128 -5l10 51q60 4 93 15.5t57 35.5q15 15 25.5 43.5t15.5 53t14 77.5l53 291l-176 529q-40 114 -76 143q-54 40 -116 47zM618 1466l181 277 q2 3 8.5 12.5t8.5 12.5t8 11t9 10.5t9 8t10.5 7.5t11 5t13 4t14.5 1q32 0 49.5 -20t17.5 -46q0 -40 -36 -68l-281 -235z" />
<glyph unicode="&#xde;" horiz-adv-x="1030" d="M-63 0l10 51q94 6 139 51q15 15 25.5 43.5t15.5 53t14 77.5l144 799q23 125 6 156q-14 26 -42 39t-87 16l10 51q45 0 123.5 -4t118.5 -4t118 4t123 4l-10 -51q-53 -3 -81 -13t-52 -34q-31 -31 -55 -154q96 7 168 7q79 0 147 -19.5t122 -58.5t85 -104.5t31 -151.5 q0 -107 -60 -202.5t-164.5 -154.5t-226.5 -59q-88 0 -156 37l21 47q44 -23 121 -23q55 0 101 21t78 56.5t55 82.5t33.5 99.5t10.5 107.5q0 129 -80 191.5t-211 62.5q-54 0 -71 -9t-23 -40l-131 -719q-7 -40 -9.5 -62t-1 -50t10.5 -42q16 -25 47 -36.5t97 -14.5l-11 -51 q-44 0 -129 5t-129 5t-123 -5t-122 -5z" />
<glyph unicode="&#xdf;" horiz-adv-x="983" d="M-225 -420q0 40 30 64.5t82 17.5q-10 -21 -10 -41q0 -18 10.5 -32.5t34.5 -14.5q29 0 52 32t46 107q28 93 72 318l154 792h-166l8 47l178 52l31 133q47 198 174 317q153 144 358 144q111 0 182 -59.5t64 -156.5q-3 -38 -19 -72.5t-44 -64.5t-49 -48.5t-54 -42t-39 -28.5 q-1 -1 -20 -16t-24 -19t-22.5 -20t-24.5 -24.5t-20.5 -25.5t-19.5 -30.5t-12.5 -31.5t-9.5 -37q-15 -93 103 -282q6 -11 9 -15q93 -153 93 -246q0 -65 -26.5 -125t-66.5 -100q-99 -99 -235 -99q-85 0 -140 45.5t-55 114.5q0 60 34.5 86.5t68.5 26.5q27 0 49 -18.5t22 -53.5 q-30 -15 -30 -51q0 -10 3.5 -21.5t12 -26.5t29.5 -24.5t51 -9.5q66 0 107.5 48.5t41.5 125.5q0 36 -15.5 81.5t-28 69.5t-44.5 78.5t-34 57.5q-28 49 -43 81.5t-26.5 93t-2.5 122.5q5 32 20.5 64t34 55.5t44.5 49t43 39t39 30t24 18.5q113 91 133 205q16 88 -24.5 144 t-129.5 56q-143 0 -235 -149q-34 -56 -62.5 -136.5t-60.5 -242.5l-113 -553q-89 -446 -184 -635q-57 -113 -123.5 -179.5t-132.5 -66.5q-39 0 -65.5 22.5t-26.5 59.5z" />
<glyph unicode="&#xe0;" horiz-adv-x="983" d="M45 205q0 140 72 303.5t184 269.5q107 99 184.5 131.5t165.5 32.5q44 0 84.5 -9t58.5 -19l19 -9l72 37l16 -10q-20 -68 -59.5 -219t-69.5 -268l-29 -117q-32 -125 -32 -164q0 -25 7.5 -36t29.5 -11q26 0 72 37.5t106 117.5l32 -26q-93 -143 -175 -207t-144 -64 q-96 0 -96 117q0 49 22 129.5t70 224.5q-69 -126 -154 -241q-171 -230 -266 -230q-80 0 -125 50.5t-45 179.5zM219 266q0 -153 72 -153q18 0 36 9t42.5 34.5t40.5 45t51 64.5q53 68 113.5 161.5t91.5 156.5l61 219q-30 16 -102 26q-51 7 -78 7q-45 0 -80 -17t-77.5 -65 t-78.5 -119q-37 -78 -64.5 -186t-27.5 -183zM461 1346q0 25 22 46t54 21q22 0 38 -14.5t23 -30t16 -43.5l88 -264l-26 -17l-184 230q-31 40 -31 72z" />
<glyph unicode="&#xe1;" horiz-adv-x="983" d="M45 205q0 140 72 303.5t184 269.5q107 99 184.5 131.5t165.5 32.5q44 0 84.5 -9t58.5 -19l19 -9l72 37l16 -10q-20 -68 -59.5 -219t-69.5 -268l-29 -117q-32 -125 -32 -164q0 -25 7.5 -36t29.5 -11q26 0 72 37.5t106 117.5l32 -26q-93 -143 -175 -207t-144 -64 q-96 0 -96 117q0 49 22 129.5t70 224.5q-69 -126 -154 -241q-171 -230 -266 -230q-80 0 -125 50.5t-45 179.5zM219 266q0 -153 72 -153q18 0 36 9t42.5 34.5t40.5 45t51 64.5q53 68 113.5 161.5t91.5 156.5l61 219q-30 16 -102 26q-51 7 -78 7q-45 0 -80 -17t-77.5 -65 t-78.5 -119q-37 -78 -64.5 -186t-27.5 -183zM578 1065l180 276q2 3 8.5 12.5t8.5 12.5t8 11t9 10.5t9 8t10.5 7.5t11 5t13 4t14.5 1q32 0 50 -20t18 -45q0 -39 -37 -68l-281 -236z" />
<glyph unicode="&#xe2;" horiz-adv-x="983" d="M45 205q0 140 72 303.5t184 269.5q107 99 184.5 131.5t165.5 32.5q44 0 84.5 -9t58.5 -19l19 -9l72 37l16 -10q-20 -68 -59.5 -219t-69.5 -268l-29 -117q-32 -125 -32 -164q0 -25 7.5 -36t29.5 -11q26 0 72 37.5t106 117.5l32 -26q-93 -143 -175 -207t-144 -64 q-96 0 -96 117q0 49 22 129.5t70 224.5q-69 -126 -154 -241q-171 -230 -266 -230q-80 0 -125 50.5t-45 179.5zM219 266q0 -153 72 -153q18 0 36 9t42.5 34.5t40.5 45t51 64.5q53 68 113.5 161.5t91.5 156.5l61 219q-30 16 -102 26q-51 7 -78 7q-45 0 -80 -17t-77.5 -65 t-78.5 -119q-37 -78 -64.5 -186t-27.5 -183zM362 1065l246 270q5 5 23 25.5t26 28t25 16t35 8.5q61 0 82 -76l82 -276l-25 -17l-160 242l-311 -242z" />
<glyph unicode="&#xe3;" horiz-adv-x="983" d="M45 205q0 140 72 303.5t184 269.5q107 99 184.5 131.5t165.5 32.5q44 0 84.5 -9t58.5 -19l19 -9l72 37l16 -10q-20 -68 -59.5 -219t-69.5 -268l-29 -117q-32 -125 -32 -164q0 -25 7.5 -36t29.5 -11q26 0 72 37.5t106 117.5l32 -26q-93 -143 -175 -207t-144 -64 q-96 0 -96 117q0 49 22 129.5t70 224.5q-69 -126 -154 -241q-171 -230 -266 -230q-80 0 -125 50.5t-45 179.5zM219 266q0 -153 72 -153q18 0 36 9t42.5 34.5t40.5 45t51 64.5q53 68 113.5 161.5t91.5 156.5l61 219q-30 16 -102 26q-51 7 -78 7q-45 0 -80 -17t-77.5 -65 t-78.5 -119q-37 -78 -64.5 -186t-27.5 -183zM334 1147q1 2 27 31.5t37 41.5t38.5 37.5t46 37.5t43.5 23t47 11q46 0 128 -44t128 -44q28 0 59 18t43.5 31t45.5 47l27 -26q-4 -5 -34 -38.5t-47.5 -51t-47 -43.5t-57.5 -38t-54 -12q-46 0 -128 44.5t-128 44.5q-28 0 -59 -18 t-45 -32t-46 -47z" />
<glyph unicode="&#xe4;" horiz-adv-x="983" d="M45 205q0 140 72 303.5t184 269.5q107 99 184.5 131.5t165.5 32.5q44 0 84.5 -9t58.5 -19l19 -9l72 37l16 -10q-20 -68 -59.5 -219t-69.5 -268l-29 -117q-32 -125 -32 -164q0 -25 7.5 -36t29.5 -11q26 0 72 37.5t106 117.5l32 -26q-93 -143 -175 -207t-144 -64 q-96 0 -96 117q0 49 22 129.5t70 224.5q-69 -126 -154 -241q-171 -230 -266 -230q-80 0 -125 50.5t-45 179.5zM219 266q0 -153 72 -153q18 0 36 9t42.5 34.5t40.5 45t51 64.5q53 68 113.5 161.5t91.5 156.5l61 219q-30 16 -102 26q-51 7 -78 7q-45 0 -80 -17t-77.5 -65 t-78.5 -119q-37 -78 -64.5 -186t-27.5 -183zM379 1219q0 49 36 83.5t87 34.5q41 0 66.5 -27.5t25.5 -70.5q0 -49 -36 -84t-87 -35q-41 0 -66.5 28t-25.5 71zM737 1219q0 49 36 83.5t87 34.5q41 0 66.5 -27.5t25.5 -70.5q0 -49 -36 -84t-87 -35q-41 0 -66.5 28t-25.5 71z" />
<glyph unicode="&#xe5;" horiz-adv-x="983" d="M45 205q0 140 72 303.5t184 269.5q107 99 184.5 131.5t165.5 32.5q44 0 84.5 -9t58.5 -19l19 -9l72 37l16 -10q-20 -68 -59.5 -219t-69.5 -268l-29 -117q-32 -125 -32 -164q0 -25 7.5 -36t29.5 -11q26 0 72 37.5t106 117.5l32 -26q-93 -143 -175 -207t-144 -64 q-96 0 -96 117q0 49 22 129.5t70 224.5q-69 -126 -154 -241q-171 -230 -266 -230q-80 0 -125 50.5t-45 179.5zM219 266q0 -153 72 -153q18 0 36 9t42.5 34.5t40.5 45t51 64.5q53 68 113.5 161.5t91.5 156.5l61 219q-30 16 -102 26q-51 7 -78 7q-45 0 -80 -17t-77.5 -65 t-78.5 -119q-37 -78 -64.5 -186t-27.5 -183zM475 1212q0 84 62.5 142.5t148.5 58.5q74 0 117 -48t43 -120q0 -84 -62.5 -142.5t-148.5 -58.5q-74 0 -117 48t-43 120zM553 1219q0 -45 26.5 -72t65.5 -27q52 0 87.5 36t35.5 83q0 45 -26.5 71.5t-65.5 26.5q-53 0 -88 -35.5 t-35 -82.5z" />
<glyph unicode="&#xe6;" horiz-adv-x="1280" d="M45 205q0 141 71.5 304.5t184.5 268.5q108 100 184 132t170 32q127 0 219 -68q12 8 32 19.5t77 31t107 19.5q85 0 130.5 -38t45.5 -107q0 -153 -238 -277q-124 -67 -303 -102q-8 -41 -8 -113q0 -32 6.5 -62.5t22 -64t48.5 -54t80 -20.5q27 0 55 7.5t53 22t46 28.5 t43.5 35t35 33.5t30 32t20.5 22.5l35 -31l-172 -195q-3 -3 -9.5 -9t-29 -21t-48 -26t-66 -20.5t-83.5 -9.5q-114 0 -172.5 75.5t-58.5 215.5l4 62q-54 -72 -113 -158q-56 -81 -116.5 -138t-112.5 -57q-78 0 -124 51t-46 179zM219 266q0 -153 72 -153q13 0 26 5.5t22.5 13 t24.5 24.5t24.5 29t30 38.5t32.5 42.5q106 136 178 277q14 27 37 92.5t39 117.5l16 52q-30 14 -96 24q-51 7 -76 7q-49 0 -84 -17q-34 -17 -76 -64.5t-78 -119.5q-37 -78 -64.5 -186t-27.5 -183zM731 471q121 23 215 82q139 87 154 195q22 133 -70 133q-50 0 -101.5 -41 t-92.5 -103q-75 -114 -105 -266z" />
<glyph unicode="&#xe7;" horiz-adv-x="747" d="M-47 -307l20 31q35 -27 88 -47.5t103 -20.5q53 0 86 24.5t33 63.5q0 60 -68 82q-14 4 -34.5 6.5t-34.5 3.5h-13l-20 41l129 103q-197 29 -197 286q0 164 83.5 321.5t188.5 241.5q144 115 287 115q60 0 107 -34.5t47 -94.5t-34 -89.5t-79 -29.5q-35 0 -56.5 23t-21.5 49 q23 10 27 45q3 27 -14 42t-48 15q-86 0 -178 -112q-62 -75 -103.5 -188t-41.5 -242q0 -66 13 -112t37 -68.5t50 -32t60 -9.5q128 0 280 191l37 -31l-164 -194q-28 -31 -95 -64t-136 -33l-96 -94q65 8 122 -14q42 -16 67.5 -48t25.5 -79q0 -58 -53 -104t-152 -46 q-45 0 -88.5 10t-64.5 20l-21 11z" />
<glyph unicode="&#xe8;" horiz-adv-x="774" d="M45 266q0 270 180 482q82 97 176.5 146.5t182.5 49.5q84 0 129 -38t45 -107q0 -152 -236 -277q-126 -67 -305 -102q-8 -41 -8 -113q0 -31 7 -62.5t23 -64.5t49.5 -53.5t80.5 -20.5q32 0 65 11.5t57.5 26t54 39.5t43.5 39t36.5 39t23.5 26l37 -31l-174 -195q-3 -3 -9.5 -9 t-29 -21t-48 -26t-66 -20.5t-83.5 -9.5q-114 0 -172.5 75.5t-58.5 215.5zM223 471q123 23 217 82q139 87 154 195q18 133 -72 133q-50 0 -101.5 -41t-92.5 -103q-75 -114 -105 -266zM379 1346q0 25 22 46t54 21q22 0 38 -14.5t23 -30t16 -43.5l89 -264l-27 -17l-184 230 q-31 40 -31 72z" />
<glyph unicode="&#xe9;" horiz-adv-x="774" d="M45 266q0 270 180 482q82 97 176.5 146.5t182.5 49.5q84 0 129 -38t45 -107q0 -152 -236 -277q-126 -67 -305 -102q-8 -41 -8 -113q0 -31 7 -62.5t23 -64.5t49.5 -53.5t80.5 -20.5q32 0 65 11.5t57.5 26t54 39.5t43.5 39t36.5 39t23.5 26l37 -31l-174 -195q-3 -3 -9.5 -9 t-29 -21t-48 -26t-66 -20.5t-83.5 -9.5q-114 0 -172.5 75.5t-58.5 215.5zM223 471q123 23 217 82q139 87 154 195q18 133 -72 133q-50 0 -101.5 -41t-92.5 -103q-75 -114 -105 -266zM537 1065l180 276q2 3 8.5 12.5t8.5 12.5t8 11t9 10.5t9 8t10.5 7.5t11 5t13 4t14.5 1 q32 0 50 -20t18 -45q0 -39 -37 -68l-281 -236z" />
<glyph unicode="&#xea;" horiz-adv-x="774" d="M45 266q0 270 180 482q82 97 176.5 146.5t182.5 49.5q84 0 129 -38t45 -107q0 -152 -236 -277q-126 -67 -305 -102q-8 -41 -8 -113q0 -31 7 -62.5t23 -64.5t49.5 -53.5t80.5 -20.5q32 0 65 11.5t57.5 26t54 39.5t43.5 39t36.5 39t23.5 26l37 -31l-174 -195q-3 -3 -9.5 -9 t-29 -21t-48 -26t-66 -20.5t-83.5 -9.5q-114 0 -172.5 75.5t-58.5 215.5zM223 471q123 23 217 82q139 87 154 195q18 133 -72 133q-50 0 -101.5 -41t-92.5 -103q-75 -114 -105 -266zM311 1065l246 270q5 5 23 25.5t26 28t25 16t35 8.5q61 0 82 -76l81 -276l-24 -17l-160 242 l-311 -242z" />
<glyph unicode="&#xeb;" horiz-adv-x="774" d="M45 266q0 270 180 482q82 97 176.5 146.5t182.5 49.5q84 0 129 -38t45 -107q0 -152 -236 -277q-126 -67 -305 -102q-8 -41 -8 -113q0 -31 7 -62.5t23 -64.5t49.5 -53.5t80.5 -20.5q32 0 65 11.5t57.5 26t54 39.5t43.5 39t36.5 39t23.5 26l37 -31l-174 -195q-3 -3 -9.5 -9 t-29 -21t-48 -26t-66 -20.5t-83.5 -9.5q-114 0 -172.5 75.5t-58.5 215.5zM223 471q123 23 217 82q139 87 154 195q18 133 -72 133q-50 0 -101.5 -41t-92.5 -103q-75 -114 -105 -266zM332 1219q0 49 36 83.5t87 34.5q41 0 66.5 -27.5t25.5 -70.5q0 -49 -36 -84t-87 -35 q-41 0 -66.5 28t-25.5 71zM690 1219q0 49 36 83.5t87 34.5q41 0 66.5 -27.5t25.5 -70.5q0 -49 -36 -84t-87 -35q-41 0 -66.5 28t-25.5 71z" />
<glyph unicode="&#xec;" horiz-adv-x="552" d="M61 680q64 109 154 186.5t164 77.5q92 0 92 -94q0 -11 -1 -22t-4 -25t-5 -23.5t-7.5 -27.5t-8 -26.5t-9.5 -30t-10 -29.5l-113 -349q-37 -108 -37 -153q0 -26 6.5 -36.5t28.5 -10.5q61 0 181 155l30 -26q-63 -97 -125 -160.5t-107.5 -87t-84.5 -23.5q-99 0 -99 117 q0 17 3 38t5.5 36t10.5 41.5t11.5 37.5t14.5 43.5t13 39.5l82 256q1 2 17 54t25 86t9 48q0 25 -5 34t-20 9q-22 0 -70 -38.5t-110 -121.5zM178 1346q0 25 22.5 46t55.5 21q30 0 47.5 -23.5t30.5 -64.5l86 -264l-25 -17l-184 230q-33 42 -33 72z" />
<glyph unicode="&#xed;" horiz-adv-x="552" d="M61 680q64 109 154 186.5t164 77.5q92 0 92 -94q0 -11 -1 -22t-4 -25t-5 -23.5t-7.5 -27.5t-8 -26.5t-9.5 -30t-10 -29.5l-113 -349q-37 -108 -37 -153q0 -26 6.5 -36.5t28.5 -10.5q61 0 181 155l30 -26q-63 -97 -125 -160.5t-107.5 -87t-84.5 -23.5q-99 0 -99 117 q0 17 3 38t5.5 36t10.5 41.5t11.5 37.5t14.5 43.5t13 39.5l82 256q1 2 17 54t25 86t9 48q0 25 -5 34t-20 9q-22 0 -70 -38.5t-110 -121.5zM236 1065l178 276q16 25 25.5 37.5t27.5 23.5t39 11q33 0 50 -19.5t17 -45.5q0 -40 -36 -68l-281 -236z" />
<glyph unicode="&#xee;" horiz-adv-x="552" d="M61 680q64 109 154 186.5t164 77.5q92 0 92 -94q0 -11 -1 -22t-4 -25t-5 -23.5t-7.5 -27.5t-8 -26.5t-9.5 -30t-10 -29.5l-113 -349q-37 -108 -37 -153q0 -26 6.5 -36.5t28.5 -10.5q61 0 181 155l30 -26q-63 -97 -125 -160.5t-107.5 -87t-84.5 -23.5q-99 0 -99 117 q0 17 3 38t5.5 36t10.5 41.5t11.5 37.5t14.5 43.5t13 39.5l82 256q1 2 17 54t25 86t9 48q0 25 -5 34t-20 9q-22 0 -70 -38.5t-110 -121.5zM137 1065l246 270q5 5 23 25.5t26 28t25 16t35 8.5q60 0 81 -76l82 -276l-24 -17l-160 242l-311 -242z" />
<glyph unicode="&#xef;" horiz-adv-x="552" d="M61 680q64 109 154 186.5t164 77.5q92 0 92 -94q0 -11 -1 -22t-4 -25t-5 -23.5t-7.5 -27.5t-8 -26.5t-9.5 -30t-10 -29.5l-113 -349q-37 -108 -37 -153q0 -26 6.5 -36.5t28.5 -10.5q61 0 181 155l30 -26q-63 -97 -125 -160.5t-107.5 -87t-84.5 -23.5q-99 0 -99 117 q0 17 3 38t5.5 36t10.5 41.5t11.5 37.5t14.5 43.5t13 39.5l82 256q1 2 17 54t25 86t9 48q0 25 -5 34t-20 9q-22 0 -70 -38.5t-110 -121.5zM164 1219q0 49 36 83.5t87 34.5q41 0 66.5 -27.5t25.5 -70.5q0 -49 -36 -84t-87 -35q-41 0 -66.5 28t-25.5 71zM522 1219 q0 49 36 83.5t87 34.5q41 0 66.5 -27.5t25.5 -70.5q0 -49 -36 -84t-87 -35q-41 0 -66.5 28t-25.5 71z" />
<glyph unicode="&#xf0;" horiz-adv-x="880" d="M53 297q0 120 41.5 233.5t100.5 196.5q57 81 150.5 143t186.5 62q36 0 67 -13t43 -25l13 -13q-22 99 -80.5 207.5t-119.5 179.5l-199 -131l-37 55l195 129q-109 109 -219 164l30 51q49 -24 123.5 -70t134.5 -100l203 135l37 -57l-184 -121q144 -144 219 -330 q35 -87 52 -165.5t17 -192.5q0 -234 -125 -426q-65 -100 -161.5 -167t-206.5 -67q-72 0 -128 28t-88.5 75.5t-48.5 103t-16 115.5zM221 297q0 -54 4 -92t16 -77t38.5 -59t66.5 -20q120 0 211 164q45 81 72.5 200t27.5 216q0 42 -2 73t-9.5 64.5t-20.5 54.5t-36.5 35 t-56.5 14q-63 0 -113 -37t-95 -120q-46 -82 -74.5 -201t-28.5 -215z" />
<glyph unicode="&#xf1;" horiz-adv-x="1091" d="M61 680q64 109 154 186.5t164 77.5q92 0 92 -94q0 -52 -82 -318q26 42 91 121t124 135q164 156 277 156q62 0 87 -32t25 -72q0 -62 -45 -195l-108 -328q-37 -108 -37 -153q0 -25 7.5 -36t29.5 -11q26 0 72 37.5t106 117.5l33 -26q-92 -142 -174.5 -206.5t-143.5 -64.5 q-98 0 -98 117q0 15 1 30t5 33t6.5 30t9 35t9.5 32.5l12 38t12 37.5l92 286q35 107 41 154q5 26 -5.5 43.5t-39.5 17.5q-78 0 -215 -153q-39 -44 -104.5 -130.5t-89.5 -125.5l-117 -420l-160 -20l164 593q41 156 41 199q0 25 -5 34t-20 9q-22 0 -70 -38.5t-110 -121.5z M328 1147q4 5 34 38.5t47.5 51t47 43t57 37.5t53.5 12q46 0 128 -44t128 -44q28 0 58.5 17.5t46 32t45.5 46.5l26 -26q-3 -3 -34 -38t-48 -51.5t-47.5 -43t-58 -38.5t-53.5 -12q-46 0 -128 44.5t-128 44.5q-13 0 -25 -2.5t-24.5 -10t-21 -12t-22.5 -17t-18.5 -17 l-20.5 -20.5l-18 -18z" />
<glyph unicode="&#xf2;" horiz-adv-x="880" d="M51 297q0 114 41.5 228t102.5 200q62 87 161.5 153t206.5 66q70 0 123 -26.5t83.5 -73t45 -102t14.5 -119.5q0 -114 -42 -228t-103 -200q-62 -88 -161.5 -154t-205.5 -66q-70 0 -123 27t-83.5 73t-45 102t-14.5 120zM219 297q0 -53 4.5 -91.5t16.5 -77.5t39 -59t67 -20 q120 0 211 164q45 82 73.5 203.5t28.5 218.5q0 53 -4.5 91.5t-16.5 76.5t-39 58t-67 20q-62 0 -112 -39.5t-96 -124.5q-46 -83 -75.5 -204t-29.5 -216zM369 1346q0 25 21.5 46t53.5 21q22 0 38 -14.5t23.5 -30.5t16.5 -43l88 -264l-26 -17l-185 230q-30 38 -30 72z" />
<glyph unicode="&#xf3;" horiz-adv-x="880" d="M51 297q0 114 41.5 228t102.5 200q62 87 161.5 153t206.5 66q70 0 123 -26.5t83.5 -73t45 -102t14.5 -119.5q0 -114 -42 -228t-103 -200q-62 -88 -161.5 -154t-205.5 -66q-70 0 -123 27t-83.5 73t-45 102t-14.5 120zM219 297q0 -53 4.5 -91.5t16.5 -77.5t39 -59t67 -20 q120 0 211 164q45 82 73.5 203.5t28.5 218.5q0 53 -4.5 91.5t-16.5 76.5t-39 58t-67 20q-62 0 -112 -39.5t-96 -124.5q-46 -83 -75.5 -204t-29.5 -216zM516 1065l180 276q2 3 8.5 12.5t8.5 12.5t8 11t9 10.5t9 8t10.5 7.5t11 5t13 4t14.5 1q32 0 50 -20t18 -45 q0 -39 -37 -68l-280 -236z" />
<glyph unicode="&#xf4;" horiz-adv-x="880" d="M51 297q0 114 41.5 228t102.5 200q62 87 161.5 153t206.5 66q70 0 123 -26.5t83.5 -73t45 -102t14.5 -119.5q0 -114 -42 -228t-103 -200q-62 -88 -161.5 -154t-205.5 -66q-70 0 -123 27t-83.5 73t-45 102t-14.5 120zM219 297q0 -53 4.5 -91.5t16.5 -77.5t39 -59t67 -20 q120 0 211 164q45 82 73.5 203.5t28.5 218.5q0 53 -4.5 91.5t-16.5 76.5t-39 58t-67 20q-62 0 -112 -39.5t-96 -124.5q-46 -83 -75.5 -204t-29.5 -216zM301 1065l246 270q5 6 22.5 26t26 27.5t25 16t34.5 8.5q61 0 82 -76l82 -276l-24 -17l-160 242l-311 -242z" />
<glyph unicode="&#xf5;" horiz-adv-x="880" d="M51 297q0 114 41.5 228t102.5 200q62 87 161.5 153t206.5 66q70 0 123 -26.5t83.5 -73t45 -102t14.5 -119.5q0 -114 -42 -228t-103 -200q-62 -88 -161.5 -154t-205.5 -66q-70 0 -123 27t-83.5 73t-45 102t-14.5 120zM219 297q0 -53 4.5 -91.5t16.5 -77.5t39 -59t67 -20 q120 0 211 164q45 82 73.5 203.5t28.5 218.5q0 53 -4.5 91.5t-16.5 76.5t-39 58t-67 20q-62 0 -112 -39.5t-96 -124.5q-46 -83 -75.5 -204t-29.5 -216zM283 1147q1 2 27 31.5t37 41.5t38.5 37.5t46 37.5t43.5 23t47 11q46 0 128 -44t128 -44q28 0 59 18t43.5 31t45.5 47 l26 -26q-5 -6 -34 -39t-47 -51t-47 -43t-57 -37.5t-54 -12.5q-46 0 -128 44.5t-128 44.5q-28 0 -59 -18t-45 -32t-46 -47z" />
<glyph unicode="&#xf6;" horiz-adv-x="880" d="M51 297q0 114 41.5 228t102.5 200q62 87 161.5 153t206.5 66q70 0 123 -26.5t83.5 -73t45 -102t14.5 -119.5q0 -114 -42 -228t-103 -200q-62 -88 -161.5 -154t-205.5 -66q-70 0 -123 27t-83.5 73t-45 102t-14.5 120zM219 297q0 -53 4.5 -91.5t16.5 -77.5t39 -59t67 -20 q120 0 211 164q45 82 73.5 203.5t28.5 218.5q0 53 -4.5 91.5t-16.5 76.5t-39 58t-67 20q-62 0 -112 -39.5t-96 -124.5q-46 -83 -75.5 -204t-29.5 -216zM322 1219q0 49 35.5 83.5t86.5 34.5q41 0 67 -27.5t26 -70.5q0 -49 -36 -84t-87 -35q-41 0 -66.5 28t-25.5 71zM680 1219 q0 49 36 83.5t87 34.5q41 0 66.5 -27.5t25.5 -70.5q0 -49 -36 -84t-87 -35q-41 0 -66.5 28t-25.5 71z" />
<glyph unicode="&#xf7;" horiz-adv-x="1024" d="M51 420v88h922v-88h-922zM430 209q0 35 23.5 57.5t58.5 22.5q32 0 55 -23t23 -55q0 -33 -22.5 -59.5t-55.5 -26.5q-35 0 -58.5 24.5t-23.5 59.5zM430 723q0 35 23.5 57.5t58.5 22.5q32 0 55 -23t23 -55q0 -33 -22.5 -59.5t-55.5 -26.5q-35 0 -58.5 24.5t-23.5 59.5z" />
<glyph unicode="&#xf8;" horiz-adv-x="880" d="M-72 31l142 131q-19 68 -19 135q0 114 41.5 228t102.5 200q62 87 161.5 153t206.5 66q150 0 219 -121l129 119l41 -51l-141 -131q18 -65 18 -137q0 -114 -42 -228t-103 -200q-62 -88 -161.5 -154t-205.5 -66q-153 0 -221 123l-127 -118zM219 299l438 408 q-11 174 -125 174q-61 0 -110.5 -39.5t-97.5 -124.5q-45 -82 -75 -203t-30 -215zM221 215q15 -166 125 -166q63 0 113.5 39.5t97.5 124.5q44 79 72 195.5t30 212.5z" />
<glyph unicode="&#xf9;" horiz-adv-x="1054" d="M72 690q57 102 145.5 178t161.5 76q92 0 92 -94q0 -60 -61 -236l-72 -215q-51 -162 -55 -204q-6 -38 2.5 -60t42.5 -22q64 0 215 194q50 65 121 173.5t84 154.5l86 287l159 26l-174 -579q-51 -178 -51 -205q0 -26 6.5 -36.5t28.5 -10.5q61 0 180 155l31 -26 q-92 -142 -174.5 -206.5t-143.5 -64.5q-98 0 -98 117q0 17 4 40t8 41t13.5 48.5t13.5 43t16 46t13 37.5l41 119q-85 -141 -164 -242q-73 -93 -159.5 -171.5t-147.5 -78.5q-119 0 -119 138q0 91 67 286l72 215q39 125 41 154q3 47 -25 47q-23 0 -66 -33.5t-104 -115.5z M420 1346q0 25 22 46t54 21q22 0 38 -14.5t23 -30t16 -43.5l89 -264l-27 -17l-184 230q-31 40 -31 72z" />
<glyph unicode="&#xfa;" horiz-adv-x="1054" d="M72 690q57 102 145.5 178t161.5 76q92 0 92 -94q0 -60 -61 -236l-72 -215q-51 -162 -55 -204q-6 -38 2.5 -60t42.5 -22q64 0 215 194q50 65 121 173.5t84 154.5l86 287l159 26l-174 -579q-51 -178 -51 -205q0 -26 6.5 -36.5t28.5 -10.5q61 0 180 155l31 -26 q-92 -142 -174.5 -206.5t-143.5 -64.5q-98 0 -98 117q0 17 4 40t8 41t13.5 48.5t13.5 43t16 46t13 37.5l41 119q-85 -141 -164 -242q-73 -93 -159.5 -171.5t-147.5 -78.5q-119 0 -119 138q0 91 67 286l72 215q39 125 41 154q3 47 -25 47q-23 0 -66 -33.5t-104 -115.5z M567 1065l181 276q2 3 8.5 12.5t8.5 12.5t8 11t9 10.5t9 8t10.5 7.5t11 5t13 4t14.5 1q32 0 49.5 -19.5t17.5 -45.5q0 -39 -37 -68l-280 -236z" />
<glyph unicode="&#xfb;" horiz-adv-x="1054" d="M72 690q57 102 145.5 178t161.5 76q92 0 92 -94q0 -60 -61 -236l-72 -215q-51 -162 -55 -204q-6 -38 2.5 -60t42.5 -22q64 0 215 194q50 65 121 173.5t84 154.5l86 287l159 26l-174 -579q-51 -178 -51 -205q0 -26 6.5 -36.5t28.5 -10.5q61 0 180 155l31 -26 q-92 -142 -174.5 -206.5t-143.5 -64.5q-98 0 -98 117q0 17 4 40t8 41t13.5 48.5t13.5 43t16 46t13 37.5l41 119q-85 -141 -164 -242q-73 -93 -159.5 -171.5t-147.5 -78.5q-119 0 -119 138q0 91 67 286l72 215q39 125 41 154q3 47 -25 47q-23 0 -66 -33.5t-104 -115.5z M362 1065l246 270q5 5 23 25.5t26 28t25 16t35 8.5q61 0 82 -76l82 -276l-25 -17l-160 242l-311 -242z" />
<glyph unicode="&#xfc;" horiz-adv-x="1054" d="M72 690q57 102 145.5 178t161.5 76q92 0 92 -94q0 -60 -61 -236l-72 -215q-51 -162 -55 -204q-6 -38 2.5 -60t42.5 -22q64 0 215 194q50 65 121 173.5t84 154.5l86 287l159 26l-174 -579q-51 -178 -51 -205q0 -26 6.5 -36.5t28.5 -10.5q61 0 180 155l31 -26 q-92 -142 -174.5 -206.5t-143.5 -64.5q-98 0 -98 117q0 17 4 40t8 41t13.5 48.5t13.5 43t16 46t13 37.5l41 119q-85 -141 -164 -242q-73 -93 -159.5 -171.5t-147.5 -78.5q-119 0 -119 138q0 91 67 286l72 215q39 125 41 154q3 47 -25 47q-23 0 -66 -33.5t-104 -115.5z M379 1219q0 49 36 83.5t87 34.5q41 0 66.5 -27.5t25.5 -70.5q0 -49 -36 -84t-87 -35q-41 0 -66.5 28t-25.5 71zM737 1219q0 49 36 83.5t87 34.5q41 0 66.5 -27.5t25.5 -70.5q0 -49 -36 -84t-87 -35q-41 0 -66.5 28t-25.5 71z" />
<glyph unicode="&#xfd;" horiz-adv-x="860" d="M-133 -399q0 43 33 77.5t90 34.5q0 -16 1 -25t6.5 -21.5t18.5 -18.5t35 -6q80 0 154 102q65 89 82 195q3 17 4 45.5t0 68.5t-2 69.5t-3 78t-3 65.5q-2 28 -10 189.5t-11 199.5q0 5 -1 14q-3 33 -5.5 50t-7.5 40.5t-15 34.5t-24 11q-53 0 -143 -129l-35 24 q54 112 124.5 178t135.5 66q25 0 45 -9.5t33.5 -23.5t23 -38t14.5 -44t8.5 -52t4.5 -52t2 -53.5t2 -46.5q5 -90 7 -280t-1 -284q154 277 199 379q68 148 78 267q3 34 -1.5 86t1.5 77q7 44 33.5 68.5t58.5 24.5q34 0 58 -26t24 -77q0 -34 -15 -83t-29.5 -83t-48.5 -110 q-34 -75 -118.5 -226t-147.5 -256q-141 -235 -209 -327q-37 -49 -66.5 -85t-78 -86.5t-97 -78t-91.5 -27.5q-57 0 -85 30t-28 73zM526 1065l181 276q2 3 8.5 12.5t8.5 12.5t8 11t9 10.5t9 8t10.5 7.5t11 5t13 4t14.5 1q32 0 49.5 -19.5t17.5 -45.5q0 -39 -37 -68l-280 -236z " />
<glyph unicode="&#xfe;" horiz-adv-x="948" d="M-195 -502l11 51q92 12 121 35q32 28 51 113l323 1511q2 9 5.5 25.5t5.5 26.5t4.5 25t3.5 25t1.5 20.5t-1.5 18.5t-6 13q-14 19 -40 25t-96 6l11 45q194 38 327 94l13 -10q-44 -166 -93 -375l-131 -553q74 141 204 245.5t218 104.5q84 0 124 -55.5t40 -171.5 q0 -104 -38.5 -217t-84 -188t-92.5 -128q-36 -40 -69 -70t-77 -60.5t-95.5 -47t-106.5 -16.5q-29 0 -52 7.5t-36 17.5t-22 20.5t-12 18.5l-3 7l-70 -337q-16 -80 -13 -98q2 -9 7 -19q13 -21 52.5 -31t127.5 -10l-10 -51q-262 0 -502 -17zM240 195q0 -72 33.5 -104t88.5 -32 q57 0 121 42t121 135q57 92 90 211.5t33 197.5q0 40 -3 67t-12.5 53.5t-29.5 40t-51 13.5q-62 0 -143 -77.5t-140 -178.5q-52 -89 -80 -188.5t-28 -179.5z" />
<glyph unicode="&#xff;" horiz-adv-x="860" d="M-133 -399q0 43 33 77.5t90 34.5q0 -16 1 -25t6.5 -21.5t18.5 -18.5t35 -6q80 0 154 102q65 89 82 195q3 17 4 45.5t0 68.5t-2 69.5t-3 78t-3 65.5q-2 28 -10 189.5t-11 199.5q0 5 -1 14q-3 33 -5.5 50t-7.5 40.5t-15 34.5t-24 11q-53 0 -143 -129l-35 24 q54 112 124.5 178t135.5 66q25 0 45 -9.5t33.5 -23.5t23 -38t14.5 -44t8.5 -52t4.5 -52t2 -53.5t2 -46.5q5 -90 7 -280t-1 -284q154 277 199 379q68 148 78 267q3 34 -1.5 86t1.5 77q7 44 33.5 68.5t58.5 24.5q34 0 58 -26t24 -77q0 -34 -15 -83t-29.5 -83t-48.5 -110 q-34 -75 -118.5 -226t-147.5 -256q-141 -235 -209 -327q-37 -49 -66.5 -85t-78 -86.5t-97 -78t-91.5 -27.5q-57 0 -85 30t-28 73zM287 1219q0 49 36 83.5t87 34.5q41 0 66.5 -27.5t25.5 -70.5q0 -49 -36 -84t-87 -35q-41 0 -66.5 28t-25.5 71zM645 1219q0 49 36 83.5 t87 34.5q41 0 66.5 -27.5t25.5 -70.5q0 -49 -36 -84t-87 -35q-41 0 -66.5 28t-25.5 71z" />
<glyph unicode="&#x152;" horiz-adv-x="1832" d="M72 557q0 153 55 299.5t148.5 259.5t228.5 182.5t284 69.5q68 0 128 -9t86 -19l26 -9q68 -4 119 -4q103 0 329 3t326 3l-45 -295l-41 -10q-4 20 -10.5 52t-9.5 46t-9 36t-11.5 31t-15 23t-20.5 18.5t-28 11t-37.5 8t-48.5 1.5h-236q-46 0 -59 -11.5t-21 -55.5l-86 -467 l197 10q81 4 117 17.5t55 44.5t41 108h49q-38 -157 -49 -225q-19 -122 -33 -232h-49v13q0 34 -0.5 51t-2.5 40t-5.5 33t-10.5 23t-17 18t-26 11t-35.5 8t-47.5 4l-195 10l-61 -348q-2 -13 -7 -40.5l-8 -44t-6.5 -42.5t-3 -35t1.5 -22q7 -20 23.5 -30.5t58.5 -10.5h221 q54 0 99.5 13.5t79 35.5t65.5 59.5t55.5 75t52.5 92.5l48 -20l-127 -346q-457 18 -686 18l-134 -4q-92 -37 -221 -37q-124 0 -220 47t-154 129t-87.5 186t-29.5 226zM270 528q0 -235 79.5 -359t228.5 -124q94 0 156 22.5t85 45.5q32 32 55 163l144 799q7 37 10 56t-0.5 49 t-17.5 49q-23 31 -86 49t-150 18q-176 0 -303 -143q-47 -53 -89.5 -133t-77 -213.5t-34.5 -278.5z" />
<glyph unicode="&#x153;" horiz-adv-x="1327" d="M51 297q0 114 41.5 228t102.5 200q62 87 161.5 153t206.5 66q44 0 79.5 -14t57.5 -35t38 -50t23.5 -54.5t10.5 -53.5q82 104 177 155.5t188 51.5q84 0 129 -38t45 -107q0 -152 -236 -277q-126 -67 -305 -102q-8 -41 -8 -113q0 -31 7 -62.5t23 -64.5t49.5 -53.5 t80.5 -20.5q37 0 75.5 15t66 33t59.5 48.5t45 45t34 39.5l37 -31l-174 -195q-3 -3 -9.5 -9t-29 -21t-48 -26t-66 -20.5t-83.5 -9.5q-54 0 -94.5 18t-62.5 47t-32 50t-15 43q-17 -20 -42.5 -42.5t-65.5 -51t-93 -46.5t-107 -18q-70 0 -123 27t-83.5 73t-45 102t-14.5 120z M219 297q0 -52 4.5 -91.5t17 -77.5t38 -58.5t63.5 -20.5q116 0 205 164q45 82 73.5 203.5t28.5 218.5q0 53 -4.5 91.5t-16 76.5t-37 58t-63.5 20q-115 0 -204 -164q-46 -83 -75.5 -204t-29.5 -216zM776 471q123 23 217 82q139 87 154 195q18 133 -72 133q-50 0 -101.5 -41 t-92.5 -103q-75 -114 -105 -266z" />
<glyph unicode="&#x178;" horiz-adv-x="1105" d="M72 1284l10 51q44 0 115.5 -4t115.5 -4t128.5 4t127.5 4l-10 -51q-115 -10 -139 -47q-5 -7 -6 -19.5t0 -24t5 -28t7 -26.5t8 -26t6 -19l138 -441l313 430q80 112 72 144q-11 46 -119 57l10 51q40 0 108 -4t103 -4t98 4t103 4l-13 -51q-81 -13 -123 -43q-38 -28 -118 -131 l-402 -528l-59 -328q-7 -40 -9.5 -62t-1 -50t10.5 -42q16 -25 46.5 -36.5t96.5 -14.5l-10 -51q-46 0 -128 5t-128 5t-128 -5t-128 -5l10 51q60 4 93 15.5t57 35.5q15 15 25.5 43.5t15.5 53t14 77.5l53 291l-176 529q-40 114 -76 143q-54 40 -116 47zM444 1618q0 49 36 84 t87 35q41 0 66.5 -28t25.5 -71q0 -49 -35.5 -83.5t-86.5 -34.5q-41 0 -67 27.5t-26 70.5zM803 1618q0 49 36 84t87 35q41 0 66.5 -28t25.5 -71q0 -49 -36 -83.5t-87 -34.5q-41 0 -66.5 27.5t-25.5 70.5z" />
<glyph unicode="&#x2c6;" horiz-adv-x="552" d="M137 1065l246 270q5 5 23 25.5t26 28t25 16t35 8.5q60 0 81 -76l82 -276l-24 -17l-160 242l-311 -242z" />
<glyph unicode="&#x2dc;" horiz-adv-x="874" d="M102 1147q3 4 34 38.5t48 51t47 42.5t57.5 38t53.5 12q46 0 128 -44t128 -44q28 0 58.5 17.5t46 32t45.5 46.5l24 -26q-4 -5 -34 -38.5t-47.5 -51t-47 -43.5t-57.5 -38t-54 -12q-46 0 -128 44.5t-128 44.5q-27 0 -55.5 -16t-42.5 -29.5t-43 -43.5l-8 -8z" />
<glyph unicode="&#x2000;" horiz-adv-x="907" />
<glyph unicode="&#x2001;" horiz-adv-x="1815" />
<glyph unicode="&#x2002;" horiz-adv-x="907" />
<glyph unicode="&#x2003;" horiz-adv-x="1815" />
<glyph unicode="&#x2004;" horiz-adv-x="605" />
<glyph unicode="&#x2005;" horiz-adv-x="453" />
<glyph unicode="&#x2006;" horiz-adv-x="302" />
<glyph unicode="&#x2007;" horiz-adv-x="302" />
<glyph unicode="&#x2008;" horiz-adv-x="226" />
<glyph unicode="&#x2009;" horiz-adv-x="363" />
<glyph unicode="&#x200a;" horiz-adv-x="100" />
<glyph unicode="&#x2010;" horiz-adv-x="552" d="M51 399l41 133l410 52l-41 -133z" />
<glyph unicode="&#x2011;" horiz-adv-x="552" d="M51 399l41 133l410 52l-41 -133z" />
<glyph unicode="&#x2012;" horiz-adv-x="552" d="M51 399l41 133l410 52l-41 -133z" />
<glyph unicode="&#x2013;" horiz-adv-x="1003" d="M82 438v107h840v-107h-840z" />
<glyph unicode="&#x2014;" horiz-adv-x="1341" d="M41 440v103h1259v-103h-1259z" />
<glyph unicode="&#x2018;" horiz-adv-x="430" d="M154 1106q0 66 28 126.5t73.5 104t96.5 75t103 48.5l22 -47q-106 -45 -151 -100.5t-45 -108.5q0 -78 51 -78q12 0 22 4t14 8l5 5q53 -23 53 -88q0 -44 -34 -81.5t-95 -37.5q-66 0 -104.5 46.5t-38.5 123.5z" />
<glyph unicode="&#x2019;" horiz-adv-x="430" d="M154 967q194 86 194 211q0 77 -51 77q-11 0 -21.5 -4t-15.5 -8l-4 -4q-51 25 -51 86q0 44 34 81.5t93 37.5q66 0 105.5 -46t39.5 -122q0 -66 -28 -126.5t-74 -104.5t-97.5 -75.5t-103.5 -47.5z" />
<glyph unicode="&#x201a;" horiz-adv-x="430" d="M-20 -272q194 86 194 211q0 77 -51 77q-11 0 -21.5 -4t-15.5 -8l-4 -4q-51 26 -51 86q0 44 34 81.5t93 37.5q66 0 105.5 -46t39.5 -122q0 -66 -28 -126.5t-74 -104.5t-97.5 -75.5t-103.5 -47.5z" />
<glyph unicode="&#x201c;" horiz-adv-x="774" d="M143 1106q0 66 28 126.5t73.5 104t96.5 75t103 48.5l23 -47q-201 -87 -201 -209q0 -78 51 -78q11 0 21.5 4t15.5 8l4 5q52 -26 52 -88q0 -43 -35.5 -81t-91.5 -38q-63 0 -101.5 47t-38.5 123zM492 1106q0 66 28 126.5t73.5 104t96.5 75t103 48.5l22 -47 q-201 -87 -201 -209q0 -78 52 -78q11 0 21.5 4t14.5 8l5 5q20 -10 35.5 -32t15.5 -56q0 -43 -35.5 -81t-91.5 -38q-63 0 -101 46.5t-38 123.5z" />
<glyph unicode="&#x201d;" horiz-adv-x="774" d="M143 967q201 88 201 211q0 77 -51 77q-12 0 -22 -4t-15 -8l-4 -4q-53 23 -53 86q0 43 36 81t93 38q62 0 100.5 -46t38.5 -122q0 -66 -28 -126.5t-74 -104.5t-97.5 -75.5t-103.5 -47.5zM492 967q200 88 200 211q0 77 -51 77q-12 0 -22 -4t-15 -8l-4 -4q-53 23 -53 86 q0 43 36 81t93 38q62 0 100.5 -46t38.5 -122q0 -66 -28 -126.5t-74 -104.5t-97.5 -75.5t-103.5 -47.5z" />
<glyph unicode="&#x201e;" horiz-adv-x="774" d="M-31 -272q201 88 201 211q0 77 -51 77q-12 0 -22 -4t-15 -8l-4 -4q-53 23 -53 86q0 43 36 81t93 38q62 0 100.5 -46t38.5 -122q0 -66 -28 -126.5t-74 -104.5t-97.5 -75.5t-103.5 -47.5zM317 -272q201 88 201 211q0 77 -51 77q-12 0 -22.5 -4t-14.5 -8l-4 -4 q-53 23 -53 86q0 43 36 81t93 38q62 0 100.5 -46t38.5 -122q0 -66 -28 -126.5t-74 -104.5t-97.5 -75.5t-103.5 -47.5z" />
<glyph unicode="&#x2022;" horiz-adv-x="624" d="M61 670q0 107 66 174t170 67q103 0 169 -66t66 -173t-65.5 -174.5t-169.5 -67.5q-103 0 -169.5 66.5t-66.5 173.5z" />
<glyph unicode="&#x2026;" horiz-adv-x="1536" d="M45 86q0 54 37.5 91.5t91.5 37.5q45 0 73.5 -30t28.5 -76q0 -54 -36 -91.5t-90 -37.5q-46 0 -75.5 30t-29.5 76zM598 86q0 54 37.5 91.5t91.5 37.5q45 0 73.5 -30t28.5 -76q0 -54 -36.5 -91.5t-90.5 -37.5q-46 0 -75 30t-29 76zM1151 86q0 54 37.5 91.5t91.5 37.5 q45 0 73.5 -30t28.5 -76q0 -54 -36.5 -91.5t-90.5 -37.5q-46 0 -75 30t-29 76z" />
<glyph unicode="&#x202f;" horiz-adv-x="363" />
<glyph unicode="&#x2039;" horiz-adv-x="532" d="M31 469q237 208 375 371l47 -27q-27 -43 -64 -94t-57 -78t-72.5 -95t-62.5 -81q101 -207 151 -346l-49 -23q-84 149 -268 373z" />
<glyph unicode="&#x203a;" horiz-adv-x="532" d="M31 123q27 42 62 91t61 83t69 89t64 83q-123 266 -152 346l51 25q86 -154 267 -375q-232 -204 -375 -369z" />
<glyph unicode="&#x205f;" horiz-adv-x="453" />
<glyph unicode="&#x20ac;" d="M10 508l13 72h104q8 49 14 86l17 77h-103l13 72h108q66 237 210.5 381.5t334.5 144.5q56 0 105.5 -10.5t79.5 -25.5t52.5 -30t31.5 -25l9 -11l-61 -250l-53 -6q5 163 -30.5 232t-143.5 69q-116 0 -211.5 -116.5t-151.5 -352.5h389l-12 -72h-391q-9 -38 -15 -77l-14 -86 h385l-12 -72h-381q-25 -230 29 -348.5t166 -118.5q102 0 191.5 90t139.5 217l47 -14l-82 -252q-5 -4 -13.5 -11.5t-39.5 -26.5t-66 -33t-91.5 -26t-116.5 -12q-166 0 -259.5 140t-78.5 395h-113z" />
<glyph unicode="&#x2122;" horiz-adv-x="1699" d="M176 1147l41 225h21q0 -39 51 -39h409q45 0 59.5 7.5t22.5 31.5h21l-10 -231h-31q0 93 -41 119q-37 24 -170 24v-500q0 -67 22.5 -87.5t92.5 -26.5v-39q-28 0 -85 4t-85 4t-85 -4t-85 -4v39q70 6 92 26.5t22 87.5v500q-139 0 -170 -24q-28 -22 -61 -123zM819 631v39 q56 5 79.5 25t27.5 73l37 481q-43 43 -99 43v39q20 0 57.5 -3t55.5 -3q57 0 113 6q0 -33 36 -123l158 -411l164 422q31 80 31 112q58 -6 112 -6q19 0 57 3t58 3v-37q-53 -5 -75 -20.5t-21 -65.5l14 -440q1 -57 23.5 -74t83.5 -24v-39q-25 0 -76 4t-76 4t-77 -4t-77 -4v39 q27 4 41.5 7.5t29 13.5t20 28.5t4.5 48.5l-13 440h-4l-119 -297q-19 -48 -57 -155t-45 -135h-41q-33 101 -111 302t-104 275h-4l-27 -430q-3 -57 19.5 -74t83.5 -24v-39q-26 0 -71.5 4t-68.5 4t-68 -4t-71 -4z" />
<glyph unicode="&#xe000;" horiz-adv-x="952" d="M0 0v952h952v-952h-952z" />
</font>
</defs>
</svg>
